<svg width="902" height="902" viewBox="0 0 902 902" fill="none" xmlns="http://www.w3.org/2000/svg">
<circle cx="451" cy="451" r="318.905" transform="rotate(135 451 451)" fill="url(#paint0_radial)"/>
<g filter="url(#filter0_d)">
<path fill-rule="evenodd" clip-rule="evenodd" d="M379.5 264L227 322.534V387.558V393.724V505.546C227 568.579 294.715 614.218 360.952 658.861C367.167 663.05 373.368 667.229 379.5 671.414C385.632 667.229 391.833 663.05 398.048 658.861C464.285 614.218 532 568.579 532 505.546V393.724V387.558V322.534L379.5 264Z" fill="#F4F8FB"/>
</g>
<path d="M532 475.521V505.03C532 573.977 450.982 622.113 379.5 670.898C308.018 622.113 227 573.977 227 505.03V475.521H532Z" fill="#3341C0"/>
<rect x="503" y="456" width="29" height="6" fill="#3341C0"/>
<rect x="503" y="437" width="29" height="6" fill="#3341C0"/>
<rect x="503" y="418" width="29" height="6" fill="#3341C0"/>
<rect x="494" y="399" width="38" height="6" fill="#3341C0"/>
<rect x="503" y="380" width="29" height="6" fill="#3341C0"/>
<rect x="503" y="360" width="29" height="7" fill="#3341C0"/>
<rect x="503" y="341" width="29" height="6" fill="#3341C0"/>
<path d="M276.777 684.073C276.777 684.073 282.145 689.44 276.777 689.44C271.41 689.44 266.276 685.94 266.276 685.94L276.777 684.073Z" fill="#2F2E41"/>
<path d="M221.483 453.455C223.306 451.807 224.443 449.534 224.668 447.088C224.894 444.641 224.191 442.199 222.7 440.246C222.898 440.431 223.091 440.623 223.275 440.827C225.019 442.755 225.925 445.296 225.794 447.891C225.663 450.486 224.507 452.923 222.578 454.666C220.65 456.409 218.108 457.315 215.512 457.184C212.916 457.053 210.478 455.897 208.734 453.97C208.55 453.765 208.378 453.554 208.213 453.339C210.008 455.018 212.368 455.962 214.826 455.984C217.283 456.005 219.659 455.102 221.483 453.455Z" fill="#2F2E41"/>
<path d="M222.401 455.803C211.252 455.803 202.214 446.769 202.214 435.624C202.214 424.48 211.252 415.445 222.401 415.445C233.55 415.445 242.588 424.48 242.588 435.624C242.588 446.769 233.55 455.803 222.401 455.803Z" fill="#2F2E41"/>
<path d="M198.704 680.71C198.704 680.71 200.19 688.152 195.725 685.174C191.26 682.196 188.932 676.436 188.932 676.436L198.704 680.71Z" fill="#2F2E41"/>
<path d="M256.707 506.543L260.208 514.708L281.679 543.169C281.679 543.169 296.381 559.032 288.213 559.965C280.045 560.899 274.677 545.268 274.677 545.268L249.473 520.307L246.672 508.876L256.707 506.543Z" fill="#EAB09F"/>
<path d="M245.972 473.417L249.355 474.363C249.355 474.363 262.542 497.678 261.142 502.577C259.741 507.476 253.44 513.542 250.64 513.075C247.839 512.608 245.972 473.417 245.972 473.417Z" fill="#191847"/>
<path d="M235.237 448.222C235.237 448.222 231.737 462.685 234.304 465.485C236.871 468.284 242.472 470.384 242.472 470.384L241.539 496.512C241.539 496.512 230.803 492.779 230.337 492.313C229.87 491.846 220.301 476.682 220.301 476.682L210.966 467.818C210.966 467.818 225.202 461.052 221.002 449.388C216.801 437.724 235.237 448.222 235.237 448.222Z" fill="#EAB09F"/>
<path d="M226.602 453.587C219.9 453.587 214.467 448.156 214.467 441.456C214.467 434.757 219.9 429.326 226.602 429.326C233.305 429.326 238.738 434.757 238.738 441.456C238.738 448.156 233.305 453.587 226.602 453.587Z" fill="#EAB09F"/>
<path d="M240.371 469.217C240.371 469.217 249.006 471.55 249.473 474.816C249.94 478.082 249.473 484.847 250.173 486.247C250.873 487.647 252.974 489.746 252.04 498.611C251.107 507.476 251.573 512.842 251.573 512.842C251.573 512.842 298.949 679.874 282.146 684.773C265.343 689.672 240.605 684.306 240.838 681.04C241.072 677.774 245.272 613.154 245.272 613.154C245.272 613.154 220.768 699.003 190.429 678.941C160.09 658.878 166.858 655.146 169.659 653.746C172.459 652.346 214.7 585.86 214.467 573.496C214.233 561.132 214.933 522.406 220.068 516.574C220.068 516.574 214.7 498.845 212.133 496.512C209.566 494.179 203.265 472.25 203.265 472.25C203.265 472.25 207.232 466.885 210.499 466.885C213.767 466.885 216.8 468.051 220.534 471.55C224.268 475.05 238.038 492.079 238.038 492.079C238.038 492.079 242.472 472.483 240.371 469.217Z" fill="#191847"/>
<path d="M226.719 437.607C221.047 437.607 216.45 434.474 216.45 430.609C216.45 426.743 221.047 423.61 226.719 423.61C232.39 423.61 236.987 426.743 236.987 430.609C236.987 434.474 232.39 437.607 226.719 437.607Z" fill="#2F2E41"/>
<path d="M209.216 430.142C203.802 430.142 199.414 425.755 199.414 420.344C199.414 414.933 203.802 410.546 209.216 410.546C214.629 410.546 219.018 414.933 219.018 420.344C219.018 425.755 214.629 430.142 209.216 430.142Z" fill="#2F2E41"/>
<path d="M202.215 427.343C204.672 427.342 207.04 426.419 208.849 424.755C210.658 423.092 211.775 420.809 211.98 418.361C212.002 418.631 212.016 418.902 212.016 419.178C212.016 421.776 210.984 424.268 209.146 426.106C207.307 427.943 204.814 428.976 202.215 428.976C199.615 428.976 197.122 427.943 195.284 426.106C193.446 424.268 192.413 421.776 192.413 419.178C192.413 418.902 192.427 418.631 192.449 418.361C192.654 420.809 193.771 423.092 195.58 424.755C197.389 426.419 199.757 427.342 202.215 427.343Z" fill="#2F2E41"/>
<path d="M180.004 606.431C180.424 606.43 180.842 606.49 181.245 606.609L181.162 606.887C180.61 606.723 180.029 606.676 179.458 606.75C178.887 606.824 178.338 607.017 177.846 607.317C177.354 607.616 176.93 608.015 176.602 608.489C176.274 608.962 176.049 609.499 175.941 610.065L175.656 610.011C175.847 608.999 176.386 608.087 177.181 607.433C177.976 606.778 178.975 606.424 180.004 606.431Z" fill="#3F3D56"/>
<path d="M202.565 504.443L203.732 517.507L201.398 556.699C201.398 556.699 196.03 576.529 204.198 576.062C212.367 575.596 209.333 555.3 209.333 555.3L213.067 509.809L202.565 504.443Z" fill="#EAB09F"/>
<path d="M209.333 468.984L203.265 472.25C203.265 472.25 195.097 500.711 199.764 506.076C204.432 511.442 214 513.542 214.467 511.442C214.934 509.342 216.567 493.712 216.567 493.712L209.333 468.984Z" fill="#191847"/>
<defs>
<filter id="filter0_d" x="192" y="229" width="405" height="507.414" filterUnits="userSpaceOnUse" color-interpolation-filters="sRGB">
<feFlood flood-opacity="0" result="BackgroundImageFix"/>
<feColorMatrix in="SourceAlpha" type="matrix" values="0 0 0 0 0 0 0 0 0 0 0 0 0 0 0 0 0 0 127 0"/>
<feOffset dx="15" dy="15"/>
<feGaussianBlur stdDeviation="25"/>
<feColorMatrix type="matrix" values="0 0 0 0 0 0 0 0 0 0 0 0 0 0 0 0 0 0 0.25 0"/>
<feBlend mode="normal" in2="BackgroundImageFix" result="effect1_dropShadow"/>
<feBlend mode="normal" in="SourceGraphic" in2="effect1_dropShadow" result="shape"/>
</filter>
<radialGradient id="paint0_radial" cx="0" cy="0" r="1" gradientUnits="userSpaceOnUse" gradientTransform="translate(450.979 450.778) rotate(100.601) scale(284.295 284.789)">
<stop stop-color="#3341C0"/>
<stop offset="0.854167" stop-color="#E7F9FA" stop-opacity="0.45"/>
<stop offset="1" stop-color="#E7F9FA" stop-opacity="0"/>
</radialGradient>
</defs>
</svg>
