<svg width="835" height="711" viewBox="0 0 835 711" fill="none" xmlns="http://www.w3.org/2000/svg">
<path d="M64.0001 523C-23.3716 381.198 -22.804 337.976 82.6671 209.067C244.667 11.0669 475.5 -1.00006 517.5 0.999942C559.5 2.99994 615.327 -2.13844 676.5 61.5C858.497 250.832 905.214 380.736 701.167 546.067C499.745 709.271 199.991 743.71 64.0001 523Z" fill="#3341C0"/>
<path d="M635.3 630.95L632.3 635.35L613.75 662.95L598 667.7L586.25 656.2L586.82 648.61L589.75 609.2C589.75 609.2 517.05 566.43 510.55 558.43C504.05 550.43 479.05 543.18 479.05 543.18C479.05 543.18 440.8 525.43 426.55 494.43C412.3 463.43 450.3 458.68 450.3 458.68L593.05 595.2L635.3 630.95Z" fill="#FFC1C7"/>
<path d="M652.8 646.95L607.55 689.2C607.55 689.2 581.55 694.2 558.3 690.7C543.44 688.46 546.3 680.31 550.21 674.7L550.28 674.6C552.622 671.391 556.046 669.139 559.92 668.26C579.16 663.62 585.8 649.69 585.8 649.69L599.8 661.69L624.05 633.43L641.98 641.85L652.8 646.95Z" fill="#575988"/>
<path opacity="0.1" d="M641.98 641.87L631.33 636.87L632.33 635.35L635.33 630.95L593.05 595.2L450.3 458.7C450.3 458.7 412.3 463.43 426.55 494.43C440.8 525.43 479.05 543.18 479.05 543.18C479.05 543.18 504.05 550.43 510.55 558.43C517.05 566.43 589.8 609.18 589.8 609.18L586.87 648.59L586.73 650.47L585.8 649.68C585.8 649.68 579.16 663.61 559.92 668.25C556.046 669.129 552.622 671.381 550.28 674.59L550.21 674.69C546.21 680.29 543.44 688.44 558.3 690.69C581.55 694.19 607.55 689.19 607.55 689.19L652.8 646.94L641.98 641.87Z" fill="black"/>
<g opacity="0.1">
<path opacity="0.1" d="M619.41 285.43C619.41 285.43 622.97 210.51 664.1 168.72C681.464 151.306 692.71 128.73 696.15 104.38C697.683 92.7973 698.152 81.0984 697.55 69.4301" stroke="#535461" stroke-width="2" stroke-miterlimit="10"/>
<path opacity="0.1" d="M723.34 42.93C720.45 51.27 696.99 70.19 696.99 70.19C696.99 70.19 690.29 40.8 693.17 32.47C694.749 28.7265 697.692 25.7236 701.404 24.0706C705.115 22.4176 709.316 22.2383 713.155 23.5692C716.993 24.9 720.182 27.6413 722.073 31.2368C723.965 34.8323 724.418 39.0128 723.34 42.93Z" fill="#6C63FF"/>
<path opacity="0.1" d="M732.27 97.7301C725.27 103.15 695.33 106.29 695.33 106.29C695.33 106.29 705.68 77.9701 712.63 72.5501C715.99 70.2612 720.095 69.3371 724.111 69.9654C728.128 70.5936 731.755 72.7272 734.255 75.9327C736.755 79.1382 737.941 83.1753 737.573 87.2238C737.204 91.2724 735.308 95.0288 732.27 97.7301V97.7301Z" fill="#6C63FF"/>
<path opacity="0.1" d="M703.83 176.21C695.09 177.38 667.62 164.95 667.62 164.95C667.62 164.95 690.85 145.73 699.62 144.56C703.675 144.283 707.683 145.558 710.831 148.128C713.979 150.699 716.031 154.37 716.571 158.398C717.11 162.426 716.097 166.509 713.736 169.817C711.376 173.125 707.845 175.411 703.86 176.21H703.83Z" fill="#6C63FF"/>
<path opacity="0.1" d="M668.93 230.74C660.52 233.38 631.35 225.74 631.35 225.74C631.35 225.74 650.99 202.88 659.41 200.25C661.455 199.451 663.641 199.082 665.835 199.165C668.028 199.247 670.181 199.78 672.159 200.731C674.138 201.681 675.899 203.028 677.335 204.689C678.771 206.349 679.849 208.287 680.504 210.382C681.158 212.477 681.375 214.684 681.14 216.866C680.905 219.048 680.223 221.159 679.138 223.067C678.052 224.974 676.586 226.638 674.83 227.955C673.074 229.271 671.066 230.213 668.93 230.72V230.74Z" fill="#6C63FF"/>
<path opacity="0.1" d="M663.1 96.91C667.1 104.79 692.82 120.46 692.82 120.46C692.82 120.46 695.59 90.46 691.63 82.57C689.572 79.0683 686.259 76.4804 682.363 75.3312C678.467 74.182 674.28 74.5576 670.651 76.3817C667.022 78.2059 664.222 81.342 662.82 85.1542C661.418 88.9663 661.518 93.169 663.1 96.91V96.91Z" fill="#6C63FF"/>
<path opacity="0.1" d="M623.1 161.21C629.24 167.54 658.5 174.79 658.5 174.79C658.5 174.79 652.17 145.31 646.03 138.98C643.02 136.242 639.079 134.754 635.01 134.819C630.941 134.884 627.05 136.496 624.128 139.329C621.206 142.162 619.473 146.001 619.283 150.066C619.092 154.131 620.457 158.116 623.1 161.21V161.21Z" fill="#6C63FF"/>
<path opacity="0.1" d="M592.8 229.03C597.8 236.31 625.4 248.4 625.4 248.4C625.4 248.4 624.13 218.28 619.16 211C616.647 207.828 613.025 205.727 609.024 205.119C605.022 204.511 600.94 205.442 597.597 207.724C594.255 210.006 591.902 213.47 591.012 217.418C590.122 221.366 590.761 225.504 592.8 229V229.03Z" fill="#6C63FF"/>
</g>
<path opacity="0.1" d="M235.43 69.77C235.43 69.77 227.29 92.22 244.1 94.27C244.873 94.6484 245.746 94.7729 246.593 94.6257C247.441 94.4784 248.221 94.0669 248.82 93.45C248.82 93.45 247.64 93.06 248.73 90.88C249.102 90.0994 249.377 89.2768 249.55 88.43C249.806 87.2854 249.684 86.0886 249.2 85.02V85.02C249.2 85.02 248.45 77.81 238.69 72.21C238.69 72.21 236.94 69.68 236.33 69.58L236.84 73.92C236.84 73.92 240.01 73.43 242.02 75.15C242.02 75.15 237.02 73.8 236.88 74.57C236.88 74.73 237.25 76.86 237.25 76.86C237.25 76.86 242.77 76.03 245.79 78.78C245.79 78.78 240.01 76.37 237.4 77.67L238.18 80.86C238.18 80.86 243.97 79.69 247.52 82.7C247.52 82.7 241.39 80.38 238.39 81.54L239.58 84.54C239.58 84.54 245.25 83.54 248.19 86.03C248.19 86.03 240.84 84.03 239.9 85.22C240.413 86.3863 241.068 87.4846 241.85 88.49C241.85 88.49 245.93 87.85 247.51 89.49C247.51 89.49 242.46 88.7 242.28 89.23C242.28 89.23 244.86 92.33 247 93.23C244.994 92.523 243.208 91.3024 241.82 89.69C241.699 90.9809 241.952 92.2795 242.55 93.43C242.55 93.43 240.38 92.43 241.21 88.89C241.21 88.89 239.29 86.39 239.28 85.89C239.28 85.89 237.97 89.27 238.28 91.64C238.28 91.64 236.68 89.16 238.94 85.1L237.68 82.1C237.68 82.1 235.68 86.47 235.82 88.6C235.82 88.6 234.58 85.82 237.42 81.31L236.62 78.2C235.576 80.0901 234.78 82.1066 234.25 84.2C234.25 84.2 233.66 81.36 236.43 77.26L236.14 75.11C236.14 75.11 234.74 77.79 234.4 78.6C234.06 79.41 233.82 79.38 233.82 79.38C234.057 77.4888 234.811 75.6997 236 74.21C236 74.21 235.71 69.78 235.43 69.77Z" fill="#6C63FF"/>
<path d="M682.49 304.76C684.671 307.281 687.078 309.597 689.68 311.68L709.16 328.28C712.63 331.23 716.16 334.28 720.56 335.67C723.164 336.488 725.921 336.698 728.618 336.284C731.316 335.87 733.882 334.842 736.12 333.28L735.79 333.17L736.12 332.95C732.83 331.89 729.46 330.79 726.75 328.66C725.634 327.824 724.695 326.775 723.988 325.573C723.281 324.372 722.819 323.041 722.63 321.66V321.66C722.63 321.52 722.63 321.39 722.63 321.25C722.638 320.871 722.674 320.493 722.74 320.12C726.938 319.762 730.975 318.341 734.47 315.99L734.13 315.87L734.47 315.66C724.09 312.33 716.9 302.59 713.64 292.28C710.38 281.97 710.37 270.99 710.02 260.2C709.67 249.41 708.87 238.32 704.21 228.56C702.46 224.9 700.21 221.42 699.36 217.46C699.127 216.285 699.016 215.088 699.03 213.89C699.1 210.04 700.22 206.17 701.25 202.41C703.54 194.013 705.369 185.497 706.73 176.9C707.266 173.844 707.564 170.752 707.62 167.65C707.714 164.623 707.229 161.605 706.19 158.76C701.61 146.86 685.69 141.25 683.26 128.76C682.975 127.079 682.855 125.374 682.9 123.67C682.9 122.73 682.9 121.8 682.9 120.87C682.9 119.94 682.9 118.87 682.82 117.95C682.13 109.16 676.69 101.53 671.44 94.4C665.12 85.82 658.44 76.8999 648.73 72.3299C641.19 68.7599 631.11 67.5799 622.12 68.3799C618.086 64.8994 613.663 61.8961 608.94 59.4299C602.07 55.6099 594.94 51.85 587.33 51.01C577.68 49.95 568.14 53.6499 558.46 54.2699C545.3 55.1199 532.38 50.2699 519.22 49.2699C506.06 48.2699 490.91 52.7 485.03 65.95C483.652 69.1672 482.814 72.5898 482.55 76.0799V76.0799C482.49 76.7499 482.45 77.4099 482.42 78.0799V78.15C482.322 80.8554 482.399 83.5644 482.65 86.26V86.57C482.65 87.11 482.75 87.6499 482.81 88.1899C482.81 88.3499 482.81 88.4999 482.86 88.6599C482.86 89.1599 482.97 89.6599 483.03 90.1599L483.09 90.6299C483.17 91.2599 483.26 91.8899 483.34 92.5199C483.492 93.8172 483.77 95.0966 484.17 96.34C484.416 97.0585 484.773 97.7335 485.23 98.34C486.66 100.16 488.81 100.7 491.03 101.04L492.78 101.29C492.6 101.65 492.41 102.01 492.24 102.38C488.272 110.745 486.222 119.891 486.24 129.15C486.24 160.61 509.53 186.69 539.96 191.43L541.79 193.71C553.01 207.77 567.09 226.54 573.79 240.05C566.05 249.66 556.99 266.7 554.41 295.28L550.58 304.22C542.55 315.77 540.48 332.43 542.55 347.93C540.29 356.31 537.71 366.84 535.92 375.55C522.61 372.6 477.18 365.3 466.44 358.21L434.94 343.37C434.94 343.37 393.94 314.73 371.88 324.29C363.45 313.93 350.73 303.08 345.25 298.98C335.85 291.93 312.47 264.39 312.47 264.39L275.84 215.77C275.74 210.14 275.14 205.33 273.6 203.26C269.28 197.48 246.41 184.65 241.84 187.42C237.27 190.19 233.45 181.42 233.45 181.42L233.1 181.23C232.24 180.73 229.8 179.35 226.41 177.53C226.232 173.471 226.332 169.405 226.71 165.36C226.78 164.68 226.87 164 226.97 163.36C239.112 162.922 250.779 158.529 260.194 150.85C269.61 143.171 276.259 132.626 279.13 120.82C279.29 120.19 279.4 119.54 279.53 118.9C281.17 119.281 282.879 119.234 284.495 118.765C286.111 118.296 287.58 117.419 288.76 116.22C291.96 112.78 292.1 107.49 291.08 102.93C290.06 98.37 288.08 94 287.58 89.34C286.95 82.99 289.19 76.34 287.13 70.34C285.4 65.22 280.84 61.4999 275.98 59.0699C271.12 56.6399 265.8 55.22 260.83 53.01C256.09 50.91 251.68 48.0899 246.76 46.4299C240.38 44.2799 233.52 44.1999 226.76 44.3599C222.52 42.6499 218.2 41.02 213.66 40.51C208.66 39.94 203.16 40.9099 199.35 44.2399C196.35 46.8999 193.91 51.17 189.84 51.31C187.84 51.38 186.04 50.3899 184.26 49.5399C179.21 47.1199 172.82 45.7499 168.26 48.9599C164.6 51.5199 163.26 56.23 162.63 60.62C162 65.01 161.89 69.6199 159.77 73.5499C158.46 75.9699 156.47 77.94 154.82 80.14C150.644 85.7245 148.675 92.6537 149.29 99.5999V99.7999C149.05 98.7999 148.82 97.87 148.65 96.89C148.65 97.63 148.65 98.3599 148.75 99.0999C149.185 102.531 149.931 105.915 150.98 109.21L155.12 123.71C157.22 131.07 159.37 138.54 163.37 145.09C164.931 147.67 166.816 150.04 168.98 152.14C172.389 155.719 176.751 158.249 181.55 159.43C183.236 159.808 184.971 159.913 186.69 159.74C186.69 159.95 186.64 160.15 186.6 160.36C186.23 160.29 185.85 160.21 185.5 160.16C183.876 159.821 182.195 159.866 180.59 160.29C172.69 163.1 170.29 171.65 169.59 175.01C169.43 175.87 169.38 176.39 169.38 176.39C169.38 176.39 169.51 176.89 169.66 177.74L169.59 178.03C169.43 178.88 169.38 179.41 169.38 179.41C169.38 179.41 169.51 179.91 169.66 180.78L167.6 180.83L133.15 185.33C125.28 184.79 117.79 184.66 113.78 185.62C113.441 185.695 113.107 185.792 112.78 185.91C107.78 187.64 84.8703 203.45 64.3103 218C64.3103 217.6 64.3104 217.21 64.2504 216.83L58.4004 220.99C58.4004 221.38 58.4004 221.79 58.4004 222.2C56.9404 223.2 55.4903 224.26 54.0903 225.27C47.8003 229.77 42.0903 233.83 37.8403 236.94C32.6603 240.66 29.4503 243.01 29.4503 243.01C29.4503 243.01 27.5504 243.63 26.2904 246.56C24.6704 250.31 24.1104 257.85 29.9604 272.69C40.3804 299.1 42.6604 316.96 42.6604 316.96C39.8334 317.255 37.0587 317.928 34.4104 318.96C30.8004 320.4 27.0304 322.84 25.4604 326.96C24.4525 329.837 24.4279 332.967 25.3903 335.86C30.2103 352.96 110 450.06 110 450.06L111 450.15C115.092 450.51 119.208 450.51 123.3 450.15C127.03 449.76 130.52 448.87 132.12 446.99C132.12 446.99 149.81 469.7 175.79 454.23C175.61 474.83 175.09 489.94 178.36 497.55C183.45 509.37 183.45 536.28 183.45 536.28L188.29 536.45C188.03 537.45 187.74 538.45 187.43 539.45C185.2 546.82 181.91 555.73 178.43 557.86C172.57 561.46 175.35 623.34 175.59 628.68C175.59 628.89 175.59 629 175.59 629L175.25 654V656C174.524 655.024 173.872 653.994 173.3 652.92C173.3 652.92 163.88 661.92 163.71 680.92C163.54 699.92 163.88 700.56 163.88 700.56C163.88 700.56 201.88 699.09 209.01 701.71C216.14 704.33 275.77 699.43 275.77 699.43C275.77 699.43 277.98 693.69 271.62 689.28C281.76 688.55 292.82 686.61 299.3 681.91C313.55 671.62 270.55 663.6 267.55 661.97C264.55 660.34 249.69 647.23 243.55 642.32C241.695 640.965 239.501 640.148 237.21 639.96L237.98 617.55C247.13 607.24 257.04 550.39 257.04 550.39C260.28 547.69 261.69 541.12 262.27 537.11C263.454 536.717 264.489 535.971 265.235 534.971C265.981 533.971 266.401 532.767 266.44 531.52V531.52C276.91 531.87 290.08 531.79 292.61 529.28C296.93 525 296.42 510.41 296.42 510.41L290.32 355.97L289.92 355.38C290.929 348.31 290.949 341.135 289.98 334.06C303.68 337.97 314.34 340.63 314.34 340.63C314.34 340.63 334.96 344.43 349.43 347.63C347.062 350.145 345.273 353.149 344.19 356.43C331.19 393.43 404.92 391.9 404.92 391.9L439.73 408L521.67 434.78C495.34 427.01 465.26 417.87 444.79 411.6C442.775 410.983 440.724 410.486 438.65 410.11C419.87 406.71 400.36 413.55 388.4 428.64C388.26 428.83 388.13 429 387.98 429.18C385.116 432.906 383.521 437.451 383.427 442.149C383.334 446.848 384.747 451.453 387.46 455.29C390.59 459.72 394.78 465.61 399.69 472.46C389.3 475.6 372.11 484.35 382.56 506.85C397.04 538.04 435.91 555.85 435.91 555.85C435.91 555.85 461.32 563.15 467.91 571.2C469.76 573.46 476.91 578.47 486.26 584.51C492.26 590.86 496.96 595.01 499.75 595.93C510.89 599.6 532.58 617.21 547.84 630.42L545.55 661.98L545.4 663.88L544.46 663.08C544.46 663.08 537.71 677.08 518.15 681.77C514.227 682.652 510.752 684.917 508.36 688.15L508.29 688.24L507.71 689.08L507.27 688.75C503.27 694.38 501.41 702.58 516.51 704.84C540.14 708.36 566.51 703.33 566.51 703.33L590.07 681.55C592.688 683.753 595.762 685.348 599.07 686.22C616.68 690.22 666.14 709.36 666.14 709.36C666.14 703.99 709.85 634.91 709.85 634.91C768.85 523.23 704.69 439.77 697.6 431.08L696.97 430.32L696.42 421.04L696.3 418.91C696.3 418.91 728.14 404.83 715.94 398.13C703.74 391.43 696.94 359.22 685.45 345.81C676.45 335.35 676.97 311.07 676.02 290.38C677.052 295.489 679.268 300.284 682.49 304.38C682.56 304.47 682.64 304.54 682.71 304.63L681.86 303.89C682.07 304.21 682.27 304.49 682.49 304.76ZM290.16 296.18C294.26 300.59 301.42 306.23 306.16 309.81C300.48 307.04 296.06 304.7 292.65 302.81C291.85 300.59 291.01 298.37 290.16 296.18V296.18ZM168.87 191.53C167.891 194.466 166.106 197.068 163.72 199.04L161.72 190.41C164.34 190.83 166.78 191.22 168.87 191.53ZM568.55 428.64C569.34 426.94 570.16 425.27 570.99 423.64C574.497 422.499 577.589 420.349 579.88 417.46C581.623 423.509 582.913 429.679 583.74 435.92C583.74 436.21 583.74 436.37 583.74 436.37C583.697 438.886 583.317 441.385 582.61 443.8C581.69 446.72 580.01 449.47 576.96 449.8C575.69 449.93 569.44 448.42 560.09 445.87C557.38 445.13 554.4 444.3 551.22 443.4C556.21 443.07 563.15 440.26 568.55 428.64ZM646.8 217.64C644.93 214.64 641.03 212.72 636.26 211.59C635.39 211.01 634.04 210.09 632.32 208.84C623.92 202.69 607.15 188.84 599.46 171.15C601.604 170.552 603.697 169.787 605.72 168.86C608.862 167.42 611.828 165.625 614.56 163.51C615.48 162.79 616.38 162.04 617.24 161.26C619.444 159.272 621.453 157.079 623.24 154.71C623.95 153.71 624.64 152.76 625.24 151.71C626.221 150.171 627.109 148.575 627.9 146.93C629.721 143.091 631.126 139.068 632.09 134.93C632.48 133.27 632.82 131.58 633.09 129.88C633.36 128.18 633.62 126.47 633.81 124.75C634.432 118.681 634.669 112.579 634.52 106.48C634.52 106.19 634.52 105.89 634.52 105.6C634.52 105.49 634.52 105.38 634.52 105.28C634.492 99.0973 633.821 92.9343 632.52 86.89C632.97 87.06 633.42 87.23 633.85 87.43C634.573 87.7842 635.262 88.2025 635.91 88.68C635.75 88.45 635.57 88.2199 635.4 87.9899C638.3 89.8699 640.46 92.7999 642.4 95.7199C651.287 109.575 656.963 125.242 659.012 141.574C661.06 157.906 659.43 174.489 654.24 190.11C652.78 194.4 651.03 198.67 650.64 203.18C649.23 219.29 664.64 231.58 670.37 246.72C673.24 254.31 673.69 262.72 674.07 271.04C669.75 249.97 653.96 229.23 646.83 217.68L646.8 217.64Z" fill="url(#paint0_linear)"/>
<path d="M264.55 536.2C264.55 536.2 263.8 548.7 259.05 552.7C259.05 552.7 249.3 609.2 240.3 619.45L238.8 625.2L201.3 620.95L208.8 570.95L215.8 524.95L264.55 536.2Z" fill="#FFC1C8"/>
<path opacity="0.03" d="M264.55 536.2C264.55 536.2 263.8 548.7 259.05 552.7C259.05 552.7 249.3 609.2 240.3 619.45L238.8 625.2L201.3 620.95L208.8 570.95L215.8 524.95L264.55 536.2Z" fill="black"/>
<path d="M224.14 620.15L240.3 619.44L239.44 644.88L227.07 653.17L204.79 648.29L212.92 614.29L224.14 620.15Z" fill="#FF748F"/>
<path opacity="0.03" d="M224.14 620.15L240.3 619.44L239.44 644.88L227.07 653.17L204.79 648.29L212.92 614.29L224.14 620.15Z" fill="black"/>
<path d="M227.07 642.93C227.07 642.93 239.76 639.19 245.78 644.07C251.8 648.95 266.44 661.96 269.37 663.59C272.3 665.22 314.55 673.19 300.6 683.43C286.65 693.67 250.83 690.75 250.83 690.75C250.83 690.75 227.4 683.91 226.75 683.59C226.1 683.27 211.75 676.27 211.3 675.78C210.85 675.29 215.36 642.78 215.36 642.78L227.07 642.93Z" fill="#5D618C"/>
<path opacity="0.03" d="M227.07 642.93C227.07 642.93 239.76 639.19 245.78 644.07C251.8 648.95 266.44 661.96 269.37 663.59C272.3 665.22 314.55 673.19 300.6 683.43C286.65 693.67 250.83 690.75 250.83 690.75C250.83 690.75 227.4 683.91 226.75 683.59C226.1 683.27 211.75 676.27 211.3 675.78C210.85 675.29 215.36 642.78 215.36 642.78L227.07 642.93Z" fill="black"/>
<path d="M190.3 304.95L189.55 351.43L187.85 450.58L186.85 451.45C157.1 477.2 136.1 449.95 136.1 449.95C134.52 451.82 131.1 452.71 127.42 453.09C123.395 453.45 119.345 453.45 115.32 453.09L114.32 453C114.32 453 35.8002 356.43 31.0502 339.43C30.108 336.555 30.1326 333.45 31.1202 330.59C32.6702 326.53 36.3802 324.11 39.9302 322.68C42.5344 321.651 45.2658 320.978 48.0502 320.68C48.0502 320.68 45.8002 302.93 35.5502 276.68C29.7902 261.93 30.3502 254.44 31.9402 250.68C33.1802 247.77 35.0502 247.15 35.0502 247.15C35.0502 247.15 38.2102 244.82 43.3002 241.15C47.5302 238.06 53.1002 234.02 59.3002 229.55L65.0502 225.43C86.2602 210.21 111.82 192.29 117.05 190.43C117.377 190.311 117.711 190.214 118.05 190.14C128.78 187.55 164.79 192.93 164.79 192.93L190.3 304.95Z" fill="#6C63FF"/>
<path opacity="0.1" d="M190.3 304.95L189.55 351.43C153.98 340.94 120.91 271.43 116.55 265.95C112.82 261.19 116.65 208.18 118.06 190.16C128.79 187.57 164.8 192.95 164.8 192.95L190.3 304.95Z" fill="black"/>
<path d="M598.55 214.43C598.55 214.43 570.8 228.68 567.3 284.68C567.3 284.68 562.8 313.18 560.3 318.18C557.8 323.18 545.8 370.43 547.3 376.18C547.3 376.18 544.8 381.93 535.55 379.43C526.3 376.93 476.3 369.18 465.05 361.68L434.05 346.93C434.05 346.93 373.55 304.18 360.8 340.93C348.05 377.68 420.55 376.2 420.55 376.2L454.8 392.2L558.55 426.43C558.55 426.43 572.3 432.68 581.55 412.68C587.469 400.081 594.496 388.033 602.55 376.68C602.55 376.68 623.55 317.68 623.3 307.68C623.05 297.68 645.8 273.93 645.8 273.93C645.8 273.93 650.3 210.93 613.3 212.18L598.55 214.43Z" fill="#FFC1C7"/>
<path opacity="0.03" d="M598.55 214.43C598.55 214.43 570.8 228.68 567.3 284.68C567.3 284.68 562.8 313.18 560.3 318.18C557.8 323.18 545.8 370.43 547.3 376.18C547.3 376.18 544.8 381.93 535.55 379.43C526.3 376.93 476.3 369.18 465.05 361.68L434.05 346.93C434.05 346.93 373.55 304.18 360.8 340.93C348.05 377.68 420.55 376.2 420.55 376.2L454.8 392.2L558.55 426.43C558.55 426.43 572.3 432.68 581.55 412.68C587.469 400.081 594.496 388.033 602.55 376.68C602.55 376.68 623.55 317.68 623.3 307.68C623.05 297.68 645.8 273.93 645.8 273.93C645.8 273.93 650.3 210.93 613.3 212.18L598.55 214.43Z" fill="black"/>
<path d="M305.05 263.07C306.55 264.82 313.55 268.43 313.55 268.43C313.55 268.43 336.55 295.8 345.8 302.8C355.05 309.8 385.3 336.55 379.18 346.68C373.06 356.81 366.18 354.55 366.18 354.55L312.05 317.05C312.05 317.05 293.05 303.43 289.18 296.93C285.31 290.43 280.55 276.82 280.55 276.82L305.05 263.07Z" fill="#FFC1C8"/>
<path opacity="0.03" d="M305.05 263.07C306.55 264.82 313.55 268.43 313.55 268.43C313.55 268.43 336.55 295.8 345.8 302.8C355.05 309.8 385.3 336.55 379.18 346.68C373.06 356.81 366.18 354.55 366.18 354.55L312.05 317.05C312.05 317.05 293.05 303.43 289.18 296.93C285.31 290.43 280.55 276.82 280.55 276.82L305.05 263.07Z" fill="black"/>
<path d="M274.68 216.32L313.55 268.44L278.55 282.07L264.05 238.44L274.68 216.32Z" fill="#DCE6F2"/>
<path opacity="0.03" d="M274.68 216.32L313.55 268.44L278.55 282.07L264.05 238.44L274.68 216.32Z" fill="black"/>
<path d="M284.8 349.2L291.8 359.45L297.8 512.95C297.8 512.95 298.3 527.45 294.05 531.7C289.8 535.95 255.05 533.2 255.05 533.2C255.05 533.2 256.3 376.7 256.8 373.7C257.3 370.7 284.8 349.2 284.8 349.2Z" fill="#575988"/>
<path opacity="0.1" d="M284.8 349.2L291.8 359.45L297.8 512.95C297.8 512.95 298.3 527.45 294.05 531.7C289.8 535.95 255.05 533.2 255.05 533.2C255.05 533.2 256.3 376.7 256.8 373.7C257.3 370.7 284.8 349.2 284.8 349.2Z" fill="black"/>
<path d="M237.99 543.24C235.714 548.837 233.04 554.264 229.99 559.48C229.99 559.48 223.49 596.57 220.72 599.99C218.72 602.49 217.8 621.15 217.47 630.88C217.35 634.4 217.3 636.75 217.3 636.75L179.08 654.97L178.91 630.89C178.91 630.89 178.91 630.78 178.91 630.57C178.67 625.26 175.91 563.76 181.7 560.18C185.1 558.07 188.34 549.18 190.53 541.89C192.2 536.26 193.25 531.55 193.25 531.55C193.25 531.55 235.71 528.79 239.25 533.34C240.55 534.96 239.65 538.9 237.99 543.24Z" fill="#FFC1C8"/>
<path opacity="0.1" d="M237.99 543.24C220.77 542.88 199.19 542.15 190.47 541.84C192.14 536.21 193.19 531.5 193.19 531.5C193.19 531.5 235.65 528.74 239.19 533.29C240.55 534.96 239.65 538.9 237.99 543.24Z" fill="black"/>
<path d="M187.8 315.7C187.8 315.7 176.05 378.2 178.3 418.45C180.55 458.7 176.55 488.43 181.55 500.2C186.55 511.97 186.55 538.7 186.55 538.7C186.55 538.7 254.55 541.2 261.55 540.2C268.55 539.2 268.3 533.95 268.3 533.95C268.3 533.95 263.55 492.43 268.05 479.43C272.55 466.43 271.8 426.68 271.8 426.68L290.8 362.68C290.8 362.68 296.55 333.93 284.55 322.18C272.55 310.43 187.8 315.7 187.8 315.7Z" fill="#575988"/>
<path d="M591.3 645.95L588.3 650.35L569.75 677.95L554 682.7L542.25 671.2L542.82 663.61L545.75 624.2C545.75 624.2 473.05 581.43 466.55 573.43C460.05 565.43 435.05 558.18 435.05 558.18C435.05 558.18 396.8 540.43 382.55 509.43C368.3 478.43 406.3 473.68 406.3 473.68L549.05 610.2L591.3 645.95Z" fill="#FFC1C7"/>
<path opacity="0.1" d="M588.35 650.34L569.8 677.94L554.05 682.69L542.3 671.19L542.87 663.6L555.8 674.69L580.05 646.44L588.35 650.34Z" fill="black"/>
<path d="M608.8 661.95L563.55 704.2C563.55 704.2 537.55 709.2 514.3 705.7C499.44 703.46 502.3 695.31 506.21 689.7L506.28 689.6C508.622 686.391 512.046 684.139 515.92 683.26C535.16 678.62 541.8 664.69 541.8 664.69L555.8 676.69L580.05 648.43L597.98 656.85L608.8 661.95Z" fill="#575988"/>
<path d="M608.8 662.43L563.55 704.7C563.55 704.7 537.55 709.7 514.3 706.2C499.44 703.96 501.3 695.81 505.21 690.2C509.706 693.764 515.103 696.011 520.8 696.69C533.55 697.94 552.8 696.69 552.8 696.69L597.98 657.36L608.8 662.43Z" fill="white"/>
<path d="M235.22 156.03C231.54 157.87 229.85 163.55 229.17 170.03C228.02 181.09 229.88 194.41 229.88 194.41C229.88 194.41 179.88 180.74 185.22 178.07C188.29 176.54 189.92 165.4 190.75 156.23C191.37 149.45 191.55 143.74 191.55 143.74C191.55 143.74 245.22 151.03 235.22 156.03Z" fill="#FFC1C8"/>
<path d="M633.22 216.7C633.22 216.7 572.55 274.03 574.55 257.37C574.83 255.05 574.03 251.84 572.45 248.05C566.84 234.53 551.33 213.54 539.2 198.19C530.3 186.93 523.2 178.7 523.2 178.7C523.2 178.7 598.55 115.37 592.55 151.37C591.3 159.579 592.442 167.974 595.84 175.55C603.35 193.23 619.99 207.14 628.3 213.28C631.3 215.49 633.22 216.7 633.22 216.7Z" fill="#FFC1C7"/>
<path opacity="0.1" d="M584.22 162.36C583.13 163.71 579.09 168.45 577.89 169.7C566.49 181.57 564.97 198.7 547.22 198.7C544.545 198.702 541.873 198.531 539.22 198.19C530.32 186.93 523.22 178.7 523.22 178.7C523.22 178.7 598.55 115.37 592.55 151.37C591.13 159.91 581.05 154.88 584.22 162.36Z" fill="black"/>
<path d="M609.88 134.03C609.882 146.426 606.208 158.544 599.323 168.851C592.437 179.159 582.65 187.193 571.198 191.938C559.746 196.682 547.144 197.924 534.986 195.506C522.829 193.088 511.661 187.12 502.896 178.354C494.131 169.589 488.162 158.422 485.744 146.264C483.326 134.106 484.568 121.504 489.313 110.053C494.057 98.6007 502.091 88.8131 512.399 81.9276C522.706 75.0421 534.824 71.368 547.22 71.37C555.458 71.3382 563.62 72.9373 571.237 76.075C578.853 79.2128 585.774 83.8271 591.598 89.6519C597.423 95.4768 602.038 102.397 605.175 110.014C608.313 117.63 609.912 125.792 609.88 134.03V134.03Z" fill="#FFC1C7"/>
<path opacity="0.1" d="M633.22 216.7C633.22 216.7 572.55 274.03 574.55 257.37C574.83 255.05 574.03 251.84 572.45 248.05L581.22 227.37C591.965 217.958 605.746 212.738 620.03 212.67C622.629 212.668 625.225 212.845 627.8 213.2L628.3 213.28C631.3 215.49 633.22 216.7 633.22 216.7Z" fill="black"/>
<path d="M704.55 636.7C704.55 636.7 661.55 705.36 661.55 710.7C661.55 710.7 612.88 691.7 595.55 687.7C578.22 683.7 561.88 647.37 561.88 647.37C561.88 647.37 515.88 604.03 497.88 598.03C482.61 592.94 409.23 489.43 387.37 458.2C384.694 454.378 383.302 449.805 383.396 445.14C383.489 440.476 385.063 435.961 387.89 432.25L388.3 431.72C394.085 424.442 401.746 418.88 410.459 415.634C419.171 412.388 428.603 411.581 437.74 413.3C439.768 413.673 441.772 414.167 443.74 414.78C475.22 424.51 529.74 441.23 557.24 448.78C566.44 451.31 572.59 452.78 573.84 452.69C576.84 452.38 578.49 449.69 579.4 446.74C580.095 444.34 580.468 441.858 580.51 439.36C580.51 439.36 580.51 439.2 580.51 438.91C579.667 432.552 578.344 426.268 576.55 420.11C573.34 409.11 567.78 396.2 558.55 390.03C550.89 384.92 544.8 373.65 541.61 360.55C537.32 342.86 538.31 321.81 547.88 308.03L557.13 286.21L572.6 249.71L581.22 229.37C591.966 219.958 605.746 214.738 620.03 214.67C622.629 214.668 625.226 214.845 627.8 215.2C634.43 216.12 640.16 218.11 642.55 222.03C649.88 234.03 666.55 256.03 669.88 278.03C673.21 300.03 669.22 336.03 680.55 349.37C691.88 362.71 698.55 394.7 710.55 401.37C722.55 408.04 691.22 422.03 691.22 422.03L691.34 424.14L691.88 433.37C691.88 433.37 692.1 433.62 692.5 434.12C699.48 442.76 762.55 525.71 704.55 636.7Z" fill="#FF6584"/>
<path d="M692.55 434.12C679.41 436.87 650.67 442.86 637.85 445.49L635.6 445.95C634.85 446.1 634.01 446.24 633.1 446.37C620.22 448.14 592.28 447.27 579.49 446.75C580.185 444.35 580.558 441.868 580.6 439.37C580.6 439.37 580.6 439.21 580.6 438.92C590.33 438.29 613.39 436.45 633.15 432.39C634.76 432.06 636.35 431.71 637.9 431.39C640.14 430.87 642.32 430.32 644.4 429.74C662.12 424.74 680.83 424.08 691.4 424.18L691.94 433.41C691.94 433.41 692.1 433.62 692.55 434.12Z" fill="#575988"/>
<path d="M637.8 431.35V445.49L635.55 445.95C634.8 446.1 633.96 446.24 633.05 446.37V432.43C634.66 432.06 636.25 431.71 637.8 431.35Z" fill="#FF6584"/>
<path opacity="0.1" d="M650.05 458.43C650.05 458.43 623.3 519.68 607.05 525.68C590.8 531.68 550.3 552.93 550.3 552.93C550.3 552.93 573.55 573.43 597.8 550.93C622.05 528.43 657.05 468.43 650.05 458.43Z" fill="black"/>
<path opacity="0.1" d="M679.3 450.2C679.3 450.2 681.8 473.45 678.3 477.7C674.8 481.95 679.3 450.2 679.3 450.2Z" fill="black"/>
<path opacity="0.1" d="M693.8 465.43C693.8 465.43 707.3 606.93 640.3 607.68C640.3 607.7 703.05 545.43 693.8 465.43Z" fill="black"/>
<path opacity="0.1" d="M710.8 499.43C710.8 499.43 730.05 573.68 704.8 582.18C704.8 582.2 718.05 543.7 710.8 499.43Z" fill="black"/>
<path opacity="0.1" d="M591.05 480.43C589.8 480.43 539.05 489.18 550.05 496.18C561.05 503.18 591.05 480.43 591.05 480.43Z" fill="black"/>
<path opacity="0.1" d="M626.05 380.2C626.05 380.2 667.55 416.95 659.55 420.95Z" fill="black"/>
<path opacity="0.1" d="M622.55 391.95C622.55 391.95 646.55 421.45 643.8 423.2Z" fill="black"/>
<path opacity="0.1" d="M673.8 387.43C673.8 387.43 684.8 401.18 683.05 404.18Z" fill="black"/>
<path opacity="0.1" d="M684.8 380.2C684.8 380.2 700.55 392.43 697.05 397.2Z" fill="black"/>
<path d="M597.3 231.2C597.3 231.2 648.55 235.2 646.3 276.45C644.05 317.7 605.8 328.2 605.8 328.2L556.05 313.95C556.05 313.95 578.3 233.95 597.3 231.2Z" fill="#FFC1C7"/>
<path opacity="0.1" d="M443.78 414.78C475.26 424.51 529.78 441.23 557.28 448.78C555.478 449.698 553.504 450.231 551.484 450.342C549.464 450.454 547.443 450.144 545.55 449.43L441.8 415.2L437.74 413.3C439.781 413.672 441.798 414.166 443.78 414.78Z" fill="black"/>
<path opacity="0.1" d="M619.35 312.82C614.48 319.32 610.19 326.32 610.35 330.7C610.43 333.85 608.35 341.88 605.57 351.39C598.409 375.275 588.686 398.316 576.57 420.11C573.36 409.11 567.8 396.2 558.57 390.03C550.91 384.92 544.82 373.65 541.63 360.55C544.06 351.07 546.37 343.1 547.32 341.2C549.82 336.2 554.32 307.7 554.32 307.7C554.743 300.478 555.689 293.296 557.15 286.21C560.78 268.88 566.95 257.21 572.62 249.71C579.46 240.59 585.62 237.45 585.62 237.45L600.37 235.2C617.37 234.63 625.57 247.56 629.52 261.73C634.36 279.34 630.31 298.18 619.35 312.82Z" fill="black"/>
<path d="M582.55 233.43C582.55 233.43 554.8 247.68 551.3 303.68C551.3 303.68 546.8 332.18 544.3 337.18C541.8 342.18 529.8 389.43 531.3 395.18C531.3 395.18 528.8 400.93 519.55 398.43C510.3 395.93 460.3 388.18 449.05 380.68L418.05 365.93C418.05 365.93 357.55 323.18 344.8 359.93C332.05 396.68 404.55 395.2 404.55 395.2L438.8 411.2L542.55 445.43C542.55 445.43 556.3 451.68 565.55 431.68C567.86 426.68 570.33 421.93 572.74 417.61C585.22 395.38 595.217 371.846 602.55 347.43C605.38 337.92 607.41 329.89 607.33 326.74C607.22 322.36 611.52 315.35 616.33 308.86C627.33 294.22 631.33 275.38 626.43 257.76C622.48 243.59 614.24 230.66 597.28 231.24L582.55 233.43Z" fill="#FFC1C7"/>
<path opacity="0.1" d="M235.22 156.03C231.54 157.87 229.85 163.55 229.17 170.03C228.52 170.03 227.87 170.03 227.22 170.03C213.776 170.055 200.793 165.128 190.75 156.19C191.37 149.41 191.55 143.7 191.55 143.7C191.55 143.7 245.22 151.03 235.22 156.03Z" fill="black"/>
<path d="M282.22 113.03C282.22 123.908 278.995 134.542 272.951 143.586C266.908 152.631 258.318 159.681 248.268 163.843C238.218 168.006 227.159 169.095 216.49 166.973C205.821 164.851 196.021 159.613 188.329 151.921C180.637 144.229 175.399 134.429 173.277 123.76C171.155 113.091 172.244 102.032 176.407 91.9824C180.57 81.9325 187.619 73.3427 196.664 67.2992C205.709 61.2557 216.342 58.03 227.22 58.03C241.797 58.0617 255.768 63.8665 266.076 74.1742C276.384 84.4818 282.189 98.4529 282.22 113.03V113.03Z" fill="#FFC1C8"/>
<path opacity="0.1" d="M300.8 328.43C300.8 328.43 272.05 339.93 263.05 343.93C254.05 347.93 202.55 338.68 202.55 338.68C202.55 338.68 175.8 325.18 178.05 311.68C180.3 298.18 156.55 253.95 156.55 253.95C156.55 253.95 155.8 214.7 166.3 207.2C176.8 199.7 172.8 183.95 172.8 183.95C172.8 183.95 172.85 183.43 173.01 182.58C173.66 179.24 176.01 170.74 183.8 167.95C185.377 167.526 187.033 167.481 188.63 167.82C196.1 168.95 208.37 174.51 218.52 179.64C226.92 183.89 233.87 187.84 235.46 188.76L235.8 188.95C235.8 188.95 239.55 197.7 244.05 194.95C248.55 192.2 271.05 204.95 275.3 210.7C279.55 216.45 276.55 243.45 275.8 250.2C275.05 256.95 280.05 276.95 285.55 288.43C291.05 299.91 300.8 328.43 300.8 328.43Z" fill="black"/>
<path d="M300.8 325.43C300.8 325.43 272.05 336.93 263.05 340.93C254.05 344.93 202.55 335.68 202.55 335.68C202.55 335.68 175.8 322.18 178.05 308.68C180.3 295.18 156.55 250.95 156.55 250.95C156.55 250.95 155.8 211.7 166.3 204.2C176.8 196.7 172.8 180.95 172.8 180.95C172.8 180.95 172.85 180.43 173.01 179.58C173.66 176.24 176.01 167.74 183.8 164.95C185.377 164.526 187.033 164.481 188.63 164.82C196.1 165.95 208.37 171.51 218.52 176.64C226.92 180.89 233.87 184.84 235.46 185.76L235.8 185.95C235.8 185.95 239.55 194.7 244.05 191.95C248.55 189.2 271.05 201.95 275.3 207.7C279.55 213.45 276.55 240.45 275.8 247.2C275.05 253.95 280.05 273.95 285.55 285.43C291.05 296.91 300.8 325.43 300.8 325.43Z" fill="#DCE6F2"/>
<path d="M207.72 287.03C207.72 287.03 183.05 327.03 179.05 329.2L180.55 343.2C180.55 343.2 215.72 335.86 217.89 326.03C220.06 316.2 218.89 286.53 218.89 286.53L207.72 287.03Z" fill="#575988"/>
<path opacity="0.2" d="M207.72 287.03C207.72 287.03 183.05 327.03 179.05 329.2L180.55 343.2C180.55 343.2 215.72 335.86 217.89 326.03C220.06 316.2 218.89 286.53 218.89 286.53L207.72 287.03Z" fill="black"/>
<path opacity="0.1" d="M242.43 236.07C242.43 236.07 246.8 252.95 253.68 258.7C260.56 264.45 242.43 236.07 242.43 236.07Z" fill="black"/>
<path d="M199.55 280.57C200.18 281.7 221.3 310.45 243.55 321.07C265.8 331.69 315.43 344.2 315.43 344.2C315.43 344.2 355.68 351.7 362.55 354.57C369.42 357.44 378.18 344.57 335.05 326.2C291.92 307.83 283.55 299.7 283.55 299.7C283.55 299.7 246.05 281.43 240.05 272.43C234.05 263.43 199.55 280.57 199.55 280.57Z" fill="#FFC1C8"/>
<path opacity="0.1" d="M215.3 420.43C216.05 419.93 234.05 400.68 236.3 408.93C238.55 417.18 215.3 420.43 215.3 420.43Z" fill="black"/>
<path opacity="0.1" d="M225.8 382.43C225.55 383.18 223.05 404.43 215.8 406.93Z" fill="black"/>
<path opacity="0.1" d="M233.3 388.2C233.3 388.2 226.8 410.95 218.55 412.43Z" fill="black"/>
<path opacity="0.1" d="M200.3 456.43C200.3 456.43 211.3 456.68 212.8 449.68Z" fill="black"/>
<path opacity="0.1" d="M215.3 501.95C216.8 502.2 240.3 517.2 234.3 520.2C228.3 523.2 215.3 501.95 215.3 501.95Z" fill="black"/>
<path opacity="0.1" d="M217.43 628.57V630.88C217.31 634.4 217.26 636.75 217.26 636.75L179.04 654.97L178.87 630.89C178.87 630.89 178.87 630.78 178.87 630.57V628.94L194.17 629.43L217.43 628.57Z" fill="black"/>
<path d="M224.58 663.58L192.7 675.78L178.39 667.32L178.54 655.74L178.87 630.88L194.17 631.37L217.43 630.56V647.97L224.58 663.58Z" fill="#FF748F"/>
<path opacity="0.1" d="M224.55 663.59L192.67 675.79L178.36 667.33L178.51 655.75C180.586 658.471 183.24 660.699 186.279 662.272C189.319 663.845 192.67 664.726 196.09 664.85C196.09 664.85 207.31 650.85 214.14 646.79C214.625 646.499 215.164 646.311 215.725 646.235C216.285 646.159 216.855 646.198 217.4 646.35V647.98L224.55 663.59Z" fill="black"/>
<path d="M196.12 666.84C196.12 666.84 183.12 667.01 176.6 654.64C176.6 654.64 167.33 663.59 167.16 682.46C166.99 701.33 167.33 701.98 167.33 701.98C167.33 701.98 204.74 700.52 211.74 703.12C218.74 705.72 277.46 700.84 277.46 700.84C277.46 700.84 281.36 690.59 263.63 687.01C245.9 683.43 231.26 664.56 230.77 663.75C230.28 662.94 221.01 644.75 214.18 648.75C207.35 652.75 196.12 666.84 196.12 666.84Z" fill="#5D618C"/>
<path opacity="0.1" d="M230.6 52.2699L226.87 51.7599L229.2 51.7L230.6 52.2699Z" fill="black"/>
<path opacity="0.1" d="M282.22 113.03C282.222 117.296 281.729 121.548 280.75 125.7C279.915 125.485 279.117 125.148 278.38 124.7C277.31 124.01 276.24 123.06 274.98 123.17C274.241 123.286 273.549 123.605 272.98 124.09C267.06 128.42 262.66 135.54 255.46 136.92C256.182 134.813 256.279 132.541 255.74 130.38C254.213 131.916 252.34 133.062 250.278 133.723C248.216 134.385 246.025 134.541 243.89 134.18C244.411 132.932 244.471 131.539 244.06 130.25C238.99 133.09 233.712 135.54 228.27 137.58C228.08 136.58 227.9 135.66 227.71 134.7C220.05 138.44 220.65 151.13 212.99 154.87C208.43 157.1 201.99 155.5 198.84 159.52C198.72 159.68 198.61 159.84 198.5 160.01C190.315 155.003 183.582 147.942 178.971 139.529C174.359 131.115 172.028 121.641 172.21 112.048C172.392 102.455 175.081 93.0762 180.009 84.8436C184.937 76.611 191.933 69.8108 200.302 65.1183C208.671 60.4258 218.122 58.0043 227.716 58.0943C237.311 58.1844 246.715 60.7828 254.994 65.6315C263.274 70.4802 270.141 77.4105 274.913 85.7342C279.686 94.0578 282.198 103.485 282.2 113.08L282.22 113.03Z" fill="black"/>
<path d="M230.6 50.26C225.98 48.35 221.29 46.43 216.32 45.86C211.35 45.29 205.99 46.26 202.24 49.57C199.24 52.21 196.89 56.45 192.89 56.57C190.94 56.64 189.14 55.66 187.39 54.81C182.39 52.41 176.14 51.05 171.63 54.23C168.03 56.78 166.68 61.46 166.09 65.83C165.5 70.2 165.36 74.83 163.28 78.68C161.99 81.08 160.03 83.04 158.41 85.23C154.293 90.7944 152.357 97.675 152.97 104.57C153.388 107.98 154.118 111.344 155.15 114.62L159.23 129.03C161.3 136.35 163.41 143.77 167.35 150.28C171.29 156.79 177.35 162.39 184.75 164.07C189.21 165.07 194.61 164.25 197.11 160.42C197.75 159.42 198.16 158.35 198.86 157.42C201.96 153.42 208.45 155.01 213.01 152.78C220.67 149.04 220.07 136.35 227.73 132.61L228.3 135.48C233.736 133.437 239.01 130.99 244.08 128.16C244.489 129.448 244.432 130.839 243.92 132.09C246.054 132.446 248.242 132.287 250.301 131.626C252.361 130.965 254.233 129.821 255.76 128.29C256.299 130.451 256.202 132.723 255.48 134.83C262.68 133.44 267.08 126.32 273 121.99C273.573 121.512 274.264 121.197 275 121.08C276.27 120.97 277.33 121.92 278.4 122.6C280.254 123.725 282.434 124.189 284.584 123.914C286.735 123.64 288.729 122.644 290.24 121.09C293.39 117.67 293.53 112.41 292.52 107.87C291.51 103.33 289.52 99 289.09 94.37C288.46 88.06 290.66 81.47 288.64 75.47C286.93 70.38 282.45 66.69 277.64 64.27C272.83 61.85 267.64 60.44 262.73 58.27C258.07 56.18 253.73 53.38 248.89 51.73C241.89 49.34 234.28 49.53 226.89 49.73" fill="#794F6A"/>
<path d="M231.55 236.53C231.55 236.53 239.55 182.7 171.05 185.36L136.55 189.95C136.55 189.95 169.46 195.87 177.38 196.74L178.22 196.86C185.55 198.2 210.89 196.53 231.55 236.53Z" fill="#6C63FF"/>
<path opacity="0.1" d="M187.8 451.2V450.58C215.89 426.29 187.8 451.2 187.8 451.2Z" fill="black"/>
<path d="M127.37 453.09C123.345 453.45 119.296 453.45 115.27 453.09L31.1204 330.61C32.6704 326.55 36.3804 324.13 39.9304 322.7L127.37 453.09Z" fill="#575988"/>
<path d="M72.8002 321.95L68.8002 326.7C68.8002 326.7 38.4602 276.3 31.9402 250.7C33.1802 247.79 35.0502 247.17 35.0502 247.17C35.0502 247.17 38.2102 244.84 43.3002 241.17C45.1902 253.21 51.6402 282.65 72.8002 321.95Z" fill="#575988"/>
<path d="M95.0503 306.43L87.0503 310.93C65.2103 285.37 63.3503 242.43 63.5503 225.32L69.3103 221.18C70.0903 243.65 95.0503 306.43 95.0503 306.43Z" fill="#575988"/>
<path opacity="0.1" d="M116.05 301.95C115.8 305.2 106.55 338.2 120.05 343.7C133.55 349.2 116.05 301.95 116.05 301.95Z" fill="black"/>
<path opacity="0.1" d="M145.05 358.7C145.55 360.45 150.05 417.45 159.8 412.95C169.55 408.45 164.3 343.45 164.3 343.45L145.05 358.7Z" fill="black"/>
<path opacity="0.1" d="M609.88 134.03C609.901 150.216 603.633 165.777 592.4 177.43C587.825 178.399 583.106 178.481 578.5 177.67C576.146 177.372 573.907 176.473 572 175.06C570.164 173.366 568.726 171.286 567.79 168.97C564.14 161.12 562.27 152.05 557.15 145.33C552.03 138.61 541.64 135.66 536.7 142.55C534.01 146.29 533.56 152.04 529.97 154.63C525.66 157.75 519.97 154.08 516.62 149.63C506.72 136.63 510.11 111.07 491.23 107.48L490.47 107.35C496.525 94.4406 506.8 83.9816 519.6 77.6998C532.401 71.4181 546.96 69.689 560.876 72.7982C574.791 75.9073 587.231 83.6688 596.14 94.8012C605.049 105.934 609.896 119.771 609.88 134.03V134.03Z" fill="black"/>
<path d="M492.23 106.55C489.17 105.96 485.62 106.04 483.57 103.4C482.36 101.84 482.01 99.68 481.72 97.63C480.49 88.77 479.82 79.26 483.35 71.23C489.14 58.06 504.04 53.66 516.99 54.64C529.94 55.62 542.65 60.45 555.6 59.64C565.12 59.02 574.51 55.34 584 56.39C591.51 57.23 598.51 60.96 605.26 64.77C611.58 68.33 618.04 72.16 622.52 78.34C629.1 87.39 630.34 99.89 630.52 111.62C630.74 125.39 629.77 139.69 623.99 151.81C615.61 169.4 596.92 179.87 579.5 176.72C577.146 176.422 574.907 175.523 573 174.11C571.17 172.413 569.736 170.334 568.8 168.02C565.14 160.16 563.27 151.1 558.15 144.37C553.03 137.64 542.64 134.71 537.7 141.6C535.01 145.33 534.56 151.09 530.97 153.68C526.66 156.79 520.97 153.12 517.62 148.68C507.72 135.67 511.11 110.13 492.23 106.55Z" fill="#945B79"/>
<path d="M644.41 77.48C653.94 82.03 660.55 90.89 666.76 99.42C671.93 106.51 677.28 114.09 677.96 122.83C678.23 126.41 677.7 130.05 678.38 133.57C680.77 146 696.38 151.57 700.94 163.41C703.06 168.99 702.39 175.2 701.46 181.1C700.123 189.635 698.324 198.09 696.07 206.43C694.72 211.43 693.19 216.63 694.22 221.71C695.01 225.65 697.22 229.11 698.98 232.71C703.57 242.42 704.36 253.43 704.71 264.16C705.06 274.89 705.05 285.81 708.26 296.05C711.47 306.29 718.55 315.97 728.76 319.28C725.331 321.618 721.356 323.03 717.22 323.38C716.61 326.73 718.52 330.14 721.22 332.26C723.92 334.38 727.22 335.48 730.44 336.53C728.243 338.081 725.716 339.101 723.058 339.51C720.399 339.92 717.683 339.707 715.12 338.89C710.85 337.49 707.32 334.49 703.91 331.55L684.74 315.06C682.179 312.987 679.813 310.684 677.67 308.18C665.27 292.77 672.67 269.42 665.75 250.91C660.11 235.86 644.95 223.64 646.34 207.63C646.72 203.15 648.44 198.91 649.88 194.63C654.988 179.102 656.592 162.635 654.578 146.413C652.563 130.192 646.98 114.617 638.23 100.81C636.04 97.41 633.5 93.99 629.85 92.24C624.3 89.59 616.37 90.73 613.22 85.44C611.55 82.65 611.22 77.74 611.07 74.61C621.25 72.28 634.89 72.93 644.41 77.48Z" fill="#945B79"/>
<path opacity="0.1" d="M157.42 246.79C162.1 216.03 200.55 204.92 220.96 228.43C226.86 235.25 232.09 242.72 235.05 250.19C245.05 275.44 245.8 277.69 245.8 277.69C245.8 277.69 184.05 289.69 184.55 298.69L156.55 253.94C156.55 253.94 156.76 251.14 157.42 246.79Z" fill="black"/>
<path d="M157.42 243.79C162.1 213.03 200.55 201.92 220.96 225.43C226.86 232.25 232.09 239.72 235.05 247.19C245.05 272.44 245.8 274.69 245.8 274.69C245.8 274.69 184.05 286.69 184.55 295.69L156.55 250.94C156.55 250.94 156.76 248.14 157.42 243.79Z" fill="#DCE6F2"/>
<path opacity="0.1" d="M174.8 204.32C175.55 205.57 205.05 241.57 220.55 246.7C236.05 251.83 174.8 204.32 174.8 204.32Z" fill="black"/>
<path opacity="0.1" d="M48.0503 320.7C48.0503 320.7 126.05 412.7 136.05 449.95Z" fill="black"/>
<path opacity="0.1" d="M51.0503 235.7C51.0503 235.7 68.0503 323.7 101.05 360.7C134.05 397.7 168.05 460.7 168.05 460.7" stroke="black" stroke-width="2" stroke-miterlimit="10"/>
<g opacity="0.1">
<path opacity="0.1" d="M292.06 107.67C292.127 110.595 291.117 113.442 289.22 115.67C287.709 117.224 285.715 118.22 283.564 118.494C281.413 118.768 279.233 118.305 277.38 117.18C276.31 116.5 275.25 115.55 273.98 115.66C273.244 115.777 272.552 116.092 271.98 116.57C266.35 120.69 262.09 127.33 255.48 129.16C255.714 130.927 255.536 132.723 254.96 134.41C262.16 133.02 266.56 125.9 272.48 121.57C273.052 121.092 273.744 120.777 274.48 120.66C275.75 120.55 276.81 121.5 277.88 122.18C279.733 123.305 281.913 123.768 284.064 123.494C286.215 123.22 288.209 122.224 289.72 120.67C292.81 117.27 293 112.15 292.06 107.67Z" fill="black"/>
<path opacity="0.1" d="M288.07 88.91C288.15 89.73 288.29 90.54 288.45 91.35C288.45 86.35 289.64 81.15 288.45 76.35C288.47 80.43 287.65 84.75 288.07 88.91Z" fill="black"/>
<path opacity="0.1" d="M254.76 122.83C253.232 124.361 251.361 125.505 249.301 126.166C247.241 126.827 245.054 126.986 242.92 126.63C243.432 125.379 243.489 123.988 243.08 122.7C238.01 125.53 232.735 127.977 227.3 130.02L226.73 127.15C219.07 130.89 219.67 143.58 212.01 147.32C207.45 149.55 201.01 147.94 197.86 151.96C197.16 152.87 196.75 153.96 196.11 154.96C193.61 158.79 188.21 159.62 183.75 158.61C176.33 156.93 170.28 151.33 166.35 144.82C162.42 138.31 160.3 130.89 158.23 123.57L154.15 109.16C153.48 106.76 152.8 104.36 152.36 101.91C152.36 102.65 152.36 103.38 152.47 104.11C152.888 107.52 153.618 110.884 154.65 114.16L158.73 128.57C160.8 135.89 162.91 143.31 166.85 149.82C170.79 156.33 176.85 161.93 184.25 163.61C188.71 164.61 194.11 163.79 196.61 159.96C197.25 158.96 197.66 157.89 198.36 156.96C201.46 152.96 207.95 154.55 212.51 152.32C220.17 148.58 219.57 135.89 227.23 132.15L227.8 135.02C233.225 132.976 238.49 130.529 243.55 127.7C243.959 128.988 243.902 130.379 243.39 131.63C245.419 131.966 247.498 131.836 249.469 131.25C251.441 130.665 253.253 129.639 254.77 128.25C255.197 126.468 255.193 124.61 254.76 122.83V122.83Z" fill="black"/>
</g>
<path opacity="0.1" d="M235.46 188.76C230.08 191.86 217.58 198.76 215.05 197.58C212.35 196.33 182.89 186.02 173.05 182.58C173.7 179.24 176.05 170.74 183.84 167.95C185.417 167.526 187.073 167.481 188.67 167.82L218.55 179.64C226.92 183.89 233.87 187.84 235.46 188.76Z" fill="black"/>
<path d="M235.46 185.76C230.08 188.86 217.58 195.76 215.05 194.58C212.35 193.33 182.89 183.02 173.05 179.58C173.7 176.24 176.05 167.74 183.84 164.95C185.417 164.526 187.073 164.481 188.67 164.82L218.55 176.64C226.92 180.89 233.87 184.84 235.46 185.76Z" fill="#DCE6F2"/>
<path opacity="0.1" d="M630.55 110.43C630.26 121.7 628.73 132.97 624.04 142.82C615.66 160.41 596.97 170.88 579.55 167.73C577.196 167.432 574.957 166.533 573.05 165.12C571.22 163.423 569.786 161.344 568.85 159.03C565.19 151.17 563.32 142.11 558.2 135.38C553.08 128.65 542.69 125.72 537.75 132.61C535.06 136.34 534.61 142.1 531.02 144.69C526.71 147.8 521.02 144.13 517.67 139.69C507.77 126.69 511.16 101.12 492.28 97.54C489.22 96.95 485.67 97.03 483.62 94.39C482.41 92.83 482.06 90.67 481.77 88.62C481.43 86.21 481.14 83.75 480.97 81.28C480.623 86.7395 480.891 92.2207 481.77 97.62C482.06 99.67 482.41 101.83 483.62 103.39C485.67 106.03 489.22 105.95 492.28 106.54C511.16 110.12 507.77 135.66 517.67 148.69C521.01 153.08 526.67 156.75 531.02 153.69C534.61 151.1 535.02 145.34 537.75 141.61C542.69 134.72 553.08 137.66 558.2 144.38C563.32 151.1 565.2 160.17 568.85 168.03C569.786 170.344 571.22 172.423 573.05 174.12C574.957 175.533 577.196 176.432 579.55 176.73C596.97 179.88 615.66 169.41 624.04 151.82C629.82 139.7 630.79 125.4 630.57 111.63C630.55 111.19 630.55 110.79 630.55 110.43Z" fill="black"/>
<g opacity="0.1">
<path opacity="0.1" d="M695.94 158.43C698.06 164.01 697.39 170.22 696.46 176.12C695.122 184.648 693.323 193.097 691.07 201.43C689.72 206.43 688.19 211.63 689.22 216.71C690.01 220.65 692.22 224.11 693.98 227.71C698.57 237.42 699.36 248.43 699.71 259.16C700.06 269.89 700.05 280.81 703.26 291.05C705.34 298.029 709.314 304.294 714.74 309.15C711.873 305.309 709.682 301.007 708.26 296.43C705.05 286.19 705.05 275.27 704.71 264.54C704.37 253.81 703.57 242.8 698.98 233.1C697.26 229.47 694.98 226.01 694.22 222.1C693.22 217.02 694.72 211.81 696.07 206.81C698.326 198.454 700.125 189.982 701.46 181.43C702.39 175.53 703.06 169.31 700.94 163.73C699.23 159.26 695.94 155.73 692.37 152.3C693.865 154.15 695.069 156.217 695.94 158.43V158.43Z" fill="black"/>
<path opacity="0.1" d="M728.76 319.68C726.087 318.796 723.575 317.486 721.32 315.8C718.49 317.272 715.398 318.169 712.22 318.44C711.61 321.79 713.52 325.2 716.22 327.32C716.757 327.752 717.325 328.143 717.92 328.49C717.224 327.024 716.991 325.382 717.25 323.78C721.373 323.416 725.335 322.005 728.76 319.68V319.68Z" fill="black"/>
<path opacity="0.1" d="M624.82 87.32C621.01 85.5 616.08 85.46 612.34 83.91C612.552 84.605 612.837 85.2754 613.19 85.91C616.34 91.19 624.27 90.05 629.82 92.71C630.521 93.0618 631.19 93.4733 631.82 93.94C630.086 91.1757 627.677 88.8977 624.82 87.32V87.32Z" fill="black"/>
<path opacity="0.1" d="M722.18 333.43C718.349 335.063 714.058 335.266 710.09 334C705.82 332.6 702.29 329.6 698.88 326.66L679.71 310.17C678.8 309.39 677.9 308.6 677.02 307.8C677.22 308.07 677.42 308.35 677.64 308.62C679.78 311.126 682.146 313.429 684.71 315.5L703.88 332C707.29 334.93 710.82 337.94 715.09 339.34C717.653 340.156 720.37 340.367 723.029 339.955C725.687 339.544 728.213 338.522 730.41 336.97C727.516 336.177 724.746 334.986 722.18 333.43Z" fill="black"/>
<path opacity="0.1" d="M661.76 94.4301C666.93 101.52 672.28 109.1 672.96 117.84C673.23 121.42 672.7 125.06 673.38 128.58C674.46 134.21 678.27 138.44 682.53 142.47C680.472 140 679.047 137.065 678.38 133.92C677.7 130.39 678.23 126.75 677.96 123.17C677.28 114.43 671.96 106.85 666.76 99.7701C663 94.6001 659.08 89.3201 654.47 84.9401C657.04 87.9801 659.43 91.2201 661.76 94.4301Z" fill="black"/>
</g>
<path opacity="0.1" d="M617.89 73.7C617.89 73.7 611.89 83.7 628.89 92.03L629.89 89.3599L617.89 73.7Z" fill="black"/>
<path d="M616.89 73.7C616.89 73.7 610.89 83.7 627.89 92.03L628.89 89.3599L616.89 73.7Z" fill="#FF6584"/>
<path d="M814.37 648.85C814.37 651.38 814.66 653.43 815.01 653.43C815.36 653.43 815.64 651.43 815.64 648.85C815.64 646.27 815.29 647.51 814.94 647.51C814.59 647.51 814.37 646.32 814.37 648.85Z" fill="#FFD037"/>
<path d="M810.87 651.87C813.09 653.08 815.02 653.81 815.19 653.5C815.36 653.19 813.7 651.96 811.48 650.75C809.26 649.54 810.13 650.42 809.96 650.75C809.79 651.08 808.65 650.66 810.87 651.87Z" fill="#FFD037"/>
<defs>
<linearGradient id="paint0_linear" x1="380.39" y1="709.36" x2="380.39" y2="40.28" gradientUnits="userSpaceOnUse">
<stop stop-color="#808080" stop-opacity="0.25"/>
<stop offset="0.54" stop-color="#808080" stop-opacity="0.12"/>
<stop offset="1" stop-color="#808080" stop-opacity="0.1"/>
</linearGradient>
</defs>
</svg>
