<svg width="835" height="774" viewBox="0 0 835 774" fill="none" xmlns="http://www.w3.org/2000/svg">
<path d="M64.0001 586C-23.3716 444.198 -22.804 400.976 82.6671 272.067C244.667 74.0669 475.5 61.9999 517.5 63.9999C559.5 65.9999 615.327 60.8616 676.5 124.5C858.497 313.832 905.214 443.736 701.167 609.067C499.745 772.271 199.991 806.71 64.0001 586Z" fill="#3341C0"/>
<path d="M635.3 693.95L632.3 698.35L613.75 725.95L598 730.7L586.25 719.2L586.82 711.61L589.75 672.2C589.75 672.2 517.05 629.43 510.55 621.43C504.05 613.43 479.05 606.18 479.05 606.18C479.05 606.18 440.8 588.43 426.55 557.43C412.3 526.43 450.3 521.68 450.3 521.68L593.05 658.2L635.3 693.95Z" fill="#FFC1C7"/>
<path d="M652.8 709.95L607.55 752.2C607.55 752.2 581.55 757.2 558.3 753.7C543.44 751.46 546.3 743.31 550.21 737.7L550.28 737.6C552.622 734.391 556.046 732.139 559.92 731.26C579.16 726.62 585.8 712.69 585.8 712.69L599.8 724.69L624.05 696.43L641.98 704.85L652.8 709.95Z" fill="#575988"/>
<path opacity="0.1" d="M641.98 704.87L631.33 699.87L632.33 698.35L635.33 693.95L593.05 658.2L450.3 521.7C450.3 521.7 412.3 526.43 426.55 557.43C440.8 588.43 479.05 606.18 479.05 606.18C479.05 606.18 504.05 613.43 510.55 621.43C517.05 629.43 589.8 672.18 589.8 672.18L586.87 711.59L586.73 713.47L585.8 712.68C585.8 712.68 579.16 726.61 559.92 731.25C556.046 732.129 552.622 734.381 550.28 737.59L550.21 737.69C546.21 743.29 543.44 751.44 558.3 753.69C581.55 757.19 607.55 752.19 607.55 752.19L652.8 709.94L641.98 704.87Z" fill="black"/>
<g opacity="0.1">
<path opacity="0.1" d="M619.41 348.43C619.41 348.43 622.97 273.51 664.1 231.72C681.464 214.306 692.71 191.73 696.15 167.38C697.683 155.797 698.152 144.098 697.55 132.43" stroke="#535461" stroke-width="2" stroke-miterlimit="10"/>
<path opacity="0.1" d="M723.34 105.93C720.45 114.27 696.99 133.19 696.99 133.19C696.99 133.19 690.29 103.8 693.17 95.47C694.749 91.7265 697.692 88.7236 701.404 87.0706C705.115 85.4176 709.316 85.2383 713.155 86.5692C716.993 87.9 720.182 90.6413 722.073 94.2368C723.965 97.8323 724.418 102.013 723.34 105.93Z" fill="#6C63FF"/>
<path opacity="0.1" d="M732.27 160.73C725.27 166.15 695.33 169.29 695.33 169.29C695.33 169.29 705.68 140.97 712.63 135.55C715.99 133.261 720.095 132.337 724.111 132.965C728.128 133.594 731.755 135.727 734.255 138.933C736.755 142.138 737.941 146.175 737.573 150.224C737.204 154.272 735.308 158.029 732.27 160.73V160.73Z" fill="#6C63FF"/>
<path opacity="0.1" d="M703.83 239.21C695.09 240.38 667.62 227.95 667.62 227.95C667.62 227.95 690.85 208.73 699.62 207.56C703.675 207.283 707.683 208.558 710.831 211.128C713.979 213.699 716.031 217.37 716.571 221.398C717.11 225.426 716.097 229.509 713.736 232.817C711.376 236.125 707.845 238.411 703.86 239.21H703.83Z" fill="#6C63FF"/>
<path opacity="0.1" d="M668.93 293.74C660.52 296.38 631.35 288.74 631.35 288.74C631.35 288.74 650.99 265.88 659.41 263.25C661.455 262.451 663.641 262.082 665.835 262.165C668.028 262.247 670.181 262.78 672.159 263.731C674.138 264.681 675.899 266.028 677.335 267.689C678.771 269.349 679.849 271.287 680.504 273.382C681.158 275.477 681.375 277.684 681.14 279.866C680.905 282.048 680.223 284.159 679.138 286.067C678.052 287.974 676.586 289.638 674.83 290.955C673.074 292.271 671.066 293.213 668.93 293.72V293.74Z" fill="#6C63FF"/>
<path opacity="0.1" d="M663.1 159.91C667.1 167.79 692.82 183.46 692.82 183.46C692.82 183.46 695.59 153.46 691.63 145.57C689.572 142.068 686.259 139.48 682.363 138.331C678.467 137.182 674.28 137.558 670.651 139.382C667.022 141.206 664.222 144.342 662.82 148.154C661.418 151.966 661.518 156.169 663.1 159.91V159.91Z" fill="#6C63FF"/>
<path opacity="0.1" d="M623.1 224.21C629.24 230.54 658.5 237.79 658.5 237.79C658.5 237.79 652.17 208.31 646.03 201.98C643.02 199.242 639.079 197.754 635.01 197.819C630.941 197.884 627.05 199.496 624.128 202.329C621.206 205.162 619.473 209.001 619.283 213.066C619.092 217.131 620.457 221.116 623.1 224.21V224.21Z" fill="#6C63FF"/>
<path opacity="0.1" d="M592.8 292.03C597.8 299.31 625.4 311.4 625.4 311.4C625.4 311.4 624.13 281.28 619.16 274C616.647 270.828 613.025 268.727 609.024 268.119C605.022 267.511 600.94 268.442 597.597 270.724C594.255 273.006 591.902 276.47 591.012 280.418C590.122 284.366 590.761 288.504 592.8 292V292.03Z" fill="#6C63FF"/>
</g>
<path opacity="0.1" d="M235.43 132.77C235.43 132.77 227.29 155.22 244.1 157.27C244.873 157.648 245.746 157.773 246.593 157.626C247.441 157.478 248.221 157.067 248.82 156.45C248.82 156.45 247.64 156.06 248.73 153.88C249.102 153.099 249.377 152.277 249.55 151.43C249.806 150.285 249.684 149.089 249.2 148.02V148.02C249.2 148.02 248.45 140.81 238.69 135.21C238.69 135.21 236.94 132.68 236.33 132.58L236.84 136.92C236.84 136.92 240.01 136.43 242.02 138.15C242.02 138.15 237.02 136.8 236.88 137.57C236.88 137.73 237.25 139.86 237.25 139.86C237.25 139.86 242.77 139.03 245.79 141.78C245.79 141.78 240.01 139.37 237.4 140.67L238.18 143.86C238.18 143.86 243.97 142.69 247.52 145.7C247.52 145.7 241.39 143.38 238.39 144.54L239.58 147.54C239.58 147.54 245.25 146.54 248.19 149.03C248.19 149.03 240.84 147.03 239.9 148.22C240.413 149.386 241.068 150.485 241.85 151.49C241.85 151.49 245.93 150.85 247.51 152.49C247.51 152.49 242.46 151.7 242.28 152.23C242.28 152.23 244.86 155.33 247 156.23C244.994 155.523 243.208 154.302 241.82 152.69C241.699 153.981 241.952 155.279 242.55 156.43C242.55 156.43 240.38 155.43 241.21 151.89C241.21 151.89 239.29 149.39 239.28 148.89C239.28 148.89 237.97 152.27 238.28 154.64C238.28 154.64 236.68 152.16 238.94 148.1L237.68 145.1C237.68 145.1 235.68 149.47 235.82 151.6C235.82 151.6 234.58 148.82 237.42 144.31L236.62 141.2C235.576 143.09 234.78 145.107 234.25 147.2C234.25 147.2 233.66 144.36 236.43 140.26L236.14 138.11C236.14 138.11 234.74 140.79 234.4 141.6C234.06 142.41 233.82 142.38 233.82 142.38C234.057 140.489 234.811 138.7 236 137.21C236 137.21 235.71 132.78 235.43 132.77Z" fill="#6C63FF"/>
<path d="M264.55 599.2C264.55 599.2 263.8 611.7 259.05 615.7C259.05 615.7 249.3 672.2 240.3 682.45L238.8 688.2L201.3 683.95L208.8 633.95L215.8 587.95L264.55 599.2Z" fill="#FFC1C8"/>
<path opacity="0.03" d="M264.55 599.2C264.55 599.2 263.8 611.7 259.05 615.7C259.05 615.7 249.3 672.2 240.3 682.45L238.8 688.2L201.3 683.95L208.8 633.95L215.8 587.95L264.55 599.2Z" fill="black"/>
<path d="M224.14 683.15L240.3 682.44L239.44 707.88L227.07 716.17L204.79 711.29L212.92 677.29L224.14 683.15Z" fill="#FF748F"/>
<path opacity="0.03" d="M224.14 683.15L240.3 682.44L239.44 707.88L227.07 716.17L204.79 711.29L212.92 677.29L224.14 683.15Z" fill="black"/>
<path d="M227.07 705.93C227.07 705.93 239.76 702.19 245.78 707.07C251.8 711.95 266.44 724.96 269.37 726.59C272.3 728.22 314.55 736.19 300.6 746.43C286.65 756.67 250.83 753.75 250.83 753.75C250.83 753.75 227.4 746.91 226.75 746.59C226.1 746.27 211.75 739.27 211.3 738.78C210.85 738.29 215.36 705.78 215.36 705.78L227.07 705.93Z" fill="#5D618C"/>
<path opacity="0.03" d="M227.07 705.93C227.07 705.93 239.76 702.19 245.78 707.07C251.8 711.95 266.44 724.96 269.37 726.59C272.3 728.22 314.55 736.19 300.6 746.43C286.65 756.67 250.83 753.75 250.83 753.75C250.83 753.75 227.4 746.91 226.75 746.59C226.1 746.27 211.75 739.27 211.3 738.78C210.85 738.29 215.36 705.78 215.36 705.78L227.07 705.93Z" fill="black"/>
<path d="M190.3 367.95L189.55 414.43L187.85 513.58L186.85 514.45C157.1 540.2 136.1 512.95 136.1 512.95C134.52 514.82 131.1 515.71 127.42 516.09C123.395 516.45 119.345 516.45 115.32 516.09L114.32 516C114.32 516 35.8002 419.43 31.0502 402.43C30.108 399.555 30.1326 396.45 31.1202 393.59C32.6702 389.53 36.3802 387.11 39.9302 385.68C42.5344 384.651 45.2658 383.978 48.0502 383.68C48.0502 383.68 45.8002 365.93 35.5502 339.68C29.7902 324.93 30.3502 317.44 31.9402 313.68C33.1802 310.77 35.0502 310.15 35.0502 310.15C35.0502 310.15 38.2102 307.82 43.3002 304.15C47.5302 301.06 53.1002 297.02 59.3002 292.55L65.0502 288.43C86.2602 273.21 111.82 255.29 117.05 253.43C117.377 253.311 117.711 253.214 118.05 253.14C128.78 250.55 164.79 255.93 164.79 255.93L190.3 367.95Z" fill="#6C63FF"/>
<path opacity="0.1" d="M190.3 367.95L189.55 414.43C153.98 403.94 120.91 334.43 116.55 328.95C112.82 324.19 116.65 271.18 118.06 253.16C128.79 250.57 164.8 255.95 164.8 255.95L190.3 367.95Z" fill="black"/>
<path d="M598.55 277.43C598.55 277.43 570.8 291.68 567.3 347.68C567.3 347.68 562.8 376.18 560.3 381.18C557.8 386.18 545.8 433.43 547.3 439.18C547.3 439.18 544.8 444.93 535.55 442.43C526.3 439.93 476.3 432.18 465.05 424.68L434.05 409.93C434.05 409.93 373.55 367.18 360.8 403.93C348.05 440.68 420.55 439.2 420.55 439.2L454.8 455.2L558.55 489.43C558.55 489.43 572.3 495.68 581.55 475.68C587.469 463.081 594.496 451.033 602.55 439.68C602.55 439.68 623.55 380.68 623.3 370.68C623.05 360.68 645.8 336.93 645.8 336.93C645.8 336.93 650.3 273.93 613.3 275.18L598.55 277.43Z" fill="#FFC1C7"/>
<path opacity="0.03" d="M598.55 277.43C598.55 277.43 570.8 291.68 567.3 347.68C567.3 347.68 562.8 376.18 560.3 381.18C557.8 386.18 545.8 433.43 547.3 439.18C547.3 439.18 544.8 444.93 535.55 442.43C526.3 439.93 476.3 432.18 465.05 424.68L434.05 409.93C434.05 409.93 373.55 367.18 360.8 403.93C348.05 440.68 420.55 439.2 420.55 439.2L454.8 455.2L558.55 489.43C558.55 489.43 572.3 495.68 581.55 475.68C587.469 463.081 594.496 451.033 602.55 439.68C602.55 439.68 623.55 380.68 623.3 370.68C623.05 360.68 645.8 336.93 645.8 336.93C645.8 336.93 650.3 273.93 613.3 275.18L598.55 277.43Z" fill="black"/>
<path d="M305.05 326.07C306.55 327.82 313.55 331.43 313.55 331.43C313.55 331.43 336.55 358.8 345.8 365.8C355.05 372.8 385.3 399.55 379.18 409.68C373.06 419.81 366.18 417.55 366.18 417.55L312.05 380.05C312.05 380.05 293.05 366.43 289.18 359.93C285.31 353.43 280.55 339.82 280.55 339.82L305.05 326.07Z" fill="#FFC1C8"/>
<path opacity="0.03" d="M305.05 326.07C306.55 327.82 313.55 331.43 313.55 331.43C313.55 331.43 336.55 358.8 345.8 365.8C355.05 372.8 385.3 399.55 379.18 409.68C373.06 419.81 366.18 417.55 366.18 417.55L312.05 380.05C312.05 380.05 293.05 366.43 289.18 359.93C285.31 353.43 280.55 339.82 280.55 339.82L305.05 326.07Z" fill="black"/>
<path d="M274.68 279.32L313.55 331.44L278.55 345.07L264.05 301.44L274.68 279.32Z" fill="#DCE6F2"/>
<path opacity="0.03" d="M274.68 279.32L313.55 331.44L278.55 345.07L264.05 301.44L274.68 279.32Z" fill="black"/>
<path d="M284.8 412.2L291.8 422.45L297.8 575.95C297.8 575.95 298.3 590.45 294.05 594.7C289.8 598.95 255.05 596.2 255.05 596.2C255.05 596.2 256.3 439.7 256.8 436.7C257.3 433.7 284.8 412.2 284.8 412.2Z" fill="#575988"/>
<path opacity="0.1" d="M284.8 412.2L291.8 422.45L297.8 575.95C297.8 575.95 298.3 590.45 294.05 594.7C289.8 598.95 255.05 596.2 255.05 596.2C255.05 596.2 256.3 439.7 256.8 436.7C257.3 433.7 284.8 412.2 284.8 412.2Z" fill="black"/>
<path d="M237.99 606.24C235.714 611.837 233.04 617.264 229.99 622.48C229.99 622.48 223.49 659.57 220.72 662.99C218.72 665.49 217.8 684.15 217.47 693.88C217.35 697.4 217.3 699.75 217.3 699.75L179.08 717.97L178.91 693.89C178.91 693.89 178.91 693.78 178.91 693.57C178.67 688.26 175.91 626.76 181.7 623.18C185.1 621.07 188.34 612.18 190.53 604.89C192.2 599.26 193.25 594.55 193.25 594.55C193.25 594.55 235.71 591.79 239.25 596.34C240.55 597.96 239.65 601.9 237.99 606.24Z" fill="#FFC1C8"/>
<path opacity="0.1" d="M237.99 606.24C220.77 605.88 199.19 605.15 190.47 604.84C192.14 599.21 193.19 594.5 193.19 594.5C193.19 594.5 235.65 591.74 239.19 596.29C240.55 597.96 239.65 601.9 237.99 606.24Z" fill="black"/>
<path d="M187.8 378.7C187.8 378.7 176.05 441.2 178.3 481.45C180.55 521.7 176.55 551.43 181.55 563.2C186.55 574.97 186.55 601.7 186.55 601.7C186.55 601.7 254.55 604.2 261.55 603.2C268.55 602.2 268.3 596.95 268.3 596.95C268.3 596.95 263.55 555.43 268.05 542.43C272.55 529.43 271.8 489.68 271.8 489.68L290.8 425.68C290.8 425.68 296.55 396.93 284.55 385.18C272.55 373.43 187.8 378.7 187.8 378.7Z" fill="#575988"/>
<path d="M591.3 708.95L588.3 713.35L569.75 740.95L554 745.7L542.25 734.2L542.82 726.61L545.75 687.2C545.75 687.2 473.05 644.43 466.55 636.43C460.05 628.43 435.05 621.18 435.05 621.18C435.05 621.18 396.8 603.43 382.55 572.43C368.3 541.43 406.3 536.68 406.3 536.68L549.05 673.2L591.3 708.95Z" fill="#FFC1C7"/>
<path opacity="0.1" d="M588.35 713.34L569.8 740.94L554.05 745.69L542.3 734.19L542.87 726.6L555.8 737.69L580.05 709.44L588.35 713.34Z" fill="black"/>
<path d="M608.8 724.95L563.55 767.2C563.55 767.2 537.55 772.2 514.3 768.7C499.44 766.46 502.3 758.31 506.21 752.7L506.28 752.6C508.622 749.391 512.046 747.139 515.92 746.26C535.16 741.62 541.8 727.69 541.8 727.69L555.8 739.69L580.05 711.43L597.98 719.85L608.8 724.95Z" fill="#575988"/>
<path d="M608.8 725.43L563.55 767.7C563.55 767.7 537.55 772.7 514.3 769.2C499.44 766.96 501.3 758.81 505.21 753.2C509.706 756.764 515.103 759.011 520.8 759.69C533.55 760.94 552.8 759.69 552.8 759.69L597.98 720.36L608.8 725.43Z" fill="white"/>
<path d="M235.22 219.03C231.54 220.87 229.85 226.55 229.17 233.03C228.02 244.09 229.88 257.41 229.88 257.41C229.88 257.41 179.88 243.74 185.22 241.07C188.29 239.54 189.92 228.4 190.75 219.23C191.37 212.45 191.55 206.74 191.55 206.74C191.55 206.74 245.22 214.03 235.22 219.03Z" fill="#FFC1C8"/>
<path d="M633.22 279.7C633.22 279.7 572.55 337.03 574.55 320.37C574.83 318.05 574.03 314.84 572.45 311.05C566.84 297.53 551.33 276.54 539.2 261.19C530.3 249.93 523.2 241.7 523.2 241.7C523.2 241.7 598.55 178.37 592.55 214.37C591.3 222.579 592.442 230.974 595.84 238.55C603.35 256.23 619.99 270.14 628.3 276.28C631.3 278.49 633.22 279.7 633.22 279.7Z" fill="#FFC1C7"/>
<path opacity="0.1" d="M584.22 225.36C583.13 226.71 579.09 231.45 577.89 232.7C566.49 244.57 564.97 261.7 547.22 261.7C544.545 261.702 541.873 261.531 539.22 261.19C530.32 249.93 523.22 241.7 523.22 241.7C523.22 241.7 598.55 178.37 592.55 214.37C591.13 222.91 581.05 217.88 584.22 225.36Z" fill="black"/>
<path d="M609.88 197.03C609.882 209.426 606.208 221.544 599.323 231.851C592.437 242.159 582.65 250.193 571.198 254.938C559.746 259.682 547.144 260.924 534.986 258.506C522.829 256.088 511.661 250.12 502.896 241.354C494.131 232.589 488.162 221.422 485.744 209.264C483.326 197.106 484.568 184.504 489.313 173.053C494.057 161.601 502.091 151.813 512.399 144.928C522.706 138.042 534.824 134.368 547.22 134.37C555.458 134.338 563.62 135.937 571.237 139.075C578.853 142.213 585.774 146.827 591.598 152.652C597.423 158.477 602.038 165.397 605.175 173.014C608.313 180.63 609.912 188.792 609.88 197.03V197.03Z" fill="#FFC1C7"/>
<path opacity="0.1" d="M633.22 279.7C633.22 279.7 572.55 337.03 574.55 320.37C574.83 318.05 574.03 314.84 572.45 311.05L581.22 290.37C591.965 280.958 605.746 275.738 620.03 275.67C622.629 275.668 625.225 275.845 627.8 276.2L628.3 276.28C631.3 278.49 633.22 279.7 633.22 279.7Z" fill="black"/>
<path d="M704.55 699.7C704.55 699.7 661.55 768.36 661.55 773.7C661.55 773.7 612.88 754.7 595.55 750.7C578.22 746.7 561.88 710.37 561.88 710.37C561.88 710.37 515.88 667.03 497.88 661.03C482.61 655.94 409.23 552.43 387.37 521.2C384.694 517.378 383.302 512.805 383.396 508.14C383.489 503.476 385.063 498.961 387.89 495.25L388.3 494.72C394.085 487.442 401.746 481.88 410.459 478.634C419.171 475.388 428.603 474.581 437.74 476.3C439.768 476.673 441.772 477.167 443.74 477.78C475.22 487.51 529.74 504.23 557.24 511.78C566.44 514.31 572.59 515.78 573.84 515.69C576.84 515.38 578.49 512.69 579.4 509.74C580.095 507.34 580.468 504.858 580.51 502.36C580.51 502.36 580.51 502.2 580.51 501.91C579.667 495.552 578.344 489.268 576.55 483.11C573.34 472.11 567.78 459.2 558.55 453.03C550.89 447.92 544.8 436.65 541.61 423.55C537.32 405.86 538.31 384.81 547.88 371.03L557.13 349.21L572.6 312.71L581.22 292.37C591.966 282.958 605.746 277.738 620.03 277.67C622.629 277.668 625.226 277.845 627.8 278.2C634.43 279.12 640.16 281.11 642.55 285.03C649.88 297.03 666.55 319.03 669.88 341.03C673.21 363.03 669.22 399.03 680.55 412.37C691.88 425.71 698.55 457.7 710.55 464.37C722.55 471.04 691.22 485.03 691.22 485.03L691.34 487.14L691.88 496.37C691.88 496.37 692.1 496.62 692.5 497.12C699.48 505.76 762.55 588.71 704.55 699.7Z" fill="#FF6584"/>
<path d="M692.55 497.12C679.41 499.87 650.67 505.86 637.85 508.49L635.6 508.95C634.85 509.1 634.01 509.24 633.1 509.37C620.22 511.14 592.28 510.27 579.49 509.75C580.185 507.35 580.558 504.868 580.6 502.37C580.6 502.37 580.6 502.21 580.6 501.92C590.33 501.29 613.39 499.45 633.15 495.39C634.76 495.06 636.35 494.71 637.9 494.39C640.14 493.87 642.32 493.32 644.4 492.74C662.12 487.74 680.83 487.08 691.4 487.18L691.94 496.41C691.94 496.41 692.1 496.62 692.55 497.12Z" fill="#575988"/>
<path d="M637.8 494.35V508.49L635.55 508.95C634.8 509.1 633.96 509.24 633.05 509.37V495.43C634.66 495.06 636.25 494.71 637.8 494.35Z" fill="#FF6584"/>
<path opacity="0.1" d="M650.05 521.43C650.05 521.43 623.3 582.68 607.05 588.68C590.8 594.68 550.3 615.93 550.3 615.93C550.3 615.93 573.55 636.43 597.8 613.93C622.05 591.43 657.05 531.43 650.05 521.43Z" fill="black"/>
<path opacity="0.1" d="M679.3 513.2C679.3 513.2 681.8 536.45 678.3 540.7C674.8 544.95 679.3 513.2 679.3 513.2Z" fill="black"/>
<path opacity="0.1" d="M693.8 528.43C693.8 528.43 707.3 669.93 640.3 670.68C640.3 670.7 703.05 608.43 693.8 528.43Z" fill="black"/>
<path opacity="0.1" d="M710.8 562.43C710.8 562.43 730.05 636.68 704.8 645.18C704.8 645.2 718.05 606.7 710.8 562.43Z" fill="black"/>
<path opacity="0.1" d="M591.05 543.43C589.8 543.43 539.05 552.18 550.05 559.18C561.05 566.18 591.05 543.43 591.05 543.43Z" fill="black"/>
<path opacity="0.1" d="M626.05 443.2C626.05 443.2 667.55 479.95 659.55 483.95Z" fill="black"/>
<path opacity="0.1" d="M622.55 454.95C622.55 454.95 646.55 484.45 643.8 486.2Z" fill="black"/>
<path opacity="0.1" d="M673.8 450.43C673.8 450.43 684.8 464.18 683.05 467.18Z" fill="black"/>
<path opacity="0.1" d="M684.8 443.2C684.8 443.2 700.55 455.43 697.05 460.2Z" fill="black"/>
<path d="M597.3 294.2C597.3 294.2 648.55 298.2 646.3 339.45C644.05 380.7 605.8 391.2 605.8 391.2L556.05 376.95C556.05 376.95 578.3 296.95 597.3 294.2Z" fill="#FFC1C7"/>
<path opacity="0.1" d="M443.78 477.78C475.26 487.51 529.78 504.23 557.28 511.78C555.478 512.698 553.504 513.231 551.484 513.342C549.464 513.454 547.443 513.144 545.55 512.43L441.8 478.2L437.74 476.3C439.781 476.672 441.798 477.166 443.78 477.78Z" fill="black"/>
<path opacity="0.1" d="M619.35 375.82C614.48 382.32 610.19 389.32 610.35 393.7C610.43 396.85 608.35 404.88 605.57 414.39C598.409 438.275 588.686 461.316 576.57 483.11C573.36 472.11 567.8 459.2 558.57 453.03C550.91 447.92 544.82 436.65 541.63 423.55C544.06 414.07 546.37 406.1 547.32 404.2C549.82 399.2 554.32 370.7 554.32 370.7C554.743 363.478 555.689 356.296 557.15 349.21C560.78 331.88 566.95 320.21 572.62 312.71C579.46 303.59 585.62 300.45 585.62 300.45L600.37 298.2C617.37 297.63 625.57 310.56 629.52 324.73C634.36 342.34 630.31 361.18 619.35 375.82Z" fill="black"/>
<path d="M582.55 296.43C582.55 296.43 554.8 310.68 551.3 366.68C551.3 366.68 546.8 395.18 544.3 400.18C541.8 405.18 529.8 452.43 531.3 458.18C531.3 458.18 528.8 463.93 519.55 461.43C510.3 458.93 460.3 451.18 449.05 443.68L418.05 428.93C418.05 428.93 357.55 386.18 344.8 422.93C332.05 459.68 404.55 458.2 404.55 458.2L438.8 474.2L542.55 508.43C542.55 508.43 556.3 514.68 565.55 494.68C567.86 489.68 570.33 484.93 572.74 480.61C585.22 458.38 595.217 434.846 602.55 410.43C605.38 400.92 607.41 392.89 607.33 389.74C607.22 385.36 611.52 378.35 616.33 371.86C627.33 357.22 631.33 338.38 626.43 320.76C622.48 306.59 614.24 293.66 597.28 294.24L582.55 296.43Z" fill="#FFC1C7"/>
<path opacity="0.1" d="M235.22 219.03C231.54 220.87 229.85 226.55 229.17 233.03C228.52 233.03 227.87 233.03 227.22 233.03C213.776 233.055 200.793 228.128 190.75 219.19C191.37 212.41 191.55 206.7 191.55 206.7C191.55 206.7 245.22 214.03 235.22 219.03Z" fill="black"/>
<path d="M282.22 176.03C282.22 186.908 278.995 197.542 272.951 206.586C266.908 215.631 258.318 222.681 248.268 226.843C238.218 231.006 227.159 232.095 216.49 229.973C205.821 227.851 196.021 222.613 188.329 214.921C180.637 207.229 175.399 197.429 173.277 186.76C171.155 176.091 172.244 165.032 176.407 154.982C180.57 144.933 187.619 136.343 196.664 130.299C205.709 124.256 216.342 121.03 227.22 121.03C241.797 121.062 255.768 126.867 266.076 137.174C276.384 147.482 282.189 161.453 282.22 176.03V176.03Z" fill="#FFC1C8"/>
<path opacity="0.1" d="M300.8 391.43C300.8 391.43 272.05 402.93 263.05 406.93C254.05 410.93 202.55 401.68 202.55 401.68C202.55 401.68 175.8 388.18 178.05 374.68C180.3 361.18 156.55 316.95 156.55 316.95C156.55 316.95 155.8 277.7 166.3 270.2C176.8 262.7 172.8 246.95 172.8 246.95C172.8 246.95 172.85 246.43 173.01 245.58C173.66 242.24 176.01 233.74 183.8 230.95C185.377 230.526 187.033 230.481 188.63 230.82C196.1 231.95 208.37 237.51 218.52 242.64C226.92 246.89 233.87 250.84 235.46 251.76L235.8 251.95C235.8 251.95 239.55 260.7 244.05 257.95C248.55 255.2 271.05 267.95 275.3 273.7C279.55 279.45 276.55 306.45 275.8 313.2C275.05 319.95 280.05 339.95 285.55 351.43C291.05 362.91 300.8 391.43 300.8 391.43Z" fill="black"/>
<path d="M300.8 388.43C300.8 388.43 272.05 399.93 263.05 403.93C254.05 407.93 202.55 398.68 202.55 398.68C202.55 398.68 175.8 385.18 178.05 371.68C180.3 358.18 156.55 313.95 156.55 313.95C156.55 313.95 155.8 274.7 166.3 267.2C176.8 259.7 172.8 243.95 172.8 243.95C172.8 243.95 172.85 243.43 173.01 242.58C173.66 239.24 176.01 230.74 183.8 227.95C185.377 227.526 187.033 227.481 188.63 227.82C196.1 228.95 208.37 234.51 218.52 239.64C226.92 243.89 233.87 247.84 235.46 248.76L235.8 248.95C235.8 248.95 239.55 257.7 244.05 254.95C248.55 252.2 271.05 264.95 275.3 270.7C279.55 276.45 276.55 303.45 275.8 310.2C275.05 316.95 280.05 336.95 285.55 348.43C291.05 359.91 300.8 388.43 300.8 388.43Z" fill="#DCE6F2"/>
<path d="M207.72 350.03C207.72 350.03 183.05 390.03 179.05 392.2L180.55 406.2C180.55 406.2 215.72 398.86 217.89 389.03C220.06 379.2 218.89 349.53 218.89 349.53L207.72 350.03Z" fill="#575988"/>
<path opacity="0.2" d="M207.72 350.03C207.72 350.03 183.05 390.03 179.05 392.2L180.55 406.2C180.55 406.2 215.72 398.86 217.89 389.03C220.06 379.2 218.89 349.53 218.89 349.53L207.72 350.03Z" fill="black"/>
<path opacity="0.1" d="M242.43 299.07C242.43 299.07 246.8 315.95 253.68 321.7C260.56 327.45 242.43 299.07 242.43 299.07Z" fill="black"/>
<path d="M199.55 343.57C200.18 344.7 221.3 373.45 243.55 384.07C265.8 394.69 315.43 407.2 315.43 407.2C315.43 407.2 355.68 414.7 362.55 417.57C369.42 420.44 378.18 407.57 335.05 389.2C291.92 370.83 283.55 362.7 283.55 362.7C283.55 362.7 246.05 344.43 240.05 335.43C234.05 326.43 199.55 343.57 199.55 343.57Z" fill="#FFC1C8"/>
<path opacity="0.1" d="M215.3 483.43C216.05 482.93 234.05 463.68 236.3 471.93C238.55 480.18 215.3 483.43 215.3 483.43Z" fill="black"/>
<path opacity="0.1" d="M225.8 445.43C225.55 446.18 223.05 467.43 215.8 469.93Z" fill="black"/>
<path opacity="0.1" d="M233.3 451.2C233.3 451.2 226.8 473.95 218.55 475.43Z" fill="black"/>
<path opacity="0.1" d="M200.3 519.43C200.3 519.43 211.3 519.68 212.8 512.68Z" fill="black"/>
<path opacity="0.1" d="M215.3 564.95C216.8 565.2 240.3 580.2 234.3 583.2C228.3 586.2 215.3 564.95 215.3 564.95Z" fill="black"/>
<path opacity="0.1" d="M217.43 691.57V693.88C217.31 697.4 217.26 699.75 217.26 699.75L179.04 717.97L178.87 693.89C178.87 693.89 178.87 693.78 178.87 693.57V691.94L194.17 692.43L217.43 691.57Z" fill="black"/>
<path d="M224.58 726.58L192.7 738.78L178.39 730.32L178.54 718.74L178.87 693.88L194.17 694.37L217.43 693.56V710.97L224.58 726.58Z" fill="#FF748F"/>
<path opacity="0.1" d="M224.55 726.59L192.67 738.79L178.36 730.33L178.51 718.75C180.586 721.471 183.24 723.699 186.279 725.272C189.319 726.845 192.67 727.726 196.09 727.85C196.09 727.85 207.31 713.85 214.14 709.79C214.625 709.499 215.164 709.311 215.725 709.235C216.285 709.159 216.855 709.198 217.4 709.35V710.98L224.55 726.59Z" fill="black"/>
<path d="M196.12 729.84C196.12 729.84 183.12 730.01 176.6 717.64C176.6 717.64 167.33 726.59 167.16 745.46C166.99 764.33 167.33 764.98 167.33 764.98C167.33 764.98 204.74 763.52 211.74 766.12C218.74 768.72 277.46 763.84 277.46 763.84C277.46 763.84 281.36 753.59 263.63 750.01C245.9 746.43 231.26 727.56 230.77 726.75C230.28 725.94 221.01 707.75 214.18 711.75C207.35 715.75 196.12 729.84 196.12 729.84Z" fill="#5D618C"/>
<path opacity="0.1" d="M230.6 115.27L226.87 114.76L229.2 114.7L230.6 115.27Z" fill="black"/>
<path opacity="0.1" d="M282.22 176.03C282.222 180.296 281.729 184.548 280.75 188.7C279.915 188.485 279.117 188.148 278.38 187.7C277.31 187.01 276.24 186.06 274.98 186.17C274.241 186.286 273.549 186.605 272.98 187.09C267.06 191.42 262.66 198.54 255.46 199.92C256.182 197.813 256.279 195.541 255.74 193.38C254.213 194.916 252.34 196.062 250.278 196.723C248.216 197.385 246.025 197.541 243.89 197.18C244.411 195.932 244.471 194.539 244.06 193.25C238.99 196.09 233.712 198.54 228.27 200.58C228.08 199.58 227.9 198.66 227.71 197.7C220.05 201.44 220.65 214.13 212.99 217.87C208.43 220.1 201.99 218.5 198.84 222.52C198.72 222.68 198.61 222.84 198.5 223.01C190.315 218.003 183.582 210.942 178.971 202.529C174.359 194.115 172.028 184.641 172.21 175.048C172.392 165.455 175.081 156.076 180.009 147.844C184.937 139.611 191.933 132.811 200.302 128.118C208.671 123.426 218.122 121.004 227.716 121.094C237.311 121.184 246.715 123.783 254.994 128.631C263.274 133.48 270.141 140.411 274.913 148.734C279.686 157.058 282.198 166.485 282.2 176.08L282.22 176.03Z" fill="black"/>
<path d="M230.6 113.26C225.98 111.35 221.29 109.43 216.32 108.86C211.35 108.29 205.99 109.26 202.24 112.57C199.24 115.21 196.89 119.45 192.89 119.57C190.94 119.64 189.14 118.66 187.39 117.81C182.39 115.41 176.14 114.05 171.63 117.23C168.03 119.78 166.68 124.46 166.09 128.83C165.5 133.2 165.36 137.83 163.28 141.68C161.99 144.08 160.03 146.04 158.41 148.23C154.293 153.794 152.357 160.675 152.97 167.57C153.388 170.98 154.118 174.344 155.15 177.62L159.23 192.03C161.3 199.35 163.41 206.77 167.35 213.28C171.29 219.79 177.35 225.39 184.75 227.07C189.21 228.07 194.61 227.25 197.11 223.42C197.75 222.42 198.16 221.35 198.86 220.42C201.96 216.42 208.45 218.01 213.01 215.78C220.67 212.04 220.07 199.35 227.73 195.61L228.3 198.48C233.736 196.437 239.01 193.99 244.08 191.16C244.489 192.448 244.432 193.839 243.92 195.09C246.054 195.446 248.242 195.287 250.301 194.626C252.361 193.965 254.233 192.821 255.76 191.29C256.299 193.451 256.202 195.723 255.48 197.83C262.68 196.44 267.08 189.32 273 184.99C273.573 184.512 274.264 184.197 275 184.08C276.27 183.97 277.33 184.92 278.4 185.6C280.254 186.725 282.434 187.189 284.584 186.914C286.735 186.64 288.729 185.644 290.24 184.09C293.39 180.67 293.53 175.41 292.52 170.87C291.51 166.33 289.52 162 289.09 157.37C288.46 151.06 290.66 144.47 288.64 138.47C286.93 133.38 282.45 129.69 277.64 127.27C272.83 124.85 267.64 123.44 262.73 121.27C258.07 119.18 253.73 116.38 248.89 114.73C241.89 112.34 234.28 112.53 226.89 112.73" fill="#794F6A"/>
<path d="M231.55 299.53C231.55 299.53 239.55 245.7 171.05 248.36L136.55 252.95C136.55 252.95 169.46 258.87 177.38 259.74L178.22 259.86C185.55 261.2 210.89 259.53 231.55 299.53Z" fill="#6C63FF"/>
<path opacity="0.1" d="M187.8 514.2V513.58C215.89 489.29 187.8 514.2 187.8 514.2Z" fill="black"/>
<path d="M127.37 516.09C123.345 516.45 119.296 516.45 115.27 516.09L31.1204 393.61C32.6704 389.55 36.3804 387.13 39.9304 385.7L127.37 516.09Z" fill="#575988"/>
<path d="M72.8002 384.95L68.8002 389.7C68.8002 389.7 38.4602 339.3 31.9402 313.7C33.1802 310.79 35.0502 310.17 35.0502 310.17C35.0502 310.17 38.2102 307.84 43.3002 304.17C45.1902 316.21 51.6402 345.65 72.8002 384.95Z" fill="#575988"/>
<path d="M95.0503 369.43L87.0503 373.93C65.2103 348.37 63.3503 305.43 63.5503 288.32L69.3103 284.18C70.0903 306.65 95.0503 369.43 95.0503 369.43Z" fill="#575988"/>
<path opacity="0.1" d="M116.05 364.95C115.8 368.2 106.55 401.2 120.05 406.7C133.55 412.2 116.05 364.95 116.05 364.95Z" fill="black"/>
<path opacity="0.1" d="M145.05 421.7C145.55 423.45 150.05 480.45 159.8 475.95C169.55 471.45 164.3 406.45 164.3 406.45L145.05 421.7Z" fill="black"/>
<path opacity="0.1" d="M609.88 197.03C609.901 213.216 603.633 228.777 592.4 240.43C587.825 241.399 583.106 241.481 578.5 240.67C576.146 240.372 573.907 239.473 572 238.06C570.164 236.366 568.726 234.286 567.79 231.97C564.14 224.12 562.27 215.05 557.15 208.33C552.03 201.61 541.64 198.66 536.7 205.55C534.01 209.29 533.56 215.04 529.97 217.63C525.66 220.75 519.97 217.08 516.62 212.63C506.72 199.63 510.11 174.07 491.23 170.48L490.47 170.35C496.525 157.441 506.8 146.982 519.6 140.7C532.401 134.418 546.96 132.689 560.876 135.798C574.791 138.907 587.231 146.669 596.14 157.801C605.049 168.934 609.896 182.771 609.88 197.03V197.03Z" fill="black"/>
<path d="M492.23 169.55C489.17 168.96 485.62 169.04 483.57 166.4C482.36 164.84 482.01 162.68 481.72 160.63C480.49 151.77 479.82 142.26 483.35 134.23C489.14 121.06 504.04 116.66 516.99 117.64C529.94 118.62 542.65 123.45 555.6 122.64C565.12 122.02 574.51 118.34 584 119.39C591.51 120.23 598.51 123.96 605.26 127.77C611.58 131.33 618.04 135.16 622.52 141.34C629.1 150.39 630.34 162.89 630.52 174.62C630.74 188.39 629.77 202.69 623.99 214.81C615.61 232.4 596.92 242.87 579.5 239.72C577.146 239.422 574.907 238.523 573 237.11C571.17 235.413 569.736 233.334 568.8 231.02C565.14 223.16 563.27 214.1 558.15 207.37C553.03 200.64 542.64 197.71 537.7 204.6C535.01 208.33 534.56 214.09 530.97 216.68C526.66 219.79 520.97 216.12 517.62 211.68C507.72 198.67 511.11 173.13 492.23 169.55Z" fill="#945B79"/>
<path d="M644.41 140.48C653.94 145.03 660.55 153.89 666.76 162.42C671.93 169.51 677.28 177.09 677.96 185.83C678.23 189.41 677.7 193.05 678.38 196.57C680.77 209 696.38 214.57 700.94 226.41C703.06 231.99 702.39 238.2 701.46 244.1C700.123 252.635 698.324 261.09 696.07 269.43C694.72 274.43 693.19 279.63 694.22 284.71C695.01 288.65 697.22 292.11 698.98 295.71C703.57 305.42 704.36 316.43 704.71 327.16C705.06 337.89 705.05 348.81 708.26 359.05C711.47 369.29 718.55 378.97 728.76 382.28C725.331 384.618 721.356 386.03 717.22 386.38C716.61 389.73 718.52 393.14 721.22 395.26C723.92 397.38 727.22 398.48 730.44 399.53C728.243 401.081 725.716 402.101 723.058 402.51C720.399 402.92 717.683 402.707 715.12 401.89C710.85 400.49 707.32 397.49 703.91 394.55L684.74 378.06C682.179 375.987 679.813 373.684 677.67 371.18C665.27 355.77 672.67 332.42 665.75 313.91C660.11 298.86 644.95 286.64 646.34 270.63C646.72 266.15 648.44 261.91 649.88 257.63C654.988 242.102 656.592 225.635 654.578 209.413C652.563 193.192 646.98 177.617 638.23 163.81C636.04 160.41 633.5 156.99 629.85 155.24C624.3 152.59 616.37 153.73 613.22 148.44C611.55 145.65 611.22 140.74 611.07 137.61C621.25 135.28 634.89 135.93 644.41 140.48Z" fill="#945B79"/>
<path opacity="0.1" d="M157.42 309.79C162.1 279.03 200.55 267.92 220.96 291.43C226.86 298.25 232.09 305.72 235.05 313.19C245.05 338.44 245.8 340.69 245.8 340.69C245.8 340.69 184.05 352.69 184.55 361.69L156.55 316.94C156.55 316.94 156.76 314.14 157.42 309.79Z" fill="black"/>
<path d="M157.42 306.79C162.1 276.03 200.55 264.92 220.96 288.43C226.86 295.25 232.09 302.72 235.05 310.19C245.05 335.44 245.8 337.69 245.8 337.69C245.8 337.69 184.05 349.69 184.55 358.69L156.55 313.94C156.55 313.94 156.76 311.14 157.42 306.79Z" fill="#DCE6F2"/>
<path opacity="0.1" d="M174.8 267.32C175.55 268.57 205.05 304.57 220.55 309.7C236.05 314.83 174.8 267.32 174.8 267.32Z" fill="black"/>
<path opacity="0.1" d="M48.0503 383.7C48.0503 383.7 126.05 475.7 136.05 512.95Z" fill="black"/>
<path opacity="0.1" d="M51.0503 298.7C51.0503 298.7 68.0503 386.7 101.05 423.7C134.05 460.7 168.05 523.7 168.05 523.7" stroke="black" stroke-width="2" stroke-miterlimit="10"/>
<g opacity="0.1">
<path opacity="0.1" d="M292.06 170.67C292.127 173.595 291.117 176.442 289.22 178.67C287.709 180.224 285.715 181.22 283.564 181.494C281.413 181.768 279.233 181.305 277.38 180.18C276.31 179.5 275.25 178.55 273.98 178.66C273.244 178.777 272.552 179.092 271.98 179.57C266.35 183.69 262.09 190.33 255.48 192.16C255.714 193.927 255.536 195.723 254.96 197.41C262.16 196.02 266.56 188.9 272.48 184.57C273.052 184.092 273.744 183.777 274.48 183.66C275.75 183.55 276.81 184.5 277.88 185.18C279.733 186.305 281.913 186.768 284.064 186.494C286.215 186.22 288.209 185.224 289.72 183.67C292.81 180.27 293 175.15 292.06 170.67Z" fill="black"/>
<path opacity="0.1" d="M288.07 151.91C288.15 152.73 288.29 153.54 288.45 154.35C288.45 149.35 289.64 144.15 288.45 139.35C288.47 143.43 287.65 147.75 288.07 151.91Z" fill="black"/>
<path opacity="0.1" d="M254.76 185.83C253.232 187.361 251.361 188.505 249.301 189.166C247.241 189.827 245.054 189.986 242.92 189.63C243.432 188.379 243.489 186.988 243.08 185.7C238.01 188.53 232.735 190.977 227.3 193.02L226.73 190.15C219.07 193.89 219.67 206.58 212.01 210.32C207.45 212.55 201.01 210.94 197.86 214.96C197.16 215.87 196.75 216.96 196.11 217.96C193.61 221.79 188.21 222.62 183.75 221.61C176.33 219.93 170.28 214.33 166.35 207.82C162.42 201.31 160.3 193.89 158.23 186.57L154.15 172.16C153.48 169.76 152.8 167.36 152.36 164.91C152.36 165.65 152.36 166.38 152.47 167.11C152.888 170.52 153.618 173.884 154.65 177.16L158.73 191.57C160.8 198.89 162.91 206.31 166.85 212.82C170.79 219.33 176.85 224.93 184.25 226.61C188.71 227.61 194.11 226.79 196.61 222.96C197.25 221.96 197.66 220.89 198.36 219.96C201.46 215.96 207.95 217.55 212.51 215.32C220.17 211.58 219.57 198.89 227.23 195.15L227.8 198.02C233.225 195.976 238.49 193.529 243.55 190.7C243.959 191.988 243.902 193.379 243.39 194.63C245.419 194.966 247.498 194.836 249.469 194.25C251.441 193.665 253.253 192.639 254.77 191.25C255.197 189.468 255.193 187.61 254.76 185.83V185.83Z" fill="black"/>
</g>
<path opacity="0.1" d="M235.46 251.76C230.08 254.86 217.58 261.76 215.05 260.58C212.35 259.33 182.89 249.02 173.05 245.58C173.7 242.24 176.05 233.74 183.84 230.95C185.417 230.526 187.073 230.481 188.67 230.82L218.55 242.64C226.92 246.89 233.87 250.84 235.46 251.76Z" fill="black"/>
<path d="M235.46 248.76C230.08 251.86 217.58 258.76 215.05 257.58C212.35 256.33 182.89 246.02 173.05 242.58C173.7 239.24 176.05 230.74 183.84 227.95C185.417 227.526 187.073 227.481 188.67 227.82L218.55 239.64C226.92 243.89 233.87 247.84 235.46 248.76Z" fill="#DCE6F2"/>
<path opacity="0.1" d="M630.55 173.43C630.26 184.7 628.73 195.97 624.04 205.82C615.66 223.41 596.97 233.88 579.55 230.73C577.196 230.432 574.957 229.533 573.05 228.12C571.22 226.423 569.786 224.344 568.85 222.03C565.19 214.17 563.32 205.11 558.2 198.38C553.08 191.65 542.69 188.72 537.75 195.61C535.06 199.34 534.61 205.1 531.02 207.69C526.71 210.8 521.02 207.13 517.67 202.69C507.77 189.69 511.16 164.12 492.28 160.54C489.22 159.95 485.67 160.03 483.62 157.39C482.41 155.83 482.06 153.67 481.77 151.62C481.43 149.21 481.14 146.75 480.97 144.28C480.623 149.739 480.891 155.221 481.77 160.62C482.06 162.67 482.41 164.83 483.62 166.39C485.67 169.03 489.22 168.95 492.28 169.54C511.16 173.12 507.77 198.66 517.67 211.69C521.01 216.08 526.67 219.75 531.02 216.69C534.61 214.1 535.02 208.34 537.75 204.61C542.69 197.72 553.08 200.66 558.2 207.38C563.32 214.1 565.2 223.17 568.85 231.03C569.786 233.344 571.22 235.423 573.05 237.12C574.957 238.533 577.196 239.432 579.55 239.73C596.97 242.88 615.66 232.41 624.04 214.82C629.82 202.7 630.79 188.4 630.57 174.63C630.55 174.19 630.55 173.79 630.55 173.43Z" fill="black"/>
<g opacity="0.1">
<path opacity="0.1" d="M695.94 221.43C698.06 227.01 697.39 233.22 696.46 239.12C695.122 247.648 693.323 256.097 691.07 264.43C689.72 269.43 688.19 274.63 689.22 279.71C690.01 283.65 692.22 287.11 693.98 290.71C698.57 300.42 699.36 311.43 699.71 322.16C700.06 332.89 700.05 343.81 703.26 354.05C705.34 361.029 709.314 367.294 714.74 372.15C711.873 368.309 709.682 364.007 708.26 359.43C705.05 349.19 705.05 338.27 704.71 327.54C704.37 316.81 703.57 305.8 698.98 296.1C697.26 292.47 694.98 289.01 694.22 285.1C693.22 280.02 694.72 274.81 696.07 269.81C698.326 261.454 700.125 252.982 701.46 244.43C702.39 238.53 703.06 232.31 700.94 226.73C699.23 222.26 695.94 218.73 692.37 215.3C693.865 217.15 695.069 219.217 695.94 221.43V221.43Z" fill="black"/>
<path opacity="0.1" d="M728.76 382.68C726.087 381.796 723.575 380.486 721.32 378.8C718.49 380.272 715.398 381.169 712.22 381.44C711.61 384.79 713.52 388.2 716.22 390.32C716.757 390.752 717.325 391.143 717.92 391.49C717.224 390.024 716.991 388.382 717.25 386.78C721.373 386.416 725.335 385.005 728.76 382.68V382.68Z" fill="black"/>
<path opacity="0.1" d="M624.82 150.32C621.01 148.5 616.08 148.46 612.34 146.91C612.552 147.605 612.837 148.275 613.19 148.91C616.34 154.19 624.27 153.05 629.82 155.71C630.521 156.062 631.19 156.473 631.82 156.94C630.086 154.176 627.677 151.898 624.82 150.32V150.32Z" fill="black"/>
<path opacity="0.1" d="M722.18 396.43C718.349 398.063 714.058 398.266 710.09 397C705.82 395.6 702.29 392.6 698.88 389.66L679.71 373.17C678.8 372.39 677.9 371.6 677.02 370.8C677.22 371.07 677.42 371.35 677.64 371.62C679.78 374.126 682.146 376.429 684.71 378.5L703.88 395C707.29 397.93 710.82 400.94 715.09 402.34C717.653 403.156 720.37 403.367 723.029 402.955C725.687 402.544 728.213 401.522 730.41 399.97C727.516 399.177 724.746 397.986 722.18 396.43Z" fill="black"/>
<path opacity="0.1" d="M661.76 157.43C666.93 164.52 672.28 172.1 672.96 180.84C673.23 184.42 672.7 188.06 673.38 191.58C674.46 197.21 678.27 201.44 682.53 205.47C680.472 203 679.047 200.065 678.38 196.92C677.7 193.39 678.23 189.75 677.96 186.17C677.28 177.43 671.96 169.85 666.76 162.77C663 157.6 659.08 152.32 654.47 147.94C657.04 150.98 659.43 154.22 661.76 157.43Z" fill="black"/>
</g>
<path opacity="0.1" d="M617.89 136.7C617.89 136.7 611.89 146.7 628.89 155.03L629.89 152.36L617.89 136.7Z" fill="black"/>
<path d="M616.89 136.7C616.89 136.7 610.89 146.7 627.89 155.03L628.89 152.36L616.89 136.7Z" fill="#FF6584"/>
<path d="M814.37 711.85C814.37 714.38 814.66 716.43 815.01 716.43C815.36 716.43 815.64 714.43 815.64 711.85C815.64 709.27 815.29 710.51 814.94 710.51C814.59 710.51 814.37 709.32 814.37 711.85Z" fill="#FFD037"/>
<path d="M810.87 714.87C813.09 716.08 815.02 716.81 815.19 716.5C815.36 716.19 813.7 714.96 811.48 713.75C809.26 712.54 810.13 713.42 809.96 713.75C809.79 714.08 808.65 713.66 810.87 714.87Z" fill="#FFD037"/>
<path fill-rule="evenodd" clip-rule="evenodd" d="M220 0L190.001 11.4432V22.3901H190V45.5663C190 57.9478 203.301 66.9126 216.312 75.6817C217.533 76.5044 218.751 77.3255 219.955 78.1475C221.16 77.3255 222.378 76.5044 223.599 75.6817C236.61 66.9126 249.911 57.9478 249.911 45.5663V25.3605H250V11.4432L220 0Z" fill="#1C2468"/>
<path d="M235.693 28.2056C234.613 26.2137 227.846 19.5437 220.001 29.2006C211.762 19.5437 205.386 26.2137 204.309 28.2056C202.346 31.8887 203.523 37.4648 206.271 40.1529L220.002 54.0922L233.734 40.1529C236.478 37.4648 237.655 31.8906 235.693 28.2056H235.693Z" fill="#EAF2FA"/>
</svg>
