<svg width="365" height="364" viewBox="0 0 365 364" fill="none" xmlns="http://www.w3.org/2000/svg">
<path fill-rule="evenodd" clip-rule="evenodd" d="M300.426 249.737C209.041 288.168 123.125 359.398 50.3214 299.63C-22.4822 239.862 -18.1332 97.2037 75.4501 39.0904C169.033 -19.0229 255.328 2.88513 324.267 56.9233C373.241 95.3116 391.812 211.306 300.426 249.737Z" fill="#3341C0"/>
<mask id="mask0" mask-type="alpha" maskUnits="userSpaceOnUse" x="0" y="4" width="365" height="319">
<path fill-rule="evenodd" clip-rule="evenodd" d="M300.426 249.737C209.041 288.168 123.125 359.398 50.3214 299.63C-22.4822 239.862 -18.1332 97.2037 75.4501 39.0904C169.033 -19.0229 255.328 2.88513 324.267 56.9233C373.241 95.3116 391.812 211.306 300.426 249.737Z" fill="#3341C0"/>
</mask>
<g mask="url(#mask0)">
<g style="mix-blend-mode:multiply">
<path fill-rule="evenodd" clip-rule="evenodd" d="M-53.7689 171.883C-53.7689 171.883 43.2695 105.928 161.155 213.069C279.04 320.211 350.989 320.211 350.989 320.211C350.989 320.211 82.3326 367.543 29.5549 341.577C-23.2228 315.61 -53.7689 171.883 -53.7689 171.883Z" fill="#9BB0C5"/>
</g>
</g>
<g style="mix-blend-mode:multiply">
<path d="M71.5559 292.535C70.0058 293.49 68.5645 294.677 67.267 296.067C65.9481 294.67 64.4827 293.483 62.9075 292.535C61.3574 293.49 59.916 294.677 58.6185 296.067C57.2996 294.67 55.8343 293.483 54.2591 292.535C54.2591 292.535 47.5365 296.475 47.5551 301.288C47.5556 301.409 47.5601 301.528 47.5689 301.648C47.7984 304.799 54.7488 305.602 58.5669 304.117C61.3934 305.077 64.3889 305.077 67.2154 304.117C71.0172 305.626 78.109 304.761 78.3163 301.574C78.3241 301.455 78.3277 301.335 78.3273 301.214C78.3088 296.401 71.5559 292.535 71.5559 292.535Z" fill="#F2F2F2"/>
<path d="M63.3933 168.003H60.5064V303.869H63.3933V168.003Z" fill="#3F3D56"/>
<g style="mix-blend-mode:multiply">
<path d="M91.5628 207.544C91.5686 209.039 91.557 210.526 91.5281 212.007C90.4928 265.49 36.6746 265.786 35.2256 212.316C35.1855 210.836 35.1625 209.349 35.1564 207.854C34.9251 148.07 62.9408 99.4502 62.9408 99.4502C62.9408 99.4502 91.3315 147.76 91.5628 207.544Z" fill="#9BB0C5"/>
</g>
</g>
<path d="M22.2701 329.436L3.49715 329.446L3.49555 326.466L22.2685 326.456L22.2701 329.436Z" fill="#3F3D56"/>
<path d="M158 327.129L154.127 328.025L6.92273 328.104L5.59902 325.021C3.2904 319.733 2.49806 313.907 3.31044 308.195C3.94443 303.937 5.53309 299.706 9.14144 297.869L15.6739 254.376L97.1143 254.231L128.623 279.635C128.623 279.635 143.486 279.368 151.561 289.417C154.474 293.153 156.194 297.68 156.497 302.407L156.816 307.634L158 327.129Z" fill="black"/>
<path d="M125.668 344.572C115.629 344.572 107.491 336.437 107.491 326.402C107.491 316.367 115.629 308.232 125.668 308.232C135.706 308.232 143.845 316.367 143.845 326.402C143.845 336.437 135.706 344.572 125.668 344.572Z" fill="#3F3D56"/>
<path d="M125.667 335.965C120.384 335.965 116.1 331.684 116.1 326.402C116.1 321.121 120.384 316.839 125.667 316.839C130.951 316.839 135.234 321.121 135.234 326.402C135.234 331.684 130.951 335.965 125.667 335.965Z" fill="#CCCCCC"/>
<path d="M35.9772 344.619C25.9383 344.619 17.8002 336.484 17.8002 326.449C17.8002 316.414 25.9383 308.279 35.9772 308.279C46.016 308.279 54.1542 316.414 54.1542 326.449C54.1542 336.484 46.016 344.619 35.9772 344.619Z" fill="#3F3D56"/>
<path d="M35.9769 336.013C30.6933 336.013 26.41 331.732 26.41 326.45C26.41 321.168 30.6933 316.887 35.9769 316.887C41.2605 316.887 45.5437 321.168 45.5437 326.45C45.5437 331.732 41.2605 336.013 35.9769 336.013Z" fill="#CCCCCC"/>
<path d="M116.104 276.665L72.1335 276.685H66.7659L57.7028 276.691V276.03L57.6965 268.064L57.6902 259.119H63.7193L69.0869 259.113L78.5943 259.106H83.9629L94.9395 259.1L116.104 276.665Z" fill="white"/>
<path d="M50.548 276.698L27.3093 276.71L27.3031 272.152V264.186L27.2968 259.139H30.6994L36.0669 259.132L50.5407 259.126L50.548 276.698Z" fill="white"/>
<path d="M60.6922 295.458L57.7124 295.46L57.7094 289.799L60.6892 289.798L60.6922 295.458Z" fill="#3F3D56"/>
<path d="M104.192 284.713L104.191 281.733L109.852 281.73L109.854 284.71L104.192 284.713Z" fill="#3F3D56"/>
<path d="M106.278 283.042L106.606 283.042C108.257 283.041 109.841 282.385 111.008 281.217C112.176 280.048 112.831 278.465 112.83 276.813C112.829 275.162 112.172 273.579 111.004 272.412C109.835 271.245 108.251 270.59 106.599 270.591L106.271 270.591L106.278 283.042Z" fill="#3F3D56"/>
<path d="M156.816 307.634C154.563 307.879 152.295 307.322 150.413 306.059C148.53 304.797 147.154 302.911 146.526 300.734C145.898 298.557 146.059 296.228 146.98 294.158C147.901 292.087 149.524 290.409 151.562 289.417C154.475 293.153 156.195 297.68 156.498 302.407L156.816 307.634Z" fill="#3F3D56"/>
<path d="M69.0874 259.113L57.7032 276.03L57.6969 268.064L63.7198 259.119L69.0874 259.113Z" fill="#F2F2F2"/>
<path d="M36.0664 259.132L27.3026 272.152V264.186L30.6989 259.139L36.0664 259.132Z" fill="#F2F2F2"/>
<path d="M83.9635 259.106L72.1342 276.685H66.7666L78.5949 259.106H83.9635Z" fill="#F2F2F2"/>
<path d="M211.318 210.496L206.228 215.268C206.228 215.268 192.435 226.511 198.837 230.635C205.239 234.76 212.377 218.223 212.377 218.223L215.127 213.957L211.318 210.496Z" fill="#EAB09F"/>
<path d="M282.71 327.353C282.71 327.353 281.017 344.272 283.979 345.541C286.941 346.81 306.828 357.384 300.904 362.036C294.981 366.689 275.093 354.423 272.978 356.538C270.862 358.653 264.092 356.961 263.669 353.154C263.246 349.347 264.092 342.58 267.477 338.35C270.862 334.121 270.862 325.661 270.862 325.661L282.71 327.353Z" fill="#2F2E41"/>
<path d="M252.592 320.917L255.554 334.874C255.554 334.874 261.901 348.832 256.4 351.793C250.899 354.754 250.053 355.177 249.63 356.869C249.207 358.56 237.782 367.443 234.397 360.675C231.012 353.908 243.283 344.18 243.283 344.18L245.399 339.527L243.283 323.031L252.592 320.917Z" fill="#2F2E41"/>
<path d="M240.82 128.466L233.626 130.158C233.626 130.158 231.934 137.348 232.357 144.116C232.78 150.883 230.701 163.443 230.701 163.443L225.823 174.784L205.399 213.41L218.095 218.927L240.82 174.569L242.935 146.23L240.82 128.466Z" fill="#E6E6E6"/>
<path d="M251.515 108.375C263.953 108.375 274.036 97.6757 274.036 84.4774C274.036 71.2791 263.953 60.5798 251.515 60.5798C239.077 60.5798 228.994 71.2791 228.994 84.4774C228.994 97.6757 239.077 108.375 251.515 108.375Z" fill="#2F2E41"/>
<path d="M271.495 120.641C278.038 120.641 283.343 115.339 283.343 108.798C283.343 102.257 278.038 96.9548 271.495 96.9548C264.952 96.9548 259.648 102.257 259.648 108.798C259.648 115.339 264.952 120.641 271.495 120.641Z" fill="#2F2E41"/>
<path d="M263.246 92.9365L269.592 109.432L253.514 116.2L252.102 113.001L247.166 101.819L263.246 92.9365Z" fill="#DA9E8D"/>
<path d="M284.824 183.452L290.748 211.368L298.788 273.967L292.864 331.068C292.864 331.068 275.092 336.989 268.322 325.992L276.362 279.043L260.283 223.634L257.744 278.197L261.975 325.569C261.975 325.569 248.858 333.182 238.28 325.569L231.087 231.67C231.087 231.67 225.586 190.642 238.28 177.107L284.824 183.452Z" fill="#F1F3FF"/>
<path d="M250.553 103.723C258.381 103.723 264.727 97.3787 264.727 89.5531C264.727 81.7275 258.381 75.3835 250.553 75.3835C242.724 75.3835 236.378 81.7275 236.378 89.5531C236.378 97.3787 242.724 103.723 250.553 103.723Z" fill="#EAB09F"/>
<path d="M250.552 117.046L251.938 112.63C251.938 112.63 264.709 110.527 268.42 106.384L275.094 113.239C275.094 113.239 293.288 119.161 295.827 121.699C298.366 124.236 285.672 163.573 285.672 163.573C285.672 163.573 288.634 170.34 283.556 173.301C283.556 173.301 291.173 184.721 285.249 185.99C279.325 187.259 236.589 178.376 236.589 178.376C236.589 178.376 233.627 173.301 240.397 171.186C240.397 171.186 237.858 165.264 240.82 163.15C243.782 161.035 241.243 149.192 241.243 149.192C241.243 149.192 232.358 131.427 233.627 130.158C234.896 128.889 250.552 117.046 250.552 117.046Z" fill="#E6E6E6"/>
<path d="M292.018 220.673L291.595 224.057C291.595 224.057 292.018 244.359 284.402 243.513C276.786 242.667 281.44 222.788 281.44 222.788L282.709 218.135L292.018 220.673Z" fill="#EAB09F"/>
<path d="M238.966 87.9988C247.875 82.0559 250.539 80.6353 260.751 82.9308L261.363 68.0381L234.974 73.5719L238.966 87.9988Z" fill="#2F2E41"/>
<path d="M292.019 122.121L296.25 121.698C296.25 121.698 300.481 132.696 300.481 138.194V174.57L293.711 222.365L280.594 220.25L287.787 177.53L285.672 151.729L292.019 122.121Z" fill="#E6E6E6"/>
<path d="M199.393 208.32L201.004 211.449C201.018 211.478 201.021 211.511 201.011 211.542C201.001 211.573 200.98 211.599 200.951 211.614L200.873 211.654L209.264 227.951C209.496 228.402 209.539 228.927 209.385 229.41C209.23 229.893 208.889 230.295 208.438 230.527L198.251 235.768C198.028 235.883 197.784 235.953 197.533 235.973C197.283 235.994 197.031 235.965 196.792 235.888C196.553 235.812 196.331 235.689 196.139 235.526C195.947 235.364 195.79 235.166 195.675 234.942L187.578 219.216L187.522 219.245C187.502 219.256 187.478 219.258 187.456 219.251C187.434 219.244 187.416 219.229 187.405 219.208L186.489 217.428C186.483 217.418 186.48 217.407 186.479 217.395C186.478 217.384 186.48 217.372 186.483 217.362C186.487 217.351 186.492 217.341 186.5 217.332C186.507 217.323 186.516 217.316 186.526 217.311L186.582 217.282L186.237 216.611L186.18 216.641C186.159 216.651 186.134 216.653 186.111 216.646C186.088 216.639 186.069 216.622 186.058 216.601L185.154 214.845C185.143 214.823 185.141 214.799 185.148 214.776C185.156 214.753 185.172 214.734 185.193 214.723L185.25 214.694L184.778 213.778L184.721 213.808C184.711 213.813 184.701 213.816 184.69 213.817C184.68 213.817 184.669 213.816 184.659 213.813C184.649 213.81 184.64 213.805 184.632 213.798C184.624 213.791 184.617 213.783 184.612 213.773L184.119 212.815C184.109 212.796 184.107 212.774 184.114 212.753C184.12 212.733 184.134 212.716 184.153 212.706L184.211 212.676L183.212 210.736C182.98 210.285 182.936 209.76 183.091 209.278C183.246 208.795 183.586 208.393 184.037 208.161L194.225 202.92C194.676 202.688 195.201 202.644 195.684 202.799C196.167 202.954 196.569 203.294 196.801 203.745L199.15 208.307L199.228 208.267C199.257 208.252 199.29 208.25 199.321 208.26C199.352 208.269 199.378 208.291 199.393 208.32V208.32Z" fill="#3F3D56"/>
<path d="M196.161 204.501L208.523 228.512C208.67 228.798 208.697 229.131 208.599 229.437C208.501 229.743 208.285 229.998 207.999 230.145L198.247 235.162C198.105 235.235 197.951 235.28 197.792 235.293C197.633 235.306 197.473 235.288 197.321 235.24C197.169 235.191 197.028 235.113 196.907 235.01C196.785 234.907 196.685 234.781 196.612 234.639L184.25 210.628C184.177 210.486 184.133 210.332 184.12 210.173C184.107 210.014 184.125 209.854 184.174 209.702C184.222 209.551 184.3 209.41 184.403 209.288C184.506 209.167 184.632 209.067 184.774 208.994L186.234 208.243L186.33 208.43C186.451 208.666 186.661 208.844 186.914 208.924C187.166 209.005 187.44 208.983 187.676 208.861L192.635 206.31C192.871 206.189 193.049 205.979 193.13 205.726C193.211 205.474 193.188 205.2 193.067 204.964L192.97 204.777L194.526 203.977C194.667 203.904 194.822 203.86 194.981 203.846C195.14 203.833 195.3 203.852 195.452 203.9C195.604 203.949 195.744 204.027 195.866 204.13C195.988 204.233 196.088 204.359 196.161 204.501V204.501Z" fill="white"/>
<path fill-rule="evenodd" clip-rule="evenodd" d="M256.841 0.661377L237 8.22954V15.4631H237V30.7913C237 38.9801 245.797 44.9091 254.402 50.7088C255.209 51.2529 256.015 51.796 256.812 52.3396C257.608 51.796 258.414 51.2529 259.221 50.7088C267.826 44.9091 276.623 38.9801 276.623 30.7913V17.4341H276.682V8.22954L256.841 0.661377Z" fill="#1C2468"/>
<path d="M267.219 19.3092C266.505 17.9918 262.029 13.5803 256.841 19.9672C251.392 13.5803 247.175 17.9918 246.462 19.3092C245.165 21.7451 245.943 25.4331 247.76 27.211L256.842 36.4302L265.923 27.211C267.738 25.4331 268.516 21.7464 267.219 19.3092H267.219Z" fill="#EAF2FA"/>
<path fill-rule="evenodd" clip-rule="evenodd" d="M91.5 211.602L79 216.37V220.031V222.169V229.688C79 234.847 84.5422 238.582 89.9635 242.236C90.4721 242.579 90.9797 242.921 91.4816 243.263C91.9834 242.921 92.491 242.579 92.9997 242.236C98.4209 238.582 103.963 234.847 103.963 229.688V222.169H104V216.37L91.5 211.602Z" fill="#EAF2FA"/>
<path d="M98.0382 222.454C97.5884 221.624 94.7686 218.845 91.4999 222.868C88.0671 218.845 85.4105 221.624 84.9615 222.454C84.1439 223.988 84.6343 226.312 85.7791 227.432L91.5006 233.24L97.2222 227.432C98.3654 226.312 98.8558 223.989 98.0383 222.454H98.0382Z" fill="#3341C0"/>
</svg>
