<svg width="449" height="446" viewBox="0 0 449 446" fill="none" xmlns="http://www.w3.org/2000/svg">
<g filter="url(#filter0_d)">
<g filter="url(#filter1_d)">
<path fill-rule="evenodd" clip-rule="evenodd" d="M72.7857 111.865C35.0683 177.12 26.03 254.482 192.115 342.231C358.201 429.98 412.43 351.178 370.389 279.377C328.348 207.576 361.481 117.577 290.653 61.3914C219.824 5.20623 110.503 46.6095 72.7857 111.865Z" fill="#3341C0"/>
</g>
<path d="M267.896 258.365V357.443H283.391V267.089H345.374V357.444H360.87V159.287H345.374C340.239 159.287 332.358 186.172 332.358 213.188C332.358 233.551 334.723 251.003 338.087 258.365H267.896ZM345.374 258.365H345.223C345.274 258.254 345.324 258.137 345.374 258.022V258.365Z" fill="#3F3D56"/>
<path d="M325.786 110.452H325.786C313.005 110.452 302.643 122.065 302.643 136.391V154.591H308.186L311.395 147.848L310.593 154.591H346.218L349.136 148.461L348.406 154.591H352.417V140.301C352.417 123.816 340.494 110.452 325.786 110.452Z" fill="#2F2E41"/>
<path d="M298.519 227.844L284.365 233.904L235.177 274.19C233.368 276.43 232.259 279.159 231.992 282.034C231.638 286.668 216.775 310.911 222.083 314.12C227.391 317.328 246.5 326.954 247.562 320.537C248.624 314.12 254.286 286.668 254.286 286.668L301.704 243.887L298.519 227.844Z" fill="#2F2E41"/>
<path d="M243.478 315.652L237.335 333.26C237.335 333.26 243.84 339.951 240.587 345.586V364.954H235.528L234.082 354.742C234.082 354.742 228.319 364.825 225.409 364.954C219.307 365.225 207.224 367.34 206.862 364.17C206.501 361.001 216.012 357.911 216.012 357.911L226.131 330.795L230.468 314.243L243.478 315.652Z" fill="#2F2E41"/>
<path d="M335.914 223.304C335.914 223.304 339.129 254.582 329.843 260.269C320.556 265.955 279.483 284.082 279.483 284.082C279.483 284.082 296.984 300.432 293.412 304.342C289.841 308.251 273.769 318.914 271.626 316.782C269.483 314.649 245.553 289.058 248.41 280.883C251.268 272.709 290.912 246.051 290.912 246.051L295.555 229.346L296.984 215.84L311.985 206.243L335.914 223.304Z" fill="#2F2E41"/>
<path d="M319.548 150.835C327.846 150.835 334.574 144.318 334.574 136.278C334.574 128.239 327.846 121.722 319.548 121.722C311.249 121.722 304.522 128.239 304.522 136.278C304.522 144.318 311.249 150.835 319.548 150.835Z" fill="#FFB9B9"/>
<path d="M330.833 142.383C330.833 142.383 330.128 155.893 341.055 160.159C351.982 164.425 313.913 192.157 313.913 192.157V161.226C313.913 161.226 318.848 155.893 313.913 147.716L330.833 142.383Z" fill="#FFB9B9"/>
<path d="M354.296 205.304L351.485 219.218L343.052 267.025C343.052 267.025 350.079 287.361 340.592 287.004C331.105 286.647 335.673 264.884 335.673 264.884L340.592 225.283V209.942L354.296 205.304Z" fill="#FFB9B9"/>
<path d="M293.542 198.73L290.335 211.147L275.726 246.267C275.726 246.267 265.749 262.941 273.945 262.586C282.14 262.231 282.14 246.267 282.14 246.267L298.887 217.887V201.923L293.542 198.73Z" fill="#FFB9B9"/>
<path d="M290.703 302.974L302.602 313.979C302.602 313.979 310.894 312.204 314.139 321.788C317.385 331.373 319.548 337.408 319.548 337.408L315.221 339.893L309.813 332.438C309.813 332.438 306.568 345.927 303.323 346.992C300.078 348.057 283.853 355.157 285.295 346.992L293.227 335.633C293.227 335.633 294.309 322.853 291.064 321.788C287.819 320.723 279.165 310.074 279.165 310.074L290.703 302.974Z" fill="#2F2E41"/>
<path d="M336.333 234.417C336.333 234.417 303.158 222.274 301.041 223.346C299.464 224.05 297.785 224.491 296.07 224.651L296.1 219.774C296.1 219.774 307.04 215.845 313.04 218.345C319.039 220.846 337.391 231.917 337.391 231.917L336.333 234.417Z" fill="#3F3D56"/>
<path d="M316.35 184.92C316.35 184.92 325.943 174.013 328.786 167.327C330.584 163.275 333.885 160.06 338.007 158.348C338.007 158.348 359.342 163.105 358.987 171.55C358.632 179.994 345.485 193.013 345.485 193.013C345.485 193.013 347.262 239.809 337.668 239.105C335.599 236.66 334.139 233.767 333.405 230.661C332.339 225.735 299.295 220.457 299.295 220.457C299.295 220.457 296.452 225.383 296.097 223.272C295.742 221.161 298.94 169.439 298.94 169.439L315.883 158.348L316.35 184.92Z" fill="#D0CDE1"/>
<path d="M355.753 167.435L355.992 167.57C356.753 168.002 357.387 168.63 357.829 169.391C358.27 170.152 358.503 171.018 358.502 171.9L358.499 198.601C358.501 199.327 358.661 200.044 358.965 200.701C359.269 201.359 359.712 201.941 360.262 202.409C361.635 203.588 362.908 205.287 360.281 206.171C356.004 207.61 339.252 214.806 338.895 212.287C338.539 209.769 337.826 206.89 338.895 206.89C339.732 206.89 344.72 181.09 348.728 170.059C348.972 169.384 349.359 168.77 349.862 168.26C350.365 167.751 350.972 167.358 351.64 167.108C352.308 166.859 353.022 166.759 353.732 166.815C354.442 166.872 355.132 167.083 355.753 167.435V167.435Z" fill="#D0CDE1"/>
<path d="M303.583 167.739L298.523 169.152L292.74 193.526C292.74 193.526 285.872 194.939 288.041 197.412C290.209 199.885 299.245 206.243 299.245 206.243L303.583 167.739Z" fill="#D0CDE1"/>
<path d="M332.234 117.305C331.123 115.783 329.683 114.542 328.026 113.679C326.369 112.817 324.539 112.355 322.679 112.33H322.226C313.485 112.33 306.4 120.4 306.4 130.353V130.353H309.329L309.802 126.68L310.495 130.353H327.865L329.32 127.246L328.956 130.353H332.373C333.968 138.433 331.677 146.512 325.5 154.591H331.321L334.231 148.376L333.504 154.591H344.6L346.783 140.297C346.783 129.592 340.686 120.515 332.234 117.305Z" fill="#2F2E41"/>
<path d="M34.0099 281.844C37.7473 273.713 40.3757 254.442 40.3757 231.956C40.3757 202.124 31.6184 172.435 25.9131 172.435H8.69568V391.252H25.9131V291.477H94.7826V391.252H112V281.844H34.0099ZM25.913 281.465C25.9688 281.592 26.0243 281.721 26.0805 281.844H25.913V281.465Z" fill="#3F3D56"/>
<path d="M106.275 241.93C106.275 241.93 126.564 250.564 120.131 255.642C113.698 260.721 100.337 249.548 100.832 248.025C101.326 246.501 98.8522 242.946 98.8522 242.946L106.275 241.93Z" fill="#9F616A"/>
<path d="M88.2478 173.374L94.8609 179.478L96.387 197.283L101.474 216.104C101.474 216.104 110.122 233.909 108.596 237.47C107.07 241.03 110.122 242.048 110.122 242.048L98.4217 246.626C98.4217 246.626 85.7043 232.383 85.7043 229.33C85.7043 226.278 88.2478 173.374 88.2478 173.374Z" fill="#575A88"/>
<path opacity="0.1" d="M88.2478 173.374L94.8609 179.478L96.387 197.283L101.474 216.104C101.474 216.104 110.122 233.909 108.596 237.47C107.07 241.03 110.122 242.048 110.122 242.048L98.4217 246.626C98.4217 246.626 85.7043 232.383 85.7043 229.33C85.7043 226.278 88.2478 173.374 88.2478 173.374Z" fill="black"/>
<path d="M149.909 355.587C149.909 355.587 147.291 367.643 146.767 368.691C146.243 369.74 156.718 373.409 156.718 373.409L169.287 364.498C169.287 364.498 164.05 352.966 164.05 350.87L149.909 355.587Z" fill="#575A88"/>
<path d="M83.6916 242.87L87.2408 246.897C87.2408 246.897 160.759 255.959 162.28 270.055C163.801 284.152 174.449 350.606 168.365 352.619C162.28 354.633 146.563 362.185 146.563 358.157C146.563 354.13 136.422 298.751 138.45 288.683C138.45 288.683 50.7351 277.607 48.707 265.021C46.6789 252.435 50.7351 246.897 50.7351 246.897L83.6916 242.87Z" fill="#2F2E41"/>
<path opacity="0.1" d="M83.6916 242.87L87.2408 246.897C87.2408 246.897 160.759 255.959 162.28 270.055C163.801 284.152 174.449 350.606 168.365 352.619C162.28 354.633 146.563 362.185 146.563 358.157C146.563 354.13 136.422 298.751 138.45 288.683C138.45 288.683 50.7351 277.607 48.707 265.021C46.6789 252.435 50.7351 246.897 50.7351 246.897L83.6916 242.87Z" fill="black"/>
<path d="M149.444 367.326C149.444 367.326 147.447 362.662 146.448 364.216C145.449 365.771 141.954 383.908 145.449 383.908C148.945 383.908 180.902 392.199 185.396 391.163C189.89 390.126 198.379 391.681 197.38 386.499C196.381 381.317 191.388 380.799 191.388 380.799C191.388 380.799 172.913 369.398 171.914 363.698C170.915 357.998 165.423 361.107 165.423 361.107V364.735C165.423 364.735 154.937 373.026 149.444 367.326Z" fill="#2F2E41"/>
<path d="M53.2235 135.363C53.2235 135.363 56.7903 152.426 49.1471 153.931C41.5039 155.437 58.8285 165.474 58.8285 165.474L70.0385 171.496L78.1913 163.466C78.1913 163.466 70.8028 148.662 76.4078 137.622C82.0129 126.581 53.2235 135.363 53.2235 135.363Z" fill="#9F616A"/>
<path d="M78.1913 163.466L70.0385 171.496L58.8285 165.474C58.8285 165.474 41.5039 155.437 49.1471 153.931C54.0642 152.963 54.3393 145.556 53.9165 140.397C53.7784 138.708 53.5471 137.028 53.2235 135.363C53.2235 135.363 82.0129 126.581 76.4078 137.622C75.5562 139.327 74.9655 141.146 74.655 143.021C72.9378 152.943 78.1913 163.466 78.1913 163.466Z" fill="#9F616A"/>
<path d="M106.365 370.734V381.861H125.514L127.026 377.507L125.01 365.896L106.365 370.734Z" fill="#575A88"/>
<path d="M26.5392 252.7C26.5392 252.7 26.5392 282.562 38.7181 283.574C50.897 284.586 94.5381 290.154 94.5381 290.154C94.5381 290.154 97.0754 339.755 101.642 355.951C106.21 372.148 102.15 373.16 106.21 374.172C110.269 375.185 127.523 371.642 127.015 368.099C126.508 364.556 124.478 274.97 124.478 274.97C124.478 274.97 129.045 255.737 68.1505 246.626L26.5392 252.7Z" fill="#2F2E41"/>
<path d="M107.487 378.736C107.487 378.736 104.438 372.2 103.93 374.211C103.422 376.222 97.3244 393.819 103.422 395.327C109.52 396.836 128.829 404.88 141.533 404.377C154.236 403.875 155.76 403.372 155.76 403.372C155.76 403.372 159.317 398.344 154.744 395.327C150.171 392.311 131.37 374.714 130.353 372.703C129.337 370.691 121.715 369.183 121.715 372.703C121.715 376.222 111.044 383.261 107.487 378.736Z" fill="#2F2E41"/>
<path opacity="0.1" d="M75.6023 137.654C74.766 139.369 74.186 141.199 73.881 143.086C71.3891 144.605 69.7228 144.216 66.5954 144.216C61.9568 144.216 60.0854 138.235 57.0881 135.13C56.8529 132.248 52.8348 135.383 52.8348 135.383C52.8348 135.383 81.1066 126.549 75.6023 137.654Z" fill="black"/>
<path d="M65.513 144.261C74.5897 144.261 81.9478 136.693 81.9478 127.356C81.9478 118.02 74.5897 110.452 65.513 110.452C56.4363 110.452 49.0782 118.02 49.0782 127.356C49.0782 136.693 56.4363 144.261 65.513 144.261Z" fill="#9F616A"/>
<path d="M94.1565 179.63C94.1565 179.63 91.6544 197.84 90.1531 204.415C88.6518 210.991 86.6501 241.341 85.6493 245.387C84.6484 249.434 78.6433 250.445 66.6331 248.928C65.8791 248.832 65.1209 248.775 64.3612 248.756C56.9649 248.518 48.5028 251.315 40.6711 253.511C36.1673 254.775 31.8686 255.838 28.1004 256.01C22.3956 256.273 20.7241 249.879 20.9193 242.959C21.1045 236.52 22.911 229.616 24.5974 227.177C27.635 222.787 24.6475 183.368 25.7685 170.368V170.363C25.9385 168.38 26.2038 167.015 26.5991 166.478C29.6017 162.432 49.1182 152.315 51.3051 152.725C53.4869 153.135 72.1378 164.961 72.1378 164.961C76.6416 164.961 76.4965 160.024 76.4965 160.024C76.4965 160.024 79.6442 165.973 85.6493 167.49C91.6544 169.008 94.1565 179.63 94.1565 179.63Z" fill="#575A88"/>
<path d="M60.4123 245.687C60.4123 245.687 93.6616 246.684 87.837 250.406C82.0124 254.128 56.2042 257.532 55.688 252.669C55.1718 247.806 60.4123 245.687 60.4123 245.687Z" fill="#9F616A"/>
<path opacity="0.1" d="M64.1027 249.038C64.2072 250.974 59.0669 255.335 57.4048 258.285C56.4842 259.918 49.3583 257.765 40.5454 253.777C33.7826 250.702 27.222 247.189 20.9043 243.26C21.0884 236.842 22.8848 229.96 24.5618 227.529C27.5824 223.153 24.6116 183.862 25.7263 170.904V170.899C25.992 170.763 26.2683 170.648 26.5523 170.557H32.5237C52.9262 180.136 29.538 221.479 29.538 221.479C29.538 221.479 60.3905 247.193 63.3762 248.201C63.572 248.239 63.7498 248.341 63.8814 248.493C64.013 248.645 64.0909 248.836 64.1027 249.038V249.038Z" fill="black"/>
<path d="M32.3547 166.8H26.3522C26.3522 166.8 20.85 168.329 16.3482 178.519C11.8464 188.71 -4.66033 220.302 9.84555 232.531C24.3514 244.76 55.364 259.027 57.3648 255.461C59.3656 251.894 66.3685 246.289 63.3672 245.27C60.366 244.251 29.3535 218.264 29.3535 218.264C29.3535 218.264 52.863 176.481 32.3547 166.8Z" fill="#575A88"/>
<path d="M62.9134 119.374C62.9134 119.374 63.6415 109.132 72.6236 113.308C81.6058 117.484 81.0196 105.973 78.3053 103.939C75.591 101.905 75.6769 101.401 65.7495 102.762C55.822 104.123 36.5484 106.429 42.7804 126.714C49.0124 146.999 54.6566 141.78 54.6566 141.78C54.6566 141.78 49.7029 123.527 54.7221 127.004L59.7414 130.482L62.3901 129.912L62.9134 119.374Z" fill="#2F2E41"/>
<path d="M436 265.13C436 255.948 368.095 248.504 284.33 248.504C200.566 248.504 132.661 255.948 132.661 265.13C132.661 268.688 142.867 271.986 160.237 274.69V388.435H168.51V275.863C196.331 279.466 237.889 281.755 284.33 281.755C331.155 281.755 373.019 279.429 400.84 275.773V388.435H409.113V274.581C426.062 271.897 436 268.641 436 265.13Z" fill="#3F3D56"/>
<path d="M303.583 265.409C320.699 265.409 334.574 262.045 334.574 257.896C334.574 253.746 320.699 250.383 303.583 250.383C286.467 250.383 272.591 253.746 272.591 257.896C272.591 262.045 286.467 265.409 303.583 265.409Z" fill="#F2F2F2"/>
<path d="M303.583 264.47C317.587 264.47 328.939 261.737 328.939 258.365C328.939 254.994 317.587 252.261 303.583 252.261C289.579 252.261 278.226 254.994 278.226 258.365C278.226 261.737 289.579 264.47 303.583 264.47Z" fill="#D0CDE1"/>
<path d="M188.539 271.983C205.396 271.983 219.061 268.619 219.061 264.47C219.061 260.32 205.396 256.957 188.539 256.957C171.682 256.957 158.017 260.32 158.017 264.47C158.017 268.619 171.682 271.983 188.539 271.983Z" fill="#F2F2F2"/>
<path d="M188.539 270.104C202.284 270.104 213.426 267.371 213.426 264C213.426 260.629 202.284 257.896 188.539 257.896C174.794 257.896 163.652 260.629 163.652 264C163.652 267.371 174.794 270.104 188.539 270.104Z" fill="#D0CDE1"/>
<path d="M302.644 257.896C310.942 257.896 317.67 256.845 317.67 255.548C317.67 254.251 310.942 253.2 302.644 253.2C294.345 253.2 287.617 254.251 287.617 255.548C287.617 256.845 294.345 257.896 302.644 257.896Z" fill="#9F616A"/>
<path d="M295.13 254.139C297.724 254.139 299.826 253.088 299.826 251.791C299.826 250.495 297.724 249.443 295.13 249.443C292.537 249.443 290.435 250.495 290.435 251.791C290.435 253.088 292.537 254.139 295.13 254.139Z" fill="#3341C0"/>
<path d="M293.252 254.139C295.846 254.139 297.948 253.088 297.948 251.791C297.948 250.495 295.846 249.443 293.252 249.443C290.659 249.443 288.557 250.495 288.557 251.791C288.557 253.088 290.659 254.139 293.252 254.139Z" fill="#3341C0"/>
<path d="M313.443 255.078C315.777 255.078 317.67 254.027 317.67 252.73C317.67 251.434 315.777 250.383 313.443 250.383C311.109 250.383 309.217 251.434 309.217 252.73C309.217 254.027 311.109 255.078 313.443 255.078Z" fill="#3341C0"/>
<path d="M302.643 254.139C305.237 254.139 307.339 253.088 307.339 251.791C307.339 250.495 305.237 249.443 302.643 249.443C300.05 249.443 297.948 250.495 297.948 251.791C297.948 253.088 300.05 254.139 302.643 254.139Z" fill="#3341C0"/>
<path d="M311.096 254.139C313.689 254.139 315.791 253.088 315.791 251.791C315.791 250.495 313.689 249.443 311.096 249.443C308.502 249.443 306.4 250.495 306.4 251.791C306.4 253.088 308.502 254.139 311.096 254.139Z" fill="#3341C0"/>
<path d="M316.73 250.135C308.36 252.97 298.969 252.97 288.557 250.135V249.744C288.555 246.797 289.688 243.962 291.722 241.825C293.756 239.688 296.536 238.414 299.485 238.265C301.967 238.14 304.454 238.144 306.936 238.275C309.589 238.429 312.083 239.591 313.904 241.523C315.726 243.455 316.737 246.01 316.73 248.663V250.135Z" fill="#3F3D56"/>
<path d="M312.346 261.169C306.206 261.813 300.02 261.813 293.88 261.169C292.424 261.021 291.072 260.315 290.089 259.189C289.105 258.064 288.559 256.599 288.557 255.078H317.67C317.667 256.599 317.121 258.064 316.137 259.189C315.154 260.315 313.802 261.021 312.346 261.169V261.169Z" fill="#3F3D56"/>
<path d="M298.887 242.4C298.143 242.71 297.345 242.87 296.539 242.87C295.733 242.87 294.935 242.71 294.191 242.4C294.935 242.09 295.733 241.93 296.539 241.93C297.345 241.93 298.143 242.09 298.887 242.4V242.4Z" fill="#D0CDE1"/>
<path d="M303.583 240.522C302.839 240.832 302.041 240.991 301.235 240.991C300.429 240.991 299.631 240.832 298.887 240.522C299.631 240.212 300.429 240.052 301.235 240.052C302.041 240.052 302.839 240.212 303.583 240.522V240.522Z" fill="#D0CDE1"/>
<path d="M311.096 240.522C310.5 240.832 309.862 240.991 309.217 240.991C308.573 240.991 307.934 240.832 307.339 240.522C307.934 240.212 308.573 240.052 309.217 240.052C309.862 240.052 310.5 240.212 311.096 240.522V240.522Z" fill="#D0CDE1"/>
<path d="M309.217 242.4C308.473 242.71 307.675 242.87 306.87 242.87C306.064 242.87 305.266 242.71 304.522 242.4C305.266 242.09 306.064 241.93 306.87 241.93C307.675 241.93 308.473 242.09 309.217 242.4V242.4Z" fill="#D0CDE1"/>
<path d="M188.539 263.53C196.579 263.53 203.096 262.479 203.096 261.183C203.096 259.886 196.579 258.835 188.539 258.835C180.5 258.835 173.983 259.886 173.983 261.183C173.983 262.479 180.5 263.53 188.539 263.53Z" fill="#9F616A"/>
<path d="M180.556 260.713C183.15 260.713 185.252 259.452 185.252 257.896C185.252 256.34 183.15 255.078 180.556 255.078C177.963 255.078 175.861 256.34 175.861 257.896C175.861 259.452 177.963 260.713 180.556 260.713Z" fill="#3341C0"/>
<path d="M178.678 260.713C181.272 260.713 183.374 259.452 183.374 257.896C183.374 256.34 181.272 255.078 178.678 255.078C176.085 255.078 173.983 256.34 173.983 257.896C173.983 259.452 176.085 260.713 178.678 260.713Z" fill="#3341C0"/>
<path d="M199.339 260.713C201.932 260.713 204.035 259.662 204.035 258.365C204.035 257.069 201.932 256.017 199.339 256.017C196.746 256.017 194.643 257.069 194.643 258.365C194.643 259.662 196.746 260.713 199.339 260.713Z" fill="#3341C0"/>
<path d="M188.07 260.713C190.663 260.713 192.765 259.452 192.765 257.896C192.765 256.34 190.663 255.078 188.07 255.078C185.476 255.078 183.374 256.34 183.374 257.896C183.374 259.452 185.476 260.713 188.07 260.713Z" fill="#3341C0"/>
<path d="M196.522 260.713C199.115 260.713 201.217 259.452 201.217 257.896C201.217 256.34 199.115 255.078 196.522 255.078C193.928 255.078 191.826 256.34 191.826 257.896C191.826 259.452 193.928 260.713 196.522 260.713Z" fill="#3341C0"/>
<path d="M202.157 256.708C193.786 259.544 184.395 259.544 173.983 256.708V256.318C173.981 253.371 175.114 250.535 177.148 248.399C179.183 246.262 181.962 244.988 184.911 244.839C187.393 244.714 189.88 244.717 192.362 244.849C195.015 245.003 197.509 246.165 199.33 248.097C201.152 250.029 202.163 252.584 202.157 255.237V256.708Z" fill="#3F3D56"/>
<path d="M198.539 266.873C192.202 267.425 185.816 267.425 179.478 266.873C177.975 266.746 176.58 266.141 175.564 265.176C174.549 264.211 173.985 262.955 173.983 261.652H204.035C204.032 262.955 203.469 264.211 202.453 265.176C201.438 266.141 200.043 266.746 198.539 266.873V266.873Z" fill="#3F3D56"/>
<path d="M184.313 248.035C183.718 248.345 183.08 248.504 182.435 248.504C181.79 248.504 181.152 248.345 180.557 248.035C181.152 247.725 181.79 247.565 182.435 247.565C183.08 247.565 183.718 247.725 184.313 248.035Z" fill="#D0CDE1"/>
<path d="M189.009 249.913C188.265 250.223 187.467 250.383 186.661 250.383C185.855 250.383 185.057 250.223 184.313 249.913C185.057 249.603 185.855 249.443 186.661 249.443C187.467 249.443 188.265 249.603 189.009 249.913Z" fill="#D0CDE1"/>
<path d="M189.009 247.096C188.414 247.406 187.775 247.565 187.13 247.565C186.486 247.565 185.847 247.406 185.252 247.096C185.847 246.786 186.486 246.626 187.13 246.626C187.775 246.626 188.414 246.786 189.009 247.096V247.096Z" fill="#D0CDE1"/>
<path d="M197.461 247.096C196.717 247.406 195.919 247.565 195.113 247.565C194.307 247.565 193.509 247.406 192.765 247.096C193.509 246.786 194.307 246.626 195.113 246.626C195.919 246.626 196.717 246.786 197.461 247.096Z" fill="#D0CDE1"/>
<path d="M194.643 248.974C194.048 249.284 193.41 249.443 192.765 249.443C192.12 249.443 191.482 249.284 190.887 248.974C191.482 248.664 192.12 248.504 192.765 248.504C193.41 248.504 194.048 248.664 194.643 248.974V248.974Z" fill="#D0CDE1"/>
<path d="M329.717 256.017L329.788 257.665L329.878 259.802C329.878 259.802 320.579 260.357 318.706 262.446C318.662 262.491 318.622 262.54 318.586 262.591L314.861 261.731L314.852 259.794C314.852 259.794 314.904 259.764 315.003 259.707C315.026 259.694 315.055 259.678 315.083 259.662C319.641 257.307 324.642 256.061 329.717 256.017Z" fill="#3341C0"/>
<path opacity="0.1" d="M329.806 256.017L329.878 257.785C325.687 257.93 317.756 260.713 317.756 260.713L314.852 259.976C319.505 257.415 324.617 256.062 329.806 256.017V256.017Z" fill="black"/>
<path opacity="0.1" d="M315.078 259.774L317.784 260.478L318.609 262.452C318.566 262.495 318.527 262.542 318.492 262.591L314.861 261.763L314.852 259.9C314.852 259.9 314.902 259.871 315 259.817C315.022 259.805 315.05 259.789 315.078 259.774Z" fill="white"/>
<path d="M217.021 262.591L217.092 264.239L217.183 266.376C217.183 266.376 207.883 266.931 206.01 269.02C205.967 269.065 205.927 269.114 205.891 269.165L202.166 268.305L202.156 266.368C202.156 266.368 202.208 266.338 202.308 266.281C202.331 266.268 202.359 266.252 202.388 266.236C206.946 263.881 211.947 262.635 217.021 262.591Z" fill="#3341C0"/>
<path opacity="0.1" d="M217.111 262.591L217.183 264.359C212.992 264.503 205.06 267.287 205.06 267.287L202.156 266.55C206.809 263.989 211.922 262.636 217.111 262.591Z" fill="black"/>
<path opacity="0.1" d="M202.382 266.348L205.089 267.052L205.913 269.026C205.871 269.069 205.832 269.116 205.797 269.165L202.166 268.337L202.156 266.474C202.156 266.474 202.207 266.445 202.304 266.391C202.326 266.379 202.354 266.363 202.382 266.348Z" fill="white"/>
<path d="M386.358 209.126C385.574 208.324 384.656 207.674 383.646 207.207V187.398C383.646 187.165 383.556 186.942 383.396 186.778C383.236 186.614 383.018 186.522 382.791 186.522H378.003C377.776 186.522 377.559 186.614 377.398 186.778C377.238 186.942 377.148 187.165 377.148 187.398V206.827C375.417 207.415 373.911 208.547 372.843 210.061C371.775 211.575 371.201 213.395 371.2 215.263V257.758C371.2 258.269 371.298 258.776 371.489 259.248C371.68 259.721 371.961 260.15 372.314 260.512C372.667 260.873 373.086 261.16 373.547 261.356C374.008 261.551 374.503 261.652 375.002 261.652H385.259C386.263 261.652 387.225 261.244 387.935 260.517C388.645 259.79 389.043 258.804 389.043 257.776V215.764C389.045 214.531 388.808 213.31 388.348 212.171C387.887 211.032 387.211 209.997 386.358 209.126Z" fill="#3F3D56"/>
<path d="M389.043 221.27H371.2V245.687H389.043V221.27Z" fill="#3341C0"/>
<path d="M383.409 187.907H383.06V187.418C383.06 187.18 382.979 186.952 382.834 186.784C382.688 186.616 382.492 186.522 382.287 186.522H377.957C377.752 186.522 377.555 186.616 377.41 186.784C377.265 186.952 377.183 187.18 377.183 187.418V187.907H376.835V189.986H377.183V200.609H383.06V189.986H383.409V187.907Z" fill="#3341C0"/>
<path d="M240.868 226.099C240.389 225.068 240.011 224.338 239.878 224.087C231.752 226.11 226.33 224.4 225.475 224.098C225.057 224.895 222.447 229.987 221.392 234.868C220.439 239.272 220.992 242.224 223.036 243.643L223.097 243.686L223.11 243.695C225.366 245.195 227.519 246.523 229.507 247.643C229.775 247.793 230.027 247.933 230.265 248.062L230.29 248.076L230.308 248.099C230.581 248.446 230.835 248.808 231.069 249.182C231.508 249.802 231.775 250.529 231.841 251.288V273.159L231.704 273.162C226.52 273.268 223.312 274.155 223.312 274.915C223.312 275.749 227.159 276.678 232.68 276.678C238.2 276.678 242.048 275.749 242.048 274.915C242.048 274.166 238.893 273.285 233.798 273.166L233.66 273.163L233.789 252.932C233.792 251.562 234.107 250.212 234.711 248.985C234.814 248.779 234.924 248.578 235.04 248.389C235.132 248.237 235.23 248.089 235.331 247.949L235.349 247.923L235.377 247.908C235.632 247.767 235.903 247.615 236.19 247.45L236.224 247.432C238.105 246.36 240.133 245.103 242.25 243.695C244.141 242.437 244.799 239.896 244.207 236.141C243.642 232.562 242.08 228.705 240.868 226.099Z" fill="#D0CDE1"/>
<path d="M241.451 243.203C239.206 244.625 237.352 245.691 235.935 246.459H235.933C233.865 246.323 231.788 246.379 229.731 246.626C228.278 245.847 226.318 244.73 223.906 243.203C223.883 243.189 223.86 243.174 223.837 243.158V243.157C221.625 241.695 221.57 238.6 222.29 235.435C224.121 235.24 227.04 235.325 230.962 236.671C235.607 238.264 240.468 237.363 243.286 236.544C243.749 239.336 243.466 241.927 241.451 243.203Z" fill="#3341C0"/>
<path d="M227.983 234.417C228.242 234.417 228.452 233.997 228.452 233.478C228.452 232.96 228.242 232.539 227.983 232.539C227.723 232.539 227.513 232.96 227.513 233.478C227.513 233.997 227.723 234.417 227.983 234.417Z" fill="#3341C0"/>
<path d="M226.574 240.052C227.093 240.052 227.513 239.842 227.513 239.583C227.513 239.323 227.093 239.113 226.574 239.113C226.055 239.113 225.635 239.323 225.635 239.583C225.635 239.842 226.055 240.052 226.574 240.052Z" fill="white"/>
<path d="M229.861 235.356C230.12 235.356 230.33 235.146 230.33 234.887C230.33 234.628 230.12 234.417 229.861 234.417C229.602 234.417 229.391 234.628 229.391 234.887C229.391 235.146 229.602 235.356 229.861 235.356Z" fill="#3341C0"/>
<path d="M228.922 242.87C229.181 242.87 229.391 242.659 229.391 242.4C229.391 242.141 229.181 241.93 228.922 241.93C228.662 241.93 228.452 242.141 228.452 242.4C228.452 242.659 228.662 242.87 228.922 242.87Z" fill="white"/>
<path d="M236.435 230.661C236.694 230.661 236.904 230.451 236.904 230.191C236.904 229.932 236.694 229.722 236.435 229.722C236.175 229.722 235.965 229.932 235.965 230.191C235.965 230.451 236.175 230.661 236.435 230.661Z" fill="#3341C0"/>
<path d="M270.92 205.438C270.441 204.407 270.063 203.677 269.931 203.426C261.804 205.449 256.383 203.74 255.528 203.437C255.109 204.234 252.499 209.326 251.444 214.208C250.491 218.611 251.044 221.563 253.088 222.982L253.149 223.025L253.162 223.034C255.419 224.534 257.571 225.863 259.559 226.982C259.827 227.133 260.08 227.272 260.317 227.401L260.342 227.415L260.36 227.438C260.633 227.785 260.887 228.147 261.121 228.522C261.56 229.141 261.827 229.868 261.893 230.627V252.498L261.756 252.501C256.573 252.608 253.364 253.494 253.364 254.254C253.364 255.088 257.211 256.017 262.732 256.017C268.253 256.017 272.1 255.088 272.1 254.254C272.1 253.505 268.946 252.624 263.85 252.505L263.713 252.502L263.841 232.271C263.844 230.901 264.159 229.551 264.763 228.324C264.866 228.118 264.977 227.917 265.092 227.728C265.184 227.576 265.282 227.428 265.383 227.288L265.402 227.262L265.429 227.247C265.684 227.106 265.955 226.954 266.242 226.789L266.276 226.771C268.158 225.699 270.185 224.442 272.302 223.034C274.193 221.776 274.851 219.235 274.259 215.481C273.695 211.901 272.132 208.044 270.92 205.438Z" fill="#D0CDE1"/>
<path d="M270.652 222.543C268.505 223.964 266.732 225.03 265.376 225.798H265.374C263.396 225.662 261.41 225.718 259.442 225.965C258.052 225.186 256.177 224.069 253.87 222.543C253.848 222.528 253.826 222.513 253.804 222.497V222.496C251.688 221.035 251.636 217.939 252.324 214.774C254.075 214.579 256.868 214.664 260.619 216.01C265.062 217.603 269.712 216.702 272.407 215.883C272.85 218.676 272.58 221.267 270.652 222.543Z" fill="#3341C0"/>
<path d="M258.035 213.757C258.294 213.757 258.504 213.546 258.504 213.287C258.504 213.028 258.294 212.817 258.035 212.817C257.775 212.817 257.565 213.028 257.565 213.287C257.565 213.546 257.775 213.757 258.035 213.757Z" fill="#3341C0"/>
<path d="M256.157 219.391C256.416 219.391 256.626 219.181 256.626 218.922C256.626 218.662 256.416 218.452 256.157 218.452C255.897 218.452 255.687 218.662 255.687 218.922C255.687 219.181 255.897 219.391 256.157 219.391Z" fill="white"/>
<path d="M258.974 214.696C259.233 214.696 259.444 214.485 259.444 214.226C259.444 213.967 259.233 213.757 258.974 213.757C258.715 213.757 258.504 213.967 258.504 214.226C258.504 214.485 258.715 214.696 258.974 214.696Z" fill="#3341C0"/>
<path d="M260.852 222.209C261.111 222.209 261.322 221.999 261.322 221.739C261.322 221.48 261.111 221.27 260.852 221.27C260.593 221.27 260.383 221.48 260.383 221.739C260.383 221.999 260.593 222.209 260.852 222.209Z" fill="white"/>
<path d="M258.035 222.209C258.294 222.209 258.504 221.998 258.504 221.739C258.504 221.48 258.294 221.27 258.035 221.27C257.775 221.27 257.565 221.48 257.565 221.739C257.565 221.998 257.775 222.209 258.035 222.209Z" fill="white"/>
<path d="M265.548 210C265.807 210 266.017 209.79 266.017 209.53C266.017 209.271 265.807 209.061 265.548 209.061C265.288 209.061 265.078 209.271 265.078 209.53C265.078 209.79 265.288 210 265.548 210Z" fill="#3341C0"/>
</g>
<defs>
<filter id="filter0_d" x="0" y="35" width="440" height="377.4" filterUnits="userSpaceOnUse" color-interpolation-filters="sRGB">
<feFlood flood-opacity="0" result="BackgroundImageFix"/>
<feColorMatrix in="SourceAlpha" type="matrix" values="0 0 0 0 0 0 0 0 0 0 0 0 0 0 0 0 0 0 127 0"/>
<feOffset dy="4"/>
<feGaussianBlur stdDeviation="2"/>
<feColorMatrix type="matrix" values="0 0 0 0 0 0 0 0 0 0 0 0 0 0 0 0 0 0 0.25 0"/>
<feBlend mode="normal" in2="BackgroundImageFix" result="effect1_dropShadow"/>
<feBlend mode="normal" in="SourceGraphic" in2="effect1_dropShadow" result="shape"/>
</filter>
<filter id="filter1_d" x="15" y="0" width="434" height="446" filterUnits="userSpaceOnUse" color-interpolation-filters="sRGB">
<feFlood flood-opacity="0" result="BackgroundImageFix"/>
<feColorMatrix in="SourceAlpha" type="matrix" values="0 0 0 0 0 0 0 0 0 0 0 0 0 0 0 0 0 0 127 0"/>
<feOffset dx="15" dy="15"/>
<feGaussianBlur stdDeviation="25"/>
<feColorMatrix type="matrix" values="0 0 0 0 0 0 0 0 0 0 0 0 0 0 0 0 0 0 0.25 0"/>
<feBlend mode="normal" in2="BackgroundImageFix" result="effect1_dropShadow"/>
<feBlend mode="normal" in="SourceGraphic" in2="effect1_dropShadow" result="shape"/>
</filter>
</defs>
</svg>
