<svg width="667" height="585" viewBox="0 0 667 585" fill="none" xmlns="http://www.w3.org/2000/svg">
<path fill-rule="evenodd" clip-rule="evenodd" d="M61.8041 220.515C29.0166 328.133 41.2123 443.434 307.449 513.513C573.686 583.592 625.707 450.646 542.205 360.993C458.702 271.339 476.89 129.416 357.255 72.3184C237.62 15.2211 94.5916 112.898 61.8041 220.515Z" fill="#3341C0"/>
<mask id="mask0" mask-type="alpha" maskUnits="userSpaceOnUse" x="0" y="0" width="667" height="585">
<path fill-rule="evenodd" clip-rule="evenodd" d="M61.8041 220.515C29.0166 328.133 41.2123 443.434 307.449 513.513C573.686 583.592 625.707 450.646 542.205 360.993C458.702 271.339 476.89 129.416 357.255 72.3184C237.62 15.2211 94.5916 112.898 61.8041 220.515Z" fill="white"/>
</mask>
<g mask="url(#mask0)">
<g style="mix-blend-mode:multiply">
<path fill-rule="evenodd" clip-rule="evenodd" d="M569.936 586.817C569.936 586.817 525.239 473.522 371.558 481.991C217.878 490.459 158.784 444.61 158.784 444.61C158.784 444.61 354.317 652.739 411.444 666.113C468.572 679.486 569.936 586.817 569.936 586.817Z" fill="#9BB0C5"/>
</g>
<g style="mix-blend-mode:multiply">
<path fill-rule="evenodd" clip-rule="evenodd" d="M44.0142 192.115C44.0142 192.115 159.723 191.073 212.925 344.34C266.126 497.607 329.104 537.189 329.104 537.189C329.104 537.189 71.8635 428.449 37.7807 377.987C3.69784 327.524 44.0142 192.115 44.0142 192.115Z" fill="#9BB0C5"/>
</g>
</g>
<path d="M206.538 174.003L160.119 181.86C158.972 182.056 157.794 181.819 156.812 181.196C155.829 180.574 155.113 179.608 154.802 178.488C151.448 166.389 144.437 150.604 151.244 142.681C151.591 139.347 153.211 136.276 155.766 134.106C158.321 131.936 161.615 130.835 164.962 131.032C173.254 118.057 187.066 120.005 196.402 128.108C205.797 131.349 209.339 137.106 208.1 144.919C212.159 148.47 214.287 152.47 214.735 156.86C214.948 159.304 214.637 161.764 213.823 164.078C213.009 166.391 211.711 168.505 210.015 170.277L206.538 174.003Z" fill="#2F2E41"/>
<path d="M199.324 210.533L163.339 208.417C166.866 200.326 168.274 192.535 166.867 185.142H193.679C193.619 190.818 196.444 200.637 199.324 210.533Z" fill="#9F616A"/>
<path d="M180.978 193.703C195.737 193.703 207.701 181.744 207.701 166.991C207.701 152.238 195.737 140.278 180.978 140.278C166.219 140.278 154.255 152.238 154.255 166.991C154.255 181.744 166.219 193.703 180.978 193.703Z" fill="#9F616A"/>
<path d="M211.097 154.23C200.251 152.342 189.587 152.083 179.221 154.478C172.618 156.639 164.688 156.44 155.869 154.659V136.646L203.479 137.504L211.097 154.23Z" fill="#2F2E41"/>
<path d="M198.763 188.425C187.073 193.285 174.815 193.088 162.055 188.425C165.768 182.09 160.218 177.129 157.369 170.734L205.011 169.319C201.368 174.874 195.992 181.437 198.763 188.425Z" fill="white"/>
<path d="M154.088 167.086L153.619 167.648L158.306 171.552L158.774 170.99L154.088 167.086Z" fill="white"/>
<path d="M205.875 174.978L197.673 187.859L198.29 188.251L206.492 175.371L205.875 174.978Z" fill="white"/>
<path d="M154.944 174.978L154.326 175.37L162.527 188.252L163.144 187.859L154.944 174.978Z" fill="white"/>
<path d="M130.177 288.823L109.715 276.128L127.166 225.038C129.112 219.766 132.84 215.34 137.705 212.524L143.583 209.122L144.094 260.662L130.177 288.823Z" fill="#F1F3FF"/>
<path d="M218.621 313.636L215.593 287.716C215.432 274.035 217.76 260.808 223.312 248.62L226.134 210.533L195.089 197.837C194.993 198.47 194.912 199.102 194.822 199.734L180.271 207.007L166.081 203.783L166.159 199.248L137.936 211.944C147.269 255.319 142.179 300.363 126.128 353.567L163.31 363.73L163.619 345.883L196.757 343.517C197.098 349.308 197.372 354.995 197.531 360.556C216.23 367.437 216.872 367.323 233.909 357.471C227.124 343.212 221.752 328.374 218.621 313.636Z" fill="#F1F3FF"/>
<path d="M266.351 282.475L247.3 276.127L216.827 240.666L226.132 210.533L268.468 269.78L266.351 282.475Z" fill="#F1F3FF"/>
<path d="M206.65 309.929C206.961 311.296 207.803 312.484 208.989 313.232C210.176 313.981 211.611 314.228 212.98 313.92L229.152 310.259L226.814 299.941L210.642 303.601C209.273 303.911 208.084 304.752 207.335 305.939C206.586 307.125 206.34 308.56 206.65 309.929V309.929Z" fill="#9F616A"/>
<path d="M221.197 297.992L230.37 314.92C245.798 310.619 259.169 297.058 272 281.065L268.472 269.78L246.598 275.422L221.197 297.992Z" fill="#F1F3FF"/>
<path d="M101.6 244.894L119.209 248.037L159.458 305.245L138.076 300.216L101.6 244.894Z" fill="#E6E6E6"/>
<path d="M98.475 244.194C98.2067 244.198 97.9444 244.274 97.7155 244.414C97.4866 244.554 97.2996 244.753 97.174 244.99C97.0484 245.227 96.9888 245.494 97.0015 245.762C97.0142 246.03 97.0987 246.289 97.2461 246.513L134.869 303.575C135.079 303.894 135.403 304.12 135.775 304.207L153.279 308.324C153.575 308.394 153.884 308.372 154.166 308.261C154.449 308.151 154.691 307.957 154.861 307.706C155.03 307.455 155.12 307.159 155.117 306.855C155.114 306.552 155.019 306.257 154.845 306.009L113.538 247.298C113.426 247.138 113.283 247.002 113.118 246.897C112.954 246.792 112.77 246.721 112.577 246.687L98.7572 244.219C98.664 244.203 98.5696 244.194 98.475 244.194Z" fill="black"/>
<path d="M121.941 284.992L122.987 295.52L139.487 293.883C140.884 293.744 142.168 293.057 143.058 291.972C143.947 290.886 144.369 289.492 144.23 288.096C144.092 286.7 143.404 285.416 142.319 284.527C141.233 283.638 139.838 283.216 138.442 283.355L121.941 284.992Z" fill="#9F616A"/>
<path d="M107.598 283.772C107.622 287.362 109.064 290.797 111.611 293.329C114.157 295.86 117.601 297.283 121.192 297.287H123.906L125.881 280.833L109.526 274.948L107.598 283.772Z" fill="#F1F3FF"/>
<path d="M203.708 171.14L203.191 170.623L203.972 169.842L208.639 164.396L209.195 164.872L204.508 170.338L203.708 171.14Z" fill="white"/>
<path d="M205.417 525.963L192.947 524.716L180.531 392.465L175.839 524.289L163.587 523.852L142.937 341.282H221.832L205.417 525.963Z" fill="#F1F3FF"/>
<path fill-rule="evenodd" clip-rule="evenodd" d="M183.113 46.6614L159.001 55.8587V64.6572H159V83.2849C159 93.2365 169.691 100.442 180.148 107.49C181.129 108.151 182.108 108.811 183.076 109.472C184.045 108.811 185.024 108.151 186.005 107.49C196.462 100.442 207.153 93.2365 207.153 83.2849V67.0447H207.225V55.8587L183.113 46.6614Z" fill="#1C2468"/>
<path d="M195.725 69.3314C194.857 67.7305 189.418 62.3695 183.113 70.1311C176.491 62.3695 171.367 67.7305 170.5 69.3314C168.923 72.2917 169.869 76.7734 172.078 78.934L183.114 90.1376L194.151 78.934C196.356 76.7734 197.302 72.2932 195.725 69.3314H195.725Z" fill="#EAF2FA"/>
<path d="M437.517 223.004L379.309 254.159L379.981 255.414L438.189 224.26L437.517 223.004Z" fill="#3F3D56"/>
<path d="M394.24 431.333C394.24 431.333 394.24 495.771 379.451 512.673C379.451 512.673 376.282 521.124 375.225 524.293C374.635 526.097 373.929 527.861 373.113 529.575V533.8C373.113 533.8 344.591 530.631 341.422 523.236L346.704 516.898C346.704 516.898 347.76 515.842 346.704 512.673C345.647 509.504 348.816 509.504 348.816 509.504L356.211 492.602L355.155 422.882L360.436 326.753L405.86 324.641L394.24 431.333Z" fill="#2F2E41"/>
<path d="M370.998 527.462C370.998 527.462 378.393 549.645 370.998 550.702C363.603 551.758 299.165 552.814 300.222 544.364C301.278 535.913 322.405 536.969 322.405 536.969L344.589 523.236L370.998 527.462Z" fill="#2F2E41"/>
<path d="M436.491 326.753C436.491 326.753 438.604 340.486 430.153 355.275C421.702 370.064 426.984 419.713 426.984 419.713L501.986 485.207C501.986 485.207 487.197 510.56 481.915 509.504C476.633 508.447 393.18 440.84 393.18 440.84L360.433 330.979L436.491 326.753Z" fill="#2F2E41"/>
<path d="M500.956 482.408C500.956 482.408 523.652 488.039 520.585 494.85C517.519 501.661 483.915 556.653 477.342 551.236C470.77 545.82 482.972 528.541 482.972 528.541L483.249 502.452L500.956 482.408Z" fill="#2F2E41"/>
<path d="M419.591 130.272C419.6 135.837 417.686 141.234 414.175 145.552C411.399 148.993 407.734 151.609 403.577 153.117C399.421 154.624 394.931 154.966 390.594 154.105C388.423 153.685 386.321 152.962 384.351 151.957C381.222 150.38 378.472 148.144 376.289 145.404C374.106 142.664 372.541 139.483 371.703 136.081C371.231 134.181 370.994 132.23 370.997 130.272C370.997 123.828 373.557 117.648 378.114 113.091C382.67 108.535 388.85 105.975 395.294 105.975C401.738 105.975 407.918 108.535 412.475 113.091C417.031 117.648 419.591 123.828 419.591 130.272V130.272Z" fill="#EAB09F"/>
<path d="M414.41 138.843L413.336 170.108L392.892 178.185C392.892 178.185 390.887 146.172 388.057 144.397C385.227 142.622 414.41 138.843 414.41 138.843Z" fill="#EAB09F"/>
<path d="M387.901 182.032C387.901 182.032 416.423 153.51 423.818 154.566C431.212 155.623 431.212 158.792 431.212 160.905C431.212 163.017 429.1 164.074 431.212 165.13C433.325 166.186 435.438 165.13 435.438 168.299C435.438 171.468 454.452 203.159 448.114 238.019C441.776 272.879 434.381 289.781 437.55 308.795C440.719 327.81 438.607 332.035 438.607 332.035C438.607 332.035 359.38 338.373 358.323 330.979C357.267 323.584 361.492 327.81 356.211 322.528C350.929 317.246 353.042 317.246 353.042 314.077C353.042 310.908 376.281 182.032 387.901 182.032Z" fill="#575A89"/>
<path d="M402.689 325.697C402.689 325.697 390.013 356.331 380.506 348.937C370.999 341.542 384.731 316.189 384.731 316.189L402.689 325.697Z" fill="#EAB09F"/>
<path d="M433.323 184.144C433.323 184.144 458.142 186.986 448.902 232.573C439.661 278.161 403.745 330.979 403.745 330.979L379.448 319.359L411.139 257.033L403.745 217.948C403.745 217.948 399.519 180.975 433.323 184.144Z" fill="#575A89"/>
<path opacity="0.2" d="M411.667 257.562L376.807 315.662L379.976 318.831L411.667 257.562Z" fill="black"/>
<path opacity="0.2" d="M430.119 284.636L402.16 330.45H411.668L430.119 284.636Z" fill="black"/>
<path opacity="0.2" d="M366.963 367.893L365.559 368.429L393.357 441.313L394.762 440.778L366.963 367.893Z" fill="black"/>
<path d="M388.049 187.832C388.878 187.832 389.551 187.159 389.551 186.329C389.551 185.499 388.878 184.826 388.049 184.826C387.219 184.826 386.546 185.499 386.546 186.329C386.546 187.159 387.219 187.832 388.049 187.832Z" fill="#D0CDE1"/>
<path d="M375.275 228.406C375.436 228.406 375.592 228.355 375.721 228.259C375.85 228.164 375.945 228.03 375.993 227.876L388.766 186.551C388.795 186.457 388.806 186.358 388.797 186.259C388.788 186.161 388.76 186.065 388.714 185.978C388.668 185.891 388.605 185.813 388.529 185.75C388.453 185.687 388.365 185.639 388.271 185.61C388.177 185.581 388.077 185.571 387.979 185.58C387.881 185.589 387.785 185.618 387.698 185.664C387.61 185.71 387.533 185.773 387.47 185.849C387.407 185.925 387.36 186.013 387.331 186.107L374.558 227.433C374.523 227.546 374.515 227.664 374.535 227.78C374.555 227.896 374.601 228.006 374.671 228.101C374.741 228.195 374.832 228.272 374.937 228.325C375.042 228.378 375.158 228.406 375.275 228.406V228.406Z" fill="#D0CDE1"/>
<path d="M390.421 148.88L384.349 154.656C378.096 151.51 372.056 143.03 370.351 136.081L378.318 132.743C378.838 139.831 383.869 144.543 390.421 148.88Z" fill="white"/>
<path d="M391.937 135.769C391.913 135.769 391.889 135.767 391.865 135.764L377.745 133.747C377.679 133.737 377.616 133.715 377.559 133.681C377.502 133.648 377.452 133.603 377.412 133.55C377.373 133.497 377.344 133.437 377.327 133.373C377.311 133.309 377.307 133.242 377.316 133.176C377.326 133.111 377.348 133.048 377.381 132.991C377.415 132.934 377.46 132.884 377.513 132.844C377.566 132.804 377.626 132.775 377.69 132.759C377.754 132.742 377.821 132.738 377.887 132.748L392.007 134.765C392.133 134.783 392.248 134.848 392.328 134.947C392.408 135.046 392.448 135.172 392.439 135.299C392.43 135.427 392.374 135.546 392.28 135.633C392.187 135.72 392.064 135.768 391.937 135.769V135.769Z" fill="white"/>
<path d="M389.918 148.88C389.83 148.88 389.743 148.857 389.667 148.814C389.591 148.77 389.527 148.707 389.483 148.631C389.438 148.555 389.414 148.468 389.414 148.38C389.413 148.292 389.435 148.206 389.479 148.129L394.157 139.8C394.19 139.742 394.233 139.691 394.285 139.65C394.337 139.609 394.397 139.579 394.461 139.561C394.525 139.543 394.591 139.538 394.657 139.545C394.723 139.553 394.787 139.574 394.845 139.607C394.902 139.639 394.953 139.683 394.994 139.735C395.035 139.787 395.065 139.847 395.083 139.911C395.101 139.975 395.106 140.042 395.098 140.107C395.09 140.173 395.069 140.237 395.036 140.295L390.357 148.623C390.314 148.701 390.25 148.766 390.173 148.811C390.095 148.857 390.008 148.88 389.918 148.88V148.88Z" fill="white"/>
<path d="M406.292 144.87C404.325 143.83 402.04 143.615 399.911 142.969C392.294 140.656 387.191 132.046 388.82 124.254C389.121 123.255 389.257 122.213 389.22 121.169C388.936 118.862 386.574 117.373 384.31 116.844C382.046 116.315 379.637 116.392 377.473 115.542C374.131 114.229 371.911 110.795 371.43 107.237C370.949 103.68 372.005 100.051 373.722 96.8982L374.54 99.2517C375.787 98.1958 376.713 96.811 377.212 95.2548C378.142 95.411 379.015 95.8032 379.75 96.3939C380.484 96.9845 381.055 97.7539 381.407 98.6282C382.72 99.4023 382.909 96.2232 384.359 95.7542C384.966 95.5578 385.591 95.9309 386.169 96.2006C389.091 97.5635 392.486 96.3982 395.62 95.6428C401.048 94.3408 406.706 94.3342 412.137 95.6233C415.745 96.4839 419.316 97.9825 421.898 100.646C424.018 102.833 425.339 105.661 426.464 108.492C429.233 115.461 431.063 123.002 430.148 130.444C429.387 136.535 426.839 142.264 422.826 146.908C420.735 149.317 413.913 157.721 410.173 156.288C405.473 154.488 411.829 147.797 406.292 144.87Z" fill="#2F2E41"/>
</svg>
