<svg width="405" height="523" viewBox="0 0 405 523" fill="none" xmlns="http://www.w3.org/2000/svg">
<g filter="url(#filter0_d)">
<path fill-rule="evenodd" clip-rule="evenodd" d="M187.5 35L35 93.534V158.042V164.724V276.03C35 339.063 102.715 384.702 168.952 429.344C175.166 433.533 181.368 437.713 187.5 441.897C193.632 437.713 199.834 433.533 206.048 429.344C272.285 384.702 340 339.063 340 276.03V164.724V158.042V93.534L187.5 35Z" fill="#3341C0"/>
</g>
<path d="M59.8505 351.768L51.6248 352.673C51.6248 352.673 47.969 368.958 51.6248 390.671C55.2807 412.384 59.8505 434.097 59.8505 434.097C59.8505 434.097 63.5063 504.664 65.3343 505.569C67.1622 506.474 83.6135 511.902 84.5275 506.474C85.4415 501.046 85.4415 377.1 85.4415 377.1L98.237 436.811C98.237 436.811 100.065 511.902 103.721 511.902C107.377 511.902 119.258 510.997 119.258 504.664C119.258 498.331 122 415.098 122 415.098C122 415.098 121.086 353.577 117.43 351.768C113.774 349.959 59.8505 351.768 59.8505 351.768Z" fill="#191847"/>
<path d="M66.5881 503.301C66.5881 503.301 58.3404 502.41 56.5076 503.301C54.6747 504.192 51.9255 510.427 56.5076 513.99C61.0896 517.553 73.003 522.898 76.6687 522.898C80.3344 522.898 84 521.116 84 521.116L82.1672 505.973L66.5881 503.301Z" fill="#191847"/>
<path d="M103 507.425L103.901 520.094C103.901 520.094 115.61 521.904 116.511 520.094C117.411 518.284 126.418 513.76 127.319 512.855C128.22 511.95 129.121 501.996 123.716 501.091C118.312 500.186 116.511 502.901 116.511 502.901L103 507.425Z" fill="#191847"/>
<path d="M124.071 244.005C124.071 244.005 144.464 231.133 143.992 222.29C143.52 213.447 131.226 185.564 131.226 185.564C131.226 185.564 121.609 165.938 117.785 173.959C113.962 181.98 122.81 190.518 122.81 190.518L128.522 217.87L113 232.403L124.071 244.005Z" fill="#A0616A"/>
<path d="M75 225.013C84.3888 225.013 92 217.852 92 209.019C92 200.186 84.3888 193.025 75 193.025C65.6112 193.025 58 200.186 58 209.019C58 217.852 65.6112 225.013 75 225.013Z" fill="#A0616A"/>
<path d="M67 218.756L69.64 236.008L89 232.376C89 232.376 88.12 215.125 88.12 213.309C88.12 211.493 67 218.756 67 218.756Z" fill="#A0616A"/>
<path d="M66.1982 236.021C66.1982 236.021 88.6039 230.561 91.2926 232.381C93.9813 234.201 107.425 236.021 107.425 236.021L122.661 259.677L118.179 289.702C118.179 289.702 117.283 337.923 119.076 346.112C120.868 354.301 130.727 355.211 110.113 357.03C89.5001 358.85 85.9152 356.12 71.5756 359.76C57.2359 363.399 45.5849 357.94 49.1698 354.301C52.7548 350.661 59.0284 292.431 51.8585 286.972C44.6887 281.513 42 253.308 42 253.308C42 253.308 66.1982 240.57 66.1982 236.021Z" fill="#3F3D56"/>
<path d="M105 239.236L107.724 236.494L113.171 231.01C113.171 231.01 130.874 238.779 129.966 241.52C129.058 244.262 123.157 260.256 123.157 260.256L114.987 262.998L105 239.236Z" fill="#3F3D56"/>
<path d="M80.8892 188.367L80.7225 187.021C79.617 187.015 78.5178 187.193 77.4676 187.549C77.3601 186.738 77.4288 185.912 77.6685 185.131C76.6012 185.415 75.5843 185.871 74.6557 186.484L73.9987 184.028L64.9661 188.626C61.7237 190.276 58.3053 192.09 56.4518 195.295C54.3855 198.869 54.745 203.461 56.1576 207.359C57.5702 211.257 59.9173 214.707 61.7988 218.387C62.5132 219.97 63.3716 221.479 64.3625 222.894C67.7719 227.284 74.4085 228.171 79.2156 225.521C80.9897 224.543 82.6016 223.082 83.3315 221.147C83.7679 219.99 83.8677 218.73 84.1536 217.524C84.7483 215.016 85.4385 209.838 87.4112 208.251C88.2793 207.552 90.0004 209.867 90.7198 209.007C92.5684 206.798 92.1804 203.39 91.0323 200.721C89.9303 198.04 88.6423 195.445 87.1782 192.956C86.5579 191.956 80.8692 188.205 80.8892 188.367Z" fill="#2F2E41"/>
<path d="M27.0452 274.993C27.0452 274.993 5.54496 296.054 8.23248 307.042C10.92 318.03 32.4203 350.079 32.4203 350.079C32.4203 350.079 53.0247 361.067 55.7122 350.079C58.3998 339.091 41.3787 341.838 41.3787 341.838L27.941 308.873L43.1704 286.897L27.0452 274.993Z" fill="#A0616A"/>
<path d="M52.4324 255.815L41.7297 254.001C41.7297 254.001 33.7027 263.068 31.027 266.694C28.3513 270.321 23 279.387 23 279.387L41.7297 292.986L56 277.574L52.4324 255.815Z" fill="#3F3D56"/>
<defs>
<filter id="filter0_d" x="0" y="0" width="405" height="506.897" filterUnits="userSpaceOnUse" color-interpolation-filters="sRGB">
<feFlood flood-opacity="0" result="BackgroundImageFix"/>
<feColorMatrix in="SourceAlpha" type="matrix" values="0 0 0 0 0 0 0 0 0 0 0 0 0 0 0 0 0 0 127 0"/>
<feOffset dx="15" dy="15"/>
<feGaussianBlur stdDeviation="25"/>
<feColorMatrix type="matrix" values="0 0 0 0 0 0 0 0 0 0 0 0 0 0 0 0 0 0 0.25 0"/>
<feBlend mode="normal" in2="BackgroundImageFix" result="effect1_dropShadow"/>
<feBlend mode="normal" in="SourceGraphic" in2="effect1_dropShadow" result="shape"/>
</filter>
</defs>
</svg>
