<svg width="430" height="508" viewBox="0 0 430 508" fill="none" xmlns="http://www.w3.org/2000/svg">
<g filter="url(#filter0_d)">
<path fill-rule="evenodd" clip-rule="evenodd" d="M212.5 35L60 93.534V158.558V164.724V276.546C60 339.579 127.715 385.218 193.952 429.861C200.167 434.05 206.368 438.229 212.5 442.414C218.632 438.229 224.833 434.05 231.048 429.861C297.285 385.218 365 339.579 365 276.546V164.724V158.558V93.534L212.5 35Z" fill="#F4F8FB"/>
</g>
<path d="M365 246.521V276.03C365 344.977 283.982 393.113 212.5 441.898C141.018 393.113 60 344.977 60 276.03V246.521H365Z" fill="#3341C0"/>
<rect x="336" y="227" width="29" height="6" fill="#3341C0"/>
<rect x="336" y="208" width="29" height="6" fill="#3341C0"/>
<rect x="336" y="189" width="29" height="6" fill="#3341C0"/>
<rect x="327" y="170" width="38" height="6" fill="#3341C0"/>
<rect x="336" y="151" width="29" height="6" fill="#3341C0"/>
<rect x="336" y="131" width="29" height="7" fill="#3341C0"/>
<rect x="336" y="112" width="29" height="6" fill="#3341C0"/>
<path d="M109.777 455.073C109.777 455.073 115.145 460.44 109.777 460.44C104.41 460.44 99.2756 456.94 99.2756 456.94L109.777 455.073Z" fill="#2F2E41"/>
<path d="M54.4828 224.455C56.3057 222.807 57.4426 220.534 57.6681 218.088C57.8936 215.641 57.1913 213.199 55.7004 211.246C55.8977 211.431 56.0906 211.623 56.2753 211.827C58.0187 213.755 58.9248 216.296 58.7941 218.891C58.6634 221.486 57.5067 223.923 55.5784 225.666C53.6502 227.409 51.1083 228.315 48.512 228.184C45.9157 228.053 43.4776 226.897 41.7342 224.97C41.5495 224.765 41.3777 224.554 41.2134 224.339C43.0079 226.018 45.3679 226.962 47.8256 226.984C50.2834 227.005 52.6595 226.102 54.4828 224.455V224.455Z" fill="#2F2E41"/>
<path d="M55.4012 226.803C44.2523 226.803 35.2143 217.769 35.2143 206.624C35.2143 195.48 44.2523 186.445 55.4012 186.445C66.5502 186.445 75.5882 195.48 75.5882 206.624C75.5882 217.769 66.5502 226.803 55.4012 226.803Z" fill="#2F2E41"/>
<path d="M31.7042 451.71C31.7042 451.71 33.1898 459.152 28.7249 456.174C24.26 453.196 21.9322 447.436 21.9322 447.436L31.7042 451.71Z" fill="#2F2E41"/>
<path d="M89.7074 277.543L93.2081 285.708L114.679 314.169C114.679 314.169 129.381 330.032 121.213 330.965C113.045 331.899 107.677 316.268 107.677 316.268L82.4728 291.307L79.6723 279.876L89.7074 277.543Z" fill="#EAB09F"/>
<path d="M78.9724 244.417L82.3552 245.363C82.3552 245.363 95.542 268.678 94.1417 273.577C92.7415 278.476 86.4403 284.542 83.6398 284.075C80.8394 283.608 78.9724 244.417 78.9724 244.417Z" fill="#191847"/>
<path d="M68.2375 219.222C68.2375 219.222 64.7368 233.685 67.3039 236.485C69.8711 239.284 75.4721 241.384 75.4721 241.384L74.5386 267.512C74.5386 267.512 63.8033 263.779 63.3366 263.313C62.8698 262.846 53.3014 247.683 53.3014 247.683L43.9664 238.818C43.9664 238.818 58.2023 232.052 54.0016 220.388C49.8008 208.724 68.2375 219.222 68.2375 219.222Z" fill="#EAB09F"/>
<path d="M59.6023 224.587C52.9 224.587 47.4668 219.156 47.4668 212.456C47.4668 205.757 52.9 200.326 59.6023 200.326C66.3045 200.326 71.7378 205.757 71.7378 212.456C71.7378 219.156 66.3045 224.587 59.6023 224.587Z" fill="#EAB09F"/>
<path d="M73.3714 240.217C73.3714 240.217 82.0062 242.55 82.473 245.816C82.9398 249.082 82.473 255.847 83.1731 257.247C83.8732 258.647 85.9736 260.746 85.0401 269.611C84.1066 278.476 84.5734 283.842 84.5734 283.842C84.5734 283.842 131.949 450.874 115.146 455.773C98.3425 460.672 73.6047 455.306 73.8381 452.04C74.0715 448.774 78.2723 384.154 78.2723 384.154C78.2723 384.154 53.7679 470.003 23.4291 449.941C-6.90966 429.878 -0.141774 426.146 2.65873 424.746C5.45923 423.346 47.7001 356.86 47.4667 344.496C47.2334 332.132 47.9335 293.406 53.0677 287.574C53.0677 287.574 47.7001 269.845 45.133 267.512C42.5659 265.179 36.2647 243.25 36.2647 243.25C36.2647 243.25 40.2321 237.885 43.4994 237.885C46.7666 237.885 49.8005 239.051 53.5345 242.55C57.2685 246.05 71.0376 263.079 71.0376 263.079C71.0376 263.079 75.4717 243.483 73.3714 240.217Z" fill="#191847"/>
<path d="M59.7186 208.607C54.0475 208.607 49.4501 205.474 49.4501 201.609C49.4501 197.743 54.0475 194.61 59.7186 194.61C65.3898 194.61 69.9871 197.743 69.9871 201.609C69.9871 205.474 65.3898 208.607 59.7186 208.607Z" fill="#2F2E41"/>
<path d="M42.2158 201.142C36.8024 201.142 32.414 196.755 32.414 191.344C32.414 185.933 36.8024 181.546 42.2158 181.546C47.6292 181.546 52.0175 185.933 52.0175 191.344C52.0175 196.755 47.6292 201.142 42.2158 201.142Z" fill="#2F2E41"/>
<path d="M35.2146 198.343C37.6725 198.342 40.0405 197.419 41.8492 195.755C43.6579 194.092 44.7753 191.809 44.9799 189.361C45.0021 189.631 45.0164 189.902 45.0164 190.178C45.0164 192.776 43.9837 195.268 42.1455 197.106C40.3073 198.943 37.8142 199.976 35.2146 199.976C32.615 199.976 30.1219 198.943 28.2837 197.106C26.4455 195.268 25.4129 192.776 25.4129 190.178C25.4129 189.902 25.4271 189.631 25.4494 189.361C25.6539 191.809 26.7713 194.092 28.5801 195.755C30.3888 197.419 32.7568 198.342 35.2146 198.343V198.343Z" fill="#2F2E41"/>
<path d="M13.004 377.431C13.424 377.43 13.8419 377.49 14.2447 377.609L14.1618 377.887C13.6098 377.723 13.0294 377.676 12.4583 377.75C11.8871 377.824 11.3378 378.017 10.8458 378.317C10.3538 378.616 9.93013 379.015 9.60207 379.489C9.27401 379.962 9.04888 380.499 8.94124 381.065L8.65557 381.011C8.84656 379.999 9.38644 379.087 10.1811 378.433C10.9757 377.778 11.9748 377.424 13.004 377.431V377.431Z" fill="#3F3D56"/>
<path d="M35.5648 275.443L36.7317 288.507L34.3979 327.699C34.3979 327.699 29.0303 347.529 37.1984 347.062C45.3665 346.596 42.3327 326.3 42.3327 326.3L46.0667 280.809L35.5648 275.443Z" fill="#EAB09F"/>
<path d="M42.3326 239.984L36.2648 243.25C36.2648 243.25 28.0967 271.711 32.7642 277.076C37.4317 282.442 47.0001 284.542 47.4668 282.442C47.9336 280.342 49.5672 264.712 49.5672 264.712L42.3326 239.984Z" fill="#191847"/>
<defs>
<filter id="filter0_d" x="25" y="0" width="405" height="507.414" filterUnits="userSpaceOnUse" color-interpolation-filters="sRGB">
<feFlood flood-opacity="0" result="BackgroundImageFix"/>
<feColorMatrix in="SourceAlpha" type="matrix" values="0 0 0 0 0 0 0 0 0 0 0 0 0 0 0 0 0 0 127 0"/>
<feOffset dx="15" dy="15"/>
<feGaussianBlur stdDeviation="25"/>
<feColorMatrix type="matrix" values="0 0 0 0 0 0 0 0 0 0 0 0 0 0 0 0 0 0 0.25 0"/>
<feBlend mode="normal" in2="BackgroundImageFix" result="effect1_dropShadow"/>
<feBlend mode="normal" in="SourceGraphic" in2="effect1_dropShadow" result="shape"/>
</filter>
</defs>
</svg>
