<svg width="538" height="508" viewBox="0 0 538 508" fill="none" xmlns="http://www.w3.org/2000/svg">
<g filter="url(#filter0_d)">
<path fill-rule="evenodd" clip-rule="evenodd" d="M187.5 35L35.0001 93.534V158.303V164.724V276.291C35.0001 339.325 102.715 384.963 168.952 429.606C175.167 433.795 181.368 437.975 187.5 442.159C193.632 437.975 199.834 433.795 206.048 429.606C272.285 384.963 340 339.325 340 276.291L340 164.724V93.534L187.5 35Z" fill="#3341C0"/>
</g>
<circle cx="112.999" cy="96" r="14" fill="#191847"/>
<circle cx="263.999" cy="96" r="14" fill="#191847"/>
<rect x="107.999" y="35" width="11" height="52" rx="5.5" fill="#191847"/>
<rect x="258.999" y="35" width="11" height="52" rx="5.5" fill="#191847"/>
<rect x="77.9991" y="188" width="47" height="47" rx="5" fill="#1C2468"/>
<rect x="77.9991" y="131" width="47" height="47" rx="5" fill="#1C2468"/>
<rect x="77.9991" y="245" width="47" height="47" rx="5" fill="#1C2468"/>
<rect x="134.999" y="188" width="48" height="47" rx="5" fill="#1C2468"/>
<rect x="134.999" y="131" width="48" height="47" rx="5" fill="#1C2468"/>
<rect x="134.999" y="245" width="48" height="47" rx="5" fill="#1C2468"/>
<rect x="134.999" y="302" width="48" height="47" rx="5" fill="#191847"/>
<rect x="191.999" y="188" width="48" height="47" rx="5" fill="#1C2468"/>
<rect x="191.999" y="131" width="48" height="47" rx="5" fill="#1C2468"/>
<rect x="191.999" y="245" width="48" height="47" rx="5" fill="#1C2468"/>
<rect x="191.999" y="302" width="48" height="47" rx="5" fill="#191847"/>
<rect x="249.999" y="188" width="47" height="47" rx="5" fill="#1C2468"/>
<rect x="249.999" y="131" width="47" height="47" rx="5" fill="#1C2468"/>
<rect x="249.999" y="245" width="47" height="47" rx="5" fill="#1C2468"/>
<path opacity="0.1" d="M161.725 193.565C166.797 193.565 170.909 189.326 170.909 184.098C170.909 178.87 166.797 174.631 161.725 174.631C156.652 174.631 152.54 178.87 152.54 184.098C152.54 189.326 156.652 193.565 161.725 193.565Z" fill="#3341C0"/>
<path opacity="0.1" d="M71.3922 222.866C79.8931 222.866 86.7845 215.763 86.7845 207.001C86.7845 198.239 79.8931 191.136 71.3922 191.136C62.8913 191.136 56 198.239 56 207.001C56 215.763 62.8913 222.866 71.3922 222.866Z" fill="#3341C0"/>
<path d="M206.462 258.754C206.538 260.086 206.463 261.423 206.237 262.737C205.388 266.803 201.795 269.595 198.318 271.713C194.84 273.832 191.019 275.836 188.951 279.412C186.458 283.732 187.252 289.539 190.178 293.575C193.104 297.61 197.74 300.013 202.513 301.015C211.218 302.866 220.75 300.266 227.276 294.052C233.803 287.837 237.077 278.125 235.476 269.105C231.934 269.617 228.78 266.396 227.633 262.903C226.487 259.411 226.724 255.625 226.279 251.962C226.246 251.342 226.065 250.741 225.752 250.211C225.255 249.502 224.376 249.213 223.557 248.981C219.464 247.821 212.576 245.283 208.334 246.255C204.513 247.156 206.398 255.446 206.462 258.754Z" fill="#BE6F72"/>
<path opacity="0.1" d="M206.462 258.754C206.538 260.086 206.463 261.423 206.237 262.737C205.388 266.803 201.795 269.595 198.318 271.713C194.84 273.832 191.019 275.836 188.951 279.412C186.458 283.732 187.252 289.539 190.178 293.575C193.104 297.61 197.74 300.013 202.513 301.015C211.218 302.866 220.75 300.266 227.276 294.052C233.803 287.837 237.077 278.125 235.476 269.105C231.934 269.617 228.78 266.396 227.633 262.903C226.487 259.411 226.724 255.625 226.279 251.962C226.246 251.342 226.065 250.741 225.752 250.211C225.255 249.502 224.376 249.213 223.557 248.981C219.464 247.821 212.576 245.283 208.334 246.255C204.513 247.156 206.398 255.446 206.462 258.754Z" fill="black"/>
<path d="M201.515 452.511C197.457 454.7 193.234 456.548 188.887 458.035C186.506 458.81 184.085 459.447 181.635 459.943C181.461 456.577 181.639 453.203 182.165 449.877C182.496 447.964 182.985 446.069 183.112 444.13C183.292 441.331 182.712 438.537 181.435 436.06C186.165 435.394 190.658 434.309 195.409 434.628L195.71 434.65C196.275 434.665 196.835 434.773 197.366 434.97C198.097 435.334 198.718 435.897 199.163 436.598C199.407 436.942 199.633 437.3 199.838 437.67C201.179 440.06 201.689 442.817 201.795 445.658C201.845 447.946 201.751 450.235 201.515 452.511Z" fill="#BE6F72"/>
<path d="M226.275 441.736C224.763 442.101 223.28 442.517 221.825 442.983C217.902 444.29 214.085 445.91 210.407 447.828C210.168 446.636 210.051 445.422 210.059 444.204C212.226 442.664 214.672 441.588 217.25 441.042C219.829 440.495 222.488 440.489 225.069 441.023C225.414 441.066 225.742 441.202 226.02 441.417C226.121 441.509 226.207 441.616 226.275 441.736Z" fill="#BE6F72"/>
<path d="M233.574 419.643C233.285 422.505 232.86 425.376 231.875 428.068C230.809 430.956 229.077 433.757 229.298 436.843C229.395 438.182 229.837 439.635 229.901 440.961C228.678 441.192 227.471 441.452 226.279 441.74C224.767 442.105 223.284 442.521 221.829 442.988C217.906 444.294 214.089 445.914 210.411 447.833C209.685 448.2 208.967 448.572 208.25 448.949C207.952 448.909 207.659 448.861 207.362 448.804C205.239 448.406 203.006 447.426 201.804 445.675C201.529 445.272 201.313 444.83 201.163 444.362C200.471 442.231 201.193 439.574 199.753 437.885L199.685 437.946L199.634 437.981C198.846 438.717 197.98 439.36 197.053 439.898C194.942 441.129 192.604 441.889 190.19 442.129C187.776 442.369 185.34 442.083 183.04 441.29C182.129 440.97 181.249 440.563 180.412 440.073C178.467 438.931 176.59 437.009 176.743 434.716C176.828 433.438 177.537 432.213 177.346 430.948C177.206 430.042 176.629 429.289 176.196 428.488C173.355 423.236 176.743 416.483 174.96 410.776C174.918 410.64 174.871 410.505 174.824 410.373C174.692 410.001 174.544 409.642 174.399 409.283C174.034 408.448 173.627 407.625 173.304 406.767C173.035 406.046 172.822 405.304 172.667 404.548C172.266 402.353 172.124 400.117 172.242 397.887C172.242 392.009 173.262 385.991 174.714 380.328C174.973 379.321 175.261 377.899 175.644 376.349C176.016 374.716 176.519 373.118 177.147 371.57C177.996 369.557 179.151 367.951 180.73 367.57C183.108 366.997 186.743 368.209 189.155 368.507L198.687 369.679L217.748 372.03C221.039 372.437 224.495 372.905 227.209 374.813C227.387 374.94 227.561 375.071 227.735 375.212C228.452 375.793 229.094 376.467 229.646 377.216C229.841 377.474 230.028 377.746 230.206 378.021C230.825 378.997 231.351 380.032 231.778 381.111C234.143 386.967 234.198 393.501 234.215 399.843C234.215 406.461 234.236 413.074 233.574 419.643Z" fill="#3F3D56"/>
<path opacity="0.1" d="M197.031 439.924C196.457 437.648 195.247 434.353 195.069 433.456C194.471 430.446 194.037 427.403 193.77 424.343C193.298 418.89 192.449 411.214 194.317 406.027C196.071 406.99 197.612 409.717 198.423 411.577C201.362 418.321 198.054 426.602 200.814 433.425C201.02 433.834 201.149 434.279 201.192 434.738C201.144 435.32 200.941 435.877 200.606 436.348L199.676 437.942L197.031 439.924Z" fill="black"/>
<path d="M258.184 231.711C261.309 226.459 265.589 221.295 265.322 215.154C265.224 212.966 264.528 210.826 263.997 208.681C262.476 202.475 262.375 195.989 263.704 189.735C268.955 188.866 274.329 190.106 278.718 193.201C280.107 194.19 281.423 195.42 282.034 197.044C282.599 198.541 282.506 200.208 282.404 201.81C282.17 205.491 281.852 209.417 279.652 212.314C278.969 213.22 278.128 213.986 277.461 214.901C276.489 216.214 275.92 217.815 275.364 219.378L268.145 239.62C264.502 249.822 260.553 260.492 252.528 267.551C252.333 267.722 246.583 259.306 246.108 258.461C244.184 254.999 245.025 253.537 247.352 250.64C251.942 244.911 254.434 238 258.184 231.711Z" fill="#BE6F72"/>
<path d="M175.46 404.242C175.436 405.753 175.312 407.26 175.091 408.754C175.014 409.305 174.925 409.852 174.819 410.4C173.371 418.19 169.766 425.599 167.244 433.189C163.919 443.207 162.459 451.899 161.299 461.847C157.958 461.847 154.612 461.772 151.304 461.593H151.202C150.073 461.531 148.939 461.461 147.805 461.374C148.828 452.096 146.956 442.362 148.786 433.075C149.525 429.337 150.786 425.709 151.546 421.989C151.78 420.894 151.958 419.786 152.077 418.671C152.183 417.612 152.238 416.514 152.701 415.56C152.743 415.467 152.792 415.378 152.845 415.293C153.252 414.632 153.756 414.042 154.34 413.542C159.514 408.866 165.842 405.756 172.624 404.557C173.588 404.421 174.526 404.307 175.46 404.242Z" fill="#DA9E8D"/>
<path d="M153.933 424.186C153.864 426.618 153.67 429.045 153.351 431.455C152.218 441.307 152.005 451.588 151.228 461.588C150.099 461.527 148.965 461.457 147.831 461.369C142.668 461.006 137.522 460.446 132.452 459.68C132.842 457.428 133.236 455.175 133.632 452.923C134.116 450.161 134.6 447.373 134.46 444.572C134.329 441.924 133.641 439.346 133.093 436.751C131.925 431.193 131.271 425.197 129.348 419.954C128.345 417.013 126.744 414.327 124.652 412.076C132.609 408.855 140.256 408.671 148.804 409.012C149.411 408.978 150.014 409.13 150.536 409.45C150.941 409.811 151.242 410.281 151.407 410.807C152.691 413.991 153.497 417.359 153.797 420.794C153.899 421.921 153.945 423.054 153.933 424.186Z" fill="#EAB09F"/>
<path d="M218.028 256.496C227.174 256.496 234.588 248.854 234.588 239.427C234.588 230 227.174 222.358 218.028 222.358C208.883 222.358 201.468 230 201.468 239.427C201.468 248.854 208.883 256.496 218.028 256.496Z" fill="#BE6F72"/>
<path d="M221.472 279.32C223.595 275.587 225.455 270.926 229.539 269.888C231.845 269.297 234.244 270.103 236.49 270.895C237.141 271.054 237.732 271.407 238.189 271.91C238.521 272.453 238.699 273.081 238.703 273.722C239.414 281.438 239.389 289.207 238.63 296.918C238.091 302.376 237.182 307.807 237.021 313.291C236.796 320.893 238.01 328.496 237.611 336.089C237.31 341.844 236.087 347.499 234.873 353.123L229.777 376.669C229.686 377.398 229.402 378.086 228.958 378.66C228.528 379.066 228.014 379.366 227.455 379.536C220.079 382.223 212.239 383.286 204.44 382.657C196.642 382.027 189.058 379.719 182.178 375.881C180.339 374.84 178.505 373.636 177.308 371.859C175.609 369.338 175.452 366.003 176.004 362.983C176.556 359.963 177.749 357.114 178.552 354.151C179.792 349.556 180.085 344.759 180.365 339.997C180.739 333.73 181.112 327.423 180.463 321.178C180.017 316.876 179.087 312.639 178.386 308.372C177.354 301.941 176.756 295.443 176.594 288.927C176.488 285.036 176.662 280.716 179.274 277.911C180.547 276.545 182.246 275.722 183.974 275.057C186.874 273.954 190.114 273.306 193.044 274.313C195.974 275.32 198.335 278.488 197.642 281.591C197.324 283.031 196.42 284.292 196.199 285.754C195.906 287.688 196.899 289.636 198.322 290.944C205.973 298.069 217.654 286.077 221.472 279.32Z" fill="#F1F3FF"/>
<path d="M222.079 261.879C224.403 260.997 226.929 260.845 229.336 261.441C230.869 261.818 232.525 262.483 233.939 261.778C234.453 261.525 234.877 261.109 235.395 260.873C236.797 260.238 238.614 261.017 239.854 260.093C240.635 259.511 240.89 258.452 241.153 257.489C242.428 252.893 245.041 248.811 248.639 245.795C248.193 249.152 247.871 252.973 250.023 255.537C251.004 256.702 252.38 257.432 253.773 258.001C255.773 258.82 257.968 259.363 260.078 258.916C262.189 258.47 264.163 256.824 264.498 254.631C264.426 257.927 261.382 260.229 260.528 263.411C260.206 264.601 260.235 265.866 260.01 267.083C259.437 270.19 257.284 272.685 255.403 275.188C249.395 283.24 245.558 292.785 244.278 302.857C244.191 304.053 243.948 305.23 243.556 306.359C243.14 307.224 242.669 308.06 242.147 308.862C239.034 314.28 239.994 321.117 241.051 327.305C242.703 336.999 244.35 346.497 247.026 355.946C247.484 357.561 248.002 359.246 249.17 360.423C248.8 364.244 245.06 365.986 241.697 367.636C238.376 369.268 235.313 371.405 232.61 373.977C231.642 374.896 230.686 375.929 230.334 377.238C230.003 378.468 230.241 379.82 229.816 381.015C229.391 382.21 227.693 383.068 226.946 382.061C226.011 378.459 227.608 374.691 227.536 370.962C227.485 368.445 226.687 365.999 226.572 363.482C226.462 360.633 227.277 357.836 228.143 355.132C230.555 347.599 233.468 340.137 234.304 332.255C235.141 324.373 233.578 315.764 228.151 310.14C221.71 303.435 218.135 294.345 211.231 288.187C210.135 287.211 208.895 285.999 209.078 284.519C209.204 283.868 209.482 283.258 209.889 282.742C212.258 279.294 215.409 276.48 217.957 273.18C220.504 269.88 222.542 266.081 222.079 261.879Z" fill="#2F3676"/>
<path d="M199.409 268.939C198.984 269.376 198.691 269.98 198.199 270.357C197.623 270.723 196.967 270.932 196.292 270.965C193.793 271.356 191.273 271.589 188.747 271.661C186.624 271.661 184.42 271.468 182.378 272.068C179.528 272.899 177.252 275.219 175.826 277.889C174.399 280.559 173.724 283.578 173.176 286.585C171.969 293.21 171.322 299.93 171.244 306.669C174.744 303.793 177.863 300.455 180.522 296.743C182.56 293.894 184.407 290.743 187.316 288.839C188.653 287.964 190.157 287.386 191.503 286.533C194.309 284.751 196.254 281.872 198.122 279.092C199.498 277.031 203.477 273.004 203.791 270.536C204.058 268.177 200.895 267.026 199.409 268.939Z" fill="#3F3D56"/>
<path d="M214.203 227.742C214.727 228.066 215.23 228.427 215.706 228.823C218.589 230.897 222.449 230.512 225.935 230.039C227.005 229.899 228.105 229.742 229.022 229.164C230.495 228.227 231.187 226.302 231.043 224.52C230.899 222.739 230.028 221.098 228.967 219.706C227.56 217.864 225.806 216.336 223.81 215.214C221.814 214.091 219.617 213.398 217.354 213.176C216.181 213.018 214.99 213.148 213.876 213.557C212.505 214.139 211.473 215.338 210.207 216.139C206.475 218.503 200.726 217.452 198.318 221.225C196.556 224.008 197.813 227.79 196.981 230.989C196.361 233.379 194.573 235.554 194.917 237.992C195.108 239.305 195.906 240.451 196.543 241.624C198.006 244.321 198.683 247.395 198.492 250.478C200.127 251.668 202.407 249.817 202.862 247.813C203.316 245.808 202.794 243.672 203.18 241.65C203.864 238.101 206.904 235.497 208.275 232.241C209.26 229.908 210.865 225.969 214.203 227.742Z" fill="#3F3D56"/>
<path d="M174.051 266.593C173.924 267.389 173.843 268.269 174.272 268.943C175.121 270.256 177.066 269.783 178.595 269.98C180.977 270.282 182.735 272.606 183.198 275.048C183.66 277.491 183.108 279.976 182.505 282.375C181.141 287.811 179.516 293.169 177.631 298.45C172.561 297.833 167.224 295.824 164.532 291.364C162.086 287.307 162.336 282.138 160.782 277.639C159.691 274.471 157.734 271.713 155.797 269.009C158.91 269.411 161.135 265.744 161.317 262.514C161.5 259.284 160.515 256.006 161.186 252.85C161.343 252.102 173.61 254.461 174.803 255.314C178.251 257.778 174.595 263.17 174.051 266.593Z" fill="#DA9E8D"/>
<path d="M171.321 261.31C180.467 261.31 187.881 253.668 187.881 244.241C187.881 234.815 180.467 227.173 171.321 227.173C162.175 227.173 154.761 234.815 154.761 244.241C154.761 253.668 162.175 261.31 171.321 261.31Z" fill="#EAB09F"/>
<path d="M166.221 264.142C166.824 263.17 165.796 261.813 166.267 260.767C166.548 260.137 167.257 259.866 167.805 259.455C168.492 258.878 169.039 258.146 169.405 257.314C171.984 252.208 172.764 246.338 171.613 240.705C171.223 238.814 170.875 236.302 172.552 235.453C173.017 235.239 173.526 235.149 174.034 235.191C177.057 235.291 179.978 237.379 182.912 236.639C183.914 236.359 184.808 235.769 185.476 234.95C186.144 234.132 186.553 233.122 186.649 232.057C186.84 229.23 184.785 226.805 182.764 224.901C179.125 221.452 173.579 220.686 168.637 220.603L159.444 220.446C156.501 220.393 153.202 220.49 151.155 222.665C148.209 225.794 149.691 230.915 149.266 235.252C148.905 238.713 147.225 241.886 144.595 244.071C142.689 245.638 140.065 247.134 140.099 249.638C140.099 250.513 140.464 251.31 140.697 252.137C141.636 255.411 140.74 259.03 138.939 261.897C137.139 264.763 134.506 266.969 131.776 268.899C130.315 269.928 128.804 270.917 127.649 272.313C126.383 273.926 125.631 275.902 125.496 277.972C125.314 279.554 125.63 281.154 126.396 282.537C128.192 285.495 132.502 285.929 135.453 284.213C138.404 282.497 140.205 279.25 141.398 275.985C142.111 274.046 142.837 271.827 144.663 270.956C146.973 269.849 149.674 271.6 151.177 273.722C152.68 275.845 153.605 278.436 155.529 280.16C158.544 282.865 163.673 282.427 166.221 279.25C168.042 276.97 168.446 273.814 168.344 270.86C168.293 268.454 167.555 266.117 166.221 264.142Z" fill="#3F3D56"/>
<path d="M172.166 286.388C170.276 286.804 168.302 285.885 166.896 284.511C165.491 283.136 164.544 281.364 163.559 279.648C161.061 275.321 158.198 271.229 155.003 267.42C152.217 264.107 148.341 260.741 144.205 261.765C142.82 262.177 141.535 262.886 140.434 263.844C136.788 266.82 133.933 270.701 132.138 275.124C130.344 279.547 129.667 284.367 130.171 289.132C130.494 291.92 131.229 294.647 131.534 297.448C131.74 299.757 131.8 302.077 131.713 304.394C131.598 311.449 131.365 318.911 127.675 324.854C121.955 334.045 118.894 345.022 114.694 355.053C112.427 360.475 111.068 366.248 109.735 371.99C108.945 375.398 108.157 378.805 107.37 382.21L102.232 404.487C101.701 406.784 101.17 409.192 101.731 411.489C102.58 414.921 105.709 417.319 109.009 418.295C112.308 419.271 115.802 419.105 119.229 419.135C125.785 419.201 132.392 420.041 138.545 422.387C140.303 423.057 142.056 423.858 143.929 424.015C145.801 424.173 147.665 423.669 149.419 422.969C154.204 421.061 158.306 417.717 162.714 415.017C165.467 413.307 168.366 411.861 171.376 410.697C172.887 410.115 174.509 409.564 175.55 408.29C176.335 407.331 176.688 406.08 176.947 404.854C178.382 397.957 177.418 390.81 176.947 383.772C176.475 376.735 172.395 369.299 175.771 363.163C176.45 361.924 177.261 360.734 177.609 359.359C178.068 357.565 177.681 355.635 178.068 353.823C178.352 352.484 179.036 351.28 179.503 349.998C180.318 347.74 180.429 345.28 180.42 342.868C180.401 337.574 179.86 332.295 178.807 327.113C177.469 320.548 181.894 314.057 184.428 307.855C185.337 305.637 186.624 303.54 187.002 301.164C187.341 299.019 186.904 296.835 186.577 294.686C186.089 291.356 185.89 287.987 185.983 284.62C186.063 281.6 186.373 278.523 185.673 275.587C184.972 272.65 182.972 269.801 180.097 269.197C179.775 269.099 179.436 269.077 179.104 269.131C178.772 269.184 178.456 269.313 178.178 269.508C177.846 269.843 177.612 270.267 177.503 270.733C176.569 273.683 176.751 276.86 176.229 279.924C175.707 282.988 175.095 285.74 172.166 286.388Z" fill="#C67700"/>
<path d="M132.095 305.186C132.269 303.973 131.721 302.363 130.532 302.407C129.437 302.45 128.948 303.864 128.952 304.998C128.957 306.131 129.105 307.431 128.328 308.227C127.64 308.932 126.502 308.91 125.704 309.484C125.422 309.691 125.193 309.965 125.036 310.282C124.878 310.6 124.797 310.952 124.8 311.309C124.8 311.917 125.067 312.499 125.084 313.107C125.101 313.716 124.706 314.42 124.12 314.381C123.819 314.902 123.694 315.51 123.764 316.112C123.834 316.714 124.095 317.275 124.507 317.707C124.812 318.014 125.212 318.276 125.314 318.705C125.346 319.006 125.323 319.31 125.246 319.602C125.067 320.806 125.874 322.154 127.05 322.285C126.392 322.771 126.524 323.909 127.127 324.473C127.73 325.038 128.596 325.147 129.407 325.147C131.247 325.137 133.068 324.749 134.761 324.005C135.341 323.808 135.854 323.443 136.239 322.955C136.417 322.703 136.503 322.394 136.481 322.082C136.458 321.771 136.329 321.478 136.116 321.257C136.939 321.397 137.929 321.476 138.468 320.819C139.22 319.9 138.413 318.539 137.619 317.65C137.948 317.6 138.256 317.451 138.504 317.222C138.751 316.992 138.928 316.693 139.012 316.361C139.097 316.029 139.084 315.679 138.977 315.354C138.87 315.029 138.672 314.744 138.409 314.534C138.137 314.328 137.767 314.149 137.729 313.803C137.691 313.458 137.975 313.234 138.094 312.928C138.366 312.241 137.746 311.541 137.147 311.125C135.729 310.153 133.64 310.171 132.379 309.19C131.118 308.21 131.912 306.499 132.095 305.186Z" fill="#BE6F72"/>
<path d="M219.692 238.775C218.664 238.882 217.629 238.907 216.597 238.849C216.421 238.83 216.244 238.882 216.105 238.995C215.966 239.108 215.876 239.272 215.854 239.453L213.879 254.719C213.727 255.827 213.287 256.872 212.605 257.743C212.043 258.436 211.626 259.241 211.378 260.108C211.13 260.974 211.058 261.884 211.166 262.781V288.712C211.166 288.712 211.039 292.17 213.616 292.17C216.701 292.569 219.822 292.569 222.907 292.17C222.907 292.17 224.97 291.767 224.97 288.576V263.043C225.128 262.152 225.095 261.237 224.875 260.36C224.655 259.484 224.253 258.667 223.696 257.966C223.037 257.092 222.612 256.056 222.461 254.96L220.41 239.375C220.387 239.199 220.299 239.04 220.166 238.928C220.033 238.817 219.863 238.762 219.692 238.775Z" fill="#3F3D56"/>
<path opacity="0.1" d="M219.692 238.775C218.664 238.882 217.629 238.907 216.597 238.849C216.421 238.83 216.244 238.882 216.105 238.995C215.966 239.108 215.876 239.272 215.854 239.453L213.879 254.719C213.727 255.827 213.287 256.872 212.605 257.743C212.043 258.436 211.626 259.241 211.378 260.108C211.13 260.974 211.058 261.884 211.166 262.781V288.712C211.166 288.712 211.039 292.17 213.616 292.17C216.701 292.569 219.822 292.569 222.907 292.17C222.907 292.17 224.97 291.767 224.97 288.576V263.043C225.128 262.152 225.095 261.237 224.875 260.36C224.655 259.484 224.253 258.667 223.696 257.966C223.037 257.092 222.612 256.056 222.461 254.96L220.41 239.375C220.387 239.199 220.299 239.04 220.166 238.928C220.033 238.817 219.863 238.762 219.692 238.775Z" fill="black"/>
<path d="M261.759 172.811C260.852 173.325 259.906 173.764 258.931 174.124C258.762 174.176 258.62 174.293 258.533 174.452C258.447 174.61 258.424 174.797 258.468 174.973L262.349 189.853C262.627 190.933 262.615 192.071 262.315 193.144C262.054 194.007 261.968 194.916 262.063 195.814C262.158 196.713 262.432 197.581 262.867 198.366L272.557 222.297C272.557 222.297 273.729 225.536 276.111 224.512C279.11 223.654 281.992 222.41 284.688 220.809C284.688 220.809 286.442 219.619 285.253 216.677L275.712 193.114C275.524 192.229 275.153 191.397 274.623 190.674C274.093 189.952 273.417 189.357 272.642 188.93C271.708 188.385 270.928 187.599 270.379 186.65L262.664 173.082C262.576 172.925 262.433 172.809 262.264 172.759C262.096 172.708 261.915 172.727 261.759 172.811Z" fill="#3F3D56"/>
<path d="M142.599 264.593C138.035 266.531 136.23 272.562 137.3 277.526C138.37 282.489 141.593 286.625 144.735 290.559L153.542 301.632C155.975 304.696 158.637 307.921 162.348 308.989C167.775 310.551 173.201 306.989 177.893 303.768C191.899 294.148 206.869 286.113 222.546 279.801C224.078 279.189 225.65 278.567 226.911 277.473C229.526 275.206 230.261 271.026 228.804 267.844C227.348 264.663 223.955 262.593 220.537 262.566C217.119 262.54 213.794 264.404 211.739 267.223C210.758 268.567 210.041 270.103 209.094 271.468C206.699 274.9 202.962 277.022 199.307 278.939C190.491 283.575 181.417 287.667 172.131 291.194C170.433 291.833 168.518 292.441 166.917 291.596C165.936 291.076 165.274 290.091 164.679 289.128C161.97 284.733 159.816 280 158.268 275.044C157.108 271.324 156.17 267.271 153.385 264.628C149.436 260.881 142.285 261.778 139.326 266.378C139.326 266.378 135.857 271.608 137.98 273.797C140.103 275.985 142.599 264.593 142.599 264.593Z" fill="#EAB09F"/>
<path d="M380.74 246.482C381.36 248.185 381.377 250.049 381.288 251.865C381.178 254.08 380.638 256.68 378.643 257.524C377.343 258.063 375.738 257.656 374.583 258.47C373.182 259.45 373.25 261.56 373.467 263.284C374.065 268.024 374.741 272.939 377.246 276.948C378.592 279.097 380.413 280.887 382.26 282.598C385.942 286.021 389.98 289.364 394.816 290.507C395.604 290.735 396.433 290.771 397.237 290.612C398.029 290.359 398.748 289.908 399.33 289.299C402.132 286.646 403.576 282.861 405.444 279.429C406.765 276.974 408.34 274.615 409.083 271.91C409.695 269.547 409.655 267.055 408.966 264.714C408.277 262.373 406.968 260.277 405.185 258.662C404.357 257.931 403.44 257.319 402.638 256.562C400.54 254.601 399.317 251.787 398.816 248.916C398.315 246.045 398.392 243.09 398.634 240.162C394.387 239.825 390.171 240.355 386.027 241.208C384.184 241.589 381.59 241.764 379.921 242.67C378.044 243.699 380.227 245.016 380.74 246.482Z" fill="#DA9E8D"/>
<path d="M357.047 259.363C350.151 256.925 346.856 247.401 339.638 246.333C338.5 246.163 337.332 246.228 336.216 245.957C332.059 244.942 330.271 239.987 329.069 235.764C325.019 221.684 319.728 207.907 312.212 195.425C309.04 190.173 304.026 185.857 301.737 180.106C301.211 178.794 300.943 177.297 299.996 176.259C299.049 175.222 297.024 175.073 296.51 176.395C296.367 176.863 296.335 177.36 296.417 177.844L296.913 183.293L288.277 182.492C287.478 182.351 286.658 182.411 285.886 182.667C285.053 183.097 284.389 183.809 284.005 184.684C281.084 190.343 284.196 197.757 289.351 201.337C295.372 205.517 303.97 206.152 307.97 212.388C310.348 216.1 310.395 220.875 311.962 225.019C312.709 227.002 313.8 228.823 314.671 230.744C316.331 234.407 317.18 238.39 318.467 242.206C320.31 247.664 323.04 252.75 325.762 257.805C327.859 261.708 330.008 265.682 333.235 268.667C335.358 270.628 337.855 272.081 340.351 273.482C346.491 276.939 353.731 280.265 360.236 277.613C360.61 271.635 359.153 264.969 357.047 259.363Z" fill="#EAB09F"/>
<path d="M377.985 447.767C377.462 453.479 374.099 458.652 373.314 464.149C368.134 463.313 363.034 462.236 358.1 461.011C357.493 460.862 356.89 460.709 356.283 460.573C359.077 452.695 356.644 443.872 357.382 435.482C357.455 434.677 357.557 433.871 357.692 433.075C364.091 430.825 369.87 427.823 376.579 428.698C376.711 430.099 376.847 431.504 376.978 432.904C377.247 435.702 377.513 438.497 377.777 441.29C378.046 443.437 378.116 445.606 377.985 447.767Z" fill="#EAB09F"/>
<path d="M422.238 462.052C419.724 462.84 417.142 463.527 414.446 464.092C413.996 464.188 413.542 464.28 413.087 464.368C410.327 464.902 407.533 465.291 404.71 465.558C404.421 459.474 400.464 453.881 399.886 447.636C399.768 446.084 399.784 444.524 399.933 442.975C399.984 442.362 400.043 441.749 400.098 441.136L401.296 428.545C402.249 428.421 403.21 428.373 404.171 428.401C409.69 428.536 414.714 431 420.183 432.922C420.59 435.578 420.733 438.271 420.607 440.957C420.399 447.793 419.333 454.713 421.796 460.984C421.936 461.339 422.089 461.693 422.238 462.052Z" fill="#DA9E8D"/>
<path d="M350.563 366.056C351.306 372.025 348.346 377.741 347.064 383.61C346.215 387.492 346.1 391.488 345.985 395.471L345.315 419.328C345.247 421.713 345.187 424.142 345.892 426.431C347.31 431.018 351.679 434.116 356.227 435.219C360.775 436.322 365.53 435.762 370.163 435.132C372.435 434.821 374.804 434.458 376.685 433.105C379.271 431.245 380.4 427.932 381.377 424.842L384.133 416.12C387.305 423.481 385.963 431.53 387.865 439.342C387.987 440.064 388.279 440.745 388.714 441.325C389.517 442.244 390.837 442.388 392.039 442.476C400.361 443.08 408.798 443.679 416.985 442.038C419.235 441.6 421.584 440.891 423.138 439.149C424.947 437.123 425.261 434.143 425.24 431.39C425.125 421.932 421.809 412.807 421.07 403.379C420.751 399.34 420.908 395.278 420.768 391.226C420.658 388.178 420.382 385.138 419.94 382.122C419.8 380.741 419.432 379.394 418.853 378.139C417.579 375.689 414.934 374.358 412.429 373.325C392.965 365.176 371.556 365.255 350.563 366.056Z" fill="#3F3D56"/>
<path d="M386.6 248.618C396.684 248.618 404.858 240.192 404.858 229.799C404.858 219.405 396.684 210.979 386.6 210.979C376.516 210.979 368.342 219.405 368.342 229.799C368.342 240.192 376.516 248.618 386.6 248.618Z" fill="#EAB09F"/>
<path d="M402.514 262.947C401.16 266.011 399.028 269.074 395.856 269.853C392.939 270.575 389.848 269.127 387.699 266.969C385.551 264.811 384.145 262.01 382.655 259.328C381.568 257.367 380.358 255.389 378.519 254.154C376.006 252.474 372.761 252.518 369.798 253.012C366.834 253.507 363.891 254.391 360.881 254.189C357.131 253.931 353.31 252.001 349.773 253.288C350.919 258.575 350.507 264.387 350.376 269.805C350.398 270.642 350.283 271.476 350.036 272.274C349.727 273.017 349.311 273.708 348.801 274.322L345.404 278.834C349.047 281.644 352.197 285.312 353.471 289.815C354.189 292.38 353.968 295.102 353.943 297.772C353.862 305.61 355.514 313.418 354.991 321.239C354.38 330.399 350.83 339.056 349 348.042C347.433 355.755 347.137 363.685 348.125 371.5C367.157 378.288 386.765 381.763 406.883 382.901C410.437 383.103 414.276 383.133 417.193 381.028C419.618 379.277 420.976 376.279 421.439 373.26C421.902 370.24 421.584 367.167 421.261 364.13C420.386 355.916 419.513 347.703 418.641 339.49C418.144 334.815 417.647 330.115 417.97 325.428C418.212 321.926 418.908 318.491 419.601 315.064L423.847 294.03C424.454 291.041 425.065 288.029 426.267 285.241C427.252 282.966 428.615 280.865 429.702 278.65C430.998 275.995 431.892 273.151 432.352 270.217C432.536 269.365 432.525 268.481 432.318 267.634C431.863 266.199 430.475 265.337 429.18 264.632C421.283 260.354 412.819 257.294 404.06 255.551C403.465 258.128 403.58 260.544 402.514 262.947Z" fill="#F1F3FF"/>
<path d="M400.752 250.342C402.875 246.15 406.845 243.208 409.151 239.112C410.425 236.79 411.137 234.185 411.227 231.518C411.318 228.852 410.783 226.202 409.669 223.794C408.858 222.087 407.758 220.52 407.121 218.734C406.412 216.704 406.344 214.467 405.524 212.48C404.399 209.758 401.962 207.797 399.308 206.668C396.654 205.539 393.788 205.132 390.93 204.738L381.283 203.399C379.886 203.206 378.438 203.014 377.08 203.399C375.721 203.784 374.455 204.926 374.345 206.379C374.213 208.099 375.678 209.701 375.339 211.391C375.216 211.986 374.876 212.59 375.071 213.167C375.245 213.553 375.546 213.863 375.92 214.043C378.209 215.356 380.944 215.474 383.423 216.332C385.903 217.19 388.391 219.343 388.141 222.021C388.005 223.461 387.105 224.958 387.716 226.249C388.302 227.444 389.839 227.663 391.066 228.035C395.036 229.221 397.822 233.659 397.244 237.882C397.066 239.195 396.607 240.451 396.514 241.769C396.204 246.382 396.909 247.699 400.565 250.382L400.752 250.342Z" fill="#3F3D56"/>
<path d="M425.553 270.291C425.573 271.165 425.418 272.033 425.099 272.843C423.774 275.753 419.719 275.569 417.031 277.219C413.685 279.276 412.947 283.867 412.641 287.867C412.293 292.397 412.055 296.993 412.955 301.435C413.855 305.877 416.021 310.21 419.638 312.814C424.042 315.97 430.029 316.079 435.056 314.158C440.084 312.236 444.283 308.521 447.926 304.459C451.383 300.608 454.478 296.314 456.334 291.426C456.66 290.55 456.949 289.622 456.686 288.747C456.291 287.434 454.903 286.839 453.773 286.121C451.136 284.48 449.378 281.618 448.465 278.593C447.553 275.569 447.4 272.352 447.37 269.179C447.336 265.884 447.327 262.282 445.289 259.739C443.251 257.196 439.718 256.483 436.5 256.509C433.867 256.509 426.581 256.767 424.785 259.135C423.311 261.104 425.659 267.472 425.553 270.291Z" fill="#BE6F72"/>
<path opacity="0.1" d="M425.553 270.291C425.573 271.165 425.418 272.033 425.099 272.843C423.774 275.753 419.719 275.569 417.031 277.219C413.685 279.276 412.947 283.867 412.641 287.867C412.293 292.397 412.055 296.993 412.955 301.435C413.855 305.877 416.021 310.21 419.638 312.814C424.042 315.97 430.029 316.079 435.056 314.158C440.084 312.236 444.283 308.521 447.926 304.459C451.383 300.608 454.478 296.314 456.334 291.426C456.66 290.55 456.949 289.622 456.686 288.747C456.291 287.434 454.903 286.839 453.773 286.121C451.136 284.48 449.378 281.618 448.465 278.593C447.553 275.569 447.4 272.352 447.37 269.179C447.336 265.884 447.327 262.282 445.289 259.739C443.251 257.196 439.718 256.483 436.5 256.509C433.867 256.509 426.581 256.767 424.785 259.135C423.311 261.104 425.659 267.472 425.553 270.291Z" fill="black"/>
<path d="M402.914 387.663C403.045 388.33 403.351 388.947 403.797 389.449C404.216 389.79 404.706 390.028 405.228 390.145C419.164 394.359 434.051 392.679 448.479 390.959C446.505 384.761 444.517 378.494 443.97 371.995C443.515 366.633 444.025 361.053 442.182 356.024C441.639 354.536 409.962 361.386 406.837 361.942C405.236 362.226 403.394 362.13 402.26 363.438C400.893 365.023 400.778 368.795 400.634 370.769C400.226 376.472 401.368 382.214 402.914 387.663Z" fill="#BE6F72"/>
<path d="M434.645 457.137C432.097 458.354 429.469 459.488 426.747 460.503C425.275 461.054 423.772 461.571 422.238 462.052C419.724 462.84 417.142 463.527 414.446 464.092C412.909 460.074 411.37 456.055 409.83 452.034C408.697 449.076 407.563 446.104 406.616 443.08C405.957 441.015 405.416 438.912 404.994 436.782C403.604 429.542 403.966 422.061 406.047 414.999C411.932 416.142 417.686 416.886 423.482 417.752C426.577 418.19 429.681 418.706 432.823 419.315C433.069 421.424 433.293 423.534 433.494 425.643C433.8 428.899 434.05 432.156 434.246 435.412C434.679 442.648 434.812 449.89 434.645 457.137Z" fill="#BE6F72"/>
<path opacity="0.1" d="M434.645 457.137C432.097 458.354 429.469 459.488 426.747 460.503C425.275 461.054 423.772 461.571 422.238 462.052C419.724 462.84 417.142 463.527 414.446 464.092C412.909 460.074 411.37 456.055 409.83 452.034C408.697 449.076 407.563 446.104 406.616 443.08C405.957 441.015 405.416 438.912 404.994 436.782C403.604 429.542 403.966 422.061 406.047 414.999C411.932 416.142 417.686 416.886 423.482 417.752C426.577 418.19 429.681 418.706 432.823 419.315C433.069 421.424 433.293 423.534 433.494 425.643C433.8 428.899 434.05 432.156 434.246 435.412C434.679 442.648 434.812 449.89 434.645 457.137Z" fill="black"/>
<path d="M467.298 438.174C467.332 440.694 466.635 443.268 465.99 445.741C465.943 445.916 465.901 446.086 465.858 446.262C464.323 445.769 462.999 444.745 462.109 443.364C461.65 442.615 461.31 441.795 461.103 440.935C459.181 442.283 457.242 443.618 455.285 444.94C448.887 449.273 442.122 453.575 434.645 457.137C432.097 458.354 429.469 459.488 426.747 460.503C426.181 458.461 425.643 456.405 425.134 454.336C424.577 452.207 424.14 450.045 423.826 447.863C423.204 442.908 423.686 437.871 425.236 433.136L425.427 432.567C426.148 430.461 427.08 428.439 428.208 426.532C429.265 424.781 431.359 425.074 433.494 425.656C434.462 425.915 435.443 426.225 436.335 426.418C441.885 427.617 447.647 426.379 453.32 426.707C456.023 426.846 458.672 427.541 461.111 428.751C463.841 430.164 466.041 432.326 466.903 435.316C467.025 435.746 467.119 436.185 467.183 436.629C467.255 437.14 467.293 437.656 467.298 438.174Z" fill="#BE6F72"/>
<path d="M365.144 236.609C356.376 227.855 346.41 220.437 336.215 213.5C333.562 211.785 331.01 209.91 328.572 207.885C326.025 205.697 323.804 203.127 321.099 201.158C318.394 199.189 315.048 197.836 311.8 198.484C308.552 199.132 305.664 202.335 306.14 205.688C306.564 208.638 309.138 210.66 311.515 212.353C316.016 215.561 320.539 218.778 325.434 221.295C327.135 222.089 328.785 222.996 330.373 224.008C333.421 226.127 335.642 229.26 337.948 232.206C346.65 243.347 357.31 252.701 369.369 259.778C369.513 259.866 374.537 248.692 374.324 247.244C373.857 243.913 367.454 238.919 365.144 236.609Z" fill="#BE6F72"/>
<path d="M440.14 378.043C433.371 378.481 426.879 380.835 420.259 382.337C413.64 383.838 406.447 384.42 400.302 381.461L404.039 407.76C404.247 409.222 404.464 410.719 404.154 412.159C403.869 413.533 403.13 414.829 403.194 416.234C403.292 418.457 405.317 420.019 407.224 421.048C412.762 424.062 418.968 425.536 425.227 425.324C424.764 427.249 424.187 429.153 423.72 431.079C426.841 434.532 431.945 434.764 436.399 435.858C439.796 436.685 442.98 438.121 446.309 439.132C450.335 440.357 454.515 440.957 458.712 440.913C461.545 440.883 464.547 440.476 466.746 438.655C469.451 436.41 470.292 432.593 470.877 429.066C471.204 427.096 471.506 425.101 471.302 423.114C471.081 420.829 470.224 418.667 469.374 416.549L463.557 401.996C462.5 399.37 461.434 396.705 460.16 394.171C455.999 385.974 449.095 377.47 440.14 378.043Z" fill="#3F3D56"/>
<path d="M445.32 287.176C445.823 285.814 446.751 284.664 447.958 283.906C449.165 283.147 450.582 282.824 451.987 282.988C453.685 283.233 455.201 284.191 456.657 285.128L464.767 290.345C466.111 291.169 467.401 292.084 468.627 293.084C474.219 297.864 476.376 305.72 476.992 313.182C477.608 320.644 476.992 328.233 478.431 335.573C475.009 338.496 471.213 340.969 467.791 343.888C465.999 345.416 464.186 346.952 462.827 348.917C461.748 350.462 460.98 352.23 459.855 353.731C458.012 356.104 455.339 357.635 452.411 357.994C454.267 359.106 455.307 361.263 455.808 363.412C456.309 365.561 456.445 367.789 457.001 369.938C457.766 372.857 459.349 375.522 459.872 378.498C460.237 380.551 460.075 382.656 460.207 384.739C460.869 395.519 469.077 404.942 468.546 415.726C464.672 414.275 461.007 412.289 457.651 409.822C456.139 408.706 454.679 407.498 453.248 406.294L442.433 397.257C437.172 392.88 431.86 388.407 427.677 382.91C425.053 379.461 422.913 375.645 420.281 372.205C417.648 368.765 414.408 365.64 410.387 364.196C409.797 365.11 408.748 365.745 408.158 366.66C408.054 366.804 407.971 366.963 407.912 367.132C407.84 367.54 407.889 367.961 408.052 368.34C408.526 370.11 408.811 371.929 408.901 373.763L409.169 377.054C409.268 377.926 409.268 378.808 409.169 379.68C408.765 382.494 406.234 384.678 403.504 385.116C403.109 385.204 402.7 385.19 402.311 385.076C401.551 384.814 401.131 383.987 400.901 383.199C399.827 379.461 401.475 375.518 401.606 371.627C401.625 370.64 401.592 369.652 401.508 368.669L401.254 364.786C398.787 364.257 397.369 361.526 396.715 359.018C394.948 352.247 393.169 345.241 394.192 338.308C394.464 336.452 394.94 334.57 394.617 332.715C394.192 330.233 392.46 328.22 391.547 325.883C388.575 318.263 394.889 309.991 394.303 301.811C394.057 298.376 391.942 295.391 390.668 292.205C390.009 290.348 389.154 288.57 388.12 286.905C386.821 284.992 385.067 283.46 383.365 281.92C378.106 277.164 373.119 272.099 368.427 266.75C366.017 266.493 363.757 265.425 361.994 263.713C360.873 262.619 359.952 261.175 359.922 259.586C359.892 257.997 361.03 256.33 362.571 256.246C363.472 256.198 364.312 256.658 365.191 256.859C367.943 257.481 370.711 255.393 371.938 252.771C373.166 250.15 373.166 247.134 373.144 244.228C374.489 243.982 375.872 244.097 377.161 244.563C378.45 245.028 379.601 245.828 380.503 246.885C382.401 249.012 383.636 251.664 385.131 254.106C385.739 255.191 386.52 256.163 387.441 256.982C389.483 258.654 392.426 258.969 394.209 260.921C395.114 261.919 395.615 263.24 396.443 264.308C398.77 267.315 403.029 267.683 406.209 269.661C409.389 271.639 411.602 275.254 415.126 276.427C416.4 276.865 417.788 276.922 419.049 277.407C421.962 278.523 423.741 281.714 424.145 284.887C424.548 288.06 423.86 291.268 423.164 294.393L421.529 301.706C421.168 303.326 420.892 305.273 422.051 306.429C422.599 306.896 423.242 307.229 423.932 307.405C426.905 308.403 430.217 309.383 433.011 307.969C434.331 307.295 435.367 306.157 436.314 304.993C440.458 299.96 443.214 293.369 445.32 287.176Z" fill="#2F3676"/>
<path d="M478.835 436.003C478.249 440.007 476.109 443.946 472.605 445.78C470.505 446.848 468.081 447.021 465.858 446.262C464.323 445.769 462.999 444.745 462.109 443.364C461.65 442.615 461.31 441.795 461.103 440.935C461.103 440.891 461.081 440.843 461.073 440.799C460.754 439.251 460.621 437.668 460.678 436.086C460.677 433.63 460.819 431.176 461.103 428.738C461.34 426.684 461.731 424.653 462.275 422.663C463.064 419.822 464.202 417.087 465.247 414.347C465.79 412.903 466.313 411.454 466.742 409.971C467.001 409.095 467.221 408.194 467.4 407.283L467.463 406.955C467.497 406.771 467.527 406.588 467.557 406.404C467.981 403.909 468.105 401.327 469.196 399.073C471.743 393.782 476.703 395.134 477.459 400.014C477.516 400.392 477.549 400.774 477.556 401.156C477.671 407.332 475.293 413.367 476.38 419.564C476.687 421.075 477.072 422.569 477.535 424.037C477.917 425.389 478.261 426.759 478.525 428.147C479.058 430.729 479.163 433.385 478.835 436.003Z" fill="#BE6F72"/>
<path d="M481.17 367.334C481.285 369.863 481.17 372.424 481.663 374.905C482.813 380.77 487.183 385.96 486.699 391.921C486.58 393.374 486.057 394.937 484.826 395.655C483.595 396.372 481.556 396.316 481.153 397.76C481.038 398.162 481.098 398.6 480.97 398.998C480.703 399.847 479.697 400.211 478.847 400.189C477.998 400.167 477.149 399.878 476.27 399.952C473.192 400.219 472.062 404.465 469.319 405.922C467.472 406.903 465.073 406.36 463.549 404.911C462.024 403.463 461.358 401.204 461.476 399.064C461.566 397.449 462.062 395.891 462.326 394.298C462.806 391.457 462.555 388.547 462.304 385.676C461.935 381.47 461.553 377.212 460.211 373.225C459.578 371.343 458.738 369.544 458.19 367.636C457.409 364.935 457.23 362.095 457.15 359.281C456.984 353.359 457.379 347.026 460.81 342.264C463.387 338.693 467.081 335.791 469.998 332.487C471.824 330.417 472.351 329.769 474.368 331.524C476.028 332.964 477.765 334.951 477.951 336.903C478.461 341.906 477.951 346.825 478.86 351.919C479.769 357.014 480.932 362.104 481.17 367.334Z" fill="#2F3676"/>
<path d="M437.129 270.939C449.089 270.939 458.784 260.945 458.784 248.618C458.784 236.291 449.089 226.297 437.129 226.297C425.169 226.297 415.474 236.291 415.474 248.618C415.474 260.945 425.169 270.939 437.129 270.939Z" fill="#BE6F72"/>
<path d="M456.958 291.316C457.434 290.629 457.999 289.889 458.805 289.745C459.414 289.698 460.024 289.83 460.563 290.126L466.266 292.581C467.807 289.958 468.715 286.992 468.915 283.933C469.034 282.055 468.89 280.152 469.238 278.305C469.756 275.565 471.331 273.11 471.697 270.344C471.985 268.111 471.463 265.866 471.149 263.639C470.181 256.759 471.221 249.738 470.665 242.81C470.108 235.882 467.412 228.459 461.417 225.278C459.718 224.402 457.888 223.877 456.122 223.186C452.186 221.641 448.657 219.168 444.768 217.496C440.878 215.824 436.309 215.058 432.539 216.979C428.768 218.901 426.573 224.306 429.023 227.833C429.83 228.993 431.01 229.816 432.14 230.652C434.437 232.346 436.781 234.438 437.311 237.3C438.263 242.451 433.065 246.491 431.6 251.528C431.06 253.496 431.011 255.572 431.46 257.564C432.093 260.549 433.638 263.367 433.583 266.422C433.541 269.77 431.596 272.803 431.231 276.134C431.099 277.355 431.18 278.593 431.031 279.81C430.77 281.415 430.309 282.979 429.66 284.462C426.263 293.216 422.819 302.061 417.771 309.93C423.176 310.025 428.52 308.737 433.324 306.184C432.634 309.557 431.311 312.759 429.431 315.611C433.751 315.095 437.907 313.601 441.6 311.234C440.704 314.542 439.406 317.72 437.736 320.692C437.88 320.438 440.551 319.817 441.044 319.528C442.056 318.935 442.87 318.039 443.379 316.959C444.823 314.298 445.723 311.09 447.061 308.324C449.92 302.395 453.23 296.708 456.958 291.316Z" fill="#191847"/>
<path d="M292.726 157.37C291.697 157.477 290.663 157.502 289.63 157.444C289.454 157.425 289.278 157.477 289.139 157.59C289 157.703 288.91 157.867 288.887 158.048L286.913 173.314C286.761 174.422 286.321 175.467 285.639 176.338C285.077 177.031 284.659 177.836 284.412 178.703C284.164 179.569 284.092 180.479 284.2 181.376V207.307C284.2 207.307 284.072 210.765 286.65 210.765C289.734 211.164 292.855 211.164 295.94 210.765C295.94 210.765 298.004 210.362 298.004 207.171V181.638C298.161 180.747 298.129 179.832 297.909 178.955C297.689 178.079 297.287 177.262 296.73 176.561C296.071 175.687 295.645 174.651 295.494 173.555L293.443 157.97C293.42 157.794 293.333 157.635 293.2 157.523C293.066 157.412 292.897 157.357 292.726 157.37Z" fill="#3F3D56"/>
<path d="M322.024 179.691C320.996 179.798 319.961 179.822 318.929 179.765C318.753 179.745 318.576 179.798 318.437 179.91C318.298 180.023 318.208 180.188 318.186 180.369L316.211 195.635C316.059 196.743 315.619 197.788 314.937 198.659C314.375 199.352 313.957 200.157 313.71 201.024C313.462 201.89 313.39 202.8 313.498 203.696V229.628C313.498 229.628 313.37 233.085 315.948 233.085C319.033 233.485 322.154 233.485 325.238 233.085C325.238 233.085 327.302 232.683 327.302 229.492V203.959C327.459 203.068 327.427 202.153 327.207 201.276C326.987 200.399 326.585 199.583 326.028 198.882C325.369 198.008 324.943 196.972 324.793 195.875L322.742 180.29C322.718 180.115 322.631 179.956 322.498 179.844C322.365 179.733 322.195 179.678 322.024 179.691Z" fill="#3F3D56"/>
<defs>
<filter id="filter0_d" x="6.10352e-05" y="0" width="405" height="507.159" filterUnits="userSpaceOnUse" color-interpolation-filters="sRGB">
<feFlood flood-opacity="0" result="BackgroundImageFix"/>
<feColorMatrix in="SourceAlpha" type="matrix" values="0 0 0 0 0 0 0 0 0 0 0 0 0 0 0 0 0 0 127 0"/>
<feOffset dx="15" dy="15"/>
<feGaussianBlur stdDeviation="25"/>
<feColorMatrix type="matrix" values="0 0 0 0 0 0 0 0 0 0 0 0 0 0 0 0 0 0 0.25 0"/>
<feBlend mode="normal" in2="BackgroundImageFix" result="effect1_dropShadow"/>
<feBlend mode="normal" in="SourceGraphic" in2="effect1_dropShadow" result="shape"/>
</filter>
</defs>
</svg>
