<svg width="983" height="804" viewBox="0 0 983 804" fill="none" xmlns="http://www.w3.org/2000/svg">
<g clip-path="url(#clip0)">
<path d="M958.38 466.52C958.38 467.13 958.38 467.74 958.38 468.34C958.273 478.86 957.65 489.353 956.51 499.82C956.515 499.883 956.515 499.947 956.51 500.01C956.42 500.88 956.32 501.74 956.22 502.61C956.05 504.08 955.87 505.54 955.67 507.01C953.339 524.903 949.481 542.564 944.14 559.8C936.984 583.09 926.868 605.366 914.04 626.08C910.093 632.413 905.89 638.543 901.43 644.47C899.05 647.61 896.62 650.68 894.11 653.7C892.35 655.813 890.557 657.893 888.73 659.94L887.59 661.2C877.979 671.753 867.619 681.599 856.59 690.66C838.59 705.58 819.21 718.56 799.52 730.6C798.4 731.29 797.27 731.97 796.14 732.6C796.061 732.657 795.978 732.707 795.89 732.75C769.13 748.93 741.38 763.53 712.79 775.22C681.49 788.05 649.17 797.38 616.01 801.46C569.79 807.14 523.01 802.52 477.07 794.58C438.863 788.015 401.118 778.997 364.07 767.58L357.97 765.67C354.81 764.663 351.653 763.637 348.5 762.59C329.453 756.29 310.62 749.29 292 741.59C245.235 722.329 200.56 698.341 158.67 670C153.337 666.413 148.08 662.747 142.9 659C135.66 653.787 128.507 648.42 121.44 642.9L117.08 639.52C98.5865 625.039 81.2598 609.126 65.26 591.93C43.74 568.51 25.35 542.09 13.26 511.93C11.3533 507.19 9.60668 502.36 8.02001 497.44L7.87001 496.95C7.07001 494.45 6.33001 491.95 5.65001 489.35C4.65001 485.63 3.77335 481.863 3.02001 478.05C2.86001 477.32 2.72001 476.59 2.59001 475.85C0.199899 463.017 -0.855725 449.971 -0.559989 436.92C-0.309884 425.485 1.02951 414.101 3.44001 402.92C5.90723 391.33 9.70926 380.065 14.77 369.35C19.3434 359.715 25.1706 350.727 32.1 342.62C36.9693 336.952 42.4453 331.835 48.43 327.36C59.28 319.28 71.31 313.65 83.78 309.2C89.64 307.1 95.58 305.26 101.55 303.55C105.78 302.33 110.03 301.17 114.26 300.03L126.74 296.66C134.74 294.48 142.74 292.24 150.62 289.82C172.1 283.26 193.15 275.32 212.62 263.48C215.7 261.61 218.84 259.56 221.98 257.36C225.98 254.58 229.92 251.56 233.82 248.3C237.76 245 241.62 241.47 245.3 237.73C245.87 237.15 246.43 236.57 246.99 235.98C249.99 232.82 252.9 229.51 255.6 226.07C256.92 224.39 258.2 222.68 259.42 220.94C261.11 218.53 262.71 216.08 264.19 213.56C271.61 200.96 276.19 187.06 275.65 172.41C275.571 169.996 275.354 167.589 275 165.2C273.7 156.37 272.45 147.75 271.53 139.32C267.67 104.45 269.3 72.83 295.47 43.12C328.01 6.19004 379.08 -1.33996 425.57 1.61004C559.98 10.11 682.34 86.85 789.87 178.21C799.17 186.103 808.357 194.103 817.43 202.21C819.717 204.25 822.007 206.303 824.3 208.37C841.3 223.68 858.04 239.56 873.63 256.57C874.89 257.95 876.15 259.33 877.39 260.72C878.15 261.58 878.92 262.43 879.67 263.3C884.53 268.8 889.247 274.433 893.82 280.2C906.071 295.509 916.89 311.911 926.14 329.2C940.304 356.332 949.892 385.615 954.52 415.87C956.26 426.857 957.405 437.93 957.95 449.04C958.12 452.31 958.23 455.59 958.29 458.86C958.29 459.91 958.29 460.95 958.29 462C958.39 463.52 958.39 465 958.38 466.52Z" fill="#3341C0"/>
<path d="M393.98 448.74L377.98 733.53L393.98 733.74L406.98 444.74L393.98 448.74Z" fill="#3F3D56"/>
<path d="M334.98 593.03H136.98V636.03H334.98V593.03Z" fill="#6C63FF"/>
<path d="M347.98 631.02V658.02H143.45C136.21 652.807 129.057 647.44 121.99 641.92V631.02H347.98Z" fill="#3F3D56"/>
<path d="M388.82 569.57C388.26 572.16 387.53 574.72 386.76 577.27C384.49 584.64 381.76 591.91 381.23 599.57C380.52 609.69 383.23 621.46 376.23 628.81C374.43 630.71 372.08 632.13 370.47 634.16C370.222 634.478 369.995 634.812 369.79 635.16C368.35 637.54 368.18 640.44 368.16 643.16C368.177 648.961 368.554 654.756 369.29 660.51C371.66 680.31 376.34 700.15 370.19 718.84C369.076 722.082 367.777 725.257 366.3 728.35C363.3 734.95 360.03 741.46 359.05 748.61C358.33 753.91 358.55 759.37 358.51 764.76C355.35 763.753 352.193 762.727 349.04 761.68C329.993 755.38 311.16 748.38 292.54 740.68C292.59 740.41 292.64 740.13 292.68 739.86C294.11 730.96 292.15 721.86 289.77 713.18C284.77 694.79 277.69 676.58 273.5 658.06C271.813 650.827 270.706 643.47 270.19 636.06C270.07 634.4 270 632.73 269.99 631.06C269.94 628.88 269.99 626.7 270.08 624.5C270.29 620.11 270.48 614.9 266.97 612.23C265.04 610.78 262.49 610.53 260.24 609.65C255.9 607.96 252.93 604.04 249.49 600.9C247.849 599.308 245.846 598.14 243.652 597.495C241.459 596.85 239.141 596.749 236.9 597.2C214.42 602.35 197.9 621.42 176.98 631.06C176.17 631.44 175.36 631.8 174.54 632.14C171.834 633.131 169.258 634.447 166.87 636.06C165.192 637.225 163.975 638.941 163.43 640.91C162.9 643.03 163.36 645.25 163.62 647.43C164.041 650.975 163.889 654.564 163.17 658.06C162.899 659.415 162.542 660.751 162.1 662.06C161.3 664.43 160.23 666.75 159.21 669.06C153.877 665.473 148.62 661.807 143.44 658.06C136.2 652.847 129.047 647.48 121.98 641.96L117.69 638.51C99.1966 624.029 81.8699 608.117 65.8701 590.92C68.0001 584.92 71.0801 579.34 72.5601 573.19C73.4001 569.66 73.7101 565.99 74.8701 562.56C76.2078 559.004 78.0683 555.667 80.3901 552.66C88.8936 540.801 99.2769 530.411 111.13 521.9C123.52 513.02 137.83 505.9 148.98 495.82C153.505 491.859 157.406 487.236 160.55 482.11C160.74 481.8 160.92 481.47 161.08 481.11C161.95 479.3 162.553 477.373 162.87 475.39C163.67 470.91 163.55 465.99 163.95 461.69C177.533 464.041 191.38 464.459 205.08 462.93C221.03 461.14 236.63 456.71 252.58 454.99C253.78 454.85 254.99 454.74 256.2 454.64C261.31 454.23 266.43 454.14 271.56 454.2C275.85 454.2 280.14 454.39 284.43 454.53L331.66 456.13C336.89 456.31 342.23 456.51 347.1 458.42C352.88 460.69 357.51 465.21 361.22 470.18C361.69 470.82 362.16 471.46 362.6 472.12C365.653 476.573 368.101 481.412 369.88 486.51C370.07 487.03 370.25 487.51 370.42 488.08C370.87 489.47 371.26 490.87 371.61 492.29C371.88 493.4 372.12 494.51 372.34 495.63C373.44 501.17 374.09 506.83 375.83 512.18C375.95 512.57 376.08 512.96 376.22 513.34C378.31 519.2 381.78 524.45 384.4 530.08C386.289 534.156 387.731 538.424 388.7 542.81C390.659 551.618 390.7 560.745 388.82 569.57V569.57Z" fill="#35323E"/>
<path d="M245.26 211.7C241.04 208.34 234.92 210.8 229.98 212.97C225.838 214.799 221.575 216.34 217.22 217.58C216.329 217.923 215.362 218.023 214.42 217.87C212.42 217.39 211.58 215.02 210.09 213.58C207.5 211.09 203.26 211.68 199.92 213.03C196.58 214.38 193.28 216.33 189.7 216.03C185.88 215.73 182.56 212.91 178.7 212.82C171.9 212.66 166.19 221.04 159.76 218.82C155.84 217.47 152.76 212.37 148.9 213.82C145.9 214.96 145.63 219.11 143.82 221.82C141.69 224.98 137.54 225.87 133.99 227.27C122.8 231.69 115.39 244.16 116.85 256.1C117.66 262.69 120.85 268.73 122.96 275.02C129.22 293.31 127.07 313.94 134.96 331.58C135.96 330.64 136.52 330.29 137.49 329.36C134.995 334.534 134.514 340.451 136.14 345.96C136.97 348.73 138.32 351.31 139.34 354.02C140.4 357.06 141.255 360.166 141.9 363.32L150.6 401.7C154 416.7 157.41 431.7 158 447.06C158.367 457.048 157.602 467.045 155.72 476.86C171.48 474.25 185.9 467.26 201.87 467.35C207.73 467.35 213.54 468.35 219.35 469.15C236.289 471.52 253.376 472.68 270.48 472.62C273.14 472.771 275.804 472.398 278.32 471.52C280.52 470.58 282.32 468.91 284.4 467.7C288.47 465.3 293.4 464.7 298.09 464.7C319.48 464.31 340.09 472.14 361.34 474.9C369.73 457.29 370.23 436.19 363.79 417.78C361.88 412.31 359.31 406.98 358.55 401.23C358.245 397.695 358.165 394.145 358.31 390.6C358.277 381.525 356.642 372.527 353.48 364.02C352.24 360.69 350.75 357.3 350.88 353.75C351.01 350.2 352.76 346.89 354.48 343.75C357.97 337.35 361.48 330.89 366.41 325.49C371.46 319.91 377.78 315.66 384.03 311.49L399.46 301.13C397.35 287.8 394.63 273.76 388.98 261.5C383.33 249.24 374.88 237.97 363.45 230.8C359.596 228.482 355.563 226.475 351.39 224.8C345.55 222.34 339.47 220.17 333.14 219.8C325.94 219.39 318.85 221.32 311.74 222.52C289.36 226.29 263.02 225.83 245.26 211.7Z" fill="#6C63FF"/>
<path d="M413.98 443.02L406.64 452.29L392.8 469.76L376.8 489.95L372.33 495.59H363.66L148.97 495.84L14.52 495.99H8.51999C7.71999 493.49 6.97999 490.99 6.29999 488.39C5.29999 484.67 4.42332 480.903 3.66999 477.09C3.50999 476.36 3.36999 475.63 3.23999 474.89L52.02 443L70.36 442.9L126.46 442.58L157.79 442.4H163.51H167.1L187.98 442.29L347.12 441.38L355.26 441.33H358.79L368.14 441.28L402.93 441.08L409.61 438.54L410.1 439.06L413.98 443.02Z" fill="#3F3D56"/>
<path d="M410.98 438.02L410.15 439.02L404.69 445.45L393.45 458.72L369.88 486.51L161.08 481.18L3.63003 477.18C3.47003 476.45 3.33003 475.72 3.20003 474.98C0.809915 462.147 -0.245709 449.101 0.0500269 436.05L17.51 427.11L21.51 425.05L52.64 409.05L79.96 395.05L151.22 404.31L167 406.36L174.14 407.28L184.59 408.64L185.47 408.76L349.34 430.01L367.45 432.36L378.08 433.74L410.84 438L410.98 438.02Z" fill="#504F60"/>
<path d="M376.98 486.02L376.81 489.95L375.81 512.14L370.43 634.14L369.29 660.51L366.29 728.35L364.6 766.67L358.5 764.76C355.34 763.753 352.183 762.727 349.03 761.68L363.66 495.68L363.97 490.1L370.41 488.1L376.98 486.02Z" fill="#3F3D56"/>
<path d="M14.98 485.73L14.53 496L13.87 511C11.9633 506.26 10.2167 501.43 8.63001 496.51L8.48001 496.02C7.68001 493.52 6.94001 491.02 6.26001 488.42L14.98 485.73Z" fill="#3F3D56"/>
<path d="M276.48 334.53C301.885 334.53 322.48 306.772 322.48 272.53C322.48 238.288 301.885 210.53 276.48 210.53C251.075 210.53 230.48 238.288 230.48 272.53C230.48 306.772 251.075 334.53 276.48 334.53Z" fill="#A1616A"/>
<path opacity="0.1" d="M276.48 334.53C301.885 334.53 322.48 306.772 322.48 272.53C322.48 238.288 301.885 210.53 276.48 210.53C251.075 210.53 230.48 238.288 230.48 272.53C230.48 306.772 251.075 334.53 276.48 334.53Z" fill="black"/>
<path d="M282.98 299.03C318.326 299.03 346.98 270.376 346.98 235.03C346.98 199.684 318.326 171.03 282.98 171.03C247.634 171.03 218.98 199.684 218.98 235.03C218.98 270.376 247.634 299.03 282.98 299.03Z" fill="#A1616A"/>
<path d="M284.25 136.39C280.343 136.702 276.463 137.293 272.64 138.16C262.52 140.62 253.77 146.08 245.25 151.44C241.43 153.85 237.5 156.36 235.13 159.9C230.87 166.25 232.52 174.33 230.13 181.38C228.89 185 226.61 188.25 224.68 191.62C219.37 200.86 216.59 211.01 213.86 221.06C213.3 223.14 213.14 225.96 215.41 226.76C216.717 227.031 218.077 226.877 219.29 226.32C226.46 223.95 235.57 223.27 240.89 228.08C246.21 232.89 245.76 241.42 252.09 245.08C259.34 249.31 270.66 244.2 277.24 249.19C280.06 251.33 281.08 254.76 283.39 257.34C288.77 263.34 299.12 263.05 307.73 261.84C312.67 261.14 318.73 260.67 321.73 264.14C323.17 265.78 323.58 268.03 325.25 269.51C328.25 272.19 333.74 270.83 336.67 268.08C339.6 265.33 341 261.61 343.44 258.52C348.19 252.52 356.54 249.25 361.44 243.32C365.54 238.32 366.78 232.06 367.9 226.02L372.07 203.63C373.76 194.55 375.3 184.63 370.19 176.63C368.37 173.75 365.76 171.27 364.19 168.29C363.14 166.29 362.55 164.18 361.33 162.29C359.883 160.321 358.155 158.576 356.2 157.11L346.33 148.94C342.955 145.986 339.347 143.311 335.54 140.94C321.45 132.73 300.35 134.89 284.25 136.39Z" fill="#464353"/>
<path d="M73.4501 301.25C71.0801 303.77 68.8901 306.49 66.3501 308.85C64.1157 310.837 61.7792 312.706 59.3501 314.45C55.4301 317.383 51.5967 320.42 47.8501 323.56C43.9412 326.65 40.4043 330.184 37.3101 334.09C31.9701 341.26 29.4401 350.18 24.4401 357.59C20.0201 364.16 13.7901 369.35 9.30007 375.87C7.3303 378.611 5.86722 381.683 4.98007 384.94C4.31787 388.092 4.01926 391.31 4.09007 394.53C4.00007 399.81 3.92007 405.15 5.00007 410.32C6.08007 415.49 8.45007 420.57 12.5101 423.96C16.2801 427.11 21.1501 428.56 25.9201 429.76C28.3801 430.37 31.0401 430.94 33.3801 429.97C35.0923 429.105 36.5786 427.852 37.7201 426.31L49.8901 412.31C58.0301 402.91 66.4901 393.31 77.6601 387.81C81.1601 386.1 84.8501 384.81 88.3601 383.15C103.24 375.98 113.76 361.3 117.84 345.3C118.84 341.39 119.48 337.4 120.13 333.41L121.89 322.47C122.025 321.922 122.025 321.348 121.89 320.8C121.614 320.183 121.171 319.657 120.61 319.28C112.133 312.434 104.196 304.945 96.8701 296.88C95.1301 294.96 93.5001 292.33 91.4901 290.72C88.9701 288.72 89.1601 288.87 86.1301 290.72C81.469 293.671 77.2073 297.21 73.4501 301.25V301.25Z" fill="#A1616A"/>
<path d="M156.7 374.05C156.599 373.818 156.452 373.608 156.268 373.434C156.083 373.26 155.866 373.125 155.628 373.038C155.391 372.95 155.138 372.911 154.885 372.923C154.632 372.936 154.384 372.999 154.156 373.109C153.928 373.22 153.725 373.376 153.558 373.567C153.392 373.758 153.266 373.981 153.188 374.222C153.11 374.463 153.081 374.717 153.104 374.969C153.127 375.222 153.2 375.467 153.32 375.69L152.32 376.18L182.14 437.3L187.53 434.67L157.71 373.51L156.7 374.05Z" fill="#3F3D56"/>
<path opacity="0.04" d="M73.4501 301.25C71.0801 303.77 68.8901 306.49 66.3501 308.85C64.1157 310.837 61.7792 312.706 59.3501 314.45C55.4301 317.383 51.5967 320.42 47.8501 323.56C43.9412 326.65 40.4043 330.184 37.3101 334.09C31.9701 341.26 29.4401 350.18 24.4401 357.59C20.0201 364.16 13.7901 369.35 9.30007 375.87C7.3303 378.611 5.86722 381.683 4.98007 384.94C4.31787 388.092 4.01926 391.31 4.09007 394.53C4.00007 399.81 3.92007 405.15 5.00007 410.32C6.08007 415.49 8.45007 420.57 12.5101 423.96C16.2801 427.11 21.1501 428.56 25.9201 429.76C28.3801 430.37 31.0401 430.94 33.3801 429.97C35.0923 429.105 36.5786 427.852 37.7201 426.31L49.8901 412.31C58.0301 402.91 66.4901 393.31 77.6601 387.81C81.1601 386.1 84.8501 384.81 88.3601 383.15C103.24 375.98 113.76 361.3 117.84 345.3C118.84 341.39 119.48 337.4 120.13 333.41L121.89 322.47C122.025 321.922 122.025 321.348 121.89 320.8C121.614 320.183 121.171 319.657 120.61 319.28C112.133 312.434 104.196 304.945 96.8701 296.88C95.1301 294.96 93.5001 292.33 91.4901 290.72C88.9701 288.72 89.1601 288.87 86.1301 290.72C81.469 293.671 77.2073 297.21 73.4501 301.25V301.25Z" fill="black"/>
<path d="M418.19 413.89C418.09 420.27 417.84 426.84 415.19 432.66C414.05 435.18 412.28 437.66 409.63 438.49C408.026 438.86 406.367 438.922 404.74 438.67C385.121 436.946 365.352 438.514 346.25 443.31C351.35 433.11 348.42 420.88 349.83 409.56C350.22 406.47 350.93 403.43 351.2 400.33C352.2 389.33 347.49 378.65 345.33 367.79C343.455 358.389 343.455 348.711 345.33 339.31C345.698 336.89 346.53 334.564 347.78 332.46C349.245 330.413 351.17 328.738 353.4 327.57C361.5 322.96 371.05 322.43 380.15 323.04C386.28 323.45 398.57 322.87 403.68 326.64C409.27 330.77 411.04 344.64 412.55 351.05C414.811 360.881 416.348 370.864 417.15 380.92C418.13 391.88 418.34 402.89 418.19 413.89Z" fill="#A1616A"/>
<path d="M59.98 436.03L95.98 460.03L257.98 454.03L150.98 436.03H59.98Z" fill="white"/>
<path d="M107.45 245.34C101.54 250.55 96.5301 256.69 90.9301 262.24C83.2501 269.86 74.5201 276.34 65.8301 282.79C68.9458 283.661 71.782 285.326 74.0609 287.622C76.3397 289.919 77.9831 292.768 78.8301 295.89C79.2101 297.36 79.4001 298.89 79.8301 300.33C80.8301 303.74 83.0301 306.68 85.3901 309.33C95.5301 320.76 109.72 329.22 115.7 343.33C115.895 344.017 116.318 344.616 116.9 345.03C117.387 345.245 117.927 345.308 118.45 345.21C123.86 344.64 128 340.28 131.45 336.04C138.65 327.04 144.9 317.1 148.45 306.12C152 295.14 152.57 283 148.7 272.12C146.77 266.7 143.79 261.72 140.83 256.79C138.237 252.477 135.65 248.17 133.07 243.87C131.72 241.6 130 236.99 127.35 235.87C121.63 233.41 111.12 241.67 107.45 245.34Z" fill="#6C63FF"/>
<path d="M401.99 309.97L410.5 329.97C401.236 326.733 391.335 325.748 381.614 327.095C371.894 328.443 362.634 332.085 354.6 337.72C349.75 341.19 345.3 345.55 343.11 351.09C342.029 351.295 340.912 351.191 339.888 350.79C338.863 350.388 337.973 349.705 337.32 348.82C336.04 347.025 335.298 344.902 335.18 342.7C334.39 335.02 337.3 327.49 340.18 320.31C341.52 316.95 342.9 313.52 345.28 310.79C347.66 308.06 350.82 306.26 353.98 304.56C364.061 298.985 374.62 294.319 385.53 290.62C390.13 289.13 394.95 289.16 397.53 293.46C400.52 298.59 399.65 304.51 401.99 309.97Z" fill="#6C63FF"/>
<path d="M60.19 369.98C62.32 371.68 64.19 373.69 66.38 375.31C68.6961 376.918 71.1606 378.301 73.74 379.44L83.6 384.18C86.6555 385.768 89.8527 387.067 93.15 388.06C97.37 389.19 101.8 389.3 106.04 390.35C111.39 391.67 116.28 394.42 121.55 396.01C126.82 397.6 132.99 397.86 137.39 394.55C140.14 392.48 142.22 389.06 145.63 388.55C147.83 388.26 149.95 389.32 151.91 390.35L177.57 403.84C181.03 405.66 184.69 407.68 186.5 411.15C188.31 414.62 187.09 419.89 183.28 420.79C181.952 420.943 180.617 421.019 179.28 421.02C177.96 421.18 176.52 421.96 176.34 423.29C176.333 424.116 176.551 424.928 176.97 425.64C178.12 428.28 178.46 431.44 177.12 434C175.78 436.56 172.49 438.15 169.86 437C170.31 440.87 166.1 443.58 162.35 444.61C152.89 447.2 142.86 445.61 133.19 443.97C129.39 443.33 125.53 442.67 122.07 440.97C120.41 440.16 118.87 439.12 117.19 438.37C112.58 436.32 107.34 436.59 102.3 436.68C78.99 437.09 55.88 432.77 32.96 428.47C28.71 427.67 24.34 426.82 20.71 424.47C13.71 419.91 11.11 410.55 12.26 402.27C13.41 393.99 17.61 386.49 21.74 379.21L27.09 369.78C27.7894 368.335 28.7683 367.044 29.97 365.98C37.84 359.97 53.45 364.56 60.19 369.98Z" fill="#A1616A"/>
<path opacity="0.04" d="M60.19 369.98C62.32 371.68 64.19 373.69 66.38 375.31C68.6961 376.918 71.1606 378.301 73.74 379.44L83.6 384.18C86.6555 385.768 89.8527 387.067 93.15 388.06C97.37 389.19 101.8 389.3 106.04 390.35C111.39 391.67 116.28 394.42 121.55 396.01C126.82 397.6 132.99 397.86 137.39 394.55C140.14 392.48 142.22 389.06 145.63 388.55C147.83 388.26 149.95 389.32 151.91 390.35L177.57 403.84C181.03 405.66 184.69 407.68 186.5 411.15C188.31 414.62 187.09 419.89 183.28 420.79C181.952 420.943 180.617 421.019 179.28 421.02C177.96 421.18 176.52 421.96 176.34 423.29C176.333 424.116 176.551 424.928 176.97 425.64C178.12 428.28 178.46 431.44 177.12 434C175.78 436.56 172.49 438.15 169.86 437C170.31 440.87 166.1 443.58 162.35 444.61C152.89 447.2 142.86 445.61 133.19 443.97C129.39 443.33 125.53 442.67 122.07 440.97C120.41 440.16 118.87 439.12 117.19 438.37C112.58 436.32 107.34 436.59 102.3 436.68C78.99 437.09 55.88 432.77 32.96 428.47C28.71 427.67 24.34 426.82 20.71 424.47C13.71 419.91 11.11 410.55 12.26 402.27C13.41 393.99 17.61 386.49 21.74 379.21L27.09 369.78C27.7894 368.335 28.7683 367.044 29.97 365.98C37.84 359.97 53.45 364.56 60.19 369.98Z" fill="black"/>
<path d="M365.45 387.26C360.24 389.72 354.26 389.96 348.82 391.85C343.38 393.74 338.76 397.14 333.77 399.91C320.77 407.17 305.77 409.91 291.04 412.52C282.11 414.12 273.04 415.72 264.04 415.34C251.86 414.82 240.16 410.76 228.36 407.7C216.56 404.64 203.97 402.58 192.28 406.02C186.176 407.879 180.595 411.15 175.991 415.568C171.387 419.986 167.889 425.427 165.78 431.45C163.33 438.64 162.99 446.39 163.46 453.97C165.92 455.78 169.36 453.27 170.7 450.52C172.04 447.77 172.77 444.4 175.37 442.8C179.88 444.33 180.98 450.34 184.7 453.31C187.02 455.17 190.12 455.66 193.07 456.08L208.27 458.24C211.93 458.76 216.18 459.11 218.83 456.53C220.12 455.28 220.83 453.53 222.01 452.19C224.43 449.51 228.47 449.05 232.07 449.41C243.31 450.53 253.85 457.82 265.01 456.09C268.85 455.5 272.42 453.86 276.08 452.57C297.77 444.91 321.87 449.57 344.44 445.18C353.05 443.51 361.34 440.55 369.53 437.43C373.98 435.74 378.48 433.97 382.28 431.11C385.88 428.342 388.719 424.706 390.531 420.541C392.343 416.377 393.069 411.821 392.64 407.3C391.803 400.41 388.365 394.1 383.03 389.66C381.27 388.16 378.96 385.29 376.85 384.35C372.82 382.58 368.87 385.65 365.45 387.26Z" fill="#A1616A"/>
<g opacity="0.1">
<path opacity="0.1" d="M336.23 259.51C334.56 258.03 334.15 255.78 332.71 254.14C329.71 250.67 323.65 251.14 318.71 251.84C310.1 253.05 299.71 253.33 294.37 247.34C292.06 244.76 291.04 241.34 288.22 239.19C281.64 234.19 270.32 239.31 263.07 235.08C256.74 231.39 257.15 222.83 251.87 218.08C246.59 213.33 237.44 213.95 230.27 216.32C229.057 216.877 227.697 217.031 226.39 216.76C224.12 215.96 224.28 213.14 224.84 211.06C227.57 201.01 230.35 190.86 235.66 181.62C237.59 178.25 239.87 175 241.11 171.38C243.28 165.04 242.17 157.87 245.02 151.87C241.96 153.87 239.02 156.05 237.13 158.87C232.87 165.22 234.52 173.3 232.13 180.35C230.89 183.97 228.61 187.22 226.68 190.59C221.37 199.83 218.59 209.98 215.86 220.03C215.3 222.11 215.14 224.93 217.41 225.73C218.717 226.001 220.077 225.847 221.29 225.29C228.46 222.92 237.57 222.24 242.89 227.05C248.21 231.86 247.76 240.39 254.09 244.05C261.34 248.28 272.66 243.17 279.24 248.16C282.06 250.3 283.08 253.73 285.39 256.31C290.77 262.31 301.12 262.02 309.73 260.81C314.67 260.11 320.73 259.64 323.73 263.11C325.17 264.75 325.58 267 327.25 268.48C330.25 271.16 335.74 269.8 338.67 267.05C340.549 265.094 342.156 262.894 343.45 260.51C340.85 261.3 338.08 261.18 336.23 259.51Z" fill="black"/>
<path opacity="0.1" d="M354.45 248.51C353.806 249.34 353.208 250.204 352.66 251.1C356.5 248.36 360.57 245.8 363.44 242.31C364.185 241.407 364.854 240.444 365.44 239.43C361.45 242.29 357.29 244.92 354.45 248.51Z" fill="black"/>
</g>
<path d="M556.48 446.53L559.48 733.53L573.48 731.53L570.48 446.53H556.48Z" fill="#3F3D56"/>
<path d="M640.48 498.53L643.48 785.53L657.48 783.53L654.48 498.53H640.48Z" fill="#3F3D56"/>
<path d="M902.01 643.51L901.95 638V634.72L901.42 584.24L900.59 505.32L900.45 498.51H886.45L886.52 505.07L886.96 547.34L887.15 565.64L887.31 580.46L887.57 606.08L887.73 621.19V622.79L887.94 642.65L888.12 660.16L889.26 658.9C891.093 656.853 892.887 654.773 894.64 652.66L902.01 643.51Z" fill="#3F3D56"/>
<path d="M624.98 545.03L616.98 556.99L624.98 611.48L692.98 630.09H802.98L868.98 634.08L900.42 612.56L894.98 575.6L870.98 545.03H624.98Z" fill="#6C63FF"/>
<path d="M616.98 556.99L612.98 590.21C612.98 590.21 591.98 655.34 760.98 651.35C929.98 647.36 900.98 634.07 900.98 634.07L899.98 595.53C899.98 595.53 905.87 613.77 819.98 611.3C734.09 608.83 653.98 600.85 653.98 600.85C653.98 600.85 623.98 606.16 616.98 556.99Z" fill="#3F3D56"/>
<path d="M757.78 259.23C748.14 263.62 740.84 272.13 735.95 281.54C731.06 290.95 728.31 301.28 725.6 311.54C722.74 322.36 719.87 333.21 718.39 344.3C715.75 364.02 717.73 384.75 726.79 402.46C735.85 420.17 752.59 434.46 772.19 437.87C779.76 439.2 787.54 438.93 795.19 438.14C809.017 436.676 822.638 433.674 835.8 429.19C849.55 424.54 863.86 417.38 869.98 404.19C873.53 396.54 873.83 387.82 873.66 379.4C873.188 356.451 869.722 333.662 863.35 311.61C861.5 305.21 859.35 298.76 855.43 293.37C851.51 287.98 846.15 284.03 840.68 280.37C817.29 264.62 786.55 246.15 757.78 259.23Z" fill="#FBBEBE"/>
<path opacity="0.05" d="M757.78 259.23C748.14 263.62 740.84 272.13 735.95 281.54C731.06 290.95 728.31 301.28 725.6 311.54C722.74 322.36 719.87 333.21 718.39 344.3C715.75 364.02 717.73 384.75 726.79 402.46C735.85 420.17 752.59 434.46 772.19 437.87C779.76 439.2 787.54 438.93 795.19 438.14C809.017 436.676 822.638 433.674 835.8 429.19C849.55 424.54 863.86 417.38 869.98 404.19C873.53 396.54 873.83 387.82 873.66 379.4C873.188 356.451 869.722 333.662 863.35 311.61C861.5 305.21 859.35 298.76 855.43 293.37C851.51 287.98 846.15 284.03 840.68 280.37C817.29 264.62 786.55 246.15 757.78 259.23Z" fill="black"/>
<path d="M746.95 385.1C749.741 388.935 753.115 392.31 756.95 395.1C766.47 401.68 778.69 402.57 790.25 402.93C799.53 403.21 810.17 402.68 815.99 395.44C818.61 392.18 819.79 388.02 820.85 383.97C827.392 359.101 832.038 333.772 834.75 308.2L861.23 308.29C872.69 357.36 871.75 408.37 870.75 458.76L869.3 532.24L852.24 530.43C811.73 526.14 771.16 521.85 730.43 521.11C706.565 520.671 682.694 521.459 658.91 523.47L696.06 413.01C700.88 398.65 705.75 384.1 706.88 369.01C708.51 347.12 702.37 324.01 710.88 303.76C711.56 302.13 712.42 300.44 713.97 299.59C715.52 298.74 717.48 298.95 719.26 299.18C722.62 299.63 732.89 299.18 735.33 301.33C738.93 304.45 736.55 304.92 735.28 309.95C733.01 318.95 730.86 327.28 730.89 336.66C730.92 353.69 736.2 371.67 746.95 385.1Z" fill="#6C63FF"/>
<path d="M902.01 643.51C906.47 637.59 910.673 631.46 914.62 625.12C912.62 620.84 910.42 616.66 908.67 612.29C905.99 605.59 904.45 598.49 902.93 591.44C902.41 589.04 901.893 586.64 901.38 584.24C895.78 558.13 890.52 531.65 889.43 505.18C889.33 502.98 889.267 500.78 889.24 498.58C889.24 498.26 889.24 497.95 889.24 497.58C889.24 495.17 889.24 492.76 889.24 490.36C889.36 484.36 889.74 478.31 890.43 472.29C890.56 471.11 890.71 469.93 890.87 468.75C890.87 468.49 890.93 468.24 890.97 467.98L958.97 465.5L964.69 465.29C968.62 465.15 972.78 464.93 976.02 462.7C981.47 458.96 982.11 451.29 982.02 444.7C981.689 428.044 979.801 411.455 976.38 395.15C973.8 382.89 970.12 370.36 961.86 360.94C955.08 353.2 945.26 347.57 941.73 337.94C940.42 334.36 940.09 330.43 938.39 327.01C936.69 323.59 933.88 321.08 931.23 318.44C921.904 309.198 914.166 298.481 908.33 286.72C904.28 278.56 899.89 269.56 894.6 263.92C894.34 263.63 894.08 263.36 893.81 263.1C889.31 258.65 884.16 256.7 878.06 259.73C876.963 260.28 875.919 260.93 874.94 261.67V261.67C872.766 263.331 870.778 265.222 869.01 267.31C862.848 274.395 857.442 282.103 852.88 290.31C849.672 296.088 846.917 302.106 844.64 308.31C842.843 313.211 841.356 318.221 840.19 323.31C839.33 327.08 838.65 330.89 838.11 334.71C836.11 349.07 836.11 363.71 836.39 378.25C836.69 391.61 837.28 405 838.49 418.31C838.79 421.53 839.123 424.747 839.49 427.96C840.223 434.313 841.13 440.647 842.21 446.96C842.64 449.37 843.08 451.78 843.57 454.18C843.69 454.82 843.82 455.46 843.95 456.09L844.01 456.36C845.331 461.939 846.356 467.583 847.08 473.27C847.16 473.983 847.22 474.693 847.26 475.4C847.428 478.669 847.402 481.945 847.18 485.21C846.95 489.07 846.59 492.92 846.41 496.78C846.41 497.46 846.41 498.13 846.34 498.78C846.29 500.73 846.34 502.68 846.34 504.63C846.543 509.295 847.098 513.938 848 518.52C849.687 527.042 852.6 535.274 856.65 542.96C857.03 543.68 857.42 544.39 857.81 545.09C862.88 554.15 869.28 562.46 873.97 571.73C878.016 580.072 881.038 588.872 882.97 597.94C883.637 600.933 884.27 603.933 884.87 606.94C885.8 611.74 886.63 616.58 887.48 621.42C887.56 621.9 887.65 622.42 887.74 622.86C888.87 629.28 890.06 635.67 891.59 641.94C892.48 645.59 893.48 649.19 894.65 652.73L902.01 643.51Z" fill="#464353"/>
<path d="M888.65 564.69C888.65 565.59 888.59 566.49 888.55 567.4C888.371 571.788 887.968 576.164 887.34 580.51C886.511 586.443 885.06 592.272 883.01 597.9C881.651 601.601 879.922 605.156 877.85 608.51C876.012 611.488 873.86 614.261 871.43 616.78C865.43 623.02 856.79 625.01 848.43 627.64C844.583 628.754 840.866 630.272 837.34 632.17C836.71 632.52 836.09 632.9 835.49 633.3L825.03 640.23C821.77 642.38 818.44 644.61 816.2 647.8C815.833 648.343 815.499 648.907 815.2 649.49C813.784 652.427 812.749 655.532 812.12 658.73C806.68 681.39 801.23 704.07 797.5 727.07C797.25 728.59 797.01 730.12 796.75 731.65L796.66 732.13C796.615 732.016 796.561 731.906 796.5 731.8C769.74 747.98 741.99 762.58 713.4 774.27L707.19 722.27C706.543 718.043 706.328 713.761 706.55 709.49C707.14 702.76 709.88 696.38 710.62 689.67C711.321 683.101 710.08 676.471 707.05 670.6C705.87 668.32 704.39 666.08 704.12 663.53C703.85 660.98 705.32 658.65 707.88 658.39C709.88 656.17 710.04 653.14 709.45 650.14C709.136 648.574 708.667 647.043 708.05 645.57C706.35 641.39 704.2 636.84 705.66 632.57C706.046 631.796 706.219 630.933 706.16 630.07C706.17 630.017 706.17 629.963 706.16 629.91C705.82 628.79 704.49 628.3 703.8 627.35C702.5 625.58 703.8 623.17 704.6 621.13C705.378 618.938 705.829 616.643 705.94 614.32C706.05 613.03 706.13 611.73 706.27 610.45C706.465 608.718 706.775 607.001 707.2 605.31C709.629 595.731 715.471 587.367 723.63 581.79C727.52 579.17 731.85 577.26 735.82 574.79C739.887 572.049 743.768 569.042 747.44 565.79C756.247 558.457 765.403 551.543 774.91 545.05C785.132 538.069 795.721 531.64 806.63 525.79C808.963 524.53 811.297 523.303 813.63 522.11C816.17 520.777 818.727 519.513 821.3 518.32C829.54 514.39 838.89 515.86 848 518.48C851.82 519.57 855.59 520.87 859.23 522.05C862.785 523.206 866.204 524.741 869.43 526.63C877.5 531.37 884.17 538.37 886.94 547.21C886.944 547.267 886.944 547.323 886.94 547.38C888.7 552.92 888.81 558.86 888.65 564.69Z" fill="#F86D70"/>
<path opacity="0.1" d="M888.65 564.69C888.65 565.59 888.59 566.49 888.55 567.4C888.371 571.788 887.968 576.164 887.34 580.51C886.511 586.443 885.06 592.272 883.01 597.9C881.651 601.601 879.922 605.156 877.85 608.51C876.012 611.488 873.86 614.261 871.43 616.78C865.43 623.02 856.79 625.01 848.43 627.64C844.583 628.754 840.866 630.272 837.34 632.17C836.71 632.52 836.09 632.9 835.49 633.3L825.03 640.23C821.77 642.38 818.44 644.61 816.2 647.8C815.833 648.343 815.499 648.907 815.2 649.49C813.784 652.427 812.749 655.532 812.12 658.73C806.68 681.39 801.23 704.07 797.5 727.07C797.25 728.59 797.01 730.12 796.75 731.65L796.66 732.13C796.615 732.016 796.561 731.906 796.5 731.8C769.74 747.98 741.99 762.58 713.4 774.27L707.19 722.27C706.543 718.043 706.328 713.761 706.55 709.49C707.14 702.76 709.88 696.38 710.62 689.67C711.321 683.101 710.08 676.471 707.05 670.6C705.87 668.32 704.39 666.08 704.12 663.53C703.85 660.98 705.32 658.65 707.88 658.39C709.88 656.17 710.04 653.14 709.45 650.14C709.136 648.574 708.667 647.043 708.05 645.57C706.35 641.39 704.2 636.84 705.66 632.57C706.046 631.796 706.219 630.933 706.16 630.07C706.17 630.017 706.17 629.963 706.16 629.91C705.82 628.79 704.49 628.3 703.8 627.35C702.5 625.58 703.8 623.17 704.6 621.13C705.378 618.938 705.829 616.643 705.94 614.32C706.05 613.03 706.13 611.73 706.27 610.45C706.465 608.718 706.775 607.001 707.2 605.31C709.629 595.731 715.471 587.367 723.63 581.79C727.52 579.17 731.85 577.26 735.82 574.79C739.887 572.049 743.768 569.042 747.44 565.79C756.247 558.457 765.403 551.543 774.91 545.05C785.132 538.069 795.721 531.64 806.63 525.79C808.963 524.53 811.297 523.303 813.63 522.11C816.17 520.777 818.727 519.513 821.3 518.32C829.54 514.39 838.89 515.86 848 518.48C851.82 519.57 855.59 520.87 859.23 522.05C862.785 523.206 866.204 524.741 869.43 526.63C877.5 531.37 884.17 538.37 886.94 547.21C886.944 547.267 886.944 547.323 886.94 547.38C888.7 552.92 888.81 558.86 888.65 564.69Z" fill="black"/>
<path d="M793.7 399.05C793.599 398.818 793.452 398.608 793.268 398.434C793.083 398.26 792.866 398.125 792.628 398.038C792.391 397.95 792.138 397.911 791.885 397.923C791.632 397.936 791.384 397.999 791.156 398.109C790.928 398.22 790.725 398.376 790.558 398.567C790.392 398.758 790.266 398.981 790.188 399.222C790.11 399.463 790.081 399.717 790.104 399.969C790.127 400.222 790.2 400.467 790.32 400.69L789.32 401.18L819.14 462.3L824.53 459.67L794.71 398.51L793.7 399.05Z" fill="#3F3D56"/>
<path d="M830.98 335.03C866.326 335.03 894.98 306.376 894.98 271.03C894.98 235.684 866.326 207.03 830.98 207.03C795.634 207.03 766.98 235.684 766.98 271.03C766.98 306.376 795.634 335.03 830.98 335.03Z" fill="#FBBEBE"/>
<path d="M915.45 231.41C915.151 226.322 914.394 221.272 913.19 216.32C909.43 200.15 902.56 184.23 890.73 172.62C890.001 169.781 889.13 166.981 888.12 164.23C888.101 164.162 888.078 164.095 888.05 164.03C884.521 154.338 879.419 145.293 872.95 137.26C869.2 132.6 864.34 128 858.36 127.82C856.68 127.76 854.9 128.05 853.36 127.28C852.227 126.548 851.274 125.57 850.57 124.42C847.609 120.678 843.681 117.816 839.212 116.143C834.742 114.471 829.901 114.051 825.21 114.93L824.59 115.06C824.24 115.13 823.89 115.21 823.59 115.3C823.29 115.39 822.75 115.54 822.33 115.67C822.79 116.43 823.24 117.2 823.68 117.98C824.867 120.093 825.967 122.253 826.98 124.46C827.82 126.3 828.597 128.17 829.31 130.07C819.07 131.24 810.73 138.51 803.11 145.43L785.17 161.71C785.137 161.737 785.107 161.768 785.08 161.8L784.56 162.3C784.43 162.43 784.3 162.56 784.18 162.7C784.132 162.742 784.088 162.789 784.05 162.84C783.9 163 783.76 163.17 783.62 163.34C783.37 163.655 783.146 163.989 782.95 164.34C782.852 164.49 782.765 164.647 782.69 164.81C782.663 164.858 782.639 164.908 782.62 164.96C782.555 165.096 782.498 165.237 782.45 165.38C782.446 165.4 782.446 165.42 782.45 165.44C782.422 165.522 782.399 165.605 782.38 165.69C782.176 166.394 782.236 167.148 782.55 167.81L794.38 167.94H795.77C795.83 169.52 795.88 171.11 795.94 172.69C794.063 174.095 792.26 175.597 790.54 177.19C788.664 178.926 786.904 180.784 785.27 182.75C774.6 195.64 769.03 212.29 768.47 229.05C768.47 229.57 768.47 230.05 768.47 230.59C768.47 232.12 768.47 233.65 768.47 235.17C768.47 236.17 768.56 237.17 768.64 238.17C768.645 239.473 768.99 240.751 769.64 241.88C769.725 242.006 769.819 242.126 769.92 242.24C770.52 242.891 771.24 243.421 772.04 243.8L772.9 244.22C773.33 244.43 773.74 244.63 774.14 244.86C777.91 246.99 780.14 251.1 783.57 253.74C783.77 253.89 783.97 254.04 784.17 254.17L784.62 254.47L784.9 254.65L785.28 254.87C785.529 255.02 785.786 255.157 786.05 255.28V255.28L786.53 255.52H786.61C787.01 255.7 787.41 255.87 787.82 256.02L788.39 256.22L788.56 256.28C788.72 256.33 788.89 256.39 789.06 256.43C789.4 256.53 789.733 256.62 790.06 256.7L791.06 256.92C791.45 256.99 791.85 257.06 792.25 257.11L792.84 257.19L793.44 257.25C794.393 257.337 795.353 257.387 796.32 257.4C799.354 257.381 802.383 257.171 805.39 256.77L830.91 253.77C836.7 253.1 842.61 252.43 848.32 253.61C853.16 254.61 857.62 256.91 862.32 258.54C863.38 258.91 864.44 259.25 865.51 259.54C865.9 259.65 866.3 259.77 866.7 259.87L867.25 260.01L868.53 260.32C868.99 260.43 869.45 260.54 869.91 260.63C870.56 260.77 871.2 260.89 871.85 261.01C872.29 261.1 872.74 261.17 873.19 261.25H873.28L874.56 261.45H874.87L875.82 261.58C876.28 261.65 876.74 261.71 877.21 261.76C878.23 261.887 879.25 261.997 880.27 262.09C881.92 262.25 883.58 262.37 885.27 262.47L886.93 262.57L888.59 262.65L893.59 262.87H893.81H894.51C896.589 263.015 898.677 262.907 900.73 262.55C901.09 262.48 901.44 262.4 901.79 262.3C902.14 262.2 902.43 262.1 902.79 261.98C906.54 260.54 909.28 257.23 911.18 253.69C911.58 252.94 911.95 252.19 912.29 251.42C912.63 250.65 912.94 249.87 913.22 249.09C913.57 248.09 913.87 247.14 914.13 246.14C914.21 245.87 914.28 245.6 914.34 245.32C914.4 245.04 914.54 244.49 914.62 244.07C914.87 242.92 915.06 241.76 915.2 240.59C915.2 240.22 915.29 239.84 915.33 239.47C915.42 238.47 915.49 237.54 915.53 236.56C915.53 235.82 915.53 235.07 915.53 234.32C915.52 233.51 915.45 232.44 915.45 231.41ZM889.81 171.71C889 170.95 888.17 170.22 887.33 169.53C888.265 170.12 889.099 170.856 889.8 171.71H889.81Z" fill="#464353"/>
<path d="M708.15 267.51C700.62 266.58 693.15 263.28 685.72 264.9C681.07 265.9 677.07 268.79 673.35 271.76C659.506 282.856 647.735 296.313 638.58 311.51C637.028 313.782 635.937 316.337 635.37 319.03C634.89 322.15 635.74 325.32 636.75 328.31C643.59 348.52 658.22 365.4 664.88 385.67C671.88 406.99 669.45 430.29 664.29 452.13C657.894 479.092 647.499 504.945 633.45 528.83C631.543 532.382 629.153 535.653 626.35 538.55C622.71 542.05 617.82 544.55 615.66 549.13C614.66 551.13 614.37 553.41 613.66 555.55C611.66 561.55 606.82 566.69 606.35 573.02C606 577.85 608.29 582.42 609.68 587.02C612.024 594.923 611.775 603.369 608.97 611.12C603.9 625.02 590.64 637.66 594.49 651.95C603.08 649.48 612.6 646.27 616.65 638.3C618.08 635.48 618.79 632.12 621.2 630.06C626.01 625.97 634.2 629.67 639.31 625.91C643.17 623.05 643.31 617.19 641.59 612.69C639.87 608.19 636.91 604.23 635.59 599.6C633.29 591.25 636.97 582.42 636.29 573.79C635.97 569.79 634.74 565.96 634.65 561.98C634.48 554.25 638.76 546.98 644.45 541.73C650.14 536.48 657.17 533 664.09 529.57L690.25 516.57C699.74 511.87 710.14 506.14 713.25 496.02C714.43 492.23 714.44 488.19 714.5 484.23C715.39 423.72 730.55 364.43 745.62 305.82C747.96 296.74 750.34 287.62 753.82 278.9C757.3 270.18 764.11 263.18 767.58 255.08C747.45 252.72 729.06 270.13 708.15 267.51Z" fill="#464353"/>
<path d="M852.36 647.12C854.67 661.12 856.08 675.42 857.18 689.65C839.18 704.57 819.8 717.55 800.11 729.59C798.99 730.28 797.86 730.96 796.73 731.59L796.64 732.07C796.595 731.956 796.541 731.846 796.48 731.74C794.952 728.439 792.281 725.803 788.96 724.32C781.58 708.82 774.207 693.32 766.84 677.82C762.84 669.45 758.84 661 756.84 651.97C756.84 651.78 756.75 651.58 756.72 651.39C755.2 644.39 754.85 637.12 753.84 630.03C753.328 625.969 752.414 621.97 751.11 618.09C749.91 614.64 748.26 611.29 746.8 607.92C745 603.76 743.49 599.55 743.42 595.06C743.42 593.63 743.51 592.06 742.81 590.86C742.062 589.827 741.138 588.933 740.08 588.22C738.76 587.049 737.759 585.563 737.171 583.899C736.583 582.236 736.428 580.45 736.72 578.71C730.72 579.02 727.34 585.47 724.93 590.94C722.739 596.29 719.861 601.332 716.37 605.94C713.825 609.232 710.589 611.925 706.89 613.83C706.56 613.99 706.23 614.15 705.89 614.29C697.54 617.97 687.79 616.67 678.74 615.01C670.83 613.56 662.65 611.76 656.29 606.84L655.61 606.3C653.727 604.735 652.047 602.941 650.61 600.96C645.28 593.68 642.92 584.09 641.61 574.96C641.49 574.1 641.37 573.24 641.26 572.38C640.351 565.929 640.099 559.402 640.51 552.9C640.63 551.3 640.8 549.7 641.01 548.11C641.15 547.11 641.3 546.03 641.47 544.99C641.465 544.96 641.465 544.93 641.47 544.9C641.73 543.25 642.01 541.59 642.29 539.9C643.29 534.23 644.29 528.41 647.29 523.53C649.264 520.494 651.755 517.827 654.65 515.65C655.73 514.8 656.84 513.99 657.96 513.21C659.78 511.95 661.65 510.75 663.55 509.62C668.33 506.759 673.349 504.316 678.55 502.32C679.79 501.84 681.05 501.39 682.31 500.96C687.208 499.218 692.479 498.8 697.59 499.75C702.119 500.405 706.695 500.673 711.27 500.55C723 500.32 734.78 498.08 746.49 496.63C762.75 494.63 780.22 494.39 794.4 502.63C795.08 503.02 795.74 503.43 796.4 503.86C803.4 508.44 809.04 514.86 813.59 522.03C814.59 523.54 815.46 525.09 816.32 526.66C818.302 530.264 820.095 533.969 821.69 537.76C822.634 539.622 823.143 541.673 823.18 543.76C823.157 544.157 823.103 544.551 823.02 544.94C822.75 546.36 822.21 547.74 822.02 549.18C821.39 554.63 826.02 559.18 827.75 564.37C828.87 567.75 828.75 571.37 829.38 574.93C830.29 579.93 832.74 584.43 834.94 588.93C838.416 596.174 841.39 603.648 843.84 611.3C845.58 616.63 847.07 622.04 848.38 627.5C848.807 629.253 849.21 631.01 849.59 632.77C850.68 637.61 851.57 642.35 852.36 647.12Z" fill="#F86D70"/>
<path d="M958.98 499.03V506.03L957.69 506.01L956.25 505.99L940.17 505.79L900.55 505.27L889.43 505.13L886.55 505.09L869.86 504.88L846.34 504.57L796.44 503.92L709.85 502.8L678.6 502.4L666.06 502.24L654.52 502.09L647.33 501.99L640.52 501.9L590.03 501.25L576.03 501.07L572.98 501.03L571 495.92L556.61 458.81L553.98 452.03L555.98 444.03L564.98 450.03L570.52 450.72L661.73 462.06L678.85 464.19L715.15 468.71L750.71 473.13L764.65 474.86L847.14 485.12L870.19 487.99L889.27 490.36L957.11 498.8L958.98 499.03Z" fill="#3F3D56"/>
<path d="M555.98 444.03L573.98 491.03L958.98 499.03V448.03L555.98 444.03Z" fill="#504F60"/>
<path d="M575.98 496.03L578.98 783.03L592.98 781.03L589.98 496.03H575.98Z" fill="#3F3D56"/>
<path d="M957.69 506H956.25C953.919 523.893 950.061 541.554 944.72 558.79L940.17 505.79L939.98 503.53L956.8 501.59L957.36 501.53L957.69 506Z" fill="#3F3D56"/>
<path d="M902.98 472.03L756.48 475.03L710.98 460.03L832.98 453.03L902.98 472.03Z" fill="white"/>
<path d="M719.21 413.71C717.657 414.306 716.28 415.287 715.21 416.56C714.373 417.94 713.863 419.493 713.72 421.1L711.26 435.77C710.885 437.112 710.951 438.539 711.45 439.84C712.09 441.07 713.95 441.71 714.88 440.69C714.76 443.56 715.01 446.62 716.68 448.96C718.35 451.3 721.85 452.53 724.21 450.9C724.58 451.503 725.077 452.018 725.666 452.41C726.255 452.802 726.922 453.062 727.621 453.17C728.321 453.278 729.035 453.234 729.715 453.038C730.395 452.843 731.025 452.503 731.56 452.04C730.14 452.52 730.04 454.69 731.05 455.79C732.181 456.788 733.623 457.364 735.13 457.42C752.703 459.897 770.618 457.643 787.03 450.89C788.58 450.25 784.5 431.14 784.09 429.18C783.09 424.57 782.59 418.94 778.7 415.84C769.4 408.42 752.88 406.96 741.55 407.84C733.809 408.426 726.239 410.415 719.21 413.71V413.71Z" fill="#FBBEBE"/>
<path opacity="0.1" d="M868.27 415.93C832.1 416.62 795.18 417.21 760.66 406.38C763.957 419.158 763.729 432.591 760 445.25L929.12 459.25C936.29 459.84 966.02 463.2 973.01 461.51C980 459.82 914.36 438.2 917.01 431.51C924.3 413.08 948.72 402.28 931.13 401.59C908.93 400.71 890.64 415.51 868.27 415.93Z" fill="black"/>
<path d="M869.27 417.93C833.1 418.62 796.18 419.21 761.66 408.38C764.957 421.158 764.729 434.591 761 447.25L930.12 461.25C937.29 461.84 967.02 465.25 974.01 463.51C981 461.77 979.36 453.2 982.01 446.51C989.3 428.08 949.72 404.28 932.13 403.59C909.93 402.71 891.64 417.51 869.27 417.93Z" fill="#464353"/>
<path d="M811.76 420.71C813.314 421.305 814.69 422.286 815.76 423.56C816.596 424.941 817.108 426.493 817.26 428.1L819.72 442.77C820.09 444.113 820.024 445.538 819.53 446.84C818.89 448.07 817.02 448.71 816.1 447.69C816.21 450.56 815.97 453.62 814.3 455.96C812.63 458.3 809.13 459.53 806.76 457.9C806.39 458.503 805.893 459.018 805.304 459.41C804.715 459.802 804.048 460.062 803.349 460.17C802.649 460.278 801.935 460.234 801.255 460.038C800.575 459.843 799.945 459.503 799.41 459.04C800.83 459.52 800.94 461.69 799.93 462.79C798.795 463.788 797.35 464.364 795.84 464.42C778.27 466.897 760.358 464.643 743.95 457.89C742.4 457.25 746.47 438.14 746.89 436.18C747.89 431.57 748.39 425.94 752.28 422.84C761.57 415.42 778.1 413.96 789.43 414.84C797.168 415.427 804.734 417.416 811.76 420.71V420.71Z" fill="#FBBEBE"/>
<path d="M572.76 388.86C569.44 393.14 566.11 397.51 563.97 402.5C559.88 412.02 560.48 422.8 561.16 433.14C561.35 436.14 561.59 439.2 563.16 441.69C564.517 443.571 566.308 445.098 568.38 446.14C577.04 451.06 587.18 452.53 597.08 453.63C612.24 455.31 627.453 456.333 642.72 456.7C680.54 457.62 718.94 454.53 755.78 463.1C751.22 456.17 751.23 447 753.78 439.1C756.33 431.2 761.24 424.32 766.05 417.55C749.19 412.21 731.11 420.55 713.45 419.72C695.32 418.87 678.54 408.39 660.39 408.4C656.49 408.4 652.52 408.89 648.73 407.95C644.94 407.01 641.27 404.15 640.92 400.26C645.76 401.35 650.35 397.21 652.35 392.67C654.35 388.13 654.71 383 656.65 378.43C661.48 367.06 674.53 361.79 682.65 352.43C683.93 350.95 685.14 349.2 685.1 347.24C684.909 345.58 684.211 344.019 683.1 342.77C676.35 333.77 666.18 328.77 657.73 321.77C654.79 319.33 648.86 310.13 645.56 309.28C639.44 307.71 634.25 316.55 630.27 320.86C610.177 342.693 591.007 365.36 572.76 388.86Z" fill="#464353"/>
<path opacity="0.07" d="M773.84 386.32C776.375 388.2 778.628 390.432 780.53 392.95C781.478 394.215 782.153 395.662 782.513 397.201C782.873 398.74 782.909 400.336 782.62 401.89C782.31 398.992 782.956 396.071 784.46 393.574C785.964 391.078 788.243 389.141 790.95 388.06L773.84 386.32Z" fill="black"/>
<g opacity="0.1">
<path opacity="0.1" d="M829.3 124.08C828.124 120.954 826.768 117.899 825.24 114.93C824.252 115.12 823.277 115.37 822.32 115.68C824.036 118.53 825.582 121.478 826.95 124.51C827.72 124.31 828.5 124.17 829.3 124.08Z" fill="black"/>
<path opacity="0.1" d="M887.32 163.51C887.59 163.73 887.85 163.98 888.11 164.21C888.091 164.145 888.068 164.082 888.04 164.02C887.813 163.853 887.573 163.683 887.32 163.51Z" fill="black"/>
<path opacity="0.1" d="M794.36 167.91C794.88 167.5 795.36 167.07 795.92 166.67L795.76 161.92L785.08 161.81C783.35 163.4 781.51 165.68 782.53 167.81L794.36 167.91Z" fill="black"/>
<path opacity="0.1" d="M911.12 247.87C909.22 251.41 906.48 254.73 902.73 256.16C899.84 257.26 896.66 257.16 893.57 257.02C883.03 256.59 872.31 256.12 862.35 252.63C857.69 250.99 853.23 248.7 848.35 247.69C842.64 246.51 836.73 247.18 830.94 247.86L805.42 250.86C797.89 251.74 789.5 252.4 783.49 247.78C780.05 245.14 777.83 241.03 774.06 238.91C772.47 238.01 770.58 237.43 769.55 235.91C768.9 234.781 768.555 233.503 768.55 232.2C768.47 231.15 768.42 230.1 768.38 229.05C768.272 232.101 768.328 235.155 768.55 238.2C768.555 239.503 768.9 240.781 769.55 241.91C770.55 243.42 772.47 244 774.06 244.91C777.83 247.03 780.06 251.14 783.49 253.78C789.49 258.4 797.89 257.78 805.42 256.86L830.94 253.86C836.73 253.18 842.64 252.51 848.35 253.69C853.19 254.69 857.65 256.99 862.35 258.63C872.35 262.12 883.03 262.63 893.57 263.02C896.66 263.15 899.84 263.26 902.73 262.16C906.48 260.73 909.22 257.41 911.12 253.87C914.8 247.02 915.83 239.25 915.44 231.42C915.226 237.154 913.751 242.771 911.12 247.87V247.87Z" fill="black"/>
</g>
<path opacity="0.1" d="M829.01 130.51L843.01 143.51C843.01 143.51 831.01 138.51 829.01 130.51Z" fill="black"/>
</g>
<defs>
<clipPath id="clip0">
<rect width="982.89" height="803.03" fill="white"/>
</clipPath>
</defs>
</svg>
