<svg width="434" height="446" viewBox="0 0 434 446" fill="none" xmlns="http://www.w3.org/2000/svg">
<g filter="url(#filter0_d)">
<g filter="url(#filter1_d)">
<path fill-rule="evenodd" clip-rule="evenodd" d="M57.7857 111.865C20.0683 177.12 11.03 254.482 177.115 342.231C343.201 429.98 397.43 351.178 355.389 279.377C313.348 207.576 346.481 117.577 275.653 61.3914C204.824 5.20623 95.5031 46.6095 57.7857 111.865Z" fill="#3341C0"/>
</g>
</g>
<rect x="61" y="56" width="281" height="203" rx="10" fill="black"/>
<rect x="69" y="64" width="265" height="188" rx="10" fill="#575A88"/>
<path d="M158.723 109.254C158.723 109.254 125.215 95.1821 103.283 109.254C103.283 109.254 97.8001 123.326 102.065 131.28C106.329 139.234 113.031 158.201 106.329 171.049C99.6277 183.898 106.939 178.391 106.939 178.391C106.939 178.391 98.4093 212.654 97.1908 239.574C95.9724 266.495 100.846 363.164 104.502 363.776C108.157 364.388 119.732 365.612 120.951 363.776C122.169 361.941 130.699 234.068 130.699 234.068C130.699 234.068 134.354 365 138.009 365C141.665 365 151.412 365 153.24 361.941C155.068 358.882 170.299 240.798 164.816 216.325C159.332 191.852 155.677 179.615 155.677 179.615C155.677 179.615 162.379 175.332 160.551 172.885C158.723 170.437 149.585 144.129 153.849 139.846C158.114 135.563 158.723 109.254 158.723 109.254Z" fill="#2F2E41"/>
<path d="M107 108C107 108 96.3489 108 95.1655 114.751C93.982 121.502 92.2068 195.149 93.3903 204.355C94.5737 213.561 94.5737 211.72 94.5737 211.72C94.5737 211.72 92.2145 229.214 97.5362 229.979C102.858 230.745 102.858 209.878 102.858 209.878L107 135.004L107 108Z" fill="#9E616A"/>
<path d="M155 108C155 108 165.651 108 166.835 114.751C168.018 121.502 169.793 195.149 168.61 204.355C167.426 213.561 167.426 211.72 167.426 211.72C167.426 211.72 169.786 229.214 164.464 229.979C159.142 230.745 159.142 209.878 159.142 209.878L155 135.004V108Z" fill="#9E616A"/>
<path d="M104.918 364.043H100.02C98.5732 364.043 97.1401 364.327 95.8031 364.877C94.466 365.428 93.2511 366.235 92.2278 367.253C91.2044 368.27 90.3927 369.478 89.8388 370.807C89.285 372.136 89 373.561 89 375V375H119V361H104.918V364.043Z" fill="#2F2E41"/>
<path d="M152.082 364.043H156.98C158.427 364.043 159.86 364.327 161.197 364.877C162.534 365.428 163.749 366.235 164.772 367.253C165.796 368.27 166.607 369.478 167.161 370.807C167.715 372.136 168 373.561 168 375V375H138V361H152.082V364.043Z" fill="#2F2E41"/>
<path d="M126 94C134.837 94 142 86.8366 142 78C142 69.1634 134.837 62 126 62C117.163 62 110 69.1634 110 78C110 86.8366 117.163 94 126 94Z" fill="#9E616A"/>
<path d="M122.46 86.3804C122.46 86.3804 120.613 107.47 118.152 109.387C115.69 111.305 144 108.109 144 108.109C144 108.109 134.153 92.7712 135.999 87.6586C137.846 82.5459 122.46 86.3804 122.46 86.3804Z" fill="#9E616A"/>
<path d="M136 94C150.359 94 162 82.5833 162 68.5C162 54.4167 150.359 43 136 43C121.641 43 110 54.4167 110 68.5C110 82.5833 121.641 94 136 94Z" fill="#2F2E41"/>
<path d="M153.5 59C160.404 59 166 53.4036 166 46.5C166 39.5964 160.404 34 153.5 34C146.596 34 141 39.5964 141 46.5C141 53.4036 146.596 59 153.5 59Z" fill="#2F2E41"/>
<defs>
<filter id="filter0_d" x="31" y="35" width="342" height="354" filterUnits="userSpaceOnUse" color-interpolation-filters="sRGB">
<feFlood flood-opacity="0" result="BackgroundImageFix"/>
<feColorMatrix in="SourceAlpha" type="matrix" values="0 0 0 0 0 0 0 0 0 0 0 0 0 0 0 0 0 0 127 0"/>
<feOffset dy="4"/>
<feGaussianBlur stdDeviation="2"/>
<feColorMatrix type="matrix" values="0 0 0 0 0 0 0 0 0 0 0 0 0 0 0 0 0 0 0.25 0"/>
<feBlend mode="normal" in2="BackgroundImageFix" result="effect1_dropShadow"/>
<feBlend mode="normal" in="SourceGraphic" in2="effect1_dropShadow" result="shape"/>
</filter>
<filter id="filter1_d" x="0" y="0" width="434" height="446" filterUnits="userSpaceOnUse" color-interpolation-filters="sRGB">
<feFlood flood-opacity="0" result="BackgroundImageFix"/>
<feColorMatrix in="SourceAlpha" type="matrix" values="0 0 0 0 0 0 0 0 0 0 0 0 0 0 0 0 0 0 127 0"/>
<feOffset dx="15" dy="15"/>
<feGaussianBlur stdDeviation="25"/>
<feColorMatrix type="matrix" values="0 0 0 0 0 0 0 0 0 0 0 0 0 0 0 0 0 0 0.25 0"/>
<feBlend mode="normal" in2="BackgroundImageFix" result="effect1_dropShadow"/>
<feBlend mode="normal" in="SourceGraphic" in2="effect1_dropShadow" result="shape"/>
</filter>
</defs>
</svg>
