<svg width="613" height="586" viewBox="0 0 613 586" fill="none" xmlns="http://www.w3.org/2000/svg">
<path d="M474.513 171.5C356.513 145 280.013 61.0002 115.513 80.0001C-48.9865 99 -14.4867 372.5 75.0131 418C164.513 463.5 438.513 513.5 547.013 448.5C655.513 383.5 592.513 198 474.513 171.5Z" fill="#3341C0"/>
<path opacity="0.1" d="M599.075 453.202C606.258 418.052 518.311 370.395 402.64 346.756C286.969 323.117 187.376 332.449 180.193 367.599C173.009 402.749 260.956 450.406 376.627 474.045C492.298 497.684 591.892 488.352 599.075 453.202Z" fill="#6C63FF"/>
<path d="M365.483 227.978C365.483 227.978 376.853 172.168 420.263 177.338C420.263 177.338 450.263 179.398 456.433 199.038V242.448L365.483 227.978Z" fill="#3A3768"/>
<path d="M603.213 248.658L216.643 216.608L167.033 226.948L170.133 296.198L173.513 296.608L177.363 400.598L556.693 468.808L597.013 434.698V321.968L602.173 318.938L603.213 248.658Z" fill="#D48A9B"/>
<path opacity="0.05" d="M603.733 248.658L602.693 318.938L560.833 338.578L560.313 265.188L603.733 248.658Z" fill="black"/>
<path opacity="0.05" d="M597.013 322.038L597.523 432.638L557.213 466.748L559.803 338.578L597.013 322.038Z" fill="black"/>
<path opacity="0.05" d="M174.033 300.748L560.113 347.858L560.313 338.918L173.743 297.228L174.033 300.748Z" fill="black"/>
<path opacity="0.05" d="M597.013 326.098V322.038L558.763 338.918V347.878L597.013 326.098Z" fill="black"/>
<path d="M166.513 226.948L216.123 216.608L602.693 248.658L559.283 265.188L166.513 226.948Z" fill="#EFC6CD"/>
<path opacity="0.1" d="M561.513 250.648L580.483 251.888L549.043 261.298L533.033 260.148L561.513 250.648Z" fill="black"/>
<path d="M561.513 249.818L580.483 251.058L549.043 260.478L533.033 259.318L561.513 249.818Z" fill="white"/>
<path d="M559.243 251.948C559.993 251.628 560.783 252.238 561.583 252.388C562.043 252.478 562.513 252.388 562.973 252.478C563.903 252.598 564.823 253.218 565.713 252.908" fill="#D3DAE1"/>
<path d="M558.263 252.518C559.003 252.198 559.803 252.798 560.603 252.958C561.063 253.038 561.533 252.958 561.993 253.038C562.923 253.168 563.843 253.788 564.733 253.478" fill="#D3DAE1"/>
<path d="M556.003 253.658C556.753 253.338 557.553 253.938 558.353 254.088C558.803 254.178 559.283 254.088 559.733 254.178C560.673 254.308 561.593 254.928 562.473 254.608" fill="#D3DAE1"/>
<path opacity="0.1" d="M479.513 241.308L498.483 242.558L467.043 251.968L451.033 250.808L479.513 241.308Z" fill="black"/>
<path d="M477.243 242.618C477.993 242.298 478.783 242.898 479.583 243.058C480.043 243.138 480.513 243.058 480.973 243.138C481.903 243.268 482.823 243.888 483.713 243.578" fill="#D3DAE1"/>
<path d="M479.513 240.488L498.483 241.728L467.043 251.138L451.033 249.988L479.513 240.488Z" fill="white"/>
<path d="M581.743 208.09C582.483 207.77 583.283 208.37 584.083 208.52C584.543 208.61 585.013 208.52 585.473 208.61C586.403 208.74 587.323 209.36 588.213 209.04" fill="#D3DAE1"/>
<path d="M579.483 209.22C580.233 208.9 581.033 209.51 581.833 209.66C582.283 209.75 582.763 209.66 583.213 209.75C584.153 209.87 585.073 210.5 585.953 210.18" fill="#D3DAE1"/>
<path opacity="0.1" d="M518.843 245.978L537.823 247.218L506.383 256.638L490.363 255.478L518.843 245.978Z" fill="black"/>
<path d="M518.843 245.158L537.823 246.398L506.383 255.808L490.363 254.648L518.843 245.158Z" fill="white"/>
<path d="M516.573 247.288C517.323 246.968 518.123 247.568 518.923 247.718C519.373 247.808 519.843 247.718 520.303 247.808C521.233 247.928 522.163 248.558 523.043 248.238" fill="#D3DAE1"/>
<path d="M515.593 247.848C516.343 247.528 517.143 248.138 517.943 248.288C518.393 248.378 518.863 248.288 519.323 248.378C520.253 248.498 521.183 249.128 522.063 248.808" fill="#D3DAE1"/>
<path d="M513.343 248.988C514.083 248.668 514.883 249.268 515.683 249.428C516.143 249.508 516.613 249.428 517.073 249.508C518.003 249.638 518.923 250.258 519.813 249.948" fill="#D3DAE1"/>
<path d="M238.343 218.87C238.343 218.87 235.893 235.18 243.243 235.39C250.593 235.6 255.503 222.81 255.503 222.81L252.503 212.58L238.343 218.87Z" fill="#585B8A"/>
<path opacity="0.2" d="M238.343 218.87C238.343 218.87 235.893 235.18 243.243 235.39C250.593 235.6 255.503 222.81 255.503 222.81L252.503 212.58L238.343 218.87Z" fill="black"/>
<path d="M73.7132 571.91C60.6332 572.48 43.5732 557.7 43.5732 557.7L42.7232 542.35C42.7232 542.35 41.5932 542.92 39.3132 539.51C37.7832 537.22 39.9832 527.73 41.5932 521.76C42.3732 518.84 43.0132 516.76 43.0132 516.76L71.7132 524.44L73.0832 528.07L84.2232 557.69C84.2232 557.69 86.7832 571.34 73.7132 571.91Z" fill="#636992"/>
<path d="M205.583 528.43C205.583 528.43 172.333 541.22 161.583 531.27C150.833 521.32 142.823 524.16 142.823 524.16C142.823 524.16 124.063 524.45 120.363 523.02C118.183 522.19 119.363 515.08 120.723 509.42C121.643 505.51 122.643 502.28 122.643 502.28C122.643 502.28 155.323 491.19 160.443 498.01C161.981 500.014 163.819 501.768 165.893 503.21C171.813 507.49 181.063 511.37 195.693 517.34C215.813 525.58 205.583 528.43 205.583 528.43Z" fill="#636992"/>
<path d="M175.743 268.64L184.833 286.83C184.833 286.83 197.913 305.31 182.563 312.41C167.213 319.51 167.503 271.49 167.503 271.49L175.743 268.64Z" fill="#FFD6D6"/>
<path d="M137.653 110.9C137.653 110.9 147.603 115.45 153.573 134.49C159.543 153.53 167.503 185.94 167.503 185.94C167.503 185.94 172.903 222.6 172.043 231.7C171.496 236.712 171.594 241.773 172.333 246.76L180.003 272.34L164.653 277.74L141.063 187.36L137.653 110.9Z" fill="#DCE6F2"/>
<path opacity="0.05" d="M137.653 110.9C137.653 110.9 147.603 115.45 153.573 134.49C159.543 153.53 167.503 185.94 167.503 185.94C167.503 185.94 172.903 222.6 172.043 231.7C171.496 236.712 171.594 241.773 172.333 246.76L180.003 272.34L164.653 277.74L141.063 187.36L137.653 110.9Z" fill="black"/>
<path opacity="0.1" d="M71.713 524.45L73.083 528.08L71.403 531.29C64.863 534.13 48.663 531.86 48.663 531.86C48.663 531.86 45.663 528.05 41.563 521.78C42.343 518.86 42.983 516.78 42.983 516.78L71.713 524.45Z" fill="black"/>
<path opacity="0.1" d="M166.933 504.55C158.643 523.33 130.463 516.36 122.633 514.01C121.343 513.62 120.633 513.36 120.633 513.36C120.633 513.36 120.683 511.83 120.703 509.42C121.623 505.51 122.623 502.28 122.623 502.28C122.623 502.28 155.303 491.19 160.423 498.01C161.961 500.014 163.799 501.768 165.873 503.21C166.186 503.687 166.541 504.136 166.933 504.55V504.55Z" fill="black"/>
<path d="M165.503 480.68C158.683 494.88 166.933 502.85 166.933 502.85C158.643 521.62 130.463 514.66 122.633 512.3C121.343 511.92 120.633 511.66 120.633 511.66C120.633 511.66 121.203 492.04 119.213 482.66C117.223 473.28 117.503 433.78 118.643 428.95C119.783 424.12 120.343 414.73 120.343 414.73C120.343 414.73 119.493 403.65 120.913 398.25C121.34 396.791 121.369 395.245 120.996 393.771C120.623 392.297 119.863 390.95 118.793 389.87L118.643 389.72C118.643 389.72 112.393 411.04 110.113 414.72C107.833 418.4 106.993 436.89 106.703 440.3C106.413 443.71 94.7629 472.14 94.7629 472.14C94.7629 472.14 90.223 485.21 89.373 488.9C88.523 492.59 85.103 503.12 85.103 503.12L71.403 529.56C64.863 532.4 48.663 530.13 48.663 530.13C48.663 530.13 45.5429 526.13 41.2729 519.61C37.0029 513.09 35.0229 490.06 35.0229 490.06C35.0229 490.06 50.6529 489.77 46.6729 474.71C42.6929 459.65 50.0829 447.99 49.8029 442.87C49.5229 437.75 53.2129 420.99 55.2029 418.43C57.1929 415.87 56.9029 405.07 56.3329 399.1C55.7629 393.13 56.0529 372.1 56.0529 372.1C56.0529 372.1 56.623 362.72 59.463 358.46C62.303 354.2 61.1729 341.97 61.1729 341.97C61.1729 341.97 66.563 339.13 62.873 311.56C59.183 283.99 68.873 248.18 68.873 248.18L69.2029 243.18L69.723 235.08C69.723 235.08 151.013 229.96 157.553 236.21C159.262 237.945 160.666 239.957 161.703 242.16C163.94 246.97 165.521 252.059 166.403 257.29L169.813 343.41L173.223 406.79L172.083 454.54C172.083 454.54 172.333 466.46 165.503 480.68Z" fill="#565988"/>
<path opacity="0.1" d="M141.403 310.71L132.873 495.45L122.633 512.29C121.343 511.91 120.633 511.65 120.633 511.65C120.633 511.65 121.203 492.03 119.213 482.65C117.223 473.27 117.503 433.77 118.643 428.94C119.783 424.11 120.343 414.72 120.343 414.72C120.343 414.72 119.493 403.64 120.913 398.24C121.341 396.781 121.369 395.234 120.996 393.761C120.624 392.287 119.863 390.94 118.793 389.86L118.933 388.86L141.403 310.71Z" fill="black"/>
<path opacity="0.1" d="M49.5434 509.1C49.5434 509.1 71.7134 500.29 75.1234 503.1C78.5334 505.91 48.9834 510.2 48.9834 510.2L49.5434 509.1Z" fill="black"/>
<path opacity="0.1" d="M158.973 485.79C158.123 486.08 136.523 493.79 138.513 501.99C140.503 510.19 158.973 485.79 158.973 485.79Z" fill="black"/>
<path d="M91.4731 65.29C91.4731 65.29 98.7131 82.77 94.8831 91.73C91.0531 100.69 136.233 116.03 136.233 116.03C136.233 116.03 123.023 81.92 135.813 62.73C148.603 43.54 91.4731 65.29 91.4731 65.29Z" fill="#FFD6D6"/>
<path d="M356.013 571.34C347.273 573.26 335.763 582 335.763 582C335.763 582 313.593 586.69 298.453 584.56C283.313 582.43 285.883 566.01 297.603 561.96C305.733 559.16 314.063 552.25 318.413 548.29C320.333 546.52 321.473 545.29 321.473 545.29L363.903 536.76C363.903 536.76 364.593 539.13 365.553 542.4C367.253 548.17 369.763 556.73 370.723 559.99C372.213 565.16 364.753 569.42 356.013 571.34Z" fill="#505484"/>
<path d="M345.143 538.51C345.143 538.51 327.233 540.43 319.773 536.17C312.313 531.91 301.653 538.73 301.653 538.73C301.653 538.73 270.953 538.09 260.723 534.89C250.493 531.69 262.213 515.89 278.843 517.41C284.903 517.96 289.003 516.63 291.773 514.73C294.667 512.747 296.684 509.723 297.403 506.29L333.403 508.42L338.403 521.18L345.143 538.51Z" fill="#505484"/>
<path opacity="0.1" d="M338.953 527C338.953 527 297.113 520.16 291.773 514.73C294.667 512.747 296.683 509.723 297.403 506.29L333.403 508.42L338.403 521.18L338.953 527Z" fill="black"/>
<path d="M276.923 287.62L277.353 350.07C277.353 350.07 278.843 396.97 278.843 403.37C278.843 409.77 279.053 424.04 279.053 424.04C279.053 424.04 282.253 441.52 284.173 447.28C286.093 453.04 287.583 479.28 287.583 479.28C287.583 479.28 292.063 486.53 290.143 489.28C288.223 492.03 297.603 498.02 297.603 498.02C297.603 498.02 291.603 506.34 291.213 511.88C290.823 517.42 338.953 525.29 338.953 525.29L320.203 333.02L305.273 284.85L276.923 287.62Z" fill="#575988"/>
<path opacity="0.1" d="M276.923 287.62L277.353 350.07C277.353 350.07 278.843 396.97 278.843 403.37C278.843 409.77 279.053 424.04 279.053 424.04C279.053 424.04 282.253 441.52 284.173 447.28C286.093 453.04 287.583 479.28 287.583 479.28C287.583 479.28 292.063 486.53 290.143 489.28C288.223 492.03 297.603 498.02 297.603 498.02C297.603 498.02 291.603 506.34 291.213 511.88C290.823 517.42 338.953 525.29 338.953 525.29L320.203 333.02L305.273 284.85L276.923 287.62Z" fill="black"/>
<path opacity="0.1" d="M365.553 542.45C351.623 575.66 318.493 550.03 318.493 550.03C318.493 550.03 318.493 549.39 318.413 548.29C320.333 546.52 321.473 545.29 321.473 545.29L363.903 536.76C363.903 536.76 364.593 539.18 365.553 542.45Z" fill="black"/>
<path d="M366.033 539.58C352.383 574.58 318.493 548.32 318.493 548.32C318.493 548.32 317.423 530.2 319.563 521.89C321.703 513.58 317.213 488.63 317.213 488.63C317.213 488.63 314.653 466.46 312.313 461.35C309.973 456.24 310.183 446 310.183 445.15C310.183 444.3 311.033 437.47 309.113 432.78C307.193 428.09 306.113 416.58 306.113 416.58C306.113 416.58 306.113 400.38 304.193 390.79L297.583 357.79L285.643 290.21L289.373 289.57L356.203 277.85C356.203 277.85 368.783 341.85 364.513 348.41C363.593 349.85 362.783 353 362.113 357.06C359.673 371.58 358.763 397.65 358.763 397.65C358.763 397.65 367.073 410.65 363.883 419.82C360.693 428.99 366.883 444.12 366.883 444.12C366.883 444.12 368.803 503.81 365.173 509.78C361.543 515.75 366.033 539.58 366.033 539.58Z" fill="#575988"/>
<path d="M359.633 103.23C359.633 103.23 299.093 145.86 312.733 124.54C320.083 113.06 318.733 98.44 315.853 87.4C314.397 81.7848 312.387 76.3281 309.853 71.11C309.853 71.11 361.293 49.23 354.473 68.84C352.875 73.4086 352.195 78.248 352.473 83.08C352.882 90.3436 355.367 97.3372 359.633 103.23V103.23Z" fill="#D28690"/>
<path d="M250.633 200.86C250.633 200.86 225.053 193.47 220.793 200.72C216.533 207.97 222.073 223.88 229.793 226.44C237.513 229 255.233 217.77 255.233 217.77L250.633 200.86Z" fill="#D28690"/>
<path d="M279.913 188.29L269.253 198.1C269.253 198.1 250.703 199.8 245.373 198.52C245.373 198.52 250.283 231.35 243.243 235.4L286.303 226.66L279.913 188.29Z" fill="#585B8A"/>
<path opacity="0.1" d="M279.913 188.29L269.253 198.1C269.253 198.1 250.703 199.8 245.373 198.52C245.373 198.52 250.283 231.35 243.243 235.4L286.303 226.66L279.913 188.29Z" fill="black"/>
<path opacity="0.1" d="M143.053 47.38C143.053 55.8669 139.682 64.0063 133.681 70.0074C127.68 76.0086 119.54 79.38 111.053 79.38C94.6333 71.49 79.0533 65.07 79.0533 47.38C78.883 43.0746 79.584 38.7792 81.1142 34.7513C82.6443 30.7234 84.9722 27.046 87.9581 23.9396C90.9441 20.8332 94.5266 18.3618 98.4909 16.6737C102.455 14.9855 106.72 14.1154 111.028 14.1154C115.337 14.1154 119.601 14.9855 123.566 16.6737C127.53 18.3618 131.113 20.8332 134.099 23.9396C137.084 27.046 139.412 30.7234 140.942 34.7513C142.473 38.7792 143.174 43.0746 143.003 47.38H143.053Z" fill="black"/>
<path d="M143.053 46.52C143.058 54.0457 140.405 61.3314 135.563 67.0922C130.72 72.853 123.999 76.7189 116.585 78.0081C109.17 79.2973 101.539 77.9271 95.0361 74.139C88.5333 70.3509 83.577 64.3882 81.0412 57.3026C78.5054 50.217 78.5529 42.4636 81.1755 35.4097C83.7981 28.3557 88.8273 22.4544 95.3761 18.7464C101.925 15.0383 109.573 13.7618 116.971 15.142C124.369 16.5221 131.042 20.4702 135.813 26.29C140.486 31.9974 143.044 39.1438 143.053 46.52V46.52Z" fill="#FFD6D6"/>
<path opacity="0.1" d="M161.703 242.19C158.537 244.156 155.224 245.875 151.793 247.33C151.793 247.33 135.593 244.98 133.253 247.75C130.913 250.52 110.253 251.59 110.253 251.59C110.253 251.59 78.7031 250.1 74.0131 246.05C72.563 244.876 70.9493 243.919 69.2231 243.21L69.7431 235.11C69.7431 235.11 151.033 229.99 157.573 236.24C159.275 237.976 160.672 239.988 161.703 242.19Z" fill="black"/>
<path d="M165.653 236.46C165.013 240.08 151.793 245.62 151.793 245.62C151.793 245.62 135.593 243.28 133.253 246.05C130.913 248.82 110.253 249.89 110.253 249.89C110.253 249.89 78.7034 248.39 74.0134 244.34C69.3234 240.29 58.8735 238.34 58.8735 238.34C58.8735 238.34 53.5435 200.4 55.6835 192.09C57.8235 183.78 52.4834 160.96 51.2034 152.86C49.9234 144.76 54.8235 122.38 60.7935 118.76C66.7635 115.14 75.2935 102.98 80.4035 99.36C84.7135 96.31 89.4734 92.36 90.8634 91.17L91.2735 90.83C91.2735 90.83 92.1335 84.22 95.5435 80.83C98.9535 77.44 130.283 102.36 130.283 102.36C130.283 102.36 130.503 104.28 132.633 100.66C133.113 99.85 137.243 105.81 137.963 108.33C137.963 108.33 155.013 138.18 156.083 144.33C157.153 150.48 161.623 170.55 162.473 175.45C162.693 176.71 163.053 181.13 163.473 187.05C163.553 188.21 163.623 189.44 163.713 190.72C164.343 200.54 165.023 213.08 165.433 222.56C165.433 223.64 165.523 224.68 165.553 225.68C165.769 229.269 165.803 232.867 165.653 236.46V236.46Z" fill="#DCE6F2"/>
<path opacity="0.1" d="M57.4033 159.5C57.4033 159.5 69.1233 173.78 72.9633 173.78C76.8033 173.78 57.4033 159.5 57.4033 159.5Z" fill="black"/>
<path opacity="0.1" d="M82.0931 190.2C82.0931 190.2 62.9031 211.09 65.4631 214.93C68.0231 218.77 82.0931 190.2 82.0931 190.2Z" fill="black"/>
<path opacity="0.1" d="M68.0229 231.77C68.0229 231.77 90.0229 207.68 91.0229 199.37L68.0229 231.77Z" fill="black"/>
<path opacity="0.1" d="M95.7334 233.47C95.7334 233.47 121.103 220.04 123.233 209.38C125.363 198.72 95.7334 233.47 95.7334 233.47Z" fill="black"/>
<path opacity="0.1" d="M127.923 103.87L124.403 112.39L130.263 115.16L136.023 131.26C136.023 131.26 151.903 163.02 151.263 179.54C150.623 196.06 154.143 220.89 154.143 220.89L163.303 219.19L158.983 170.6C158.311 163.077 156.426 155.712 153.403 148.79C146.083 132.03 132.463 101.09 131.603 101.09C130.433 101.09 131.253 101.52 131.253 101.52L127.923 103.87Z" fill="black"/>
<path d="M128.773 103.01L125.253 111.54L131.123 114.31L136.873 130.41C136.873 130.41 152.753 162.17 152.113 178.69C151.473 195.21 154.993 220.04 154.993 220.04L164.163 218.34L159.833 169.75C159.169 162.227 157.287 154.861 154.263 147.94C146.943 131.17 133.323 100.24 132.473 100.24C131.293 100.24 132.113 100.67 132.113 100.67L128.773 103.01Z" fill="#575989"/>
<path d="M232.583 228.29C228.123 227.95 217.423 222.54 213.173 220.29L211.373 219.29L211.593 202.78C212.644 202.162 213.733 201.611 214.853 201.13C220.533 198.65 232.183 195.28 238.023 206.13C245.903 220.68 238.233 228.67 232.583 228.29Z" fill="#FFD6D6"/>
<path opacity="0.1" d="M135.813 26.29C135.355 26.5769 134.851 26.7833 134.323 26.9C130.613 27.71 126.393 24.52 123.213 26.57C121.273 27.83 120.823 30.44 120.563 32.74C120.11 36.74 119.656 40.7133 119.203 44.6599C119.108 46.065 118.812 47.4491 118.323 48.77C116.753 52.36 112.443 54.05 108.513 53.99C106.974 54.0996 105.453 53.5963 104.283 52.5899C103.593 51.8899 103.223 50.91 102.463 50.27C97.4631 46.08 95.9431 56.35 97.2631 59.27C99.3831 64.04 106.913 68.64 103.753 74.7C103.222 75.6848 102.416 76.4943 101.433 77.0299C96.6711 75.5386 92.3238 72.9543 88.7386 69.4834C85.1534 66.0125 82.4296 61.7512 80.7848 57.04C79.1401 52.3288 78.6199 47.2982 79.2658 42.3501C79.9118 37.402 81.706 32.6736 84.5051 28.5425C87.3042 24.4114 91.0306 20.9922 95.3867 18.558C99.7428 16.1238 104.608 14.7421 109.593 14.5232C114.578 14.3044 119.546 15.2544 124.098 17.2975C128.651 19.3406 132.663 22.4201 135.813 26.29Z" fill="black"/>
<path d="M101.613 50.23C102.363 50.86 102.743 51.84 103.433 52.54C104.604 53.5454 106.124 54.0484 107.663 53.9399C111.593 53.9999 115.903 52.32 117.463 48.71C117.961 47.3947 118.261 46.0131 118.353 44.61L119.713 32.6899C119.973 30.3899 120.413 27.78 122.363 26.52C125.543 24.52 129.763 27.66 133.473 26.85C134.811 26.51 135.969 25.6738 136.711 24.511C137.454 23.3483 137.727 21.9463 137.473 20.59C137.043 18.68 135.583 17.17 134.833 15.35C134.379 13.9515 134.015 12.5252 133.743 11.0799C131.673 3.31995 122.563 -1.04004 114.643 0.259957C110.243 0.989957 106.153 3.08996 101.743 3.72996C98.5834 4.18996 95.3534 3.88996 92.1634 4.22996C89.1997 4.53578 86.3179 5.38674 83.6634 6.73995C82.9666 7.04838 82.3505 7.51385 81.8634 8.09995C81.4105 8.89156 81.1055 9.75905 80.9634 10.66C79.8934 14.66 76.4534 17.61 73.9634 20.98C71.1154 24.8574 69.4674 29.4851 69.2234 34.29C69.1253 35.5171 69.2404 36.752 69.5634 37.9399C69.7734 38.6399 70.1034 39.32 70.2634 40.04C70.7534 42.23 69.6334 44.42 69.0834 46.6C68.4 49.3818 68.6459 52.3109 69.7834 54.9399C73.6234 63.7699 86.2734 66.72 88.9034 75.99C91.2389 77.1097 93.7613 77.7878 96.3434 77.99C98.9234 78.04 101.703 76.93 102.903 74.64C106.053 68.64 98.5334 63.9799 96.4134 59.2199C95.0834 56.2899 96.5734 46.03 101.613 50.23Z" fill="#353045"/>
<path opacity="0.1" d="M354.523 68.84C352.925 73.4086 352.245 78.248 352.523 83.08C350.983 84.39 349.303 80.47 347.523 81.48C342.643 84.3 337.003 91.01 330.963 91.01C325.725 91.0134 320.561 89.7763 315.893 87.4C314.437 81.7848 312.427 76.3281 309.893 71.11C309.893 71.11 361.343 49.23 354.523 68.84Z" fill="black"/>
<path d="M364.183 56.05C364.183 62.6283 362.232 69.0587 358.578 74.5283C354.923 79.9979 349.729 84.2609 343.651 86.7783C337.574 89.2956 330.886 89.9543 324.434 88.671C317.983 87.3876 312.056 84.2199 307.405 79.5684C302.753 74.9169 299.586 68.9906 298.302 62.5388C297.019 56.0869 297.677 49.3995 300.195 43.322C302.712 37.2445 306.975 32.05 312.445 28.3954C317.914 24.7407 324.345 22.79 330.923 22.79C335.291 22.7887 339.617 23.6481 343.653 25.3191C347.689 26.9901 351.356 29.44 354.444 32.5287C357.533 35.6175 359.983 39.2846 361.654 43.3204C363.325 47.3563 364.184 51.6819 364.183 56.05Z" fill="#D28690"/>
<path d="M362.763 110.62C362.763 110.62 356.503 117.44 355.653 118C354.803 118.56 336.653 195 336.333 195.89C336.013 196.78 314.723 265.8 314.723 265.8L280.613 282.57L283.463 198.15L308.463 128.53C308.463 128.53 316.713 119.15 319.263 115.74C321.813 112.33 353.653 91.86 353.653 91.86L359.093 103.07L362.763 110.62Z" fill="#F0F3F7"/>
<path opacity="0.1" d="M358.253 104.78L319.033 132.86L318.403 117.44C320.963 114.03 352.793 93.5701 352.793 93.5701L358.253 104.78Z" fill="black"/>
<path d="M359.103 103.07L319.883 131.15L319.273 115.74C321.833 112.32 353.663 91.86 353.663 91.86L359.103 103.07Z" fill="#F0F3F7"/>
<path d="M317.963 108.88L319.273 115.74L310.503 124.65L317.503 108.98C317.503 108.98 302.503 119.43 298.003 122.2C293.503 124.97 289.003 134.35 288.833 136.91C288.663 139.47 281.583 178.05 281.583 178.05C281.583 178.05 276.253 192.33 277.753 196.38C279.253 200.43 269.653 328.12 269.653 328.12C270.937 325.64 272.751 323.474 274.967 321.775C277.182 320.076 279.745 318.886 282.473 318.29L279.053 242.83C279.053 242.83 283.213 192.63 283.423 191.99C283.633 191.35 293.123 162.25 293.123 162.25L317.963 108.88Z" fill="#585B8A"/>
<path opacity="0.1" d="M320.133 116.59L319.453 130.59C319.453 130.59 309.963 160.54 306.773 165.44C303.583 170.34 293.873 199.55 293.873 199.55L288.403 250.29L279.023 254.56L274.403 246.05L282.083 197.05C282.083 197.05 296.573 155.7 298.713 151.43L309.403 128.91L320.133 116.59Z" fill="black"/>
<path d="M319.273 115.74L318.603 129.74C318.603 129.74 309.113 159.69 305.913 164.59C302.713 169.49 293.023 198.7 293.023 198.7L287.583 249.43L278.203 253.69L273.513 245.17L281.193 196.17C281.193 196.17 295.683 154.81 297.813 150.55L308.583 128.06L319.273 115.74Z" fill="#663D5C"/>
<path d="M208.713 222.6L227.043 235.29C227.043 235.29 239.973 228.04 232.443 223.35C224.913 218.66 218.233 217.95 215.813 217.95C213.393 217.95 208.713 222.6 208.713 222.6Z" fill="#D28690"/>
<path d="M222.403 199.14C221.994 199.395 221.657 199.75 221.424 200.172C221.191 200.594 221.071 201.068 221.073 201.55C221.073 205.44 221.513 215.74 224.773 211.09C228.773 205.4 228.043 200.29 234.153 203.98C237.951 206.345 241.274 209.397 243.953 212.98L242.253 200.76C242.253 200.76 229.693 194.56 222.403 199.14Z" fill="#D28690"/>
<path opacity="0.1" d="M364.533 348.37C363.613 349.81 362.803 352.96 362.133 357.02C324.753 368.23 297.403 344.53 297.403 344.53C294.094 333.317 291.39 321.934 289.303 310.43C288.633 306.49 288.783 298.85 289.403 289.53L356.233 277.81C356.233 277.81 368.803 341.76 364.533 348.37Z" fill="black"/>
<path d="M402.903 157.58C401.203 163.13 401.843 174.42 401.843 174.42L386.493 246.9C386.493 246.9 379.033 302.75 377.753 310.21C376.473 317.67 374.343 350.5 374.343 350.5C330.853 371.82 297.343 342.83 297.343 342.83C294.035 331.613 291.331 320.227 289.243 308.72C287.103 296.06 293.403 245.34 296.383 222.81C297.273 216.14 297.873 211.94 297.873 211.94L309.063 170.37C309.063 170.37 322.813 135.3 327.933 125.07C333.053 114.84 353.613 91.86 353.613 91.86C356.163 90.24 360.243 95.96 363.273 101.17C365.563 105.11 367.273 108.77 367.273 108.77C367.273 108.77 392.853 119.85 396.683 125.77C400.513 131.69 399.883 143.89 400.313 144.53C400.743 145.17 404.613 152.04 402.903 157.58Z" fill="#585B8A"/>
<path opacity="0.1" d="M342.583 131.79C342.583 131.79 344.503 143.09 339.583 146.5C334.833 149.8 299.473 219.33 297.273 223.67C298.163 216.99 298.763 212.79 298.763 212.79L309.953 171.23C309.953 171.23 323.713 136.16 328.823 125.92C333.933 115.68 354.513 92.7099 354.513 92.7099C357.063 91.0899 361.133 96.8099 364.163 102.02C359.593 111.51 350.063 129.45 342.583 131.79Z" fill="black"/>
<path d="M341.733 130.94C341.733 130.94 343.643 142.24 338.733 145.65C333.823 149.06 298.633 218.47 296.403 222.81C297.293 216.14 297.893 211.94 297.893 211.94L309.083 170.37C309.083 170.37 322.833 135.3 327.953 125.07C333.073 114.84 353.633 91.86 353.633 91.86C356.183 90.24 360.263 95.96 363.293 101.17C358.743 110.65 349.203 128.6 341.733 130.94Z" fill="#585B8A"/>
<path d="M392.463 233.05L380.433 295.64V295.65L379.283 301.64V301.65L376.693 315.12L365.643 312.78L360.493 311.69L289.223 296.59L283.983 295.48L272.023 292.95L274.363 277.41L275.333 270.95L283.963 213.65L392.463 233.05Z" fill="#6C63FF"/>
<path d="M325.953 284.21C325.953 284.21 297.603 294.44 303.783 306.59C309.963 318.74 349.613 297.21 349.613 297.21L325.953 284.21Z" fill="#D28690"/>
<path opacity="0.1" d="M346.203 371.39C346.203 372.24 347.273 383.12 351.533 386.95C355.793 390.78 346.203 371.39 346.203 371.39Z" fill="black"/>
<path opacity="0.1" d="M317.643 409.97C317.643 409.97 322.753 424.04 343.003 429.8C363.253 435.56 317.643 409.97 317.643 409.97Z" fill="black"/>
<path opacity="0.1" d="M364.183 56.05C364.185 61.8968 362.645 67.6408 359.718 72.7024C356.791 77.764 352.581 81.9644 347.513 84.88C345.603 83.8111 343.908 82.3972 342.513 80.71C341.063 78.95 339.933 76.55 340.803 74.45C341.503 72.76 343.353 71.6899 343.803 69.9399C344.015 68.8698 343.96 67.7638 343.643 66.7199C343.273 65.0699 342.923 63.4199 342.563 61.7799C342.253 60.3799 341.703 58.73 340.313 58.39C338.923 58.05 337.763 59.21 336.673 60.07C334.003 62.18 328.883 63.61 325.673 61.88C322.463 60.15 323.363 54.36 322.843 51.23C322.837 50.958 322.771 50.6909 322.65 50.4472C322.529 50.2036 322.356 49.9895 322.143 49.82C321.676 49.6649 321.177 49.6305 320.693 49.7199C318.963 49.7199 317.573 48.17 317.073 46.51C316.719 44.8153 316.525 43.091 316.493 41.36C316.303 39.63 315.673 37.8 314.193 36.91C313.011 36.3596 311.7 36.1451 310.403 36.29L304.133 36.36C308.293 30.7365 314.119 26.5676 320.784 24.4458C327.449 22.3241 334.613 22.3576 341.258 24.5415C347.903 26.7254 353.69 30.9487 357.797 36.6107C361.904 42.2728 364.121 49.0854 364.133 56.08L364.183 56.05Z" fill="black"/>
<path d="M337.563 60.07C338.653 59.21 339.853 58.07 341.203 58.4C342.553 58.73 343.133 60.4 343.443 61.78L344.523 66.71C344.843 67.7566 344.901 68.8656 344.693 69.94C344.183 71.7 342.343 72.76 341.633 74.45C340.763 76.55 341.903 78.95 343.343 80.7C345.97 83.8655 349.601 86.0359 353.633 86.85C354.686 87.1029 355.781 87.1268 356.843 86.92C359.223 86.37 360.843 84.18 362.123 82.13C368.733 71.83 374.423 60.54 375.583 48.36C375.901 45.8757 375.786 43.355 375.243 40.91C374.701 39.0096 373.936 37.1802 372.963 35.46C371.261 31.9457 369.099 28.6737 366.533 25.73C361.983 20.83 355.703 17.82 349.253 16.04C341.998 14.0269 334.423 13.4327 326.943 14.29C324.943 14.52 323.023 14.85 321.053 14.98C318.58 15.095 316.102 15.0549 313.633 14.86L298.913 13.98C298.073 15.69 298.913 17.72 299.913 19.32C300.913 20.92 302.153 22.58 302.073 24.48C301.993 26.38 300.643 27.88 299.603 29.48C298.563 31.08 297.773 33.15 298.813 34.71C299.853 36.27 301.973 36.37 303.813 36.35L311.233 36.27C312.526 36.1371 313.83 36.362 315.003 36.92C316.483 37.81 317.113 39.65 317.303 41.37C317.345 43.1004 317.539 44.8237 317.883 46.52C318.393 48.18 319.773 49.75 321.503 49.73C321.988 49.6334 322.489 49.6714 322.953 49.84C323.166 50.0075 323.339 50.2199 323.46 50.4618C323.581 50.7038 323.647 50.9695 323.653 51.24C324.173 54.37 323.213 60.15 326.483 61.89C329.753 63.63 334.893 62.18 337.563 60.07Z" fill="#663D5C"/>
<path opacity="0.1" d="M379.833 125.76C376.157 125.369 372.456 126.241 369.34 128.23C366.223 130.22 363.876 133.21 362.683 136.71C358.683 148.1 352.013 168.65 353.683 176.77C356.033 188.28 358.803 207.47 358.803 207.47C358.803 207.47 370.953 214.47 364.803 221.53C358.653 228.59 356.913 238.59 356.913 238.59C356.913 238.59 349.023 242 347.323 249.25C345.623 256.5 334.103 266.51 334.103 266.51L316.843 283.78C316.843 283.78 345.403 312.78 351.163 314.26L368.853 293.58L389.743 265.87L407.863 246.87C407.863 246.87 412.123 236.87 409.993 217.87C407.863 198.87 399.543 180.78 399.543 180.78L400.183 174.38C400.183 174.38 402.143 128.53 379.833 125.76Z" fill="black"/>
<path d="M381.533 125.76C377.86 125.374 374.164 126.248 371.052 128.237C367.94 130.227 365.595 133.214 364.403 136.71C360.403 148.1 353.733 168.65 355.403 176.77C357.743 188.28 360.513 207.47 360.513 207.47C360.513 207.47 372.663 214.47 366.513 221.53C360.363 228.59 358.633 238.59 358.633 238.59C358.633 238.59 350.743 242 349.033 249.25C347.323 256.5 335.823 266.51 335.823 266.51L318.553 283.78C318.553 283.78 347.113 312.78 352.873 314.26L370.563 293.58L391.403 265.87L409.523 246.87C409.523 246.87 413.793 236.87 411.653 217.87C409.513 198.87 401.213 180.78 401.213 180.78L401.853 174.38C401.853 174.38 403.843 128.53 381.533 125.76Z" fill="#585B8A"/>
<path opacity="0.1" d="M363.683 190.63C363.683 190.63 381.803 212.79 389.483 207.89C397.163 202.99 363.683 190.63 363.683 190.63Z" fill="black"/>
<path opacity="0.1" d="M370.503 173.57C372.423 174.21 388.203 196.17 396.303 193.57C404.403 190.97 370.503 173.57 370.503 173.57Z" fill="black"/>
<path opacity="0.1" d="M374.983 211.29C374.983 211.29 376.053 223.87 389.053 222.16C402.053 220.45 374.983 211.29 374.983 211.29Z" fill="black"/>
<path opacity="0.1" d="M317.533 109.83L310.503 125.5L319.283 116.59L317.533 109.83Z" fill="black"/>
<path d="M317.533 108.98L310.503 124.65L319.283 115.74L317.533 108.98Z" fill="#F0F3F7"/>
<path opacity="0.3" d="M289.223 296.59L283.983 295.48L274.363 277.41L275.333 270.95L289.223 296.59Z" fill="black"/>
<path opacity="0.3" d="M380.433 295.65L379.283 301.64V301.65L365.643 312.78L360.493 311.69L380.433 295.65Z" fill="black"/>
<path opacity="0.1" d="M165.523 225.72C162.883 226.16 160.323 226.56 157.983 226.86C144.983 228.57 114.063 213.22 114.063 213.22C114.063 213.22 76.333 181.67 65.463 151.83C54.593 121.99 78.463 117.51 78.463 117.51C87.463 112.39 107.033 126.67 109.803 129.02C112.573 131.37 114.923 137.33 114.703 141.17C114.483 145.01 121.103 149.91 121.103 149.91C121.103 149.91 132.403 169.52 135.173 171.65C137.943 173.78 138.583 175.7 139.433 179.33C140.283 182.96 147.743 185.94 150.943 185.72C154.143 185.5 157.943 186.79 157.943 188.49C157.943 189.86 161.073 190.54 163.643 190.76C164.403 201.69 165.153 216.01 165.523 225.72Z" fill="black"/>
<path opacity="0.1" d="M165.403 222.6C163.403 222.92 161.483 223.21 159.683 223.45C146.683 225.16 115.773 209.81 115.773 209.81C115.773 209.81 78.043 178.26 67.173 148.42C56.303 118.58 80.173 114.1 80.173 114.1C89.173 108.98 108.733 123.26 111.503 125.61C114.273 127.96 116.623 133.92 116.413 137.76C116.203 141.6 122.803 146.5 122.803 146.5C122.803 146.5 134.103 166.11 136.873 168.24C139.643 170.37 140.283 172.29 141.143 175.92C142.003 179.55 149.453 182.52 152.653 182.31C155.853 182.1 159.653 183.38 159.653 185.08C159.653 186.08 161.433 186.75 163.413 187.08C163.493 188.24 163.563 189.47 163.653 190.75C164.313 200.58 164.993 213.12 165.403 222.6Z" fill="black"/>
<path opacity="0.1" d="M214.853 201.13L214.043 220.29H213.173L211.373 219.29L211.593 202.78C212.644 202.162 213.733 201.611 214.853 201.13V201.13Z" fill="black"/>
<path d="M78.463 115.8C78.463 115.8 54.593 120.28 65.463 150.12C76.333 179.96 114.063 211.52 114.063 211.52C114.063 211.52 144.973 226.86 157.983 225.16C170.993 223.46 190.803 218.98 193.363 219.62C195.923 220.26 213.193 220.26 213.193 220.26L214.043 200.26L194.043 199.19L183.813 197.06C183.813 197.06 180.183 194.06 178.053 194.5C175.923 194.94 171.453 191.94 171.453 191.94C171.453 191.94 168.033 189.17 165.453 189.17C162.873 189.17 157.993 188.53 157.993 186.83C157.993 185.13 154.153 183.83 150.993 184.06C147.833 184.29 140.283 181.29 139.403 177.62C138.523 173.95 137.913 172.08 135.143 169.95C132.373 167.82 121.073 148.2 121.073 148.2C121.073 148.2 114.463 143.3 114.673 139.47C114.883 135.64 112.543 129.66 109.773 127.31C107.003 124.96 87.403 110.69 78.463 115.8Z" fill="#DCE6F2"/>
<path opacity="0.1" d="M139.863 184.44C139.863 184.44 130.693 193.61 133.033 195.31L139.863 184.44Z" fill="black"/>
<path opacity="0.1" d="M149.663 191.69C149.663 191.69 137.723 200.86 140.923 201.5C144.123 202.14 149.663 191.69 149.663 191.69Z" fill="black"/>
<path opacity="0.1" d="M129.403 205.29C131.113 206.15 156.473 221.29 166.073 221.07L129.403 205.29Z" fill="black"/>
<path opacity="0.1" d="M131.123 104.08C131.123 104.08 126.643 118.79 124.933 118.79C123.593 118.79 101.093 100.57 91.7031 92.91L92.1131 92.57C92.1131 92.57 92.9631 85.96 96.3731 82.57C99.7831 79.18 131.123 104.08 131.123 104.08Z" fill="black"/>
<path d="M130.263 102.37C130.263 102.37 125.793 117.08 124.083 117.08C122.733 117.08 100.233 98.86 90.8433 91.2L91.2533 90.86C91.2533 90.86 92.1133 84.25 95.5233 80.86C98.9333 77.47 130.263 102.37 130.263 102.37Z" fill="#DCE6F2"/>
<g opacity="0.15">
<path opacity="0.15" d="M69.8931 54.83C72.8931 61.68 81.1531 65 85.9431 70.46C83.0931 63.75 74.7631 60.46 69.8931 54.83Z" fill="black"/>
<path opacity="0.15" d="M100.463 70.61C99.2732 72.9 96.4632 74.01 93.9032 73.96C91.6273 73.7967 89.3989 73.2277 87.3232 72.2799C88.0762 73.39 88.6499 74.6116 89.0232 75.8999C91.3579 77.0219 93.8807 77.7001 96.4632 77.8999C99.0532 77.9599 101.833 76.85 103.023 74.55C104.933 70.9 102.943 67.78 100.613 64.83C101.047 65.7365 101.26 66.7332 101.234 67.738C101.208 68.7429 100.944 69.7272 100.463 70.61V70.61Z" fill="black"/>
<path opacity="0.15" d="M137.573 20.49C137.143 18.57 135.683 17.06 134.933 15.25C134.474 13.8495 134.11 12.4196 133.843 10.97C133.275 8.92023 132.222 7.03726 130.773 5.47998C130.974 5.97219 131.145 6.47651 131.283 6.98997C131.563 8.44595 131.938 9.88229 132.403 11.29C133.153 13.1 134.613 14.61 135.043 16.53C135.297 17.8863 135.024 19.2883 134.281 20.451C133.538 21.6138 132.381 22.4501 131.043 22.79C127.343 23.6 123.123 20.4 119.943 22.46C117.993 23.71 117.543 26.32 117.283 28.62C116.837 32.62 116.383 36.5967 115.923 40.55C115.833 41.9525 115.536 43.334 115.043 44.65C113.473 48.25 109.163 49.94 105.233 49.88C103.698 49.9825 102.183 49.48 101.013 48.48C100.445 47.6748 99.8338 46.9004 99.1832 46.16C94.1832 41.96 92.6632 52.23 93.9832 55.16C94.6442 56.478 95.4635 57.7105 96.4232 58.83C95.3232 55.53 96.8632 46.03 101.743 50.1C102.394 50.838 103.001 51.6126 103.563 52.42C104.738 53.4188 106.255 53.9209 107.793 53.82C111.723 53.88 116.033 52.19 117.603 48.59C118.097 47.2708 118.394 45.8858 118.483 44.48C118.937 40.48 119.39 36.5066 119.843 32.56C120.103 30.26 120.553 27.65 122.493 26.4C125.683 24.34 129.903 27.54 133.603 26.72C134.93 26.376 136.077 25.5421 136.814 24.3861C137.551 23.2301 137.822 21.838 137.573 20.49V20.49Z" fill="black"/>
</g>
<path opacity="0.1" d="M358.973 84.37C357.909 84.5683 356.816 84.5411 355.763 84.29C351.736 83.4765 348.109 81.3098 345.483 78.15C344.033 76.39 342.893 73.99 343.773 71.89C344.473 70.2 346.313 69.14 346.773 67.38C346.981 66.3056 346.923 65.1966 346.603 64.15L345.523 59.22C345.213 57.82 344.673 56.17 343.283 55.84C341.893 55.51 340.733 56.65 339.643 57.51C336.973 59.62 331.843 61.06 328.643 59.32C325.443 57.58 326.333 51.8 325.813 48.67C325.805 48.3999 325.738 48.1349 325.617 47.8932C325.496 47.6516 325.324 47.4389 325.113 47.27C324.644 47.1068 324.141 47.0689 323.653 47.16C321.923 47.16 320.543 45.61 320.033 43.95C319.687 42.2543 319.496 40.5305 319.463 38.8C319.263 37.08 318.643 35.24 317.153 34.35C315.978 33.7969 314.675 33.5722 313.383 33.7L305.963 33.78C304.133 33.78 301.963 33.66 300.963 32.14C299.963 30.62 300.703 28.46 301.753 26.91C302.803 25.36 304.133 23.82 304.223 21.91C304.313 20 303.073 18.35 302.063 16.75C301.484 15.875 301.058 14.9079 300.803 13.89L298.673 13.76C297.843 15.46 298.673 17.49 299.673 19.1C300.673 20.71 301.923 22.36 301.833 24.25C301.743 26.14 300.413 27.66 299.363 29.25C298.313 30.84 297.543 32.92 298.583 34.48C299.623 36.04 301.733 36.15 303.583 36.13L311.003 36.04C312.296 35.9149 313.599 36.143 314.773 36.7C316.263 37.59 316.893 39.43 317.083 41.15C317.115 42.881 317.309 44.6053 317.663 46.3C318.163 47.95 319.553 49.53 321.283 49.5C321.768 49.4142 322.267 49.4521 322.733 49.61C322.945 49.7805 323.117 49.9948 323.238 50.2382C323.359 50.4816 323.425 50.7484 323.433 51.02C323.953 54.14 322.993 59.93 326.263 61.67C329.533 63.41 334.633 61.97 337.263 59.86C338.353 59 339.563 57.86 340.913 58.18C342.263 58.5 342.843 60.18 343.143 61.56L344.233 66.5C344.55 67.5474 344.605 68.6565 344.393 69.73C343.893 71.48 342.043 72.55 341.343 74.23C340.473 76.33 341.603 78.74 343.053 80.49C345.697 83.6635 349.351 85.8314 353.403 86.63C354.456 86.8811 355.549 86.9083 356.613 86.71C358.332 86.1861 359.807 85.0654 360.773 83.55C360.227 83.9287 359.617 84.2064 358.973 84.37Z" fill="black"/>
<path fill-rule="evenodd" clip-rule="evenodd" d="M231.5 125L213 132.057V137.475V140.639V151.768C213 159.403 221.202 164.931 229.226 170.339C229.979 170.846 230.73 171.353 231.473 171.86C232.215 171.353 232.967 170.846 233.72 170.339C241.743 164.931 249.945 159.403 249.945 151.768V140.639H250V132.057L231.5 125Z" fill="#EAF2FA"/>
<path d="M241.176 141.061C240.511 139.833 236.337 135.72 231.5 141.675C226.419 135.72 222.487 139.833 221.823 141.061C220.613 143.333 221.339 146.771 223.033 148.429L231.501 157.025L239.969 148.429C241.661 146.771 242.386 143.334 241.176 141.061H241.176Z" fill="#3341C0"/>
</svg>
