<svg width="613" height="586" viewBox="0 0 613 586" fill="none" xmlns="http://www.w3.org/2000/svg">
<path d="M475 171.5C357 145 280.5 61.0002 116 80.0001C-48.4997 99 -13.9999 372.5 75.4999 418C165 463.5 439 513.5 547.5 448.5C656 383.5 593 198 475 171.5Z" fill="#3341C0"/>
<path opacity="0.1" d="M599.562 453.202C606.745 418.052 518.798 370.395 403.127 346.756C287.456 323.117 187.863 332.449 180.679 367.599C173.496 402.749 261.443 450.406 377.114 474.045C492.785 497.684 592.378 488.352 599.562 453.202Z" fill="#6C63FF"/>
<path d="M365.97 227.978C365.97 227.978 377.34 172.168 420.75 177.338C420.75 177.338 450.75 179.398 456.92 199.038V242.448L365.97 227.978Z" fill="#3A3768"/>
<path d="M603.7 248.658L217.13 216.608L167.52 226.948L170.62 296.198L174 296.608L177.85 400.598L557.18 468.808L597.5 434.698V321.968L602.66 318.938L603.7 248.658Z" fill="#D48A9B"/>
<path opacity="0.05" d="M604.22 248.658L603.18 318.938L561.32 338.578L560.8 265.188L604.22 248.658Z" fill="black"/>
<path opacity="0.05" d="M597.5 322.038L598.01 432.638L557.7 466.748L560.29 338.578L597.5 322.038Z" fill="black"/>
<path opacity="0.05" d="M174.52 300.748L560.6 347.858L560.8 338.918L174.23 297.228L174.52 300.748Z" fill="black"/>
<path opacity="0.05" d="M597.5 326.098V322.038L559.25 338.918V347.878L597.5 326.098Z" fill="black"/>
<path d="M167 226.948L216.61 216.608L603.18 248.658L559.77 265.188L167 226.948Z" fill="#EFC6CD"/>
<path opacity="0.1" d="M562 250.648L580.97 251.888L549.53 261.298L533.52 260.148L562 250.648Z" fill="black"/>
<path d="M562 249.818L580.97 251.058L549.53 260.478L533.52 259.318L562 249.818Z" fill="white"/>
<path d="M559.73 251.948C560.48 251.628 561.27 252.238 562.07 252.388C562.53 252.478 563 252.388 563.46 252.478C564.39 252.598 565.31 253.218 566.2 252.908" fill="#D3DAE1"/>
<path d="M558.75 252.518C559.49 252.198 560.29 252.798 561.09 252.958C561.55 253.038 562.02 252.958 562.48 253.038C563.41 253.168 564.33 253.788 565.22 253.478" fill="#D3DAE1"/>
<path d="M556.49 253.658C557.24 253.338 558.04 253.938 558.84 254.088C559.29 254.178 559.77 254.088 560.22 254.178C561.16 254.308 562.08 254.928 562.96 254.608" fill="#D3DAE1"/>
<path opacity="0.1" d="M480 241.308L498.97 242.558L467.53 251.968L451.52 250.808L480 241.308Z" fill="black"/>
<path d="M480 240.488L498.97 241.728L467.53 251.138L451.52 249.988L480 240.488Z" fill="white"/>
<path d="M477.73 242.618C478.48 242.298 479.27 242.898 480.07 243.058C480.53 243.138 481 243.058 481.46 243.138C482.39 243.268 483.31 243.888 484.2 243.578" fill="#D3DAE1"/>
<path d="M582.23 208.09C582.97 207.77 583.77 208.37 584.57 208.52C585.03 208.61 585.5 208.52 585.96 208.61C586.89 208.74 587.81 209.36 588.7 209.04" fill="#D3DAE1"/>
<path d="M579.97 209.22C580.72 208.9 581.52 209.51 582.32 209.66C582.77 209.75 583.25 209.66 583.7 209.75C584.64 209.87 585.56 210.5 586.44 210.18" fill="#D3DAE1"/>
<path opacity="0.1" d="M519.33 245.978L538.31 247.218L506.87 256.638L490.85 255.478L519.33 245.978Z" fill="black"/>
<path d="M519.33 245.158L538.31 246.398L506.87 255.808L490.85 254.648L519.33 245.158Z" fill="white"/>
<path d="M517.06 247.288C517.81 246.968 518.61 247.568 519.41 247.718C519.86 247.808 520.33 247.718 520.79 247.808C521.72 247.928 522.65 248.558 523.53 248.238" fill="#D3DAE1"/>
<path d="M516.08 247.848C516.83 247.528 517.63 248.138 518.43 248.288C518.88 248.378 519.35 248.288 519.81 248.378C520.74 248.498 521.67 249.128 522.55 248.808" fill="#D3DAE1"/>
<path d="M513.83 248.988C514.57 248.668 515.37 249.268 516.17 249.428C516.63 249.508 517.1 249.428 517.56 249.508C518.49 249.638 519.41 250.258 520.3 249.948" fill="#D3DAE1"/>
<path d="M238.83 218.87C238.83 218.87 236.38 235.18 243.73 235.39C251.08 235.6 255.99 222.81 255.99 222.81L252.99 212.58L238.83 218.87Z" fill="#585B8A"/>
<path opacity="0.2" d="M238.83 218.87C238.83 218.87 236.38 235.18 243.73 235.39C251.08 235.6 255.99 222.81 255.99 222.81L252.99 212.58L238.83 218.87Z" fill="black"/>
<path d="M74.2 571.91C61.12 572.48 44.06 557.7 44.06 557.7L43.21 542.35C43.21 542.35 42.08 542.92 39.8 539.51C38.27 537.22 40.47 527.73 42.08 521.76C42.86 518.84 43.5 516.76 43.5 516.76L72.2 524.44L73.57 528.07L84.71 557.69C84.71 557.69 87.27 571.34 74.2 571.91Z" fill="#636992"/>
<path d="M206.07 528.43C206.07 528.43 172.82 541.22 162.07 531.27C151.32 521.32 143.31 524.16 143.31 524.16C143.31 524.16 124.55 524.45 120.85 523.02C118.67 522.19 119.85 515.08 121.21 509.42C122.13 505.51 123.13 502.28 123.13 502.28C123.13 502.28 155.81 491.19 160.93 498.01C162.468 500.014 164.306 501.768 166.38 503.21C172.3 507.49 181.55 511.37 196.18 517.34C216.3 525.58 206.07 528.43 206.07 528.43Z" fill="#636992"/>
<path d="M176.23 268.64L185.32 286.83C185.32 286.83 198.4 305.31 183.05 312.41C167.7 319.51 167.99 271.49 167.99 271.49L176.23 268.64Z" fill="#FFD6D6"/>
<path d="M138.14 110.9C138.14 110.9 148.09 115.45 154.06 134.49C160.03 153.53 167.99 185.94 167.99 185.94C167.99 185.94 173.39 222.6 172.53 231.7C171.983 236.712 172.08 241.773 172.82 246.76L180.49 272.34L165.14 277.74L141.55 187.36L138.14 110.9Z" fill="#DCE6F2"/>
<path opacity="0.05" d="M138.14 110.9C138.14 110.9 148.09 115.45 154.06 134.49C160.03 153.53 167.99 185.94 167.99 185.94C167.99 185.94 173.39 222.6 172.53 231.7C171.983 236.712 172.08 241.773 172.82 246.76L180.49 272.34L165.14 277.74L141.55 187.36L138.14 110.9Z" fill="black"/>
<path opacity="0.1" d="M72.1998 524.45L73.5698 528.08L71.8898 531.29C65.3498 534.13 49.1498 531.86 49.1498 531.86C49.1498 531.86 46.1498 528.05 42.0498 521.78C42.8298 518.86 43.4698 516.78 43.4698 516.78L72.1998 524.45Z" fill="black"/>
<path opacity="0.1" d="M167.42 504.55C159.13 523.33 130.95 516.36 123.12 514.01C121.83 513.62 121.12 513.36 121.12 513.36C121.12 513.36 121.17 511.83 121.19 509.42C122.11 505.51 123.11 502.28 123.11 502.28C123.11 502.28 155.79 491.19 160.91 498.01C162.448 500.014 164.286 501.768 166.36 503.21C166.673 503.687 167.028 504.136 167.42 504.55V504.55Z" fill="black"/>
<path d="M165.99 480.68C159.17 494.88 167.42 502.85 167.42 502.85C159.13 521.62 130.95 514.66 123.12 512.3C121.83 511.92 121.12 511.66 121.12 511.66C121.12 511.66 121.69 492.04 119.7 482.66C117.71 473.28 117.99 433.78 119.13 428.95C120.27 424.12 120.83 414.73 120.83 414.73C120.83 414.73 119.98 403.65 121.4 398.25C121.827 396.791 121.856 395.245 121.483 393.771C121.11 392.297 120.349 390.95 119.28 389.87L119.13 389.72C119.13 389.72 112.88 411.04 110.6 414.72C108.32 418.4 107.48 436.89 107.19 440.3C106.9 443.71 95.2498 472.14 95.2498 472.14C95.2498 472.14 90.7098 485.21 89.8598 488.9C89.0098 492.59 85.5898 503.12 85.5898 503.12L71.8898 529.56C65.3498 532.4 49.1498 530.13 49.1498 530.13C49.1498 530.13 46.0298 526.13 41.7598 519.61C37.4898 513.09 35.5098 490.06 35.5098 490.06C35.5098 490.06 51.1398 489.77 47.1598 474.71C43.1798 459.65 50.5698 447.99 50.2898 442.87C50.0098 437.75 53.6998 420.99 55.6898 418.43C57.6798 415.87 57.3898 405.07 56.8198 399.1C56.2498 393.13 56.5398 372.1 56.5398 372.1C56.5398 372.1 57.1098 362.72 59.9498 358.46C62.7898 354.2 61.6598 341.97 61.6598 341.97C61.6598 341.97 67.0498 339.13 63.3598 311.56C59.6698 283.99 69.3598 248.18 69.3598 248.18L69.6898 243.18L70.2098 235.08C70.2098 235.08 151.5 229.96 158.04 236.21C159.749 237.945 161.152 239.957 162.19 242.16C164.427 246.97 166.008 252.059 166.89 257.29L170.3 343.41L173.71 406.79L172.57 454.54C172.57 454.54 172.82 466.46 165.99 480.68Z" fill="#565988"/>
<path opacity="0.1" d="M141.89 310.71L133.36 495.45L123.12 512.29C121.83 511.91 121.12 511.65 121.12 511.65C121.12 511.65 121.69 492.03 119.7 482.65C117.71 473.27 117.99 433.77 119.13 428.94C120.27 424.11 120.83 414.72 120.83 414.72C120.83 414.72 119.98 403.64 121.4 398.24C121.827 396.781 121.856 395.234 121.483 393.761C121.11 392.287 120.35 390.94 119.28 389.86L119.42 388.86L141.89 310.71Z" fill="black"/>
<path opacity="0.1" d="M50.0302 509.1C50.0302 509.1 72.2002 500.29 75.6102 503.1C79.0202 505.91 49.4702 510.2 49.4702 510.2L50.0302 509.1Z" fill="black"/>
<path opacity="0.1" d="M159.46 485.79C158.61 486.08 137.01 493.79 139 501.99C140.99 510.19 159.46 485.79 159.46 485.79Z" fill="black"/>
<path d="M91.96 65.29C91.96 65.29 99.2 82.77 95.37 91.73C91.54 100.69 136.72 116.03 136.72 116.03C136.72 116.03 123.51 81.92 136.3 62.73C149.09 43.54 91.96 65.29 91.96 65.29Z" fill="#FFD6D6"/>
<path d="M356.5 571.34C347.76 573.26 336.25 582 336.25 582C336.25 582 314.08 586.69 298.94 584.56C283.8 582.43 286.37 566.01 298.09 561.96C306.22 559.16 314.55 552.25 318.9 548.29C320.82 546.52 321.96 545.29 321.96 545.29L364.39 536.76C364.39 536.76 365.08 539.13 366.04 542.4C367.74 548.17 370.25 556.73 371.21 559.99C372.7 565.16 365.24 569.42 356.5 571.34Z" fill="#505484"/>
<path d="M345.63 538.51C345.63 538.51 327.72 540.43 320.26 536.17C312.8 531.91 302.14 538.73 302.14 538.73C302.14 538.73 271.44 538.09 261.21 534.89C250.98 531.69 262.7 515.89 279.33 517.41C285.39 517.96 289.49 516.63 292.26 514.73C295.154 512.747 297.17 509.723 297.89 506.29L333.89 508.42L338.89 521.18L345.63 538.51Z" fill="#505484"/>
<path opacity="0.1" d="M339.44 527C339.44 527 297.6 520.16 292.26 514.73C295.154 512.747 297.17 509.723 297.89 506.29L333.89 508.42L338.89 521.18L339.44 527Z" fill="black"/>
<path d="M277.41 287.62L277.84 350.07C277.84 350.07 279.33 396.97 279.33 403.37C279.33 409.77 279.54 424.04 279.54 424.04C279.54 424.04 282.74 441.52 284.66 447.28C286.58 453.04 288.07 479.28 288.07 479.28C288.07 479.28 292.55 486.53 290.63 489.28C288.71 492.03 298.09 498.02 298.09 498.02C298.09 498.02 292.09 506.34 291.7 511.88C291.31 517.42 339.44 525.29 339.44 525.29L320.69 333.02L305.76 284.85L277.41 287.62Z" fill="#575988"/>
<path opacity="0.1" d="M277.41 287.62L277.84 350.07C277.84 350.07 279.33 396.97 279.33 403.37C279.33 409.77 279.54 424.04 279.54 424.04C279.54 424.04 282.74 441.52 284.66 447.28C286.58 453.04 288.07 479.28 288.07 479.28C288.07 479.28 292.55 486.53 290.63 489.28C288.71 492.03 298.09 498.02 298.09 498.02C298.09 498.02 292.09 506.34 291.7 511.88C291.31 517.42 339.44 525.29 339.44 525.29L320.69 333.02L305.76 284.85L277.41 287.62Z" fill="black"/>
<path opacity="0.1" d="M366.04 542.45C352.11 575.66 318.98 550.03 318.98 550.03C318.98 550.03 318.98 549.39 318.9 548.29C320.82 546.52 321.96 545.29 321.96 545.29L364.39 536.76C364.39 536.76 365.08 539.18 366.04 542.45Z" fill="black"/>
<path d="M366.52 539.58C352.87 574.58 318.98 548.32 318.98 548.32C318.98 548.32 317.91 530.2 320.05 521.89C322.19 513.58 317.7 488.63 317.7 488.63C317.7 488.63 315.14 466.46 312.8 461.35C310.46 456.24 310.67 446 310.67 445.15C310.67 444.3 311.52 437.47 309.6 432.78C307.68 428.09 306.6 416.58 306.6 416.58C306.6 416.58 306.6 400.38 304.68 390.79L298.07 357.79L286.13 290.21L289.86 289.57L356.69 277.85C356.69 277.85 369.27 341.85 365 348.41C364.08 349.85 363.27 353 362.6 357.06C360.16 371.58 359.25 397.65 359.25 397.65C359.25 397.65 367.56 410.65 364.37 419.82C361.18 428.99 367.37 444.12 367.37 444.12C367.37 444.12 369.29 503.81 365.66 509.78C362.03 515.75 366.52 539.58 366.52 539.58Z" fill="#575988"/>
<path d="M360.12 103.23C360.12 103.23 299.58 145.86 313.22 124.54C320.57 113.06 319.22 98.44 316.34 87.4C314.884 81.7848 312.874 76.3281 310.34 71.11C310.34 71.11 361.78 49.23 354.96 68.84C353.362 73.4086 352.682 78.248 352.96 83.08C353.369 90.3436 355.854 97.3372 360.12 103.23V103.23Z" fill="#D28690"/>
<path d="M251.12 200.86C251.12 200.86 225.54 193.47 221.28 200.72C217.02 207.97 222.56 223.88 230.28 226.44C238 229 255.72 217.77 255.72 217.77L251.12 200.86Z" fill="#D28690"/>
<path d="M280.4 188.29L269.74 198.1C269.74 198.1 251.19 199.8 245.86 198.52C245.86 198.52 250.77 231.35 243.73 235.4L286.79 226.66L280.4 188.29Z" fill="#585B8A"/>
<path opacity="0.1" d="M280.4 188.29L269.74 198.1C269.74 198.1 251.19 199.8 245.86 198.52C245.86 198.52 250.77 231.35 243.73 235.4L286.79 226.66L280.4 188.29Z" fill="black"/>
<path opacity="0.1" d="M143.54 47.38C143.54 55.8669 140.169 64.0063 134.168 70.0074C128.166 76.0086 120.027 79.38 111.54 79.38C95.1201 71.49 79.5401 65.07 79.5401 47.38C79.3699 43.0746 80.0708 38.7792 81.601 34.7513C83.1312 30.7234 85.459 27.046 88.4449 23.9396C91.4309 20.8332 95.0134 18.3618 98.9777 16.6737C102.942 14.9855 107.206 14.1154 111.515 14.1154C115.824 14.1154 120.088 14.9855 124.053 16.6737C128.017 18.3618 131.599 20.8332 134.585 23.9396C137.571 27.046 139.899 30.7234 141.429 34.7513C142.959 38.7792 143.66 43.0746 143.49 47.38H143.54Z" fill="black"/>
<path d="M143.54 46.52C143.545 54.0457 140.892 61.3314 136.05 67.0922C131.207 72.853 124.486 76.7189 117.072 78.0081C109.657 79.2973 102.026 77.9271 95.523 74.139C89.0202 70.3509 84.0638 64.3882 81.528 57.3026C78.9922 50.217 79.0397 42.4636 81.6623 35.4097C84.2849 28.3557 89.3141 22.4544 95.8629 18.7464C102.412 15.0383 110.059 13.7618 117.458 15.142C124.856 16.5221 131.529 20.4702 136.3 26.29C140.973 31.9974 143.531 39.1438 143.54 46.52V46.52Z" fill="#FFD6D6"/>
<path opacity="0.1" d="M162.19 242.19C159.024 244.156 155.711 245.875 152.28 247.33C152.28 247.33 136.08 244.98 133.74 247.75C131.4 250.52 110.74 251.59 110.74 251.59C110.74 251.59 79.1899 250.1 74.4999 246.05C73.0498 244.876 71.4362 243.919 69.71 243.21L70.2299 235.11C70.2299 235.11 151.52 229.99 158.06 236.24C159.762 237.976 161.159 239.988 162.19 242.19Z" fill="black"/>
<path d="M166.14 236.46C165.5 240.08 152.28 245.62 152.28 245.62C152.28 245.62 136.08 243.28 133.74 246.05C131.4 248.82 110.74 249.89 110.74 249.89C110.74 249.89 79.1903 248.39 74.5003 244.34C69.8103 240.29 59.3603 238.34 59.3603 238.34C59.3603 238.34 54.0303 200.4 56.1703 192.09C58.3103 183.78 52.9703 160.96 51.6903 152.86C50.4103 144.76 55.3103 122.38 61.2803 118.76C67.2503 115.14 75.7803 102.98 80.8903 99.36C85.2003 96.31 89.9603 92.36 91.3503 91.17L91.7603 90.83C91.7603 90.83 92.6203 84.22 96.0303 80.83C99.4403 77.44 130.77 102.36 130.77 102.36C130.77 102.36 130.99 104.28 133.12 100.66C133.6 99.85 137.73 105.81 138.45 108.33C138.45 108.33 155.5 138.18 156.57 144.33C157.64 150.48 162.11 170.55 162.96 175.45C163.18 176.71 163.54 181.13 163.96 187.05C164.04 188.21 164.11 189.44 164.2 190.72C164.83 200.54 165.51 213.08 165.92 222.56C165.92 223.64 166.01 224.68 166.04 225.68C166.256 229.269 166.29 232.867 166.14 236.46V236.46Z" fill="#DCE6F2"/>
<path opacity="0.1" d="M57.8901 159.5C57.8901 159.5 69.6101 173.78 73.4501 173.78C77.2901 173.78 57.8901 159.5 57.8901 159.5Z" fill="black"/>
<path opacity="0.1" d="M82.58 190.2C82.58 190.2 63.39 211.09 65.95 214.93C68.51 218.77 82.58 190.2 82.58 190.2Z" fill="black"/>
<path opacity="0.1" d="M68.5098 231.77C68.5098 231.77 90.5098 207.68 91.5098 199.37L68.5098 231.77Z" fill="black"/>
<path opacity="0.1" d="M96.2202 233.47C96.2202 233.47 121.59 220.04 123.72 209.38C125.85 198.72 96.2202 233.47 96.2202 233.47Z" fill="black"/>
<path opacity="0.1" d="M128.41 103.87L124.89 112.39L130.75 115.16L136.51 131.26C136.51 131.26 152.39 163.02 151.75 179.54C151.11 196.06 154.63 220.89 154.63 220.89L163.79 219.19L159.47 170.6C158.797 163.077 156.913 155.712 153.89 148.79C146.57 132.03 132.95 101.09 132.09 101.09C130.92 101.09 131.74 101.52 131.74 101.52L128.41 103.87Z" fill="black"/>
<path d="M129.26 103.01L125.74 111.54L131.61 114.31L137.36 130.41C137.36 130.41 153.24 162.17 152.6 178.69C151.96 195.21 155.48 220.04 155.48 220.04L164.65 218.34L160.32 169.75C159.655 162.227 157.774 154.861 154.75 147.94C147.43 131.17 133.81 100.24 132.96 100.24C131.78 100.24 132.6 100.67 132.6 100.67L129.26 103.01Z" fill="#575989"/>
<path d="M233.07 228.29C228.61 227.95 217.91 222.54 213.66 220.29L211.86 219.29L212.08 202.78C213.131 202.162 214.22 201.611 215.34 201.13C221.02 198.65 232.67 195.28 238.51 206.13C246.39 220.68 238.72 228.67 233.07 228.29Z" fill="#FFD6D6"/>
<path opacity="0.1" d="M136.3 26.29C135.842 26.5769 135.338 26.7833 134.81 26.9C131.1 27.71 126.88 24.52 123.7 26.57C121.76 27.83 121.31 30.44 121.05 32.74C120.597 36.74 120.143 40.7133 119.69 44.6599C119.595 46.065 119.298 47.4491 118.81 48.77C117.24 52.36 112.93 54.05 109 53.99C107.46 54.0996 105.94 53.5963 104.77 52.5899C104.08 51.8899 103.71 50.91 102.95 50.27C97.9499 46.08 96.4299 56.35 97.7499 59.27C99.8699 64.04 107.4 68.64 104.24 74.7C103.708 75.6848 102.903 76.4943 101.92 77.0299C97.1579 75.5386 92.8107 72.9543 89.2255 69.4834C85.6402 66.0125 82.9164 61.7512 81.2717 57.04C79.6269 52.3288 79.1067 47.2982 79.7526 42.3501C80.3986 37.402 82.1928 32.6736 84.9919 28.5425C87.791 24.4114 91.5174 20.9922 95.8735 18.558C100.23 16.1238 105.095 14.7421 110.08 14.5232C115.065 14.3044 120.032 15.2544 124.585 17.2975C129.138 19.3406 133.15 22.4201 136.3 26.29Z" fill="black"/>
<path d="M102.1 50.23C102.85 50.86 103.23 51.84 103.92 52.54C105.091 53.5454 106.611 54.0484 108.15 53.9399C112.08 53.9999 116.39 52.32 117.95 48.71C118.448 47.3947 118.748 46.0131 118.84 44.61L120.2 32.6899C120.46 30.3899 120.9 27.78 122.85 26.52C126.03 24.52 130.25 27.66 133.96 26.85C135.298 26.51 136.455 25.6738 137.198 24.511C137.941 23.3483 138.214 21.9463 137.96 20.59C137.53 18.68 136.07 17.17 135.32 15.35C134.866 13.9515 134.501 12.5252 134.23 11.0799C132.16 3.31995 123.05 -1.04004 115.13 0.259957C110.73 0.989957 106.64 3.08996 102.23 3.72996C99.0702 4.18996 95.8402 3.88996 92.6502 4.22996C89.6865 4.53578 86.8047 5.38674 84.1502 6.73995C83.4534 7.04838 82.8373 7.51385 82.3502 8.09995C81.8973 8.89156 81.5923 9.75905 81.4502 10.66C80.3802 14.66 76.9402 17.61 74.4502 20.98C71.6022 24.8574 69.9542 29.4851 69.7102 34.29C69.6122 35.5171 69.7272 36.752 70.0502 37.9399C70.2602 38.6399 70.5902 39.32 70.7502 40.04C71.2402 42.23 70.1202 44.42 69.5702 46.6C68.8868 49.3818 69.1327 52.3109 70.2702 54.9399C74.1102 63.7699 86.7602 66.72 89.3902 75.99C91.7257 77.1097 94.2481 77.7878 96.8302 77.99C99.4102 78.04 102.19 76.93 103.39 74.64C106.54 68.64 99.0202 63.9799 96.9002 59.2199C95.5702 56.2899 97.0602 46.03 102.1 50.23Z" fill="#353045"/>
<path opacity="0.1" d="M355.01 68.84C353.412 73.4086 352.732 78.248 353.01 83.08C351.47 84.39 349.79 80.47 348.01 81.48C343.13 84.3 337.49 91.01 331.45 91.01C326.212 91.0134 321.048 89.7763 316.38 87.4C314.924 81.7848 312.914 76.3281 310.38 71.11C310.38 71.11 361.83 49.23 355.01 68.84Z" fill="black"/>
<path d="M364.67 56.05C364.67 62.6283 362.719 69.0587 359.065 74.5283C355.41 79.9979 350.215 84.2609 344.138 86.7783C338.06 89.2956 331.373 89.9543 324.921 88.671C318.469 87.3876 312.543 84.2199 307.892 79.5684C303.24 74.9169 300.072 68.9906 298.789 62.5388C297.506 56.0869 298.164 49.3995 300.682 43.322C303.199 37.2445 307.462 32.05 312.932 28.3954C318.401 24.7407 324.832 22.79 331.41 22.79C335.778 22.7887 340.104 23.6481 344.14 25.3191C348.175 26.9901 351.842 29.44 354.931 32.5287C358.02 35.6175 360.47 39.2846 362.141 43.3204C363.812 47.3563 364.671 51.6819 364.67 56.05Z" fill="#D28690"/>
<path d="M363.25 110.62C363.25 110.62 356.99 117.44 356.14 118C355.29 118.56 337.14 195 336.82 195.89C336.5 196.78 315.21 265.8 315.21 265.8L281.1 282.57L283.95 198.15L308.95 128.53C308.95 128.53 317.2 119.15 319.75 115.74C322.3 112.33 354.14 91.86 354.14 91.86L359.58 103.07L363.25 110.62Z" fill="#F0F3F7"/>
<path opacity="0.1" d="M358.74 104.78L319.52 132.86L318.89 117.44C321.45 114.03 353.28 93.5701 353.28 93.5701L358.74 104.78Z" fill="black"/>
<path d="M359.59 103.07L320.37 131.15L319.76 115.74C322.32 112.32 354.15 91.86 354.15 91.86L359.59 103.07Z" fill="#F0F3F7"/>
<path d="M318.45 108.88L319.76 115.74L310.99 124.65L317.99 108.98C317.99 108.98 302.99 119.43 298.49 122.2C293.99 124.97 289.49 134.35 289.32 136.91C289.15 139.47 282.07 178.05 282.07 178.05C282.07 178.05 276.74 192.33 278.24 196.38C279.74 200.43 270.14 328.12 270.14 328.12C271.423 325.64 273.238 323.474 275.453 321.775C277.669 320.076 280.232 318.886 282.96 318.29L279.54 242.83C279.54 242.83 283.7 192.63 283.91 191.99C284.12 191.35 293.61 162.25 293.61 162.25L318.45 108.88Z" fill="#585B8A"/>
<path opacity="0.1" d="M320.62 116.59L319.94 130.59C319.94 130.59 310.45 160.54 307.26 165.44C304.07 170.34 294.36 199.55 294.36 199.55L288.89 250.29L279.51 254.56L274.89 246.05L282.57 197.05C282.57 197.05 297.06 155.7 299.2 151.43L309.89 128.91L320.62 116.59Z" fill="black"/>
<path d="M319.76 115.74L319.09 129.74C319.09 129.74 309.6 159.69 306.4 164.59C303.2 169.49 293.51 198.7 293.51 198.7L288.07 249.43L278.69 253.69L274 245.17L281.68 196.17C281.68 196.17 296.17 154.81 298.3 150.55L309.07 128.06L319.76 115.74Z" fill="#663D5C"/>
<path d="M209.2 222.6L227.53 235.29C227.53 235.29 240.46 228.04 232.93 223.35C225.4 218.66 218.72 217.95 216.3 217.95C213.88 217.95 209.2 222.6 209.2 222.6Z" fill="#D28690"/>
<path d="M222.89 199.14C222.481 199.395 222.144 199.75 221.911 200.172C221.678 200.594 221.557 201.068 221.56 201.55C221.56 205.44 222 215.74 225.26 211.09C229.26 205.4 228.53 200.29 234.64 203.98C238.438 206.345 241.761 209.397 244.44 212.98L242.74 200.76C242.74 200.76 230.18 194.56 222.89 199.14Z" fill="#D28690"/>
<path opacity="0.1" d="M365.02 348.37C364.1 349.81 363.29 352.96 362.62 357.02C325.24 368.23 297.89 344.53 297.89 344.53C294.581 333.317 291.877 321.934 289.79 310.43C289.12 306.49 289.27 298.85 289.89 289.53L356.72 277.81C356.72 277.81 369.29 341.76 365.02 348.37Z" fill="black"/>
<path d="M403.39 157.58C401.69 163.13 402.33 174.42 402.33 174.42L386.98 246.9C386.98 246.9 379.52 302.75 378.24 310.21C376.96 317.67 374.83 350.5 374.83 350.5C331.34 371.82 297.83 342.83 297.83 342.83C294.522 331.613 291.818 320.227 289.73 308.72C287.59 296.06 293.89 245.34 296.87 222.81C297.76 216.14 298.36 211.94 298.36 211.94L309.55 170.37C309.55 170.37 323.3 135.3 328.42 125.07C333.54 114.84 354.1 91.86 354.1 91.86C356.65 90.24 360.73 95.96 363.76 101.17C366.05 105.11 367.76 108.77 367.76 108.77C367.76 108.77 393.34 119.85 397.17 125.77C401 131.69 400.37 143.89 400.8 144.53C401.23 145.17 405.1 152.04 403.39 157.58Z" fill="#585B8A"/>
<path opacity="0.1" d="M343.07 131.79C343.07 131.79 344.99 143.09 340.07 146.5C335.32 149.8 299.96 219.33 297.76 223.67C298.65 216.99 299.25 212.79 299.25 212.79L310.44 171.23C310.44 171.23 324.2 136.16 329.31 125.92C334.42 115.68 355 92.7099 355 92.7099C357.55 91.0899 361.62 96.8099 364.65 102.02C360.08 111.51 350.55 129.45 343.07 131.79Z" fill="black"/>
<path d="M342.22 130.94C342.22 130.94 344.13 142.24 339.22 145.65C334.31 149.06 299.12 218.47 296.89 222.81C297.78 216.14 298.38 211.94 298.38 211.94L309.57 170.37C309.57 170.37 323.32 135.3 328.44 125.07C333.56 114.84 354.12 91.86 354.12 91.86C356.67 90.24 360.75 95.96 363.78 101.17C359.23 110.65 349.69 128.6 342.22 130.94Z" fill="#585B8A"/>
<path d="M392.95 233.05L380.92 295.64V295.65L379.77 301.64V301.65L377.18 315.12L366.13 312.78L360.98 311.69L289.71 296.59L284.47 295.48L272.51 292.95L274.85 277.41L275.82 270.95L284.45 213.65L392.95 233.05Z" fill="#6C63FF"/>
<path d="M326.44 284.21C326.44 284.21 298.09 294.44 304.27 306.59C310.45 318.74 350.1 297.21 350.1 297.21L326.44 284.21Z" fill="#D28690"/>
<path opacity="0.1" d="M346.69 371.39C346.69 372.24 347.76 383.12 352.02 386.95C356.28 390.78 346.69 371.39 346.69 371.39Z" fill="black"/>
<path opacity="0.1" d="M318.13 409.97C318.13 409.97 323.24 424.04 343.49 429.8C363.74 435.56 318.13 409.97 318.13 409.97Z" fill="black"/>
<path opacity="0.1" d="M364.67 56.05C364.672 61.8968 363.131 67.6408 360.205 72.7024C357.278 77.764 353.068 81.9644 348 84.88C346.09 83.8111 344.395 82.3972 343 80.71C341.55 78.95 340.42 76.55 341.29 74.45C341.99 72.76 343.84 71.6899 344.29 69.9399C344.502 68.8698 344.447 67.7638 344.13 66.7199C343.76 65.0699 343.41 63.4199 343.05 61.7799C342.74 60.3799 342.19 58.73 340.8 58.39C339.41 58.05 338.25 59.21 337.16 60.07C334.49 62.18 329.37 63.61 326.16 61.88C322.95 60.15 323.85 54.36 323.33 51.23C323.324 50.958 323.258 50.6909 323.137 50.4472C323.016 50.2036 322.843 49.9895 322.63 49.82C322.163 49.6649 321.664 49.6305 321.18 49.7199C319.45 49.7199 318.06 48.17 317.56 46.51C317.206 44.8153 317.012 43.091 316.98 41.36C316.79 39.63 316.16 37.8 314.68 36.91C313.498 36.3596 312.186 36.1451 310.89 36.29L304.62 36.36C308.78 30.7365 314.606 26.5676 321.271 24.4458C327.936 22.3241 335.1 22.3576 341.745 24.5415C348.39 26.7254 354.177 30.9487 358.284 36.6107C362.391 42.2728 364.608 49.0854 364.62 56.08L364.67 56.05Z" fill="black"/>
<path d="M338.05 60.07C339.14 59.21 340.34 58.07 341.69 58.4C343.04 58.73 343.62 60.4 343.93 61.78L345.01 66.71C345.33 67.7566 345.388 68.8656 345.18 69.94C344.67 71.7 342.83 72.76 342.12 74.45C341.25 76.55 342.39 78.95 343.83 80.7C346.457 83.8655 350.088 86.0359 354.12 86.85C355.173 87.1029 356.267 87.1268 357.33 86.92C359.71 86.37 361.33 84.18 362.61 82.13C369.22 71.83 374.91 60.54 376.07 48.36C376.388 45.8757 376.273 43.355 375.73 40.91C375.188 39.0096 374.423 37.1802 373.45 35.46C371.748 31.9457 369.586 28.6737 367.02 25.73C362.47 20.83 356.19 17.82 349.74 16.04C342.485 14.0269 334.91 13.4327 327.43 14.29C325.43 14.52 323.51 14.85 321.54 14.98C319.067 15.095 316.588 15.0549 314.12 14.86L299.4 13.98C298.56 15.69 299.4 17.72 300.4 19.32C301.4 20.92 302.64 22.58 302.56 24.48C302.48 26.38 301.13 27.88 300.09 29.48C299.05 31.08 298.26 33.15 299.3 34.71C300.34 36.27 302.46 36.37 304.3 36.35L311.72 36.27C313.013 36.1371 314.317 36.362 315.49 36.92C316.97 37.81 317.6 39.65 317.79 41.37C317.832 43.1004 318.026 44.8237 318.37 46.52C318.88 48.18 320.26 49.75 321.99 49.73C322.474 49.6334 322.976 49.6714 323.44 49.84C323.652 50.0075 323.825 50.2199 323.946 50.4618C324.067 50.7038 324.133 50.9695 324.14 51.24C324.66 54.37 323.7 60.15 326.97 61.89C330.24 63.63 335.38 62.18 338.05 60.07Z" fill="#663D5C"/>
<path opacity="0.1" d="M380.32 125.76C376.643 125.369 372.943 126.241 369.827 128.23C366.71 130.22 364.363 133.21 363.17 136.71C359.17 148.1 352.5 168.65 354.17 176.77C356.52 188.28 359.29 207.47 359.29 207.47C359.29 207.47 371.44 214.47 365.29 221.53C359.14 228.59 357.4 238.59 357.4 238.59C357.4 238.59 349.51 242 347.81 249.25C346.11 256.5 334.59 266.51 334.59 266.51L317.33 283.78C317.33 283.78 345.89 312.78 351.65 314.26L369.34 293.58L390.23 265.87L408.35 246.87C408.35 246.87 412.61 236.87 410.48 217.87C408.35 198.87 400.03 180.78 400.03 180.78L400.67 174.38C400.67 174.38 402.63 128.53 380.32 125.76Z" fill="black"/>
<path d="M382.02 125.76C378.346 125.374 374.651 126.248 371.539 128.237C368.426 130.227 366.082 133.214 364.89 136.71C360.89 148.1 354.22 168.65 355.89 176.77C358.23 188.28 361 207.47 361 207.47C361 207.47 373.15 214.47 367 221.53C360.85 228.59 359.12 238.59 359.12 238.59C359.12 238.59 351.23 242 349.52 249.25C347.81 256.5 336.31 266.51 336.31 266.51L319.04 283.78C319.04 283.78 347.6 312.78 353.36 314.26L371.05 293.58L391.89 265.87L410.01 246.87C410.01 246.87 414.28 236.87 412.14 217.87C410 198.87 401.7 180.78 401.7 180.78L402.34 174.38C402.34 174.38 404.33 128.53 382.02 125.76Z" fill="#585B8A"/>
<path opacity="0.1" d="M364.17 190.63C364.17 190.63 382.29 212.79 389.97 207.89C397.65 202.99 364.17 190.63 364.17 190.63Z" fill="black"/>
<path opacity="0.1" d="M370.99 173.57C372.91 174.21 388.69 196.17 396.79 193.57C404.89 190.97 370.99 173.57 370.99 173.57Z" fill="black"/>
<path opacity="0.1" d="M375.47 211.29C375.47 211.29 376.54 223.87 389.54 222.16C402.54 220.45 375.47 211.29 375.47 211.29Z" fill="black"/>
<path opacity="0.1" d="M318.02 109.83L310.99 125.5L319.77 116.59L318.02 109.83Z" fill="black"/>
<path d="M318.02 108.98L310.99 124.65L319.77 115.74L318.02 108.98Z" fill="#F0F3F7"/>
<path opacity="0.3" d="M289.71 296.59L284.47 295.48L274.85 277.41L275.82 270.95L289.71 296.59Z" fill="black"/>
<path opacity="0.3" d="M380.92 295.65L379.77 301.64V301.65L366.13 312.78L360.98 311.69L380.92 295.65Z" fill="black"/>
<path opacity="0.1" d="M166.01 225.72C163.37 226.16 160.81 226.56 158.47 226.86C145.47 228.57 114.55 213.22 114.55 213.22C114.55 213.22 76.8198 181.67 65.9498 151.83C55.0798 121.99 78.9498 117.51 78.9498 117.51C87.9498 112.39 107.52 126.67 110.29 129.02C113.06 131.37 115.41 137.33 115.19 141.17C114.97 145.01 121.59 149.91 121.59 149.91C121.59 149.91 132.89 169.52 135.66 171.65C138.43 173.78 139.07 175.7 139.92 179.33C140.77 182.96 148.23 185.94 151.43 185.72C154.63 185.5 158.43 186.79 158.43 188.49C158.43 189.86 161.56 190.54 164.13 190.76C164.89 201.69 165.64 216.01 166.01 225.72Z" fill="black"/>
<path opacity="0.1" d="M165.89 222.6C163.89 222.92 161.97 223.21 160.17 223.45C147.17 225.16 116.26 209.81 116.26 209.81C116.26 209.81 78.5298 178.26 67.6598 148.42C56.7898 118.58 80.6598 114.1 80.6598 114.1C89.6598 108.98 109.22 123.26 111.99 125.61C114.76 127.96 117.11 133.92 116.9 137.76C116.69 141.6 123.29 146.5 123.29 146.5C123.29 146.5 134.59 166.11 137.36 168.24C140.13 170.37 140.77 172.29 141.63 175.92C142.49 179.55 149.94 182.52 153.14 182.31C156.34 182.1 160.14 183.38 160.14 185.08C160.14 186.08 161.92 186.75 163.9 187.08C163.98 188.24 164.05 189.47 164.14 190.75C164.8 200.58 165.48 213.12 165.89 222.6Z" fill="black"/>
<path opacity="0.1" d="M215.34 201.13L214.53 220.29H213.66L211.86 219.29L212.08 202.78C213.131 202.162 214.22 201.611 215.34 201.13V201.13Z" fill="black"/>
<path d="M78.9498 115.8C78.9498 115.8 55.0798 120.28 65.9498 150.12C76.8198 179.96 114.55 211.52 114.55 211.52C114.55 211.52 145.46 226.86 158.47 225.16C171.48 223.46 191.29 218.98 193.85 219.62C196.41 220.26 213.68 220.26 213.68 220.26L214.53 200.26L194.53 199.19L184.3 197.06C184.3 197.06 180.67 194.06 178.54 194.5C176.41 194.94 171.94 191.94 171.94 191.94C171.94 191.94 168.52 189.17 165.94 189.17C163.36 189.17 158.48 188.53 158.48 186.83C158.48 185.13 154.64 183.83 151.48 184.06C148.32 184.29 140.77 181.29 139.89 177.62C139.01 173.95 138.4 172.08 135.63 169.95C132.86 167.82 121.56 148.2 121.56 148.2C121.56 148.2 114.95 143.3 115.16 139.47C115.37 135.64 113.03 129.66 110.26 127.31C107.49 124.96 87.8898 110.69 78.9498 115.8Z" fill="#DCE6F2"/>
<path opacity="0.1" d="M140.35 184.44C140.35 184.44 131.18 193.61 133.52 195.31L140.35 184.44Z" fill="black"/>
<path opacity="0.1" d="M150.15 191.69C150.15 191.69 138.21 200.86 141.41 201.5C144.61 202.14 150.15 191.69 150.15 191.69Z" fill="black"/>
<path opacity="0.1" d="M129.89 205.29C131.6 206.15 156.96 221.29 166.56 221.07L129.89 205.29Z" fill="black"/>
<path opacity="0.1" d="M131.61 104.08C131.61 104.08 127.13 118.79 125.42 118.79C124.08 118.79 101.58 100.57 92.1899 92.91L92.5999 92.57C92.5999 92.57 93.45 85.96 96.86 82.57C100.27 79.18 131.61 104.08 131.61 104.08Z" fill="black"/>
<path d="M130.75 102.37C130.75 102.37 126.28 117.08 124.57 117.08C123.22 117.08 100.72 98.86 91.3301 91.2L91.7401 90.86C91.7401 90.86 92.6001 84.25 96.0101 80.86C99.4201 77.47 130.75 102.37 130.75 102.37Z" fill="#DCE6F2"/>
<g opacity="0.15">
<path opacity="0.15" d="M70.3799 54.83C73.3799 61.68 81.6399 65 86.4299 70.46C83.5799 63.75 75.2499 60.46 70.3799 54.83Z" fill="black"/>
<path opacity="0.15" d="M100.95 70.61C99.76 72.9 96.95 74.01 94.39 73.96C92.1141 73.7967 89.8857 73.2277 87.8101 72.2799C88.563 73.39 89.1367 74.6116 89.51 75.8999C91.8447 77.0219 94.3675 77.7001 96.95 77.8999C99.54 77.9599 102.32 76.85 103.51 74.55C105.42 70.9 103.43 67.78 101.1 64.83C101.534 65.7365 101.747 66.7332 101.721 67.738C101.695 68.7429 101.431 69.7272 100.95 70.61V70.61Z" fill="black"/>
<path opacity="0.15" d="M138.06 20.49C137.63 18.57 136.17 17.06 135.42 15.25C134.961 13.8495 134.597 12.4196 134.33 10.97C133.762 8.92023 132.709 7.03726 131.26 5.47998C131.461 5.97219 131.632 6.47651 131.77 6.98997C132.05 8.44595 132.424 9.88229 132.89 11.29C133.64 13.1 135.1 14.61 135.53 16.53C135.783 17.8863 135.511 19.2883 134.768 20.451C134.025 21.6138 132.867 22.4501 131.53 22.79C127.83 23.6 123.61 20.4 120.43 22.46C118.48 23.71 118.03 26.32 117.77 28.62C117.323 32.62 116.87 36.5967 116.41 40.55C116.32 41.9525 116.023 43.334 115.53 44.65C113.96 48.25 109.65 49.94 105.72 49.88C104.184 49.9825 102.67 49.48 101.5 48.48C100.931 47.6748 100.321 46.9004 99.67 46.16C94.67 41.96 93.15 52.23 94.47 55.16C95.131 56.478 95.9504 57.7105 96.91 58.83C95.81 55.53 97.35 46.03 102.23 50.1C102.88 50.838 103.488 51.6126 104.05 52.42C105.224 53.4188 106.742 53.9209 108.28 53.82C112.21 53.88 116.52 52.19 118.09 48.59C118.584 47.2708 118.881 45.8858 118.97 44.48C119.423 40.48 119.877 36.5066 120.33 32.56C120.59 30.26 121.04 27.65 122.98 26.4C126.17 24.34 130.39 27.54 134.09 26.72C135.417 26.376 136.564 25.5421 137.301 24.3861C138.037 23.2301 138.309 21.838 138.06 20.49V20.49Z" fill="black"/>
</g>
<path opacity="0.1" d="M359.46 84.37C358.396 84.5683 357.303 84.5411 356.25 84.29C352.223 83.4765 348.596 81.3098 345.97 78.15C344.52 76.39 343.38 73.99 344.26 71.89C344.96 70.2 346.8 69.14 347.26 67.38C347.468 66.3056 347.41 65.1966 347.09 64.15L346.01 59.22C345.7 57.82 345.16 56.17 343.77 55.84C342.38 55.51 341.22 56.65 340.13 57.51C337.46 59.62 332.33 61.06 329.13 59.32C325.93 57.58 326.82 51.8 326.3 48.67C326.291 48.3999 326.224 48.1349 326.104 47.8932C325.983 47.6516 325.811 47.4389 325.6 47.27C325.131 47.1068 324.628 47.0689 324.14 47.16C322.41 47.16 321.03 45.61 320.52 43.95C320.173 42.2543 319.983 40.5305 319.95 38.8C319.75 37.08 319.13 35.24 317.64 34.35C316.465 33.7969 315.162 33.5722 313.87 33.7L306.45 33.78C304.62 33.78 302.45 33.66 301.45 32.14C300.45 30.62 301.19 28.46 302.24 26.91C303.29 25.36 304.62 23.82 304.71 21.91C304.8 20 303.56 18.35 302.55 16.75C301.971 15.875 301.545 14.9079 301.29 13.89L299.16 13.76C298.33 15.46 299.16 17.49 300.16 19.1C301.16 20.71 302.41 22.36 302.32 24.25C302.23 26.14 300.9 27.66 299.85 29.25C298.8 30.84 298.03 32.92 299.07 34.48C300.11 36.04 302.22 36.15 304.07 36.13L311.49 36.04C312.783 35.9149 314.086 36.143 315.26 36.7C316.75 37.59 317.38 39.43 317.57 41.15C317.602 42.881 317.796 44.6053 318.15 46.3C318.65 47.95 320.04 49.53 321.77 49.5C322.255 49.4142 322.754 49.4521 323.22 49.61C323.432 49.7805 323.604 49.9948 323.725 50.2382C323.846 50.4816 323.912 50.7484 323.92 51.02C324.44 54.14 323.48 59.93 326.75 61.67C330.02 63.41 335.12 61.97 337.75 59.86C338.84 59 340.05 57.86 341.4 58.18C342.75 58.5 343.33 60.18 343.63 61.56L344.72 66.5C345.037 67.5474 345.092 68.6565 344.88 69.73C344.38 71.48 342.53 72.55 341.83 74.23C340.96 76.33 342.09 78.74 343.54 80.49C346.183 83.6635 349.838 85.8314 353.89 86.63C354.943 86.8811 356.036 86.9083 357.1 86.71C358.819 86.1861 360.294 85.0654 361.26 83.55C360.714 83.9287 360.104 84.2064 359.46 84.37Z" fill="black"/>
</svg>
