<svg width="685" height="588" viewBox="0 0 685 588" fill="none" xmlns="http://www.w3.org/2000/svg">
<path d="M547 173.5C429 147 266.5 76.0002 102 95.0001C-62.4997 114 1.00041 384 90.5002 429.5C180 475 511 515.5 619.5 450.5C728 385.5 665 200 547 173.5Z" fill="#3341C0"/>
<path opacity="0.1" d="M671.562 455.202C678.745 420.052 590.798 372.395 475.127 348.756C359.456 325.117 259.863 334.449 252.679 369.599C245.496 404.749 333.443 452.406 449.114 476.045C564.785 499.684 664.378 490.352 671.562 455.202Z" fill="#6C63FF"/>
<path d="M437.97 229.978C437.97 229.978 449.34 174.168 492.75 179.338C492.75 179.338 522.75 181.398 528.92 201.038V244.448L437.97 229.978Z" fill="#3A3768"/>
<path d="M675.7 250.658L289.13 218.608L239.52 228.948L242.62 298.198L246 298.608L249.85 402.598L629.18 470.808L669.5 436.698V323.968L674.66 320.938L675.7 250.658Z" fill="#D48A9B"/>
<path opacity="0.05" d="M676.22 250.658L675.18 320.938L633.32 340.578L632.8 267.188L676.22 250.658Z" fill="black"/>
<path opacity="0.05" d="M669.5 324.038L670.01 434.638L629.7 468.748L632.29 340.578L669.5 324.038Z" fill="black"/>
<path opacity="0.05" d="M246.52 302.748L632.6 349.858L632.8 340.918L246.23 299.228L246.52 302.748Z" fill="black"/>
<path opacity="0.05" d="M669.5 328.098V324.038L631.25 340.918V349.878L669.5 328.098Z" fill="black"/>
<path d="M239 228.948L288.61 218.608L675.18 250.658L631.77 267.188L239 228.948Z" fill="#EFC6CD"/>
<path opacity="0.1" d="M634 252.648L652.97 253.888L621.53 263.298L605.52 262.148L634 252.648Z" fill="black"/>
<path d="M634 251.818L652.97 253.058L621.53 262.478L605.52 261.318L634 251.818Z" fill="white"/>
<path d="M631.73 253.948C632.48 253.628 633.27 254.238 634.07 254.388C634.53 254.478 635 254.388 635.46 254.478C636.39 254.598 637.31 255.218 638.2 254.908" fill="#D3DAE1"/>
<path d="M630.75 254.518C631.49 254.198 632.29 254.798 633.09 254.958C633.55 255.038 634.02 254.958 634.48 255.038C635.41 255.168 636.33 255.788 637.22 255.478" fill="#D3DAE1"/>
<path d="M628.49 255.658C629.24 255.338 630.04 255.938 630.84 256.088C631.29 256.178 631.77 256.088 632.22 256.178C633.16 256.308 634.08 256.928 634.96 256.608" fill="#D3DAE1"/>
<path opacity="0.1" d="M552 243.308L570.97 244.558L539.53 253.968L523.52 252.808L552 243.308Z" fill="black"/>
<path d="M552 242.488L570.97 243.728L539.53 253.138L523.52 251.988L552 242.488Z" fill="white"/>
<path d="M549.73 244.618C550.48 244.298 551.27 244.898 552.07 245.058C552.53 245.138 553 245.058 553.46 245.138C554.39 245.268 555.31 245.888 556.2 245.578" fill="#D3DAE1"/>
<path d="M654.23 210.09C654.97 209.77 655.77 210.37 656.57 210.52C657.03 210.61 657.5 210.52 657.96 210.61C658.89 210.74 659.81 211.36 660.7 211.04" fill="#D3DAE1"/>
<path d="M651.97 211.22C652.72 210.9 653.52 211.51 654.32 211.66C654.77 211.75 655.25 211.66 655.7 211.75C656.64 211.87 657.56 212.5 658.44 212.18" fill="#D3DAE1"/>
<path opacity="0.1" d="M591.33 247.978L610.31 249.218L578.87 258.638L562.85 257.478L591.33 247.978Z" fill="black"/>
<path d="M591.33 247.158L610.31 248.398L578.87 257.808L562.85 256.648L591.33 247.158Z" fill="white"/>
<path d="M589.06 249.288C589.81 248.968 590.61 249.568 591.41 249.718C591.86 249.808 592.33 249.718 592.79 249.808C593.72 249.928 594.65 250.558 595.53 250.238" fill="#D3DAE1"/>
<path d="M588.08 249.848C588.83 249.528 589.63 250.138 590.43 250.288C590.88 250.378 591.35 250.288 591.81 250.378C592.74 250.498 593.67 251.128 594.55 250.808" fill="#D3DAE1"/>
<path d="M585.83 250.988C586.57 250.668 587.37 251.268 588.17 251.428C588.63 251.508 589.1 251.428 589.56 251.508C590.49 251.638 591.41 252.258 592.3 251.948" fill="#D3DAE1"/>
<path d="M489.05 218.38C486.89 199.4 478.34 181.29 478.34 181.29L478.99 174.89C478.99 174.89 479.13 171.69 478.92 166.89C478.943 163.893 479.336 160.911 480.09 158.01C481.84 152.46 477.9 145.64 477.46 145.01C477.02 144.38 477.68 132.21 473.74 126.24C469.8 120.27 443.56 109.17 443.56 109.17C443.56 109.17 442.15 106.22 440.16 102.77L440.34 102.42C438.712 99.4665 436.694 96.7454 434.34 94.33C432.73 92.61 431.18 91.63 429.93 92.11C429.422 90.4502 429.034 88.7558 428.77 87.04C429.03 87.11 429.3 87.18 429.56 87.23C430.643 87.4812 431.766 87.5084 432.86 87.31C435.3 86.76 436.92 84.57 438.28 82.51C445.06 72.21 450.9 60.91 452.09 48.72C452.41 46.232 452.291 43.7072 451.74 41.26C451.178 39.3575 450.392 37.5281 449.4 35.81C447.647 32.2848 445.427 29.012 442.8 26.08C438.13 21.16 431.69 18.15 425.07 16.37C417.612 14.3645 409.843 13.7843 402.17 14.66C400.17 14.89 398.17 15.22 396.17 15.35C393.633 15.4618 391.092 15.4183 388.56 15.22L375.47 14.46L375.41 14.26L373.23 14.13C372.37 15.84 373.23 17.87 374.3 19.47C375.37 21.07 376.6 22.74 376.51 24.63C376.42 26.52 375.05 28.04 373.98 29.63C372.91 31.22 372.1 33.3 373.17 34.86C373.321 35.0757 373.499 35.2707 373.7 35.44C374.83 36.61 376.8 36.74 378.51 36.72H378.81C374.504 42.3917 372.175 49.3186 372.18 56.44C372.209 62.5256 373.912 68.4859 377.103 73.6681C380.294 78.8502 384.849 83.0543 390.27 85.82C390.46 86.47 390.65 87.14 390.83 87.82C392.812 94.844 393.523 102.166 392.93 109.44L392.7 109.94L392.56 109.41C392.56 109.41 377.14 119.87 372.56 122.64C367.98 125.41 363.38 134.8 363.16 137.36C362.94 139.92 355.72 178.53 355.72 178.53C354.253 182.419 353.043 186.401 352.1 190.45L342.89 198.54C342.89 198.54 323.89 200.25 318.39 198.97L318.55 200.03C313.7 198.923 308.76 198.253 303.79 198.03C301.076 197.681 298.317 198.05 295.79 199.1L295.6 199.19L295.45 199.26C292.555 199.656 289.728 200.45 287.05 201.62C286.73 201.75 286.44 201.88 286.16 202.01L286.22 200.7L265.66 199.64L255.16 197.51C255.16 197.51 251.44 194.51 249.25 194.95C247.06 195.39 242.47 192.39 242.47 192.39C241.423 191.569 240.29 190.865 239.09 190.29C238.74 187.87 238.52 186.4 238.52 186.4C238.52 186.4 230.35 153.98 224.23 134.92C220.13 122.19 214.23 115.92 210.75 113.19C209.2 110.49 208.18 108.75 208.18 108.75C207.51 106.41 203.83 101.14 202.89 101.01C202.74 100.77 202.63 100.65 202.57 100.65C202.369 100.628 202.166 100.66 201.98 100.74C200.26 92.18 199.26 81.45 201.89 72.1C205.49 69.1412 208.392 65.4231 210.387 61.2117C212.382 57.0004 213.421 52.4 213.43 47.74C213.43 47.6 213.43 47.46 213.43 47.32C213.43 47.18 213.43 47.03 213.43 46.89C213.428 39.4583 210.796 32.2671 206 26.59L205.66 26.21C205.751 26.1455 205.838 26.0754 205.92 26C206.671 25.3906 207.244 24.5891 207.577 23.6806C207.909 22.7722 207.99 21.7906 207.81 20.84C207.36 18.92 205.86 17.41 205.09 15.59C204.628 14.1889 204.257 12.7592 203.98 11.31C203.391 9.25162 202.31 7.36745 200.83 5.82L200.98 6.22C197.06 1.81 190.32 -0.379999 184.25 0.600001C179.74 1.32 175.54 3.42 171.01 4.07C167.76 4.53 164.45 4.23001 161.18 4.56001C158.146 4.87198 155.193 5.72548 152.46 7.08C151.746 7.38368 151.113 7.84929 150.61 8.44C150.145 9.2314 149.833 10.1032 149.69 11.01C148.58 15.06 145.06 17.95 142.51 21.33C139.597 25.1916 137.911 29.839 137.67 34.67C137.57 35.8978 137.689 37.1335 138.02 38.32C138.24 39.03 138.58 39.7 138.74 40.42C139.24 42.62 138.09 44.81 137.53 46.99C136.825 49.771 137.075 52.7083 138.24 55.33C142.19 64.17 155.16 67.12 157.86 76.4C159.926 77.3496 162.108 78.0221 164.35 78.4C164.53 79.32 164.69 80.25 164.82 81.19C164.759 81.2157 164.702 81.2493 164.65 81.29C161.15 84.7 160.28 91.29 160.28 91.29L159.86 91.63C158.43 92.81 153.54 96.77 149.12 99.82C143.87 103.45 135.12 115.61 129 119.24C122.88 122.87 117.84 145.24 119.16 153.37C120.48 161.5 125.94 184.3 123.75 192.62C121.56 200.94 127.03 238.91 127.03 238.91C130.701 239.609 134.292 240.674 137.75 242.09L137.64 243.75L137.31 248.75C137.31 248.75 127.4 284.59 131.19 312.18C134.98 339.77 129.44 342.61 129.44 342.61C129.44 342.61 130.6 354.84 127.69 359.11C124.78 363.38 124.19 372.76 124.19 372.76C124.19 372.76 123.9 393.81 124.48 399.76C125.06 405.71 125.35 416.55 123.31 419.11C121.27 421.67 117.48 438.44 117.77 443.56C118.06 448.68 110.48 460.35 114.56 475.42C118.64 490.49 102.56 490.78 102.56 490.78C102.56 490.78 104.61 513.78 108.98 520.36L109.62 521.3C109.51 521.68 109.4 522.08 109.28 522.51C107.63 528.51 105.37 537.98 106.94 540.27C109.27 543.69 110.44 543.11 110.44 543.11L111.31 558.47C111.31 558.47 128.81 573.26 142.23 572.7C155.65 572.14 153.02 558.47 153.02 558.47L141.59 528.83L141.2 527.83L153.9 503.83C153.9 503.83 157.4 493.31 158.27 489.61C159.14 485.91 163.89 472.8 163.89 472.8C163.89 472.8 175.89 444.36 176.14 440.94C176.39 437.52 177.31 419.05 179.64 415.34C181.97 411.63 188.39 390.34 188.39 390.34L188.55 390.48C189.639 391.55 190.417 392.896 190.801 394.373C191.185 395.851 191.16 397.405 190.73 398.87C189.26 404.27 190.14 415.36 190.14 415.36C190.14 415.36 189.56 424.75 188.39 429.59C187.22 434.43 186.94 473.96 188.98 483.34C190.61 490.85 190.56 504.91 190.48 510.23C189.11 515.88 187.91 522.9 190.14 523.73C193.94 525.16 213.19 524.87 213.19 524.87C213.19 524.87 221.35 522.02 232.44 531.98C243.53 541.94 277.64 529.14 277.64 529.14C277.64 529.14 288.14 526.29 267.43 518.05C252.98 512.3 243.65 508.47 237.55 504.37C237.69 504.1 237.84 503.83 237.97 503.54C237.97 503.54 229.51 495.54 236.51 481.36C243.51 467.18 243.22 455.19 243.22 455.19L244.39 407.4L240.89 343.96L238.18 277.38L238.66 277.22C239.12 289.46 241.51 318.6 254.02 312.95C269.77 305.84 256.35 287.35 256.35 287.35L249.28 273.57L251.39 272.85L243.48 247.29C242.721 242.301 242.62 237.235 243.18 232.22C243.337 229.286 243.276 226.345 243 223.42C253.36 221.61 263.28 219.69 265.06 220.13C267.16 220.64 278.91 220.74 283.53 220.76C282.02 221.94 280.81 223.11 280.81 223.11L299.62 235.77C299.62 235.77 306 232.28 307.33 228.58C308.639 228.249 309.847 227.604 310.85 226.7C311.05 231.07 312.21 235.8 316.25 235.91C317.26 235.931 318.263 235.733 319.19 235.33L349.95 229.24L347.31 245.73L349.15 249C348.22 262.91 347.15 277.68 346.21 290.67L345.78 293.51L346 293.56C344.54 313.56 343.37 328.71 343.37 328.71C345.093 325.427 347.766 322.74 351.04 321L351.24 350.68C351.24 350.68 352.78 397.61 352.78 404.01C352.78 410.41 352.99 424.7 352.99 424.7C352.99 424.7 356.28 442.19 358.24 447.95C360.2 453.71 361.74 479.95 361.74 479.95C361.74 479.95 366.34 487.2 364.37 489.95C362.4 492.7 372.03 498.69 372.03 498.69C372.03 498.69 365.9 507.01 365.46 512.56C365.41 513.2 366.04 513.88 367.18 514.56C366.82 514.85 366.45 515.14 366.04 515.42C363.2 517.32 359.04 518.64 352.78 518.1C335.71 516.6 323.68 532.39 334.18 535.59C344.68 538.79 376.18 539.43 376.18 539.43C376.18 539.43 385.72 533.48 393.18 536.16C393.07 542.42 393.38 548.16 393.43 548.92L393.34 548.99C388.88 552.99 380.34 559.87 372 562.68C360 566.73 357.34 583.16 372.87 585.29C388.4 587.42 411.15 582.73 411.15 582.73C411.15 582.73 422.96 573.99 431.93 572.07C440.9 570.15 448.56 565.88 447.03 560.76C446.03 557.49 443.46 548.92 441.72 543.16C441.62 542.813 441.52 542.48 441.42 542.16C441.69 541.56 441.96 540.94 442.21 540.3C442.21 540.3 437.62 516.41 441.34 510.44C445.06 504.47 443.09 444.73 443.09 444.73C443.09 444.73 436.74 429.59 440.03 420.42C443.32 411.25 434.78 398.23 434.78 398.23C434.78 398.23 435.71 372.14 438.21 357.6C438.323 356.98 438.433 356.38 438.54 355.8C442.726 354.558 446.805 352.983 450.74 351.09C450.74 351.09 452.93 318.23 454.24 310.77C454.37 310.07 454.55 308.94 454.77 307.47L455.77 302.2L456.95 296.2L460.95 275.75L468.17 266.41L486.77 247.41C486.77 247.41 491.24 237.37 489.05 218.38ZM202.21 101.05L202.07 101.15C202.049 101.078 202.032 101.004 202.02 100.93C202.078 100.978 202.142 101.018 202.21 101.05V101.05ZM385.98 124.34L385.26 125.91L387.89 123.29L384.32 127.29L385.52 124.77L385.98 124.34ZM368.22 161.04C367.53 162.87 366.79 164.85 366.02 166.91L367.43 162.7L368.22 161.04Z" fill="url(#paint0_linear)"/>
<path d="M310.83 220.87C310.83 220.87 308.38 237.18 315.73 237.39C323.08 237.6 327.99 224.81 327.99 224.81L324.99 214.58L310.83 220.87Z" fill="#585B8A"/>
<path opacity="0.2" d="M310.83 220.87C310.83 220.87 308.38 237.18 315.73 237.39C323.08 237.6 327.99 224.81 327.99 224.81L324.99 214.58L310.83 220.87Z" fill="black"/>
<path d="M146.2 573.91C133.12 574.48 116.06 559.7 116.06 559.7L115.21 544.35C115.21 544.35 114.08 544.92 111.8 541.51C110.27 539.22 112.47 529.73 114.08 523.76C114.86 520.84 115.5 518.76 115.5 518.76L144.2 526.44L145.57 530.07L156.71 559.69C156.71 559.69 159.27 573.34 146.2 573.91Z" fill="#636992"/>
<path d="M278.07 530.43C278.07 530.43 244.82 543.22 234.07 533.27C223.32 523.32 215.31 526.16 215.31 526.16C215.31 526.16 196.55 526.45 192.85 525.02C190.67 524.19 191.85 517.08 193.21 511.42C194.13 507.51 195.13 504.28 195.13 504.28C195.13 504.28 227.81 493.19 232.93 500.01C234.468 502.014 236.306 503.768 238.38 505.21C244.3 509.49 253.55 513.37 268.18 519.34C288.3 527.58 278.07 530.43 278.07 530.43Z" fill="#636992"/>
<path d="M248.23 270.64L257.32 288.83C257.32 288.83 270.4 307.31 255.05 314.41C239.7 321.51 239.99 273.49 239.99 273.49L248.23 270.64Z" fill="#FFD6D6"/>
<path d="M210.14 112.9C210.14 112.9 220.09 117.45 226.06 136.49C232.03 155.53 239.99 187.94 239.99 187.94C239.99 187.94 245.39 224.6 244.53 233.7C243.983 238.712 244.08 243.773 244.82 248.76L252.49 274.34L237.14 279.74L213.55 189.36L210.14 112.9Z" fill="#DCE6F2"/>
<path opacity="0.05" d="M210.14 112.9C210.14 112.9 220.09 117.45 226.06 136.49C232.03 155.53 239.99 187.94 239.99 187.94C239.99 187.94 245.39 224.6 244.53 233.7C243.983 238.712 244.08 243.773 244.82 248.76L252.49 274.34L237.14 279.74L213.55 189.36L210.14 112.9Z" fill="black"/>
<path opacity="0.1" d="M144.2 526.45L145.57 530.08L143.89 533.29C137.35 536.13 121.15 533.86 121.15 533.86C121.15 533.86 118.15 530.05 114.05 523.78C114.83 520.86 115.47 518.78 115.47 518.78L144.2 526.45Z" fill="black"/>
<path opacity="0.1" d="M239.42 506.55C231.13 525.33 202.95 518.36 195.12 516.01C193.83 515.62 193.12 515.36 193.12 515.36C193.12 515.36 193.17 513.83 193.19 511.42C194.11 507.51 195.11 504.28 195.11 504.28C195.11 504.28 227.79 493.19 232.91 500.01C234.448 502.014 236.286 503.768 238.36 505.21C238.673 505.687 239.028 506.136 239.42 506.55V506.55Z" fill="black"/>
<path d="M237.99 482.68C231.17 496.88 239.42 504.85 239.42 504.85C231.13 523.62 202.95 516.66 195.12 514.3C193.83 513.92 193.12 513.66 193.12 513.66C193.12 513.66 193.69 494.04 191.7 484.66C189.71 475.28 189.99 435.78 191.13 430.95C192.27 426.12 192.83 416.73 192.83 416.73C192.83 416.73 191.98 405.65 193.4 400.25C193.827 398.791 193.856 397.245 193.483 395.771C193.11 394.297 192.349 392.95 191.28 391.87L191.13 391.72C191.13 391.72 184.88 413.04 182.6 416.72C180.32 420.4 179.48 438.89 179.19 442.3C178.9 445.71 167.25 474.14 167.25 474.14C167.25 474.14 162.71 487.21 161.86 490.9C161.01 494.59 157.59 505.12 157.59 505.12L143.89 531.56C137.35 534.4 121.15 532.13 121.15 532.13C121.15 532.13 118.03 528.13 113.76 521.61C109.49 515.09 107.51 492.06 107.51 492.06C107.51 492.06 123.14 491.77 119.16 476.71C115.18 461.65 122.57 449.99 122.29 444.87C122.01 439.75 125.7 422.99 127.69 420.43C129.68 417.87 129.39 407.07 128.82 401.1C128.25 395.13 128.54 374.1 128.54 374.1C128.54 374.1 129.11 364.72 131.95 360.46C134.79 356.2 133.66 343.97 133.66 343.97C133.66 343.97 139.05 341.13 135.36 313.56C131.67 285.99 141.36 250.18 141.36 250.18L141.69 245.18L142.21 237.08C142.21 237.08 223.5 231.96 230.04 238.21C231.749 239.945 233.152 241.957 234.19 244.16C236.427 248.97 238.008 254.059 238.89 259.29L242.3 345.41L245.71 408.79L244.57 456.54C244.57 456.54 244.82 468.46 237.99 482.68Z" fill="#565988"/>
<path opacity="0.1" d="M213.89 312.71L205.36 497.45L195.12 514.29C193.83 513.91 193.12 513.65 193.12 513.65C193.12 513.65 193.69 494.03 191.7 484.65C189.71 475.27 189.99 435.77 191.13 430.94C192.27 426.11 192.83 416.72 192.83 416.72C192.83 416.72 191.98 405.64 193.4 400.24C193.827 398.781 193.856 397.234 193.483 395.761C193.11 394.287 192.35 392.94 191.28 391.86L191.42 390.86L213.89 312.71Z" fill="black"/>
<path opacity="0.1" d="M122.03 511.1C122.03 511.1 144.2 502.29 147.61 505.1C151.02 507.91 121.47 512.2 121.47 512.2L122.03 511.1Z" fill="black"/>
<path opacity="0.1" d="M231.46 487.79C230.61 488.08 209.01 495.79 211 503.99C212.99 512.19 231.46 487.79 231.46 487.79Z" fill="black"/>
<path d="M163.96 67.29C163.96 67.29 171.2 84.77 167.37 93.73C163.54 102.69 208.72 118.03 208.72 118.03C208.72 118.03 195.51 83.92 208.3 64.73C221.09 45.54 163.96 67.29 163.96 67.29Z" fill="#FFD6D6"/>
<path d="M428.5 573.34C419.76 575.26 408.25 584 408.25 584C408.25 584 386.08 588.69 370.94 586.56C355.8 584.43 358.37 568.01 370.09 563.96C378.22 561.16 386.55 554.25 390.9 550.29C392.82 548.52 393.96 547.29 393.96 547.29L436.39 538.76C436.39 538.76 437.08 541.13 438.04 544.4C439.74 550.17 442.25 558.73 443.21 561.99C444.7 567.16 437.24 571.42 428.5 573.34Z" fill="#505484"/>
<path d="M417.63 540.51C417.63 540.51 399.72 542.43 392.26 538.17C384.8 533.91 374.14 540.73 374.14 540.73C374.14 540.73 343.44 540.09 333.21 536.89C322.98 533.69 334.7 517.89 351.33 519.41C357.39 519.96 361.49 518.63 364.26 516.73C367.154 514.747 369.17 511.723 369.89 508.29L405.89 510.42L410.89 523.18L417.63 540.51Z" fill="#505484"/>
<path opacity="0.1" d="M411.44 529C411.44 529 369.6 522.16 364.26 516.73C367.154 514.747 369.17 511.723 369.89 508.29L405.89 510.42L410.89 523.18L411.44 529Z" fill="black"/>
<path d="M349.41 289.62L349.84 352.07C349.84 352.07 351.33 398.97 351.33 405.37C351.33 411.77 351.54 426.04 351.54 426.04C351.54 426.04 354.74 443.52 356.66 449.28C358.58 455.04 360.07 481.28 360.07 481.28C360.07 481.28 364.55 488.53 362.63 491.28C360.71 494.03 370.09 500.02 370.09 500.02C370.09 500.02 364.09 508.34 363.7 513.88C363.31 519.42 411.44 527.29 411.44 527.29L392.69 335.02L377.76 286.85L349.41 289.62Z" fill="#575988"/>
<path opacity="0.1" d="M349.41 289.62L349.84 352.07C349.84 352.07 351.33 398.97 351.33 405.37C351.33 411.77 351.54 426.04 351.54 426.04C351.54 426.04 354.74 443.52 356.66 449.28C358.58 455.04 360.07 481.28 360.07 481.28C360.07 481.28 364.55 488.53 362.63 491.28C360.71 494.03 370.09 500.02 370.09 500.02C370.09 500.02 364.09 508.34 363.7 513.88C363.31 519.42 411.44 527.29 411.44 527.29L392.69 335.02L377.76 286.85L349.41 289.62Z" fill="black"/>
<path opacity="0.1" d="M438.04 544.45C424.11 577.66 390.98 552.03 390.98 552.03C390.98 552.03 390.98 551.39 390.9 550.29C392.82 548.52 393.96 547.29 393.96 547.29L436.39 538.76C436.39 538.76 437.08 541.18 438.04 544.45Z" fill="black"/>
<path d="M438.52 541.58C424.87 576.58 390.98 550.32 390.98 550.32C390.98 550.32 389.91 532.2 392.05 523.89C394.19 515.58 389.7 490.63 389.7 490.63C389.7 490.63 387.14 468.46 384.8 463.35C382.46 458.24 382.67 448 382.67 447.15C382.67 446.3 383.52 439.47 381.6 434.78C379.68 430.09 378.6 418.58 378.6 418.58C378.6 418.58 378.6 402.38 376.68 392.79L370.07 359.79L358.13 292.21L361.86 291.57L428.69 279.85C428.69 279.85 441.27 343.85 437 350.41C436.08 351.85 435.27 355 434.6 359.06C432.16 373.58 431.25 399.65 431.25 399.65C431.25 399.65 439.56 412.65 436.37 421.82C433.18 430.99 439.37 446.12 439.37 446.12C439.37 446.12 441.29 505.81 437.66 511.78C434.03 517.75 438.52 541.58 438.52 541.58Z" fill="#575988"/>
<path d="M432.12 105.23C432.12 105.23 371.58 147.86 385.22 126.54C392.57 115.06 391.22 100.44 388.34 89.4C386.884 83.7848 384.874 78.3281 382.34 73.11C382.34 73.11 433.78 51.23 426.96 70.84C425.362 75.4086 424.682 80.248 424.96 85.08C425.369 92.3436 427.854 99.3372 432.12 105.23V105.23Z" fill="#D28690"/>
<path d="M323.12 202.86C323.12 202.86 297.54 195.47 293.28 202.72C289.02 209.97 294.56 225.88 302.28 228.44C310 231 327.72 219.77 327.72 219.77L323.12 202.86Z" fill="#D28690"/>
<path d="M352.4 190.29L341.74 200.1C341.74 200.1 323.19 201.8 317.86 200.52C317.86 200.52 322.77 233.35 315.73 237.4L358.79 228.66L352.4 190.29Z" fill="#585B8A"/>
<path opacity="0.1" d="M352.4 190.29L341.74 200.1C341.74 200.1 323.19 201.8 317.86 200.52C317.86 200.52 322.77 233.35 315.73 237.4L358.79 228.66L352.4 190.29Z" fill="black"/>
<path opacity="0.1" d="M215.54 49.38C215.54 57.8669 212.169 66.0063 206.168 72.0074C200.166 78.0086 192.027 81.38 183.54 81.38C167.12 73.49 151.54 67.07 151.54 49.38C151.37 45.0746 152.071 40.7792 153.601 36.7513C155.131 32.7234 157.459 29.046 160.445 25.9396C163.431 22.8332 167.013 20.3618 170.978 18.6737C174.942 16.9855 179.206 16.1154 183.515 16.1154C187.824 16.1154 192.088 16.9855 196.053 18.6737C200.017 20.3618 203.599 22.8332 206.585 25.9396C209.571 29.046 211.899 32.7234 213.429 36.7513C214.959 40.7792 215.66 45.0746 215.49 49.38H215.54Z" fill="black"/>
<path d="M215.54 48.52C215.545 56.0457 212.892 63.3314 208.05 69.0922C203.207 74.853 196.486 78.7189 189.072 80.0081C181.657 81.2973 174.026 79.9271 167.523 76.139C161.02 72.3509 156.064 66.3882 153.528 59.3026C150.992 52.217 151.04 44.4636 153.662 37.4097C156.285 30.3557 161.314 24.4544 167.863 20.7464C174.412 17.0383 182.059 15.7618 189.458 17.142C196.856 18.5221 203.529 22.4702 208.3 28.29C212.973 33.9974 215.531 41.1438 215.54 48.52V48.52Z" fill="#FFD6D6"/>
<path opacity="0.1" d="M234.19 244.19C231.024 246.156 227.711 247.875 224.28 249.33C224.28 249.33 208.08 246.98 205.74 249.75C203.4 252.52 182.74 253.59 182.74 253.59C182.74 253.59 151.19 252.1 146.5 248.05C145.05 246.876 143.436 245.919 141.71 245.21L142.23 237.11C142.23 237.11 223.52 231.99 230.06 238.24C231.762 239.976 233.159 241.988 234.19 244.19Z" fill="black"/>
<path d="M238.14 238.46C237.5 242.08 224.28 247.62 224.28 247.62C224.28 247.62 208.08 245.28 205.74 248.05C203.4 250.82 182.74 251.89 182.74 251.89C182.74 251.89 151.19 250.39 146.5 246.34C141.81 242.29 131.36 240.34 131.36 240.34C131.36 240.34 126.03 202.4 128.17 194.09C130.31 185.78 124.97 162.96 123.69 154.86C122.41 146.76 127.31 124.38 133.28 120.76C139.25 117.14 147.78 104.98 152.89 101.36C157.2 98.31 161.96 94.36 163.35 93.17L163.76 92.83C163.76 92.83 164.62 86.22 168.03 82.83C171.44 79.44 202.77 104.36 202.77 104.36C202.77 104.36 202.99 106.28 205.12 102.66C205.6 101.85 209.73 107.81 210.45 110.33C210.45 110.33 227.5 140.18 228.57 146.33C229.64 152.48 234.11 172.55 234.96 177.45C235.18 178.71 235.54 183.13 235.96 189.05C236.04 190.21 236.11 191.44 236.2 192.72C236.83 202.54 237.51 215.08 237.92 224.56C237.92 225.64 238.01 226.68 238.04 227.68C238.256 231.269 238.29 234.867 238.14 238.46V238.46Z" fill="#DCE6F2"/>
<path opacity="0.1" d="M129.89 161.5C129.89 161.5 141.61 175.78 145.45 175.78C149.29 175.78 129.89 161.5 129.89 161.5Z" fill="black"/>
<path opacity="0.1" d="M154.58 192.2C154.58 192.2 135.39 213.09 137.95 216.93C140.51 220.77 154.58 192.2 154.58 192.2Z" fill="black"/>
<path opacity="0.1" d="M140.51 233.77C140.51 233.77 162.51 209.68 163.51 201.37L140.51 233.77Z" fill="black"/>
<path opacity="0.1" d="M168.22 235.47C168.22 235.47 193.59 222.04 195.72 211.38C197.85 200.72 168.22 235.47 168.22 235.47Z" fill="black"/>
<path opacity="0.1" d="M200.41 105.87L196.89 114.39L202.75 117.16L208.51 133.26C208.51 133.26 224.39 165.02 223.75 181.54C223.11 198.06 226.63 222.89 226.63 222.89L235.79 221.19L231.47 172.6C230.797 165.077 228.913 157.712 225.89 150.79C218.57 134.03 204.95 103.09 204.09 103.09C202.92 103.09 203.74 103.52 203.74 103.52L200.41 105.87Z" fill="black"/>
<path d="M201.26 105.01L197.74 113.54L203.61 116.31L209.36 132.41C209.36 132.41 225.24 164.17 224.6 180.69C223.96 197.21 227.48 222.04 227.48 222.04L236.65 220.34L232.32 171.75C231.655 164.227 229.774 156.861 226.75 149.94C219.43 133.17 205.81 102.24 204.96 102.24C203.78 102.24 204.6 102.67 204.6 102.67L201.26 105.01Z" fill="#575989"/>
<path d="M305.07 230.29C300.61 229.95 289.91 224.54 285.66 222.29L283.86 221.29L284.08 204.78C285.131 204.162 286.22 203.611 287.34 203.13C293.02 200.65 304.67 197.28 310.51 208.13C318.39 222.68 310.72 230.67 305.07 230.29Z" fill="#FFD6D6"/>
<path opacity="0.1" d="M208.3 28.29C207.842 28.5769 207.338 28.7833 206.81 28.9C203.1 29.71 198.88 26.52 195.7 28.57C193.76 29.83 193.31 32.44 193.05 34.74C192.597 38.74 192.143 42.7133 191.69 46.6599C191.595 48.065 191.298 49.4491 190.81 50.77C189.24 54.36 184.93 56.05 181 55.99C179.46 56.0996 177.94 55.5963 176.77 54.5899C176.08 53.8899 175.71 52.91 174.95 52.27C169.95 48.08 168.43 58.35 169.75 61.27C171.87 66.04 179.4 70.64 176.24 76.7C175.708 77.6848 174.903 78.4943 173.92 79.0299C169.158 77.5386 164.811 74.9543 161.225 71.4834C157.64 68.0125 154.916 63.7512 153.272 59.04C151.627 54.3288 151.107 49.2982 151.753 44.3501C152.399 39.402 154.193 34.6736 156.992 30.5425C159.791 26.4114 163.517 22.9922 167.873 20.558C172.23 18.1238 177.095 16.7421 182.08 16.5232C187.065 16.3044 192.032 17.2544 196.585 19.2975C201.138 21.3406 205.15 24.4201 208.3 28.29Z" fill="black"/>
<path d="M174.1 52.23C174.85 52.86 175.23 53.84 175.92 54.54C177.091 55.5454 178.611 56.0484 180.15 55.9399C184.08 55.9999 188.39 54.32 189.95 50.71C190.448 49.3947 190.748 48.0131 190.84 46.61L192.2 34.6899C192.46 32.3899 192.9 29.78 194.85 28.52C198.03 26.52 202.25 29.66 205.96 28.85C207.298 28.51 208.455 27.6738 209.198 26.511C209.941 25.3483 210.214 23.9463 209.96 22.59C209.53 20.68 208.07 19.17 207.32 17.35C206.866 15.9515 206.501 14.5252 206.23 13.0799C204.16 5.31995 195.05 0.959957 187.13 2.25996C182.73 2.98996 178.64 5.08996 174.23 5.72996C171.07 6.18996 167.84 5.88996 164.65 6.22996C161.686 6.53578 158.805 7.38674 156.15 8.73995C155.453 9.04838 154.837 9.51385 154.35 10.1C153.897 10.8916 153.592 11.759 153.45 12.66C152.38 16.66 148.94 19.61 146.45 22.98C143.602 26.8574 141.954 31.4851 141.71 36.29C141.612 37.5171 141.727 38.752 142.05 39.9399C142.26 40.6399 142.59 41.32 142.75 42.04C143.24 44.23 142.12 46.42 141.57 48.6C140.887 51.3818 141.133 54.3109 142.27 56.9399C146.11 65.7699 158.76 68.72 161.39 77.99C163.726 79.1097 166.248 79.7878 168.83 79.99C171.41 80.04 174.19 78.93 175.39 76.64C178.54 70.64 171.02 65.9799 168.9 61.2199C167.57 58.2899 169.06 48.03 174.1 52.23Z" fill="#353045"/>
<path opacity="0.1" d="M427.01 70.84C425.412 75.4086 424.732 80.248 425.01 85.08C423.47 86.39 421.79 82.47 420.01 83.48C415.13 86.3 409.49 93.01 403.45 93.01C398.212 93.0134 393.048 91.7763 388.38 89.4C386.924 83.7848 384.914 78.3281 382.38 73.11C382.38 73.11 433.83 51.23 427.01 70.84Z" fill="black"/>
<path d="M436.67 58.05C436.67 64.6283 434.719 71.0587 431.065 76.5283C427.41 81.9979 422.215 86.2609 416.138 88.7783C410.06 91.2956 403.373 91.9543 396.921 90.671C390.469 89.3876 384.543 86.2199 379.892 81.5684C375.24 76.9169 372.072 70.9906 370.789 64.5388C369.506 58.0869 370.164 51.3995 372.682 45.322C375.199 39.2445 379.462 34.05 384.932 30.3954C390.401 26.7407 396.832 24.79 403.41 24.79C407.778 24.7887 412.104 25.6481 416.14 27.3191C420.175 28.9901 423.842 31.44 426.931 34.5287C430.02 37.6175 432.47 41.2846 434.141 45.3204C435.812 49.3563 436.671 53.6819 436.67 58.05Z" fill="#D28690"/>
<path d="M435.25 112.62C435.25 112.62 428.99 119.44 428.14 120C427.29 120.56 409.14 197 408.82 197.89C408.5 198.78 387.21 267.8 387.21 267.8L353.1 284.57L355.95 200.15L380.95 130.53C380.95 130.53 389.2 121.15 391.75 117.74C394.3 114.33 426.14 93.86 426.14 93.86L431.58 105.07L435.25 112.62Z" fill="#F0F3F7"/>
<path opacity="0.1" d="M430.74 106.78L391.52 134.86L390.89 119.44C393.45 116.03 425.28 95.5701 425.28 95.5701L430.74 106.78Z" fill="black"/>
<path d="M431.59 105.07L392.37 133.15L391.76 117.74C394.32 114.32 426.15 93.86 426.15 93.86L431.59 105.07Z" fill="#F0F3F7"/>
<path d="M390.45 110.88L391.76 117.74L382.99 126.65L389.99 110.98C389.99 110.98 374.99 121.43 370.49 124.2C365.99 126.97 361.49 136.35 361.32 138.91C361.15 141.47 354.07 180.05 354.07 180.05C354.07 180.05 348.74 194.33 350.24 198.38C351.74 202.43 342.14 330.12 342.14 330.12C343.423 327.64 345.238 325.474 347.453 323.775C349.669 322.076 352.232 320.886 354.96 320.29L351.54 244.83C351.54 244.83 355.7 194.63 355.91 193.99C356.12 193.35 365.61 164.25 365.61 164.25L390.45 110.88Z" fill="#585B8A"/>
<path opacity="0.1" d="M392.62 118.59L391.94 132.59C391.94 132.59 382.45 162.54 379.26 167.44C376.07 172.34 366.36 201.55 366.36 201.55L360.89 252.29L351.51 256.56L346.89 248.05L354.57 199.05C354.57 199.05 369.06 157.7 371.2 153.43L381.89 130.91L392.62 118.59Z" fill="black"/>
<path d="M391.76 117.74L391.09 131.74C391.09 131.74 381.6 161.69 378.4 166.59C375.2 171.49 365.51 200.7 365.51 200.7L360.07 251.43L350.69 255.69L346 247.17L353.68 198.17C353.68 198.17 368.17 156.81 370.3 152.55L381.07 130.06L391.76 117.74Z" fill="#663D5C"/>
<path d="M281.2 224.6L299.53 237.29C299.53 237.29 312.46 230.04 304.93 225.35C297.4 220.66 290.72 219.95 288.3 219.95C285.88 219.95 281.2 224.6 281.2 224.6Z" fill="#D28690"/>
<path d="M294.89 201.14C294.481 201.395 294.144 201.75 293.911 202.172C293.678 202.594 293.557 203.068 293.56 203.55C293.56 207.44 294 217.74 297.26 213.09C301.26 207.4 300.53 202.29 306.64 205.98C310.438 208.345 313.761 211.397 316.44 214.98L314.74 202.76C314.74 202.76 302.18 196.56 294.89 201.14Z" fill="#D28690"/>
<path opacity="0.1" d="M437.02 350.37C436.1 351.81 435.29 354.96 434.62 359.02C397.24 370.23 369.89 346.53 369.89 346.53C366.581 335.317 363.877 323.934 361.79 312.43C361.12 308.49 361.27 300.85 361.89 291.53L428.72 279.81C428.72 279.81 441.29 343.76 437.02 350.37Z" fill="black"/>
<path d="M475.39 159.58C473.69 165.13 474.33 176.42 474.33 176.42L458.98 248.9C458.98 248.9 451.52 304.75 450.24 312.21C448.96 319.67 446.83 352.5 446.83 352.5C403.34 373.82 369.83 344.83 369.83 344.83C366.522 333.613 363.818 322.227 361.73 310.72C359.59 298.06 365.89 247.34 368.87 224.81C369.76 218.14 370.36 213.94 370.36 213.94L381.55 172.37C381.55 172.37 395.3 137.3 400.42 127.07C405.54 116.84 426.1 93.86 426.1 93.86C428.65 92.24 432.73 97.96 435.76 103.17C438.05 107.11 439.76 110.77 439.76 110.77C439.76 110.77 465.34 121.85 469.17 127.77C473 133.69 472.37 145.89 472.8 146.53C473.23 147.17 477.1 154.04 475.39 159.58Z" fill="#585B8A"/>
<path opacity="0.1" d="M415.07 133.79C415.07 133.79 416.99 145.09 412.07 148.5C407.32 151.8 371.96 221.33 369.76 225.67C370.65 218.99 371.25 214.79 371.25 214.79L382.44 173.23C382.44 173.23 396.2 138.16 401.31 127.92C406.42 117.68 427 94.7099 427 94.7099C429.55 93.0899 433.62 98.8099 436.65 104.02C432.08 113.51 422.55 131.45 415.07 133.79Z" fill="black"/>
<path d="M414.22 132.94C414.22 132.94 416.13 144.24 411.22 147.65C406.31 151.06 371.12 220.47 368.89 224.81C369.78 218.14 370.38 213.94 370.38 213.94L381.57 172.37C381.57 172.37 395.32 137.3 400.44 127.07C405.56 116.84 426.12 93.86 426.12 93.86C428.67 92.24 432.75 97.96 435.78 103.17C431.23 112.65 421.69 130.6 414.22 132.94Z" fill="#585B8A"/>
<path d="M464.95 235.05L452.92 297.64V297.65L451.77 303.64V303.65L449.18 317.12L438.13 314.78L432.98 313.69L361.71 298.59L356.47 297.48L344.51 294.95L346.85 279.41L347.82 272.95L356.45 215.65L464.95 235.05Z" fill="#6C63FF"/>
<path d="M398.44 286.21C398.44 286.21 370.09 296.44 376.27 308.59C382.45 320.74 422.1 299.21 422.1 299.21L398.44 286.21Z" fill="#D28690"/>
<path opacity="0.1" d="M418.69 373.39C418.69 374.24 419.76 385.12 424.02 388.95C428.28 392.78 418.69 373.39 418.69 373.39Z" fill="black"/>
<path opacity="0.1" d="M390.13 411.97C390.13 411.97 395.24 426.04 415.49 431.8C435.74 437.56 390.13 411.97 390.13 411.97Z" fill="black"/>
<path opacity="0.1" d="M436.67 58.05C436.672 63.8968 435.131 69.6408 432.205 74.7024C429.278 79.764 425.068 83.9644 420 86.88C418.09 85.8111 416.395 84.3972 415 82.71C413.55 80.95 412.42 78.55 413.29 76.45C413.99 74.76 415.84 73.6899 416.29 71.9399C416.502 70.8698 416.447 69.7638 416.13 68.7199C415.76 67.0699 415.41 65.4199 415.05 63.7799C414.74 62.3799 414.19 60.73 412.8 60.39C411.41 60.05 410.25 61.21 409.16 62.07C406.49 64.18 401.37 65.61 398.16 63.88C394.95 62.15 395.85 56.36 395.33 53.23C395.324 52.958 395.258 52.6909 395.137 52.4472C395.016 52.2036 394.843 51.9895 394.63 51.82C394.163 51.6649 393.664 51.6305 393.18 51.7199C391.45 51.7199 390.06 50.17 389.56 48.51C389.206 46.8153 389.012 45.091 388.98 43.36C388.79 41.63 388.16 39.8 386.68 38.91C385.498 38.3596 384.186 38.1451 382.89 38.29L376.62 38.36C380.78 32.7365 386.606 28.5676 393.271 26.4458C399.936 24.3241 407.1 24.3576 413.745 26.5415C420.39 28.7254 426.177 32.9487 430.284 38.6107C434.391 44.2728 436.608 51.0854 436.62 58.08L436.67 58.05Z" fill="black"/>
<path d="M410.05 62.07C411.14 61.21 412.34 60.07 413.69 60.4C415.04 60.73 415.62 62.4 415.93 63.78L417.01 68.71C417.33 69.7566 417.388 70.8656 417.18 71.94C416.67 73.7 414.83 74.76 414.12 76.45C413.25 78.55 414.39 80.95 415.83 82.7C418.457 85.8655 422.088 88.0359 426.12 88.85C427.173 89.1029 428.267 89.1268 429.33 88.92C431.71 88.37 433.33 86.18 434.61 84.13C441.22 73.83 446.91 62.54 448.07 50.36C448.388 47.8757 448.273 45.355 447.73 42.91C447.188 41.0096 446.423 39.1802 445.45 37.46C443.748 33.9457 441.586 30.6737 439.02 27.73C434.47 22.83 428.19 19.82 421.74 18.04C414.485 16.0269 406.91 15.4327 399.43 16.29C397.43 16.52 395.51 16.85 393.54 16.98C391.067 17.095 388.588 17.0549 386.12 16.86L371.4 15.98C370.56 17.69 371.4 19.72 372.4 21.32C373.4 22.92 374.64 24.58 374.56 26.48C374.48 28.38 373.13 29.88 372.09 31.48C371.05 33.08 370.26 35.15 371.3 36.71C372.34 38.27 374.46 38.37 376.3 38.35L383.72 38.27C385.013 38.1371 386.317 38.362 387.49 38.92C388.97 39.81 389.6 41.65 389.79 43.37C389.832 45.1004 390.026 46.8237 390.37 48.52C390.88 50.18 392.26 51.75 393.99 51.73C394.474 51.6334 394.976 51.6714 395.44 51.84C395.652 52.0075 395.825 52.2199 395.946 52.4618C396.067 52.7038 396.133 52.9695 396.14 53.24C396.66 56.37 395.7 62.15 398.97 63.89C402.24 65.63 407.38 64.18 410.05 62.07Z" fill="#663D5C"/>
<path opacity="0.1" d="M452.32 127.76C448.643 127.369 444.943 128.241 441.827 130.23C438.71 132.22 436.363 135.21 435.17 138.71C431.17 150.1 424.5 170.65 426.17 178.77C428.52 190.28 431.29 209.47 431.29 209.47C431.29 209.47 443.44 216.47 437.29 223.53C431.14 230.59 429.4 240.59 429.4 240.59C429.4 240.59 421.51 244 419.81 251.25C418.11 258.5 406.59 268.51 406.59 268.51L389.33 285.78C389.33 285.78 417.89 314.78 423.65 316.26L441.34 295.58L462.23 267.87L480.35 248.87C480.35 248.87 484.61 238.87 482.48 219.87C480.35 200.87 472.03 182.78 472.03 182.78L472.67 176.38C472.67 176.38 474.63 130.53 452.32 127.76Z" fill="black"/>
<path d="M454.02 127.76C450.346 127.374 446.651 128.248 443.539 130.237C440.426 132.227 438.082 135.214 436.89 138.71C432.89 150.1 426.22 170.65 427.89 178.77C430.23 190.28 433 209.47 433 209.47C433 209.47 445.15 216.47 439 223.53C432.85 230.59 431.12 240.59 431.12 240.59C431.12 240.59 423.23 244 421.52 251.25C419.81 258.5 408.31 268.51 408.31 268.51L391.04 285.78C391.04 285.78 419.6 314.78 425.36 316.26L443.05 295.58L463.89 267.87L482.01 248.87C482.01 248.87 486.28 238.87 484.14 219.87C482 200.87 473.7 182.78 473.7 182.78L474.34 176.38C474.34 176.38 476.33 130.53 454.02 127.76Z" fill="#585B8A"/>
<path opacity="0.1" d="M436.17 192.63C436.17 192.63 454.29 214.79 461.97 209.89C469.65 204.99 436.17 192.63 436.17 192.63Z" fill="black"/>
<path opacity="0.1" d="M442.99 175.57C444.91 176.21 460.69 198.17 468.79 195.57C476.89 192.97 442.99 175.57 442.99 175.57Z" fill="black"/>
<path opacity="0.1" d="M447.47 213.29C447.47 213.29 448.54 225.87 461.54 224.16C474.54 222.45 447.47 213.29 447.47 213.29Z" fill="black"/>
<path opacity="0.1" d="M390.02 111.83L382.99 127.5L391.77 118.59L390.02 111.83Z" fill="black"/>
<path d="M390.02 110.98L382.99 126.65L391.77 117.74L390.02 110.98Z" fill="#F0F3F7"/>
<path opacity="0.3" d="M361.71 298.59L356.47 297.48L346.85 279.41L347.82 272.95L361.71 298.59Z" fill="black"/>
<path opacity="0.3" d="M452.92 297.65L451.77 303.64V303.65L438.13 314.78L432.98 313.69L452.92 297.65Z" fill="black"/>
<path opacity="0.1" d="M238.01 227.72C235.37 228.16 232.81 228.56 230.47 228.86C217.47 230.57 186.55 215.22 186.55 215.22C186.55 215.22 148.82 183.67 137.95 153.83C127.08 123.99 150.95 119.51 150.95 119.51C159.95 114.39 179.52 128.67 182.29 131.02C185.06 133.37 187.41 139.33 187.19 143.17C186.97 147.01 193.59 151.91 193.59 151.91C193.59 151.91 204.89 171.52 207.66 173.65C210.43 175.78 211.07 177.7 211.92 181.33C212.77 184.96 220.23 187.94 223.43 187.72C226.63 187.5 230.43 188.79 230.43 190.49C230.43 191.86 233.56 192.54 236.13 192.76C236.89 203.69 237.64 218.01 238.01 227.72Z" fill="black"/>
<path opacity="0.1" d="M237.89 224.6C235.89 224.92 233.97 225.21 232.17 225.45C219.17 227.16 188.26 211.81 188.26 211.81C188.26 211.81 150.53 180.26 139.66 150.42C128.79 120.58 152.66 116.1 152.66 116.1C161.66 110.98 181.22 125.26 183.99 127.61C186.76 129.96 189.11 135.92 188.9 139.76C188.69 143.6 195.29 148.5 195.29 148.5C195.29 148.5 206.59 168.11 209.36 170.24C212.13 172.37 212.77 174.29 213.63 177.92C214.49 181.55 221.94 184.52 225.14 184.31C228.34 184.1 232.14 185.38 232.14 187.08C232.14 188.08 233.92 188.75 235.9 189.08C235.98 190.24 236.05 191.47 236.14 192.75C236.8 202.58 237.48 215.12 237.89 224.6Z" fill="black"/>
<path opacity="0.1" d="M287.34 203.13L286.53 222.29H285.66L283.86 221.29L284.08 204.78C285.131 204.162 286.22 203.611 287.34 203.13V203.13Z" fill="black"/>
<path d="M150.95 117.8C150.95 117.8 127.08 122.28 137.95 152.12C148.82 181.96 186.55 213.52 186.55 213.52C186.55 213.52 217.46 228.86 230.47 227.16C243.48 225.46 263.29 220.98 265.85 221.62C268.41 222.26 285.68 222.26 285.68 222.26L286.53 202.26L266.53 201.19L256.3 199.06C256.3 199.06 252.67 196.06 250.54 196.5C248.41 196.94 243.94 193.94 243.94 193.94C243.94 193.94 240.52 191.17 237.94 191.17C235.36 191.17 230.48 190.53 230.48 188.83C230.48 187.13 226.64 185.83 223.48 186.06C220.32 186.29 212.77 183.29 211.89 179.62C211.01 175.95 210.4 174.08 207.63 171.95C204.86 169.82 193.56 150.2 193.56 150.2C193.56 150.2 186.95 145.3 187.16 141.47C187.37 137.64 185.03 131.66 182.26 129.31C179.49 126.96 159.89 112.69 150.95 117.8Z" fill="#DCE6F2"/>
<path opacity="0.1" d="M212.35 186.44C212.35 186.44 203.18 195.61 205.52 197.31L212.35 186.44Z" fill="black"/>
<path opacity="0.1" d="M222.15 193.69C222.15 193.69 210.21 202.86 213.41 203.5C216.61 204.14 222.15 193.69 222.15 193.69Z" fill="black"/>
<path opacity="0.1" d="M201.89 207.29C203.6 208.15 228.96 223.29 238.56 223.07L201.89 207.29Z" fill="black"/>
<path opacity="0.1" d="M203.61 106.08C203.61 106.08 199.13 120.79 197.42 120.79C196.08 120.79 173.58 102.57 164.19 94.91L164.6 94.57C164.6 94.57 165.45 87.96 168.86 84.57C172.27 81.18 203.61 106.08 203.61 106.08Z" fill="black"/>
<path d="M202.75 104.37C202.75 104.37 198.28 119.08 196.57 119.08C195.22 119.08 172.72 100.86 163.33 93.2L163.74 92.86C163.74 92.86 164.6 86.25 168.01 82.86C171.42 79.47 202.75 104.37 202.75 104.37Z" fill="#DCE6F2"/>
<g opacity="0.15">
<path opacity="0.15" d="M142.38 56.83C145.38 63.68 153.64 67 158.43 72.46C155.58 65.75 147.25 62.46 142.38 56.83Z" fill="black"/>
<path opacity="0.15" d="M172.95 72.61C171.76 74.9 168.95 76.01 166.39 75.96C164.114 75.7967 161.886 75.2277 159.81 74.2799C160.563 75.39 161.137 76.6116 161.51 77.8999C163.845 79.0219 166.368 79.7001 168.95 79.8999C171.54 79.9599 174.32 78.85 175.51 76.55C177.42 72.9 175.43 69.78 173.1 66.83C173.534 67.7365 173.747 68.7332 173.721 69.738C173.695 70.7429 173.431 71.7272 172.95 72.61V72.61Z" fill="black"/>
<path opacity="0.15" d="M210.06 22.49C209.63 20.57 208.17 19.06 207.42 17.25C206.961 15.8495 206.597 14.4196 206.33 12.97C205.762 10.9202 204.709 9.03726 203.26 7.47998C203.461 7.97219 203.632 8.47651 203.77 8.98997C204.05 10.446 204.424 11.8823 204.89 13.29C205.64 15.1 207.1 16.61 207.53 18.53C207.783 19.8863 207.511 21.2883 206.768 22.451C206.025 23.6138 204.867 24.4501 203.53 24.79C199.83 25.6 195.61 22.4 192.43 24.46C190.48 25.71 190.03 28.32 189.77 30.62C189.323 34.62 188.87 38.5967 188.41 42.55C188.32 43.9525 188.023 45.334 187.53 46.65C185.96 50.25 181.65 51.94 177.72 51.88C176.184 51.9825 174.67 51.48 173.5 50.48C172.931 49.6748 172.321 48.9004 171.67 48.16C166.67 43.96 165.15 54.23 166.47 57.16C167.131 58.478 167.95 59.7105 168.91 60.83C167.81 57.53 169.35 48.03 174.23 52.1C174.88 52.838 175.488 53.6126 176.05 54.42C177.224 55.4188 178.742 55.9209 180.28 55.82C184.21 55.88 188.52 54.19 190.09 50.59C190.584 49.2708 190.881 47.8858 190.97 46.48C191.423 42.48 191.877 38.5066 192.33 34.56C192.59 32.26 193.04 29.65 194.98 28.4C198.17 26.34 202.39 29.54 206.09 28.72C207.417 28.376 208.564 27.5421 209.301 26.3861C210.037 25.2301 210.309 23.838 210.06 22.49V22.49Z" fill="black"/>
</g>
<path opacity="0.1" d="M431.46 86.37C430.396 86.5683 429.303 86.5411 428.25 86.29C424.223 85.4765 420.596 83.3098 417.97 80.15C416.52 78.39 415.38 75.99 416.26 73.89C416.96 72.2 418.8 71.14 419.26 69.38C419.468 68.3056 419.41 67.1966 419.09 66.15L418.01 61.22C417.7 59.82 417.16 58.17 415.77 57.84C414.38 57.51 413.22 58.65 412.13 59.51C409.46 61.62 404.33 63.06 401.13 61.32C397.93 59.58 398.82 53.8 398.3 50.67C398.291 50.3999 398.224 50.1349 398.104 49.8932C397.983 49.6516 397.811 49.4389 397.6 49.27C397.131 49.1068 396.628 49.0689 396.14 49.16C394.41 49.16 393.03 47.61 392.52 45.95C392.173 44.2543 391.983 42.5305 391.95 40.8C391.75 39.08 391.13 37.24 389.64 36.35C388.465 35.7969 387.162 35.5722 385.87 35.7L378.45 35.78C376.62 35.78 374.45 35.66 373.45 34.14C372.45 32.62 373.19 30.46 374.24 28.91C375.29 27.36 376.62 25.82 376.71 23.91C376.8 22 375.56 20.35 374.55 18.75C373.971 17.875 373.545 16.9079 373.29 15.89L371.16 15.76C370.33 17.46 371.16 19.49 372.16 21.1C373.16 22.71 374.41 24.36 374.32 26.25C374.23 28.14 372.9 29.66 371.85 31.25C370.8 32.84 370.03 34.92 371.07 36.48C372.11 38.04 374.22 38.15 376.07 38.13L383.49 38.04C384.783 37.9149 386.086 38.143 387.26 38.7C388.75 39.59 389.38 41.43 389.57 43.15C389.602 44.881 389.796 46.6053 390.15 48.3C390.65 49.95 392.04 51.53 393.77 51.5C394.255 51.4142 394.754 51.4521 395.22 51.61C395.432 51.7805 395.604 51.9948 395.725 52.2382C395.846 52.4816 395.912 52.7484 395.92 53.02C396.44 56.14 395.48 61.93 398.75 63.67C402.02 65.41 407.12 63.97 409.75 61.86C410.84 61 412.05 59.86 413.4 60.18C414.75 60.5 415.33 62.18 415.63 63.56L416.72 68.5C417.037 69.5474 417.092 70.6565 416.88 71.73C416.38 73.48 414.53 74.55 413.83 76.23C412.96 78.33 414.09 80.74 415.54 82.49C418.183 85.6635 421.838 87.8314 425.89 88.63C426.943 88.8811 428.036 88.9083 429.1 88.71C430.819 88.1861 432.294 87.0654 433.26 85.55C432.714 85.9287 432.104 86.2064 431.46 86.37Z" fill="black"/>
<defs>
<linearGradient id="paint0_linear" x1="296.13" y1="585.85" x2="296.13" y2="0.350016" gradientUnits="userSpaceOnUse">
<stop stop-color="#808080" stop-opacity="0.25"/>
<stop offset="0.54" stop-color="#808080" stop-opacity="0.12"/>
<stop offset="1" stop-color="#808080" stop-opacity="0.1"/>
</linearGradient>
</defs>
</svg>
