<svg width="354" height="366" viewBox="0 0 354 366" fill="none" xmlns="http://www.w3.org/2000/svg">
<g filter="url(#filter0_d)">
<path fill-rule="evenodd" clip-rule="evenodd" d="M189.592 35.4221L90.1841 73.3406L90.184 116.012V192.81C90.184 233.838 134.259 263.545 177.373 292.602C181.418 295.329 185.455 298.049 189.446 300.773C193.437 298.049 197.473 295.329 201.519 292.602C244.632 263.545 288.707 233.838 288.707 192.81V119.458H289V73.3406L189.592 35.4221Z" fill="#1C2468"/>
</g>
<path d="M244.62 135.996C240.87 129.396 217.359 107.293 190.104 139.293C161.481 107.293 139.331 129.396 135.587 135.996C128.77 148.201 132.859 166.679 142.404 175.586L190.11 221.777L237.816 175.586C247.349 166.679 251.438 148.207 244.621 135.996H244.62Z" fill="#F4F8FB"/>
<path d="M82.7978 155.177H21.7822V223.377H82.7978V155.177Z" fill="#CCCCCC"/>
<path d="M53.0946 306.677L52.0463 321.001C51.9989 321.65 52.0907 322.301 52.3156 322.911C52.5405 323.521 52.8932 324.076 53.3502 324.538C53.8073 325.001 54.3579 325.361 54.9654 325.593C55.5728 325.825 56.2229 325.925 56.8721 325.886L64.2327 325.44C64.5738 325.42 64.9061 325.324 65.206 325.16C65.506 324.997 65.7662 324.769 65.9682 324.494C66.1702 324.218 66.3091 323.902 66.3749 323.567C66.4407 323.231 66.4319 322.886 66.349 322.555L62.2632 306.218L53.0946 306.677Z" fill="#191847"/>
<path d="M114.661 315.147C123.324 317.173 129.512 320.052 133.577 323.949C135.025 325.326 136.919 326.138 138.915 326.237C141.465 326.371 143.55 326.085 145.116 325.385H145.117C145.518 325.209 145.865 324.928 146.121 324.572C146.377 324.216 146.533 323.798 146.573 323.361C146.62 322.918 146.548 322.47 146.364 322.063C146.18 321.657 145.89 321.307 145.525 321.051L124.98 306.438L116.253 309.928L114.217 311.963C113.997 312.183 113.83 312.452 113.731 312.747C113.632 313.042 113.603 313.357 113.646 313.665C113.689 313.974 113.803 314.269 113.979 314.526C114.155 314.783 114.389 314.996 114.661 315.147H114.661Z" fill="#191847"/>
<path d="M88.0019 81.2623L29.2754 80.7187C29.4231 72.1684 31.4132 63.7722 35.7634 56.2588C38.6204 51.3243 38.5587 45.954 37.8702 41.4297C36.8077 34.4478 39.2785 27.3042 44.7689 22.8597C48.9647 19.4573 54.2602 17.7059 59.6582 17.9353L60.7985 17.9828C64.5129 18.1371 68.129 19.2217 71.3148 21.137C74.5006 23.0524 77.154 25.7371 79.0313 28.9446C80.9395 32.3688 81.709 36.3108 81.2286 40.2008C80.8564 43.8611 81.7471 47.5586 83.8305 51.2913C87.4248 59.4879 88.2031 69.9764 88.0019 81.2623Z" fill="#2F2E41"/>
<path opacity="0.9" d="M72.6709 73.769L47.1139 72.2662C49.6185 66.5198 50.619 60.9862 49.6195 55.7357H68.662C68.6188 59.7671 70.6257 66.7406 72.6709 73.769Z" fill="#FFBEAA"/>
<path d="M127.293 307.2L115.768 310.205L59.6423 187.98L63.1501 307.2H51.6244C39.3084 251.11 17.0727 186.376 27.0696 165.939L86.7027 162.432L127.293 307.2Z" fill="#191847"/>
<path d="M59.1424 60.7448C67.7219 60.7448 74.677 53.7924 74.677 45.2162C74.677 36.6399 67.7219 29.6875 59.1424 29.6875C50.5628 29.6875 43.6077 36.6399 43.6077 45.2162C43.6077 53.7924 50.5628 60.7448 59.1424 60.7448Z" fill="#FFBEAA"/>
<path d="M88.7078 166.941L32.583 170.949L38.3456 71.5149L48.1175 68.7597L59.1419 71.2643L70.1663 65.7539L77.182 68.259L88.7078 166.941Z" fill="#2F3676"/>
<path d="M42.103 238.573L3.7675 229.807C15.1667 192.021 35.7028 105.577 29.074 74.7708L49.1187 65.7542L42.103 238.573Z" fill="#E6E6E6"/>
<path d="M23.5622 129.372L9.02975 120.355L21.4233 84.0706C22.8056 80.3265 25.4532 77.1829 28.9084 75.1832L33.0834 72.7671L30.5778 109.335L23.5622 129.372Z" fill="#E6E6E6"/>
<path d="M122.032 230.308C109.933 237.306 79.688 241.206 66.4082 236.319C65.431 202.179 63.5146 105.608 69.6655 64.7523L91.7147 73.769L89.7102 100.819C79.1689 123.959 109.779 204.555 122.032 230.308Z" fill="#E6E6E6"/>
<path d="M120.278 124.864L106.747 120.355L88.7072 99.8169L91.7142 73.7688L121.781 115.847L120.278 124.864Z" fill="#E6E6E6"/>
<path opacity="0.9" d="M77.8737 144.361C78.0951 145.332 78.6927 146.176 79.5355 146.707C80.3783 147.239 81.3975 147.414 82.3696 147.196L93.8549 144.596L92.195 137.267L80.7094 139.867C79.7373 140.087 78.8924 140.684 78.3606 141.527C77.8288 142.37 77.6537 143.389 77.8737 144.361Z" fill="#FFBEAA"/>
<path d="M72.6726 41.2086C64.044 37.6619 55.5221 37.4053 47.1156 40.7077L43.6077 28.1846H75.6793L72.6726 41.2086Z" fill="#2F2E41"/>
<path d="M88.2055 135.883L94.72 147.906C105.677 144.851 115.174 135.22 124.286 123.861L121.78 115.846L106.246 119.854L88.2055 135.883Z" fill="#E6E6E6"/>
<path d="M83.4456 111.088H81.4411C81.4411 82.7484 75.6038 62.9991 69.9154 62.9991L69.4142 60.9954C74.5157 60.9954 77.7681 69.2149 79.5981 76.1104C82.0792 85.4585 83.4456 97.8804 83.4456 111.088Z" fill="#3F3D56"/>
<path d="M37.344 104.075H35.3395C35.3395 78.1203 41.2172 61.9971 49.8719 61.9971L49.3708 64.0008C43.3843 64.0008 37.344 76.3921 37.344 104.075Z" fill="#3F3D56"/>
<path d="M82.4443 116.598C85.2119 116.598 87.4554 114.355 87.4554 111.589C87.4554 108.822 85.2119 106.579 82.4443 106.579C79.6767 106.579 77.4331 108.822 77.4331 111.589C77.4331 114.355 79.6767 116.598 82.4443 116.598Z" fill="#3F3D56"/>
<path d="M29.3252 116.097H27.3207C27.3207 108.916 31.3671 103.073 36.3409 103.073V105.077C32.4724 105.077 29.3252 110.021 29.3252 116.097Z" fill="#3F3D56"/>
<path d="M45.3586 116.097H43.3542C43.3542 110.02 40.207 105.077 36.3385 105.077V103.073C41.3123 103.073 45.3586 108.916 45.3586 116.097Z" fill="#3F3D56"/>
<path d="M44.3578 118.603C45.4649 118.603 46.3623 117.706 46.3623 116.599C46.3623 115.492 45.4649 114.594 44.3578 114.594C43.2508 114.594 42.3534 115.492 42.3534 116.599C42.3534 117.706 43.2508 118.603 44.3578 118.603Z" fill="#3F3D56"/>
<path d="M28.3217 118.603C29.4287 118.603 30.3262 117.706 30.3262 116.599C30.3262 115.492 29.4287 114.594 28.3217 114.594C27.2147 114.594 26.3172 115.492 26.3172 116.599C26.3172 117.706 27.2147 118.603 28.3217 118.603Z" fill="#3F3D56"/>
<path d="M3.26576 98.1726L15.7723 100.405L44.3575 141.035L29.1713 137.463L3.26576 98.1726Z" fill="#2F3676"/>
<path d="M1.04771 97.6754C0.857134 97.6783 0.670824 97.7323 0.508275 97.8318C0.345726 97.9313 0.212917 98.0726 0.123711 98.2409C0.0345059 98.4093 -0.00781962 98.5986 0.00118863 98.7889C0.0101969 98.9792 0.0702071 99.1636 0.174918 99.3228L26.8949 139.848C27.044 140.075 27.2743 140.235 27.5385 140.297L39.9705 143.221C40.1801 143.271 40.3997 143.255 40.6003 143.177C40.8009 143.098 40.9729 142.961 41.0935 142.782C41.2141 142.604 41.2776 142.393 41.2756 142.178C41.2736 141.963 41.2062 141.753 41.0823 141.577L11.7454 99.8799C11.6658 99.7663 11.5647 99.6695 11.4476 99.595C11.3306 99.5205 11.2001 99.4698 11.0635 99.4458L1.24812 97.6935C1.18197 97.6817 1.11491 97.6756 1.04771 97.6754Z" fill="#191847"/>
<path opacity="0.9" d="M17.7161 126.651L18.4587 134.128L30.1772 132.965C31.1691 132.867 32.0813 132.378 32.7131 131.608C33.3449 130.837 33.6445 129.847 33.546 128.855C33.4476 127.864 32.9592 126.952 32.1881 126.32C31.4171 125.689 30.4267 125.389 29.4348 125.488L17.7161 126.651Z" fill="#FFBEAA"/>
<path d="M7.52603 125.784C7.54305 128.334 8.56741 130.773 10.3759 132.571C12.1844 134.369 14.6305 135.38 17.1811 135.383H19.108L20.5108 123.697L8.8958 119.517L7.52603 125.784Z" fill="#E6E6E6"/>
<defs>
<filter id="filter0_d" x="55.184" y="0.422119" width="298.816" height="365.351" filterUnits="userSpaceOnUse" color-interpolation-filters="sRGB">
<feFlood flood-opacity="0" result="BackgroundImageFix"/>
<feColorMatrix in="SourceAlpha" type="matrix" values="0 0 0 0 0 0 0 0 0 0 0 0 0 0 0 0 0 0 127 0"/>
<feOffset dx="15" dy="15"/>
<feGaussianBlur stdDeviation="25"/>
<feColorMatrix type="matrix" values="0 0 0 0 0 0 0 0 0 0 0 0 0 0 0 0 0 0 0.25 0"/>
<feBlend mode="normal" in2="BackgroundImageFix" result="effect1_dropShadow"/>
<feBlend mode="normal" in="SourceGraphic" in2="effect1_dropShadow" result="shape"/>
</filter>
</defs>
</svg>
